<svg width="261" height="131" viewBox="0 0 261 131" fill="none" xmlns="http://www.w3.org/2000/svg">
<path d="M27.673 110.107C27.6318 110.696 27.6981 111.317 27.5311 111.867C26.7554 114.424 25.9107 116.96 25.1001 119.506C24.7195 120.702 24.3602 121.904 23.9512 123.234C22.6796 123.379 21.1399 123.402 19.6847 123.764C18.1566 124.143 16.6869 124.797 15.2424 125.443C14.8669 125.611 14.4181 126.247 14.4797 126.58C14.5428 126.92 15.1659 127.341 15.5887 127.398C16.9852 127.588 18.4157 127.805 19.8082 127.696C23.9268 127.372 28.042 126.963 32.1395 126.44C33.3613 126.284 34.513 125.617 35.7127 125.234C36.1013 125.11 36.5477 125.074 36.9552 125.116C39.2275 125.352 41.4966 125.621 43.7659 125.886C45.5662 126.096 46.9379 125.41 47.9718 123.952C50.3171 120.647 52.6599 117.339 55.0318 114.052C57.0009 111.323 58.9888 108.607 61.0171 105.922C61.5115 105.268 62.1607 104.712 62.8047 104.192C63.3994 103.712 63.8668 103.919 63.8683 104.694C63.871 106.03 63.9283 107.388 63.7193 108.697C63.1384 112.337 62.4277 115.957 61.7808 119.587C61.689 120.102 61.6671 120.63 61.6128 121.151L61.9482 121.343C62.2623 121.018 62.5864 120.702 62.8887 120.366C64.6779 118.379 66.4422 116.37 68.2644 114.413C68.6294 114.022 69.2084 113.828 69.9978 113.36C69.9978 114.198 70.0642 114.719 69.9864 115.217C69.6287 117.506 68.4079 119.393 67.0576 121.2C66.0831 122.505 65.0079 123.737 64.058 125.058C63.009 126.518 63.2257 126.962 64.998 127.302C65.1289 127.327 65.2532 127.386 65.3731 127.518C43.6828 128.697 21.9747 128.593 0.271179 128.704C0.258148 128.816 0.245117 128.927 0.232117 129.039C0.569489 129.082 0.907074 129.164 1.24423 129.163C12.859 129.107 24.4754 129.144 36.0879 128.95C46.0289 128.783 55.9655 128.357 65.9034 128.025C67.0979 127.985 68.2869 127.8 69.4802 127.704C70.6989 127.606 71.8353 127.311 73.1456 127.841C74.2363 128.283 75.6566 128.061 76.9104 127.933C82.1075 127.402 87.2966 126.794 92.4891 126.219C93.6901 126.086 94.879 125.794 95.8904 126.915C96.2524 127.316 96.9983 127.474 97.5934 127.548C100.828 127.949 104.069 128.301 107.311 128.638C107.769 128.686 108.254 128.595 108.711 128.497C108.925 128.452 109.28 128.209 109.263 128.108C109.221 127.866 109.044 127.529 108.838 127.453C107.925 127.112 107 126.705 106.046 126.586C103.097 126.218 100.134 125.966 97.1746 125.679C96.6779 125.631 96.177 125.626 95.4121 125.588C95.7591 124.134 96.0716 122.825 96.4238 121.348C97.5589 121.659 98.5686 121.892 99.5497 122.212C103.233 123.414 106.979 124.228 110.881 123.931C112.028 123.844 113.167 123.569 114.294 123.313C115.279 123.089 115.581 122.489 115.106 121.542C113.531 118.407 112.049 115.222 110.383 112.136C107.943 107.616 105.379 103.161 102.853 98.6873C102.55 98.1494 102.152 97.664 101.798 97.1544C101.674 97.2101 101.55 97.2658 101.426 97.3215C101.537 97.7263 101.59 98.1576 101.766 98.5317C103.6 102.427 105.476 106.302 107.287 110.207C107.823 111.363 108.192 112.596 108.637 113.794L108.322 114.011C107.902 113.776 107.476 113.552 107.063 113.306C105.164 112.176 103.285 111.012 101.363 109.924C100.743 109.574 100.029 109.334 99.3275 109.194C98.24 108.978 97.7672 109.494 98.1008 110.535C98.3181 111.213 98.6297 111.905 99.0663 112.46C100.219 113.925 101.462 115.319 102.811 116.907C101.68 116.282 100.725 115.723 99.7408 115.218C98.0453 114.346 97.5276 114.689 97.2579 116.56C97.0592 117.939 96.6486 119.287 96.3097 120.747C95.7149 120.602 95.3097 120.504 95.0679 120.445C95.5788 115.535 96.2098 110.735 96.5475 105.915C96.9922 99.5664 97.2188 93.2025 97.5059 86.8439C97.5464 85.9471 97.4532 85.033 97.3067 84.1459C97.2611 83.8701 96.7942 83.4177 96.59 83.4525C94.8758 83.7449 93.4096 82.9302 91.8365 82.558C89.2534 81.9467 87.8259 80.3005 87.0612 77.8894C86.3509 75.6496 85.5909 73.4256 84.8581 71.1929C84.791 70.9885 84.7147 70.7695 84.7233 70.5606C84.9415 65.2594 83.5287 60.246 82.0195 55.249C81.9581 55.0457 81.9047 54.84 81.8492 54.6409C83.3837 54.0993 83.9426 54.2746 84.5461 55.6278C86.7416 60.5501 88.8432 65.5152 91.1136 70.4026C91.947 72.1967 92.3661 73.9905 92.3692 75.9403C92.3717 77.4567 92.468 78.9745 92.5714 80.4883C92.6 80.9082 92.7011 81.3984 92.9526 81.7081C93.2391 82.0609 93.7397 82.4621 94.1314 82.4465C94.5213 82.431 95.0652 82 95.2323 81.6171C95.5289 80.9374 95.5916 80.1564 95.7708 79.332C96.9746 79.9823 98.1909 80.6506 99.4176 81.2997C101.85 82.5868 104.29 83.8589 106.719 85.1524C106.916 85.2574 107.196 85.484 107.191 85.6455C107.157 86.6 107.848 87.0215 108.512 87.3363C111.094 88.5608 113.718 89.6978 116.306 90.9093C116.669 91.0791 117.143 91.4488 117.193 91.7818C118.673 101.594 119.311 111.42 117.413 121.258C117.243 122.141 117.036 123.046 116.654 123.851C116.347 124.501 115.751 125.015 115.13 125.776C115.331 125.907 115.714 126.24 116.16 126.429C120.877 128.423 125.819 129.521 130.905 130.009C134.245 130.33 137.582 130.331 140.862 129.52C142.911 129.014 144.795 128.229 145.752 126.098C145.862 125.852 146.467 125.713 146.841 125.715C153.809 125.758 160.778 125.878 167.746 125.888C198.272 125.933 228.798 125.947 259.323 125.968C259.626 125.968 259.929 125.911 260.232 125.88C260.228 125.761 260.224 125.642 260.22 125.523C222.187 125.466 184.153 125.408 146.108 125.35C145.951 124.37 145.838 123.66 145.724 122.949C145.611 122.949 145.498 122.949 145.385 122.948C144.863 123.631 144.793 124.392 145.003 125.273C145.097 125.668 145.1 126.298 144.862 126.519C144.058 127.267 143.218 128.185 142.225 128.48C140.264 129.062 138.202 129.492 136.163 129.591C129.579 129.913 123.247 128.581 117.103 126.278C116.867 126.19 116.641 126.071 116.414 125.958C116.32 125.911 116.237 125.842 116.119 125.764C117.628 124.014 117.883 121.828 118.227 119.699C119.576 111.336 119.263 102.972 118.128 94.6145C117.987 93.5787 117.869 92.54 117.732 91.4405C118.001 91.4137 118.219 91.4312 118.408 91.3651C118.814 91.2226 119.205 91.0373 119.603 90.8695C119.366 90.5379 119.194 90.1133 118.878 89.8952C118.327 89.5147 117.688 89.2613 116.947 88.8841V90.4013C113.843 89.9644 107.986 86.8502 107.85 85.5965C110.005 85.2665 110.522 84.7589 110.577 82.5043C110.616 80.8455 110.438 79.1826 110.394 77.5206C110.357 76.0991 110.43 76.1253 111.806 76.1227C114.127 76.1183 116.448 76.0038 118.769 75.9466C119.527 75.928 120.285 75.9437 121.096 75.9437C121.005 78.282 123.146 79.5456 123.925 81.533C124.019 79.473 123.272 77.6593 122.359 75.7245C123.078 75.8639 123.712 75.9867 124.298 76.1003C124.406 75.98 124.499 75.922 124.494 75.8746C124.305 74.1286 125.488 73.6762 126.844 73.4424C129.486 72.9865 132.132 72.5437 134.787 72.1626C135.122 72.1144 135.61 72.3809 135.868 72.6521C137.616 74.4875 138.471 76.7921 139.211 79.1541C139.914 81.3968 140.81 83.5955 141.302 85.8817C141.603 87.279 141.334 88.8065 141.265 90.2729C141.033 95.1856 140.767 100.097 140.538 105.009C140.508 105.655 140.565 106.316 140.676 106.954C140.752 107.391 140.991 107.799 141.158 108.221C141.552 108.055 141.946 107.889 142.364 107.713C142.964 111.929 142.729 116.355 144.301 120.459C144.47 120.454 144.64 120.45 144.81 120.446C144.876 119.982 145.015 119.514 144.995 119.054C144.882 116.525 144.683 113.999 144.624 111.469C144.609 110.808 144.836 110.033 145.21 109.488C148.139 105.22 151.131 100.996 154.1 96.7548C154.328 96.4292 154.525 96.0815 154.726 95.7384C156.534 92.6653 156.538 92.2018 154.304 89.3753C153.161 87.9295 151.855 86.6121 150.666 85.2014C150.43 84.9224 150.395 84.4791 150.255 84.1165C150.042 83.5643 149.956 82.8829 149.575 82.4887C147.513 80.3573 145.446 78.2204 143.244 76.237C141.418 74.593 139.414 73.1444 137.459 71.6473C137.143 71.4052 136.679 71.3421 136.274 71.2317C135.916 71.1341 135.293 71.1759 135.229 70.9975C135.078 70.5803 135.021 69.9622 135.235 69.6167C135.647 68.9536 136.255 68.4046 136.816 67.8413C138.831 65.814 140.93 63.8635 142.868 61.7653C145.157 59.2862 145.742 56.3657 144.464 53.2102C144.112 52.3428 143.405 51.62 142.872 50.824C142.638 50.4744 142.354 50.1333 142.221 49.7447C140.177 43.7758 134.995 42.3084 129.692 43.5771C128.436 43.8775 127.436 44.5906 127.363 46.0876C127.354 46.2601 127.185 46.4954 127.026 46.5794C124.803 47.7515 123.548 49.7728 122.621 51.9357C121.372 54.8502 120.177 57.8174 119.326 60.864C118.398 64.1877 119.37 65.2977 122.818 65.5515C123.535 65.6043 124.259 65.5592 124.793 65.5592C124.633 68.0301 124.494 70.3827 124.322 72.733C124.231 73.983 122.49 75.0463 121.257 74.765C119.471 74.3577 118.32 73.2819 117.574 71.6792C117.299 71.0891 116.989 70.5157 116.71 69.9275C115.889 68.1965 114.855 66.7648 112.88 67.0321C112.711 66.2847 112.601 65.6572 112.42 65.0504C112.287 64.6031 112.059 64.1842 111.88 63.7501C111.483 62.7931 111.616 61.9938 112.339 61.1676C114.029 59.2343 115.705 57.2781 117.232 55.217C118.657 53.2926 119.603 51.1487 119.11 48.6311C118.795 47.0204 118.226 45.646 116.422 45.1756C116.197 45.117 115.916 44.7595 115.896 44.5207C115.785 43.2133 115.032 42.3575 113.93 41.8564C112.782 41.3347 111.563 40.962 110.361 40.5667C107.883 39.7514 105.385 39.0162 103.184 37.5128C102.732 37.2036 101.775 37.1603 101.312 37.434C100.429 37.9564 99.9995 38.9968 100.331 39.9879C100.676 41.0188 101.339 41.944 101.802 42.8019C100.604 44.733 99.1557 46.6518 98.1693 48.7832C97.2557 50.7574 96.6576 52.9248 96.246 55.0693C95.7632 57.5852 96.6337 58.6686 99.1255 59.3024C99.7898 59.4714 100.472 59.5721 100.97 59.6698C101.039 60.6599 101.062 61.5984 101.18 62.5248C101.386 64.1371 101.682 65.7382 101.871 67.3521C101.932 67.8749 101.844 68.4426 101.701 68.9556C101.437 69.9008 100.618 70.249 99.8725 69.6122C98.7879 68.6858 97.6319 67.7204 96.896 66.532C94.2278 62.2232 92.6193 57.4426 91.1708 52.6238C90.9291 51.8199 91.2037 50.8363 91.3382 49.9506C91.6528 47.8783 92.1214 45.8245 92.3327 43.7435C92.4218 42.8659 92.1147 41.9027 91.7922 41.052C91.6666 40.7209 91.0025 40.5925 90.5838 40.3718C90.4613 40.7559 90.3139 41.1343 90.2251 41.5259C90.165 41.7912 90.1873 42.075 90.1598 42.5948C89.1327 41.0699 88.2452 39.732 87.3345 38.41C86.9655 37.8743 86.5774 37.3441 86.1357 36.8688C85.9168 36.6333 85.557 36.5279 85.261 36.3637C85.1434 36.6598 85.0258 36.956 84.9552 37.1338C84.5082 36.9076 83.999 36.6499 83.4897 36.3923C83.3796 37.0017 83.2201 37.6075 83.1757 38.2216C83.1428 38.6755 83.2597 39.1402 83.3413 39.8881C82.7834 39.0429 82.3998 38.4048 81.9513 37.8157C81.8088 37.6286 81.4937 37.5719 81.2576 37.4556C81.1932 37.7137 81.025 37.9983 81.0833 38.2251C81.2862 39.0155 81.5675 39.7858 81.8402 40.6294C81.6922 40.5516 81.6071 40.5082 81.5232 40.4625C81.1059 40.2348 80.689 40.0064 80.272 39.7783C80.2513 40.2792 80.1284 40.8032 80.2357 41.2753C80.3695 41.8637 80.6031 42.4733 80.9525 42.9606C81.7646 44.0932 82.4418 45.2508 82.6477 46.6634C82.7054 47.0592 82.9845 47.4882 83.285 47.7729C85.2216 49.6071 86.2928 51.92 86.9978 54.4181C88.147 58.4902 89.2382 62.5786 90.3492 66.6614C90.3846 66.7915 90.3691 66.9354 90.2154 67.1278C89.7724 66.1259 89.329 65.1242 88.8865 64.1221C87.6007 61.2103 86.2805 58.3128 85.0468 55.3792C84.5471 54.191 83.7745 53.7272 82.5145 53.8424C82.1614 53.8746 81.5542 53.6953 81.4641 53.4604C81.3148 53.0708 81.3371 52.4646 81.5533 52.1116C82.8361 50.0179 82.9134 46.6306 81.386 44.7107C80.3445 43.4015 79.0047 42.3181 77.7312 41.2102C77.4465 40.9626 76.8813 41.0351 76.4453 40.9603C76.5114 41.3853 76.5464 41.8184 76.6551 42.2323C76.7224 42.4886 76.9015 42.7158 77.1413 43.1627C76.6371 42.8986 76.3475 42.6913 76.0246 42.5928C75.6713 42.4851 75.2871 42.4781 74.9163 42.4272C74.9755 42.789 74.9545 43.1908 75.112 43.5033C75.3682 44.0117 75.7411 44.4618 76.1493 45.0606C75.769 44.9683 75.5127 44.8618 75.2535 44.8544C74.9248 44.845 74.5939 44.916 74.2639 44.9524C74.3364 45.2512 74.3995 45.5528 74.4869 45.8472C74.5161 45.9456 74.589 46.0531 74.6734 46.1101C76.2389 47.1681 76.0526 48.8092 76.1319 50.5228C73.7356 50.3922 71.3638 50.3001 68.9995 50.1146C68.1468 50.0477 67.5895 49.5068 67.7211 48.5599C67.9092 47.2059 68.0579 45.8367 68.3979 44.5187C68.5178 44.0539 69.0839 43.5622 69.5637 43.361C70.4901 42.9727 71.5118 42.8165 72.4694 42.4919C72.8245 42.3715 73.1104 42.0483 73.4279 41.8176C73.0471 41.6921 72.66 41.4452 72.2866 41.4641C71.2461 41.517 70.2112 41.6801 69.0296 41.8164C69.6106 39.7664 70.0162 37.7612 71.9298 36.3473C72.3893 37.8093 71.6699 38.9557 71.0455 40.3535C71.9009 39.414 72.5581 38.6922 73.2462 37.9365C74.6971 39.788 77.5934 40.4138 79.2975 39.3767C79.685 39.1408 80.0686 38.4203 79.997 38.0004C79.755 36.5831 79.3569 35.1852 78.9236 33.8095C78.5448 32.6071 77.6858 32.0206 76.3634 32.0734C74.9224 32.1311 73.4773 32.0865 71.9702 32.0865C72.2303 30.7901 72.4966 29.4247 72.7793 28.0625C73.2662 25.7155 72.3766 23.89 70.4426 22.6626C69.1122 21.8182 67.6342 21.1447 66.1403 20.6323C64.4374 20.0483 63.3496 19.0129 62.8521 17.3258C62.6274 16.564 62.4592 15.7857 62.2435 15.021C61.7092 13.1266 61.1622 11.2357 60.6164 9.32957C66.2971 9.09431 72.2387 8.82202 78.1828 8.62373C79.4044 8.58298 80.6367 8.80657 81.8617 8.93097C82.8551 9.03184 83.3239 9.66809 83.3916 10.5997C83.4964 12.0418 83.5209 13.4902 83.6423 14.9306C83.7693 16.4391 83.9807 17.9404 84.1296 19.4474C84.1547 19.7009 84.1427 20.0622 83.9891 20.2115C83.2455 20.9348 82.4477 21.6029 81.4744 22.4624C81.3702 21.4729 81.3598 20.7231 81.1911 20.0106C81.086 19.5669 80.8102 18.9223 80.4858 18.8361C80.1303 18.7417 79.5357 19.0936 79.2175 19.4185C78.799 19.846 78.3965 20.3981 78.2512 20.9641C77.5161 23.8256 76.8639 26.7083 76.1949 29.5864C76.16 29.7367 76.2368 29.9129 76.2999 30.3303C76.8317 28.7731 77.0483 27.3004 77.7972 26.1817C78.5457 25.0636 79.8267 24.2996 80.8796 23.3757C82.3824 25.2752 83.0609 25.4273 84.8051 23.9616C89.6522 19.8885 93.3889 14.9629 95.8376 9.11319C96.1677 8.3245 96.3571 7.44626 96.4428 6.59265C96.7141 3.88959 94.5374 1.86466 91.8753 2.4024C89.624 2.85717 88.0084 4.29178 86.6596 6.0289L86.8412 6.3034C87.087 6.15239 87.3317 5.99959 87.5788 5.8507C88.382 5.36669 89.1423 4.77844 89.9999 4.42516C91.3694 3.86098 92.2779 4.46666 92.3886 5.94742C92.6141 8.96599 91.961 11.8655 90.892 14.6484C90.2892 16.2177 89.4443 17.7158 88.5389 19.1388C88.1432 19.7607 87.3783 20.245 86.6749 20.5416C86.2373 20.7261 85.6009 20.442 85.0164 20.2068C86.4703 18.746 86.3741 17.0001 86.4696 15.3107C86.586 13.2521 86.6531 11.1894 86.8293 9.13594C86.904 8.26606 86.5813 7.94714 85.7878 7.70777C79.8073 5.90355 73.6902 5.35976 67.4855 5.75084C65.027 5.90579 62.5595 6.16232 60.1419 6.61517C58.8904 6.84959 58.5534 6.37691 58.0585 5.43072C57.3315 4.04094 56.5283 2.61339 55.4473 1.50153C53.3682 -0.637151 50.9142 -0.058634 50.0068 2.78045C48.5625 7.29951 48.6784 11.8413 50.4609 16.2702C51.1308 17.9346 52.418 19.199 53.9424 20.0502C56.0828 21.2453 58.3543 22.2079 60.5782 23.2518C60.7729 23.3432 61.031 23.3004 61.5496 23.3446C60.6056 22.2065 59.8139 21.291 59.0657 20.3414C57.8784 18.8347 56.7489 17.2821 55.5435 15.7902C53.1245 12.7962 52.092 9.2268 51.2242 5.58978C50.938 4.38987 51.2809 3.99753 52.4765 4.13569C55.0332 4.43112 56.8322 5.97865 58.3853 7.86117C58.5798 8.09697 58.5509 8.54497 58.5629 8.89677C58.659 11.7166 58.774 14.5366 58.8144 17.3574C58.8432 19.3689 59.6624 20.9776 61.2989 22.0522C63.1101 23.2414 65.047 24.24 66.9262 25.3269C67.8347 25.8524 68.7839 26.3242 69.6316 26.9349C71.6761 28.4078 72.0093 30.0383 70.9858 32.3518C70.7192 32.9545 70.8833 33.7351 70.6827 34.3826C70.5628 34.7698 70.1385 35.0776 69.8163 35.385C69.3212 35.8571 68.7253 36.2402 68.2956 36.7621C65.9253 39.6411 63.579 42.5401 61.2579 45.4588C60.7762 46.0646 60.2917 46.3237 59.4773 46.4114C58.6141 46.5044 57.7805 47.0346 56.9732 47.4495C54.5056 48.7179 52.5184 50.4309 51.7991 53.2554C51.7545 53.4305 51.6632 53.6212 51.6959 53.7843C52.0524 55.565 50.8862 56.22 49.5487 56.8678C47.725 57.751 45.9615 58.7576 44.1202 59.739C41.286 57.9242 38.1736 59.0008 35.0447 59.2088C35.4952 58.1039 36.1386 57.6724 37.3252 57.7333C39.3726 57.8384 41.4664 57.9579 43.4757 57.65C45.7262 57.3051 46.57 56.1346 46.5569 53.86C46.5474 52.21 46.3943 50.5273 46.0338 48.9196C45.2449 45.4022 43.91 42.0887 41.7951 39.1195C41.6184 38.8715 41.583 38.3997 41.6847 38.1003C42.0835 36.9264 41.9089 35.9962 40.8172 35.3835C39.9526 34.8983 38.9612 34.4773 37.9886 34.3721C34.4552 33.9898 31.0549 34.6252 28.1349 36.6772C25.8737 38.2663 24.0986 40.3944 23.0006 42.9932C22.4471 44.3033 22.6061 45.6458 23.0213 46.929C23.5881 48.681 24.2849 50.3913 24.9282 52.1186C25.4328 53.4734 26.0289 54.8019 26.4248 56.1875C26.9284 57.9499 26.8791 59.4606 24.9622 60.6601C21.9323 62.5561 20.495 65.5975 20.081 69.0646C19.7772 71.6092 19.4262 74.1939 19.5602 76.7364C19.9924 84.9416 18.4758 92.8391 16.4674 100.733C14.7296 107.563 13.384 114.493 11.9015 121.386C11.7133 122.262 11.691 123.185 11.7034 124.085C11.7086 124.461 11.9161 124.962 12.2027 125.159C12.3767 125.278 12.9777 125.018 13.2161 124.767C15.0103 122.877 16.7703 120.955 18.5251 119.029C20.8659 116.46 23.1743 113.861 25.5389 111.314C26.0519 110.761 26.744 110.374 27.3536 109.91L27.673 110.107ZM83.8528 42.3007C84.0428 42.3608 84.2329 42.4208 84.4594 42.4924C84.1354 40.6516 83.8246 38.8858 83.5138 37.1201C83.6677 37.0689 83.8215 37.0178 83.9754 36.9666C84.9524 38.5396 85.9294 40.1125 86.9064 41.6855C87.0351 41.6206 87.1638 41.5557 87.2926 41.4908C86.7677 40.2021 86.2428 38.9134 85.718 37.6246C85.8255 37.5659 85.9331 37.5071 86.0406 37.4483C87.4365 39.5294 88.8325 41.6105 90.2284 43.6915C90.3492 43.6572 90.4701 43.6229 90.591 43.5886C90.6817 42.7124 90.7725 41.8363 90.8715 40.8803C91.783 41.7617 92.0574 42.5008 91.8605 43.8187C91.5935 45.6053 91.3045 47.3921 90.9265 49.1579C90.5074 51.1153 90.4868 52.9905 91.2764 54.8902C92.2885 57.3256 93.0353 59.8759 94.1304 62.2703C95.1014 64.3932 96.3557 66.3927 97.5637 68.3995C97.9463 69.0351 98.5827 69.5188 99.1386 70.1101C97.7847 70.249 96.4535 70.3867 95.122 70.5219C94.3292 70.6024 93.9329 70.8744 94.2435 71.7916C94.5078 72.572 94.6081 73.4125 94.7331 74.2336C94.8619 75.08 94.9327 75.9351 95.0289 76.7864C94.7137 76.7012 94.6213 76.5929 94.5609 76.4692C94.2437 75.8198 93.9082 75.1776 93.6269 74.5128C91.1926 68.7604 89.8539 62.675 88.1428 56.7003C87.4807 54.3888 86.6594 52.0872 85.595 49.9362C84.6425 48.0114 82.7368 46.6027 82.4394 44.2706C82.3909 43.8902 81.9289 43.5782 81.7289 43.1975C81.2877 42.3582 80.8918 41.4953 80.4774 40.642C82.0488 41.3886 82.6888 43.0648 84.1329 43.8172C84.2159 43.7505 84.2988 43.6839 84.3817 43.6172C84.2148 43.1698 84.0479 42.7224 83.8797 42.2758C82.7757 41.449 82.3656 40.2224 81.8447 39.0597C81.9409 39.0062 82.037 38.9526 82.1331 38.8991C82.7064 40.0329 83.2796 41.1668 83.8528 42.3007ZM102.109 69.6065C102.017 70.5847 102.717 70.3602 103.188 70.2272C105.658 69.5295 108.162 68.9104 110.561 68.0164C113.24 67.0179 114.871 67.4693 116.142 69.9681C117.205 72.0582 117.95 74.4005 120.577 75.3532C117.435 75.5632 114.362 75.5442 111.29 75.5823C110.789 75.5885 110.292 75.8469 109.566 76.0535C109.637 75.6516 109.72 75.1798 109.796 74.7474C107.023 73.4109 104.126 72.0145 101.117 70.564C101.601 70.1143 101.865 69.87 102.128 69.6258C102.197 68.5155 102.402 67.3927 102.302 66.2978C102.157 64.719 101.79 63.1605 101.519 61.5931C101.318 60.4276 101.678 59.8929 102.847 59.7035C103.382 59.6169 103.935 59.6396 104.472 59.5624C104.657 59.5358 104.82 59.3562 104.992 59.2465C104.417 59.0613 103.921 59.074 103.426 59.0588C102.199 59.0214 100.951 59.0999 99.7498 58.9001C97.054 58.4514 96.293 57.3426 96.7643 54.6556C97.4135 50.9541 98.9215 47.6155 101.253 44.6588C101.645 44.1621 102.121 43.7315 102.533 43.2973C104.121 44.3259 105.742 44.8707 106.239 47.0424C106.665 48.8996 108.032 50.5424 109.001 52.3131C109.096 52.1962 109.258 51.9121 109.497 51.7242C109.803 51.4833 110.17 51.3198 110.51 51.1229C110.709 51.5259 111.107 51.9532 111.061 52.326C110.99 52.8995 110.71 53.5111 110.346 53.9704C109.743 54.7316 108.99 55.3731 108.329 56.0919C108.18 56.2539 108.093 56.5277 108.098 56.7472C108.1 56.8327 108.436 56.9833 108.618 56.9812C112.094 56.9409 114.804 53.83 114.257 50.4172C113.886 48.1075 113.063 45.9393 111.629 44.056C110.254 42.2502 108.445 41.1432 106.123 41.348C104.901 41.4557 103.713 41.9447 102.162 42.3533C101.783 41.6187 101.106 40.6963 100.859 39.6712C100.73 39.1343 101.273 38.3516 101.689 37.8178C101.829 37.6384 102.563 37.7845 102.949 37.9537C104.866 38.7927 106.73 39.755 108.666 40.5442C110.172 41.1582 111.78 41.5189 113.297 42.1103C114.463 42.565 115.29 43.3804 115.415 44.7611C115.444 45.0777 115.83 45.5378 116.138 45.6235C117.546 46.0152 118.188 46.9817 118.52 48.3095C119.009 50.267 118.657 52.1249 117.535 53.6987C115.797 56.1377 113.903 58.4728 111.972 60.7654C111.144 61.748 110.92 62.6982 111.352 63.8503C111.516 64.2898 111.704 64.722 111.905 65.1465C112.433 66.2631 112.214 66.8843 110.997 67.2253C108.044 68.0529 105.072 68.8157 102.109 69.6065ZM72.5912 78.195C72.4593 78.19 72.3274 78.1851 72.1954 78.1801C72.1249 78.365 71.9916 78.5505 71.9936 78.7346C72.0153 80.7191 71.9727 82.7097 72.1199 84.686C72.2606 86.5764 72.773 88.4466 72.8311 90.3345C73.1291 100.023 73.3672 109.715 73.5426 119.407C73.5798 121.458 73.2827 123.517 73.1064 125.57C73.0643 126.059 72.9999 126.567 72.2513 126.58C69.8938 126.619 67.5374 126.751 65.18 126.771C63.8667 126.782 63.703 126.455 64.4731 125.398C65.5811 123.877 66.8022 122.439 67.9109 120.919C69.2447 119.09 70.3631 117.136 70.5416 114.821C70.5815 114.302 70.4121 113.435 70.0969 113.303C69.6585 113.12 68.8351 113.3 68.4509 113.636C67.0664 114.848 65.7669 116.162 64.4955 117.494C63.7438 118.282 63.105 119.176 62.4154 120.023C62.3081 119.654 62.3501 119.375 62.4024 119.099C62.9727 116.079 63.6217 113.071 64.0863 110.035C64.353 108.292 64.4101 106.503 64.3954 104.737C64.3841 103.372 63.5385 102.985 62.4547 103.805C61.6833 104.388 60.9484 105.08 60.3771 105.855C57.8646 109.264 55.4253 112.726 52.9441 116.157C51.036 118.796 49.1443 121.449 47.1538 124.025C46.7086 124.601 45.9178 125.163 45.2233 125.254C42.3642 125.627 39.5787 124.912 36.7242 124.526C38.024 121.861 38.193 120.662 37.7169 117.807C37.4165 116.005 36.9464 115.739 35.2324 116.451C34.6313 116.7 34.0339 116.98 33.481 117.32C31.7844 118.365 30.1065 119.441 28.4285 120.515C27.2531 121.269 26.0896 122.04 24.9207 122.804C24.7943 122.238 24.8525 121.82 24.9892 121.429C25.4309 120.166 25.9577 118.931 26.3483 117.653C26.9916 115.549 27.603 113.432 28.1145 111.293C28.2375 110.779 27.9155 110.159 27.7982 109.588C27.2128 109.778 26.5067 109.823 26.066 110.186C24.981 111.082 23.9584 112.072 23.0169 113.119C19.9172 116.565 16.8706 120.058 13.7866 123.519C13.4008 123.952 12.9133 124.295 12.4729 124.679C12.357 124.622 12.2411 124.565 12.1253 124.508C12.2491 123.272 12.25 122.008 12.5167 120.803C14.3528 112.506 16.1725 104.204 18.1449 95.9392C19.3604 90.8458 20.2201 85.7499 20.0557 80.4877C19.9644 77.5643 20.0947 74.6276 20.2612 71.7046C20.4122 69.0545 20.9098 66.4489 22.2972 64.1219C22.7323 63.3921 23.3639 62.7787 23.9055 62.1119C24.0395 62.2079 24.1736 62.3039 24.3076 62.3999C24.1675 62.6704 24.0408 62.949 23.8846 63.21C23.4803 63.8855 22.9093 64.5047 22.6773 65.2326C21.6453 68.4705 24.356 72.2764 27.7451 72.4154C28.5399 72.448 29.3504 72.4461 30.1342 72.3299C32.2863 72.0111 34.431 71.6401 36.5729 71.2576C38.7858 70.8625 40.9833 70.3751 43.2036 70.0318C44.7684 69.7899 44.842 69.8854 45.0071 71.4916C45.2068 73.4341 45.558 75.3986 45.4244 77.3247C45.3362 78.5976 45.5726 79.7528 45.694 80.9662C45.8701 82.7275 45.9108 84.5043 45.9582 86.2759C46.0364 89.2037 46.2985 92.1498 46.0752 95.057C45.7487 99.307 45.0007 103.523 44.5466 107.765C44.1465 111.503 43.8889 115.257 43.6089 119.007C43.5747 119.466 43.7917 119.943 43.8923 120.412L44.3685 120.436C44.6756 119.616 45.1514 118.818 45.2607 117.974C45.7609 114.106 46.319 110.235 46.5563 106.347C46.9436 100.004 46.3695 93.5956 47.7291 87.322C48.2473 84.9308 47.7446 82.8403 46.6495 80.7626C45.7155 78.9905 45.8283 78.6831 47.4316 77.4407C49.7113 75.6742 51.9798 73.8934 54.2671 72.1077C54.3454 72.3097 54.4615 72.6456 54.6036 72.9702C55.6219 75.2977 57.1905 76.9664 59.858 77.3159C63.0385 77.7327 64.915 75.928 64.5915 72.7618C64.5611 72.4646 64.5409 72.1663 64.515 71.8568C66.0951 72.1829 67.5349 72.5913 69.0016 72.7459C70.0939 72.8611 71.3095 72.8904 72.3132 72.5271C74.0916 71.8833 75.7507 70.9119 77.7958 69.9136C78.871 71.0897 80.0334 72.3295 81.1603 73.6006C83.4669 76.2023 83.3341 75.9715 80.8615 77.9634C78.151 80.1468 75.3329 82.1987 73.4291 85.198C73.4038 85.2379 73.2996 85.2281 73.1419 85.2594C72.9578 82.8977 72.7745 80.5463 72.5912 78.195ZM84.6006 72.2581C84.7566 72.7583 84.8447 73.1072 84.9728 73.4408C85.8655 75.7643 86.7052 78.1112 87.7026 80.3894C87.9973 81.0624 88.6412 81.7822 89.3029 82.0607C91.6593 83.0525 93.9938 84.2314 96.8128 84.0073C96.8708 84.8031 96.975 85.5476 96.9717 86.2916C96.925 96.8248 96.1444 107.309 94.7899 117.752C94.6639 118.723 94.2691 119.66 93.9684 120.721C94.4418 120.847 95.1601 121.037 95.9151 121.237C95.5579 122.698 95.2179 124.088 94.8495 125.595C88.3264 126.226 81.7316 126.871 75.1348 127.493C74.6033 127.543 74.0571 127.44 73.518 127.404C73.4948 127.402 73.4601 127.363 73.4562 127.337C73.4513 127.305 73.4724 127.268 73.4637 127.299C73.878 127.122 74.2507 126.962 74.8984 126.684C74.2177 126.515 73.8912 126.433 73.5881 126.358C73.7233 124.875 73.9169 123.476 73.9684 122.072C74.3842 110.75 73.8085 99.4461 73.2599 88.1433C73.2072 87.0571 73.3115 86.2101 74.0423 85.2154C75.5235 83.1995 77.2623 81.5126 79.1846 79.9635C80.3677 79.01 81.5395 78.0422 82.7062 77.0687C83.4857 76.4184 83.5271 75.6765 82.9211 74.8823C82.5232 74.361 82.1225 73.8419 81.6138 73.1795C83.681 73.9862 83.7949 73.9525 84.6006 72.2581ZM130.109 49.4579C129.986 52.2486 129.666 55.1437 130.023 58.066C131.008 57.4676 131.765 56.8096 132.568 56.2145C132.833 56.0188 133.218 55.9858 133.548 55.8783C133.665 56.242 133.894 56.6104 133.878 56.9685C133.809 58.5936 133.048 59.8225 131.493 60.3992C130.592 60.7332 130.354 61.3355 130.437 62.1672C130.552 63.3169 131.054 64.2687 132.121 64.7843C133.197 65.3041 134.213 64.9301 135.07 64.257C137.063 62.693 138.715 60.8258 139.688 58.4573C140.558 56.3399 140.485 54.2274 139.475 52.1513C137.325 47.7293 133.025 45.4209 128.17 46.0941C128.112 46.1021 128.044 46.0401 127.982 46.0082C128.101 45.0047 128.417 44.6235 129.508 44.1687C133.625 42.4538 138.902 44.3281 140.986 48.2484C141.683 49.5596 141.936 51.1432 143.336 52.0241C143.446 52.0936 143.508 52.2561 143.568 52.3862C144.836 55.1069 145.148 57.7975 143.249 60.3861C142.694 61.1438 142.137 61.9174 141.475 62.5782C139.554 64.4965 137.568 66.3511 135.628 68.2517C134.713 69.1484 133.923 70.1148 134.772 71.4523C131.421 72.0669 128.137 72.6691 125.006 73.2434C125.006 71.4669 124.943 69.626 125.029 67.792C125.083 66.6283 125.488 65.5755 126.883 65.3417C127.13 65.3003 127.373 65.2296 127.618 65.1724C127.492 65.0111 127.366 64.8497 127.24 64.6884C127.003 64.6884 126.735 64.6155 126.534 64.6999C124.871 65.3973 123.175 65.1558 121.503 64.8399C119.809 64.5198 119.329 63.8639 119.606 62.1591C120.39 57.3336 122.261 52.926 125.071 48.9371C125.642 48.1269 126.572 47.5685 127.164 47.0467C128.273 47.9545 129.15 48.6729 130.109 49.4579ZM41.1882 39.2235C41.0235 39.1401 41.1092 39.1553 41.1451 39.2057C44.229 43.5324 46.0183 48.3221 46.058 53.6524C46.0756 56.0128 45.2424 56.9659 42.8669 57.2739C41.0944 57.5036 39.258 57.3737 37.4616 57.2441C36.2402 57.1559 35.3179 57.404 34.7388 58.5212C34.3551 59.2612 33.7159 59.5143 32.9288 59.7147C30.6874 60.2855 28.4791 60.9844 26.247 61.5934C25.8645 61.6978 25.4288 61.6082 25.0177 61.6082C25.1912 61.1567 25.3578 60.9541 25.5726 60.8499C26.8646 60.2226 27.35 59.1115 27.1686 57.8031C26.9869 56.4931 26.6569 55.1839 26.2236 53.9323C25.3494 51.4072 24.2595 48.9525 23.4716 46.4034C23.1722 45.4347 23.1995 44.1975 23.5292 43.2365C24.4094 40.6709 26.2386 38.6667 28.3951 37.1469C31.2724 35.1191 34.628 34.4265 38.1351 34.9322C39.0584 35.0653 39.9874 35.5397 40.7828 36.0573C41.473 36.5065 41.6362 37.2693 40.9728 38.0706C38.1997 35.7675 35.5533 36.6819 32.9803 38.3823C30.7658 39.8458 29.0604 41.8105 27.7038 44.0701C26.7651 45.6336 26.043 47.2879 25.9708 49.1519C25.883 51.4185 27.5914 53.7545 29.8437 54.2893C29.7813 52.179 28.5464 50.0909 29.8787 47.6894C30.2724 49.1308 30.5906 50.2959 30.9088 51.461C31.3011 51.0714 31.4162 50.6692 31.5719 50.2832C32.3411 48.376 33.1262 46.4751 33.895 44.5676C34.2494 43.6885 34.5792 42.7995 34.923 41.9075C36.8755 41.0711 38.9558 40.1798 41.1882 39.2235ZM54.9073 67.3459C55.7217 67.984 56.7468 68.8408 57.8271 69.622C59.9318 71.1439 62.117 71.0083 63.9134 69.1664C66.8115 66.1951 68.5184 62.6372 69.0076 58.5007C69.3542 55.5706 68.4945 53.2971 65.6626 52.011C65.5038 51.9389 65.3668 51.8188 64.9841 51.5644C65.669 50.7825 66.3016 50.0603 66.9342 49.3381C67.2382 50.0697 67.315 50.6365 67.3152 51.2034C67.3156 52.3313 67.899 52.9732 68.9658 53.1415C70.1088 53.3218 71.2635 53.4687 72.4182 53.5251C73.7493 53.5901 75.0862 53.5402 76.5485 53.5402C76.7964 56.145 77.2412 58.7626 77.2391 61.3799C77.237 63.9712 78.5935 66.6922 76.731 69.1677C77.1825 70.134 76.2886 70.1455 75.8137 70.3696C75.0317 70.7387 74.0809 70.8503 73.4194 71.3547C72.0784 72.3771 70.6192 72.5098 69.0872 72.2528C67.6618 72.0137 66.2627 71.6198 64.8515 71.2964C64.5273 71.2221 64.2009 71.1569 63.8025 71.072C63.9092 71.8884 64.0403 72.5276 64.0684 73.1713C64.1768 75.6609 62.8705 76.952 60.3649 76.8455C58.1609 76.7519 56.7132 75.5222 55.5571 73.7515C54.0964 71.5141 54.986 69.1308 54.9073 67.3459ZM98.3637 109.547C99.1547 109.719 99.6292 109.745 100.036 109.925C100.996 110.347 101.956 110.786 102.856 111.319C104.445 112.259 105.975 113.298 107.564 114.237C107.886 114.427 108.427 114.498 108.743 114.354C108.937 114.265 109.005 113.642 108.936 113.297C108.794 112.595 108.573 111.897 108.292 111.236C107.684 109.806 107.029 108.395 106.37 106.987C105.687 105.528 104.976 104.082 104.278 102.631C105.942 104.332 114.497 120.795 114.743 122.628C108.478 124.735 102.668 122.609 96.7613 120.828C97.0035 120.017 97.2412 119.334 97.4074 118.633C97.5737 117.933 97.7121 117.221 97.7849 116.506C97.9148 115.23 98.1884 115.04 99.3663 115.631C100.596 116.247 101.784 116.945 103.013 117.564C103.345 117.731 103.756 117.742 104.131 117.824C104.195 117.722 104.259 117.62 104.323 117.519C102.227 115.089 99.3584 113.206 98.3637 109.547ZM143.823 90.0035C145.92 88.3365 147.862 86.7922 150.004 85.0892C151.599 87.0569 153.295 89.1142 154.949 91.205C155.675 92.1239 155.676 93.1125 155.036 94.1201C154.397 95.1266 153.867 96.2057 153.187 97.1819C150.458 101.097 147.705 104.996 144.924 108.874C144.284 109.766 143.946 110.63 144.073 111.772C144.296 113.78 144.344 115.808 144.456 117.828C144.472 118.118 144.431 118.41 144.416 118.702C144.216 118.567 144.157 118.44 144.143 118.309C143.717 114.433 143.291 110.557 142.886 106.679C142.858 106.41 142.973 106.115 143.062 105.846C143.719 103.858 144.404 101.878 145.046 99.8852C145.641 98.0363 146.194 96.1738 146.771 94.2982C147.858 94.8671 148.829 95.375 149.799 95.8828C149.883 95.7385 149.968 95.5941 150.052 95.4498C149.353 94.5059 148.415 93.8637 147.276 93.4595C146.945 93.3421 146.547 93.2448 146.332 93.0034C145.427 91.9857 144.579 90.9169 143.823 90.0035ZM24.9241 62.6534C25.66 62.6534 26.2318 62.5093 26.6852 62.6793C28.3348 63.2975 29.9117 63.2037 31.3927 62.3087C32.2836 61.7703 33.07 61.0609 33.9104 60.4379C34.1916 60.2295 34.4787 59.9168 34.7904 59.8798C36.8395 59.6363 38.8928 59.3687 40.9515 59.2951C41.8109 59.2643 42.6868 59.689 43.7694 59.9604C43.04 60.6353 42.5583 61.0219 42.1478 61.4729C41.2207 62.4914 41.2904 63.3782 42.3667 64.2549C42.8992 64.6886 43.5054 65.0318 44.0442 65.4586C44.7099 65.9858 45.3403 66.5573 46.0058 67.1266C39.9634 72.0532 28.4722 69.8938 24.9241 62.6534ZM107.43 84.8281C106.745 84.5646 106.218 84.423 105.75 84.1715C102.785 82.5774 99.8251 80.9718 96.8799 79.3407C96.043 78.8773 95.5702 78.1878 95.5816 77.1411C95.5918 76.2094 95.4162 75.2716 95.2768 74.3433C95.1182 73.288 94.9087 72.2403 94.7023 71.0822C96.5538 70.8957 98.2777 70.7015 100.006 70.5684C100.291 70.5465 100.605 70.7744 100.891 70.9173C103.221 72.085 105.548 73.2567 107.872 74.4366C108.155 74.5803 108.552 74.7212 108.653 74.964C109.164 76.1877 109.84 77.4116 109.4 78.8097C108.784 80.7679 108.125 82.7127 107.43 84.8281ZM64.798 52.2936C67.4081 53.22 68.5517 54.6448 68.5238 57.2099C68.4757 61.6465 66.7023 65.4083 63.6937 68.612C61.903 70.5188 59.8738 70.7351 57.9481 68.9775C56.7792 67.9107 55.9901 66.4354 54.9985 65.1684C54.4985 64.5297 54.6744 64.1868 55.3448 63.839C58.4889 62.2075 60.9082 59.8495 62.5028 56.668C63.2428 55.1915 64.0362 53.7415 64.798 52.2936ZM128.046 46.6539C128.852 46.545 129.488 46.3956 130.128 46.3827C134.171 46.3013 138.936 50.2503 139.63 54.2813C139.756 55.0162 139.796 55.8126 139.655 56.5383C139.005 59.9044 136.893 62.27 134.178 64.1827C133.978 64.323 133.712 64.3929 133.466 64.4392C132.415 64.6371 131.467 63.9348 131.062 62.7033C130.735 61.7097 131.009 61.1474 132.04 60.7067C133.658 60.0154 134.42 58.6259 134.37 56.878C134.355 56.3859 134.166 55.6189 133.844 55.4848C133.423 55.3094 132.726 55.5209 132.266 55.7767C131.6 56.1465 131.04 56.7052 130.488 57.1418C130.488 55.0365 130.428 52.9838 130.524 50.9384C130.553 50.3217 131.012 49.7251 131.329 48.9917C130.206 48.7256 128.794 48.3647 128.046 46.6539ZM54.3514 64.5395C54.2041 66.5597 54.0915 68.4912 53.9122 70.4166C53.806 71.5574 53.1995 72.4047 52.2395 73.0734C51.0516 73.9008 49.942 74.8398 48.7946 75.7253C47.9487 76.3781 47.0963 77.0225 46.0966 77.7852C45.891 75.5431 45.7123 73.5025 45.5144 71.4637C45.3362 69.6274 45.3269 69.6283 43.6053 69.3371C46.8747 67.2229 50.2642 65.4481 54.3514 64.5395ZM136.058 72.0235C136.134 71.9292 136.211 71.8349 136.287 71.7406C136.599 71.8582 136.955 71.9148 137.216 72.1026C141.546 75.2204 145.57 78.6831 149.099 82.6933C149.398 83.0335 149.563 83.4909 149.659 83.6607C149.023 83.8195 148.492 83.8649 148.045 84.0817C147.135 84.5228 146.293 85.1031 145.381 85.5379C144.564 85.9274 143.706 86.53 142.806 85.6231C142.723 85.5394 142.44 85.6525 142.286 85.6701C142.213 85.3286 142.156 84.8186 142.098 84.8186C141.095 84.8175 141.252 83.9407 141.067 83.4176C139.681 79.4979 139.123 75.2325 136.058 72.0235ZM31.0137 49.5577C30.8725 49.1106 30.7925 48.6431 30.5795 48.2467C30.3918 47.8975 30.0553 47.6278 29.7846 47.323C29.5007 47.6573 29.0258 47.9629 28.9699 48.3316C28.8203 49.3182 28.7943 50.3338 28.8292 51.3341C28.8523 51.9945 29.0657 52.6484 29.2083 53.3794C26.9876 52.3058 26.0595 50.3281 26.6603 47.9145C27.4462 44.7564 29.3185 42.257 31.6707 40.0863C33.0411 38.8216 34.5686 37.7951 36.4213 37.3626C38.1471 36.9597 39.6707 37.4638 40.4488 38.684C38.4305 40.4128 35.8362 40.8457 33.3222 41.7279C34.3378 42.0499 34.3046 42.63 33.9742 43.3225C32.9992 45.3655 32.0318 47.4121 31.0137 49.5577ZM59.8985 22.3179C59.8458 22.4099 59.7932 22.502 59.7405 22.594C58.0042 21.6802 56.2237 20.8399 54.542 19.8354C52.0152 18.326 50.5085 16.0826 49.9987 13.1565C49.5287 10.4594 49.4289 7.76406 49.9272 5.07564C50.1154 4.05962 50.4394 3.03301 50.9021 2.11127C51.6247 0.671849 52.901 0.362922 54.2733 1.22303C56.1014 2.36872 57.093 4.1257 57.8894 6.36673C57.2016 5.83282 56.7975 5.38399 56.293 5.15442C55.0589 4.59282 53.8168 3.93628 52.5068 3.68175C50.9126 3.372 50.3661 4.08617 50.7271 5.69013C51.5966 9.5544 52.7905 13.2802 55.3443 16.4387C56.9027 18.3661 58.3831 20.3561 59.8985 22.3179ZM59.2304 7.31062C59.6612 7.21481 59.9665 7.11126 60.2786 7.08299C63.8118 6.763 67.3408 6.29366 70.881 6.18214C75.7225 6.02964 80.4976 6.71318 85.161 8.06234C85.7234 8.22505 86.3615 8.27961 86.2918 9.20029C86.082 11.9734 85.9932 14.7559 85.7567 17.5263C85.7037 18.1475 85.2414 18.7339 84.9675 19.3364C84.8231 19.3021 84.6786 19.2678 84.5342 19.2335C84.4172 18.1353 84.2653 17.0395 84.1911 15.9384C84.0723 14.1736 84.0779 12.3978 83.8945 10.6408C83.7232 9.00052 83.3072 8.61946 81.6476 8.36369C80.541 8.19314 79.4077 8.04103 78.2952 8.08793C72.9743 8.31224 67.6544 8.57323 62.3391 8.90089C60.986 8.9843 60.0252 8.57933 59.2304 7.31062ZM77.2696 55.2032C78.7761 56.3906 79.9315 57.6478 80.4908 59.3394C81.6343 62.7982 82.7853 66.2554 83.8423 69.7407C84.0701 70.4919 84.0229 71.3748 83.9072 72.1688C83.7446 73.2851 83.3147 73.5034 82.367 72.8596C80.9059 71.8671 79.5456 70.7255 78.1635 69.6211C78.0031 69.4929 77.9024 69.2009 77.8977 68.9822C77.841 66.3564 77.8578 63.7282 77.7518 61.1047C77.674 59.1781 77.4433 57.2576 77.2696 55.2032ZM54.736 63.5035C54.2027 61.9547 54.3555 59.6105 54.842 58.0873C55.7943 55.1058 57.7746 52.9132 60.1059 50.9665C60.2675 50.8316 60.5667 50.7225 60.7514 50.7757C61.9228 51.1132 63.0799 51.4997 64.3187 51.8945C62.0858 56.6569 59.9093 61.255 54.736 63.5035ZM52.938 61.3031C53.0703 61.2851 53.2026 61.2672 53.3348 61.2492V57.3254C53.4897 57.3057 53.6445 57.286 53.7994 57.2663C53.9057 57.727 54.0982 58.1868 54.1024 58.6484C54.1158 60.1524 54.1006 61.6596 54.0019 63.1594C53.9787 63.5113 53.6573 64.0263 53.3476 64.1474C51.2309 64.9753 49.0807 65.7181 46.9144 66.4981C46.0883 64.4669 45.2502 62.4059 44.3599 60.2169C46.8315 58.8929 49.2068 57.6203 51.6681 56.3018C52.1173 58.071 52.5277 59.687 52.938 61.3031ZM71.9423 28.9592C70.9313 26.6609 68.8441 25.7557 66.8725 24.6944C65.2475 23.8197 63.6006 22.9706 62.052 21.9734C60.3546 20.8803 59.3255 19.3527 59.3326 17.2041C59.3397 15.0729 59.1854 12.9413 59.1124 10.8096C59.0922 10.2201 59.1093 9.62936 59.1093 9.0392C59.2404 9.00024 59.3715 8.96127 59.5025 8.92231C60.0693 10.1801 60.7508 11.4009 61.1729 12.7051C61.672 14.2472 61.8926 15.8766 62.3334 17.4403C62.846 19.259 63.9935 20.4525 65.8605 21.0944C67.42 21.6306 68.9664 22.3421 70.3396 23.2462C72.3485 24.5689 72.8475 26.634 71.9423 28.9592ZM102.885 43.0846C105.398 41.2387 108.477 41.5331 110.466 43.5452C112.346 45.4472 113.261 47.841 113.715 50.398C114.265 53.4889 112.349 55.8419 109.162 56.2051C109.878 55.3008 110.682 54.4258 111.316 53.4423C111.874 52.578 111.864 51.5117 111.008 50.8966C110.571 50.5821 109.718 50.8415 108.904 50.8415C108.306 49.0695 106.515 47.543 106.096 45.3077C106.641 45.2275 106.979 45.1777 107.529 45.0968C105.903 44.3924 104.511 43.7892 102.885 43.0846ZM25.2691 123.188C28.1466 121.338 30.8042 119.595 33.5019 117.916C34.2923 117.424 35.1848 117.085 36.0534 116.732C36.5362 116.536 37.0347 116.574 37.0788 117.26C37.1732 118.727 37.4249 120.218 37.2605 121.659C36.9965 123.974 36.2608 124.415 34.0079 124.157C31.177 123.832 28.3438 123.527 25.2691 123.188ZM24.4345 63.1658C27.4719 68.0756 31.9085 70.0032 37.4447 70.3731C35.5174 71.1621 30.0186 71.9856 27.7735 71.8979C24.8554 71.7839 22.3085 68.3636 23.1237 65.5375C23.3486 64.7576 23.9184 64.0766 24.4345 63.1658ZM14.8549 126.471C16.0824 125.265 17.5338 124.745 19.0497 124.384C22.0547 123.668 25.1071 123.766 28.1493 124.007C30.4056 124.186 32.6505 124.507 35.056 124.783C32.6874 126.7 17.4682 127.96 14.8549 126.471ZM70.761 36.2952C70.8356 35.9878 70.9085 35.6421 71.0035 35.3026C71.4709 33.6333 72.5786 32.7439 74.3266 32.6345C77.9394 32.4077 78.2947 32.6688 79.1408 36.1719C79.819 38.9803 79.2122 39.6586 76.2676 39.2456C75.6201 39.1547 74.6283 38.9224 74.4623 38.4967C74.0069 37.3285 73.4182 37.5028 72.7595 37.9519C72.5812 37.2401 72.4129 36.5687 72.2447 35.8972C71.7871 36.02 71.3295 36.1427 70.761 36.2952ZM69.6158 35.9147C69.7474 35.9976 69.8789 36.0805 70.0104 36.1634C69.9579 36.55 69.9542 36.9512 69.844 37.3207C69.4371 38.6854 68.9994 40.0411 68.5611 41.3963C68.4965 41.596 68.4056 41.897 68.2601 41.9434C67.2281 42.2726 67.4468 43.1535 67.3014 43.9018C67.0239 45.3306 66.6869 46.7478 66.3968 48.0689C64.5571 47.398 62.9811 46.8232 61.2503 46.1921C64.0373 42.7682 66.8266 39.3414 69.6158 35.9147ZM142.114 88.4415C143.503 90.2152 144.835 91.8954 146.132 93.6014C146.267 93.7793 146.284 94.1357 146.214 94.3665C145.309 97.342 144.382 100.311 143.452 103.278C143.322 103.692 143.147 104.092 142.993 104.498C142.89 104.475 142.787 104.452 142.685 104.429C142.494 99.099 142.304 93.7688 142.114 88.4415ZM76.8397 41.6684C76.938 41.5896 77.0363 41.5108 77.1345 41.432C79.2546 42.7371 81.1505 44.324 81.7831 46.8653C82.1996 48.5381 82.1078 50.2937 80.9164 51.8122C80.5061 50.2194 79.6006 49.3459 78.1092 48.6356C76.8268 48.0248 75.9157 46.6396 74.8405 45.5969C74.9155 45.5156 74.9905 45.4343 75.0656 45.3531L78.0309 46.4935C78.0521 46.4048 78.0733 46.3161 78.0945 46.2274C77.2072 45.2319 76.3199 44.2363 75.4326 43.2407C75.5043 43.1611 75.576 43.0814 75.6476 43.0017C76.7527 43.6519 77.8579 44.302 78.963 44.9522C79.0166 44.8565 79.0703 44.7608 79.1239 44.6651C78.3625 43.6662 77.6011 42.6673 76.8397 41.6684ZM90.1149 3.63763C91.6791 2.78201 93.025 2.46976 94.4198 3.35713C95.8753 4.28304 96.2098 5.64835 95.8439 7.22922C95.0313 10.7402 93.0534 13.6402 90.9242 16.4632C90.9816 16.0292 91.128 15.6351 91.2717 15.2401C92.3157 12.3712 93.0272 9.43446 92.9576 6.36109C92.9133 4.40808 92.2779 3.78204 90.1149 3.63763ZM77.1914 53.639C77.2875 53.5009 77.3837 53.3628 77.4799 53.2247C77.8611 53.3519 78.2563 53.4486 78.6204 53.6136C79.1831 53.8686 79.7009 54.3227 80.2812 54.4118C80.9333 54.512 81.3322 54.6456 81.495 55.3403C82.3176 58.8495 83.1904 62.3472 83.9991 65.8595C84.1637 66.5744 84.1285 67.3349 84.1855 68.0744C83.8223 67.6787 83.7171 67.2627 83.5795 66.8576C82.6632 64.1606 81.8375 61.4271 80.7733 58.7891C80.3202 57.6659 79.3591 56.7477 78.6377 55.7301C78.1476 55.0387 77.673 54.3364 77.1914 53.639ZM60.0475 46.874C59.8224 47.2212 59.723 47.4044 59.5959 47.5659C58.2879 49.2289 56.9964 50.9053 55.657 52.5428C54.7354 53.6693 53.6105 54.5591 52.2532 55.2575C51.683 50.9261 56.3739 47.7348 60.0475 46.874ZM67.8505 50.6434C70.1411 50.737 72.3734 50.8283 74.6057 50.9194C76.1694 50.9832 76.3748 51.2084 76.3185 53.0733C74.0865 52.9674 71.8457 52.95 69.6258 52.7265C67.9862 52.5613 67.8435 52.2449 67.8505 50.6434ZM44.4458 119.126C44.2691 119.104 44.0923 119.082 43.9156 119.059C44.5725 112.768 45.2294 106.477 45.8863 100.186C45.9984 100.197 46.1105 100.208 46.2226 100.219C46.0638 106.562 46.1548 112.929 44.4458 119.126ZM108.28 127.826C105.851 128.574 97.3195 127.414 95.9838 126.157C100.228 126.353 104.338 126.413 108.28 127.826ZM93.0217 74.6396C93.5028 75.5356 93.9189 76.4943 94.4991 77.3413C95.1192 78.2467 95.3515 79.1944 95.0543 80.2032C94.868 80.8358 94.4592 81.8833 94.1142 81.898C93.145 81.939 93.0836 80.8951 93.0507 80.1951C92.9647 78.3615 93.0217 76.5213 93.0217 74.6396ZM141.713 93.5296C141.905 97.6556 142.126 101.781 142.254 105.909C142.271 106.458 141.819 107.022 141.584 107.579C141.463 107.546 141.343 107.513 141.222 107.48C140.811 102.819 141.242 98.1757 141.713 93.5296ZM143.002 86.6334C145.128 86.65 146.642 85.4685 148.277 84.5639C148.507 84.4364 148.832 84.4769 149.112 84.4397C149.029 84.6841 149.021 85.0174 148.852 85.159C147.385 86.3851 145.898 87.588 144.394 88.7677C144.141 88.9659 143.774 89.0192 143.366 89.1754C143.236 88.2621 143.129 87.5191 143.002 86.6334ZM80.1865 19.2605C80.3212 19.2803 80.4559 19.3001 80.5906 19.32C80.6957 20.439 80.8122 21.5573 80.8902 22.6783C80.8991 22.8059 80.7165 22.9815 80.5818 23.0787C79.5879 23.7964 78.5836 24.4997 77.3565 25.3675C78.1062 23.0312 78.3045 20.7384 80.1865 19.2605ZM46.3987 66.6055C45.2563 65.755 44.4048 65.0977 43.5293 64.4739C41.5682 63.0767 41.5472 62.5043 43.4422 61.0097C43.5747 60.9052 43.7357 60.8366 43.9655 60.704C44.7547 62.6182 45.5182 64.4699 46.3987 66.6055ZM86.9231 21.3381C86.7465 21.5254 86.5526 21.7856 86.3072 21.9819C85.3509 22.7471 84.4118 23.5412 83.3995 24.2264C82.781 24.645 82.2506 24.3153 81.8477 23.7276C81.4359 23.127 81.8039 22.8301 82.2236 22.4892C83.0044 21.8551 83.7619 21.1924 84.3672 20.6789C85.2979 20.9189 86.0672 21.1173 86.9231 21.3381ZM59.3321 48.799C59.6595 48.3764 60.0406 47.8136 60.5007 47.3247C60.6856 47.1282 61.0897 46.9424 61.3157 47.0104C62.6893 47.4236 64.0472 47.893 65.3909 48.3953C65.581 48.4663 65.6652 48.8189 65.7984 49.0411C65.5786 49.1109 65.3539 49.2534 65.1399 49.239C63.2099 49.1085 61.2818 48.9506 59.3321 48.799ZM32.9344 60.1435C31.2377 62.4389 28.6797 63.1108 26.6428 61.8279C28.8855 61.2275 30.9099 60.6855 32.9344 60.1435ZM60.3676 49.8143C58.8434 51.3805 57.3191 52.9467 55.7909 54.517C56.2198 51.9222 58.1839 49.7058 60.3676 49.8143ZM109.769 79.6816C109.893 79.7023 110.016 79.723 110.14 79.7437C110.045 81.0976 110.053 82.4689 109.824 83.7997C109.639 84.8733 109.035 85.1001 107.982 84.7258C108.578 83.0444 109.173 81.363 109.769 79.6816ZM46.825 89.8479L46.4971 89.8528V81.8369C48.2918 84.4493 47.0397 87.1605 46.825 89.8479ZM60.8096 49.7943C60.8691 49.6323 60.9285 49.4704 60.988 49.3084C62.4455 49.4679 63.903 49.6274 65.5266 49.805C65.1286 50.5169 64.8719 50.9758 64.5611 51.5317C63.3468 50.7217 61.7356 50.9461 60.8096 49.7943ZM54.3436 57.2254C53.5612 56.3443 52.9802 56.5398 52.4523 57.4679C52.405 56.8509 52.3067 56.1177 52.6249 55.8037C53.3486 55.0893 54.2768 54.5807 55.2784 53.8788C54.9509 55.0513 54.673 56.0461 54.3436 57.2254ZM78.4124 52.5216L78.1747 52.8599C77.759 52.6677 77.0434 52.5444 76.9803 52.2713C76.7254 51.1677 76.6716 50.0181 76.5435 48.8855C76.6577 48.8484 76.7719 48.8113 76.8861 48.7743C78.1382 49.6934 77.9705 51.2428 78.4124 52.5216ZM78.1873 49.475C80.0593 49.6421 79.8456 51.1586 80.472 52.259C79.8945 52.3855 79.4644 52.4798 79.0015 52.5813C78.7151 51.4885 78.4636 50.5292 78.1873 49.475ZM80.9152 54.1512C80.1573 53.8727 79.6126 53.6726 79.0679 53.4724C80.629 52.6896 80.6514 52.6974 80.9152 54.1512ZM123.088 78.7136C122.966 78.7685 122.845 78.8234 122.724 78.8783C122.334 78.0741 121.944 77.27 121.554 76.4658C121.703 76.3974 121.852 76.3289 122.002 76.2605C122.364 77.0782 122.726 77.8959 123.088 78.7136Z" fill="#A9C3CC" stroke="#A9C3CC" style="fill:#A9C3CC;fill:color(display-p3 0.6627 0.7647 0.8000);fill-opacity:1;stroke:#A9C3CC;stroke:color(display-p3 0.6627 0.7647 0.8000);stroke-opacity:1;" stroke-width="0.419048"/>
</svg>
