<svg width="100" height="83" viewBox="0 0 100 83" fill="none" xmlns="http://www.w3.org/2000/svg">
<path d="M40.1503 25.9297C38.4426 26.8075 36.3678 26.9833 34.559 27.3954C34.7301 27.7568 35.4003 27.7374 35.9851 27.7178C36.2422 27.7093 36.483 27.7007 36.6576 27.7244C34.7498 28.7281 33.3908 29.9316 32.2744 31.6638C31.5962 32.1407 31.2578 32.958 30.8699 33.6628C30.6342 34.0906 30.2044 34.567 30.4165 35.0186C30.836 34.8708 32.801 31.5461 36.099 30.8464C35.9477 31.0081 34.9962 32.2191 34.7412 32.6531C34.0998 33.7453 33.6567 34.8276 33.2679 36.1015C32.8543 37.4574 32.7423 38.9032 32.5166 39.93C32.4348 40.3008 32.1324 40.6795 32.2971 41.0779C32.6118 40.9599 32.7572 40.5211 32.9162 40.2108C33.4675 39.1358 33.9262 37.9628 34.8046 37.2302C34.8101 37.2928 34.7605 37.3084 34.7525 37.3604C33.2682 40.4078 34.0029 45.5562 34.8204 48.8421C34.9755 48.7735 34.9492 49.1439 35.1061 49.2578C34.9666 46.5465 34.1386 43.8216 34.3855 41.2826C34.6074 39.0038 35.4797 37.0482 36.4744 35.398C35.8433 35.3565 35.2249 35.8988 34.7952 36.3524C34.1424 37.0414 33.7381 38.0824 33.1565 38.5589C33.8297 35.2394 35.7201 32.3365 38.0112 30.4375C38.3266 30.1761 40.7133 29.365 40.4236 28.4811C40.2926 28.7143 40.1687 28.7735 40.0128 28.8286C39.0341 29.1756 37.86 29.2742 36.8118 29.5948C35.5351 29.9851 34.5428 30.6495 33.6048 31.0519C34.4224 29.6749 36.0893 28.714 37.0266 27.6311C38.8854 27.3703 40.1757 26.6277 41.06 25.5408C41.0002 25.5225 40.945 25.5143 40.8933 25.5143C40.5878 25.5143 40.4073 25.7979 40.1503 25.9297Z" fill="url(#paint0_radial_112_504)"/>
<path d="M22.4218 28.6423C22.319 28.652 21.2357 28.9696 20.7644 29.0929C20.496 29.1631 20.0981 29.3535 19.969 29.3468C19.9352 29.3449 19.9748 29.2073 19.8962 29.2271C19.5633 29.3114 19.2639 29.5282 18.9242 29.6213C17.9425 29.8902 16.7724 30.0596 16.0712 30.798C15.8366 30.8312 15.5035 30.781 15.5254 31.0313C15.777 31.3047 16.3282 31.1662 16.663 31.1259C17.663 31.0054 18.7611 30.4731 19.719 30.1208C20.1775 29.9517 20.7586 29.6955 21.3042 29.5504C22.1635 29.3219 23.0984 29.0699 23.8866 28.8982C27.1489 28.1883 30.4299 27.8284 33.9096 27.8835C32.8518 27.7658 31.8091 27.7134 30.7766 27.7134C27.9337 27.7134 25.1731 28.1116 22.4218 28.6423Z" fill="url(#paint1_radial_112_504)"/>
<path d="M7.83105 32.105C7.85328 32.1928 7.9425 32.2019 7.97114 32.2817C8.23847 32.1027 8.62116 32.021 8.74042 31.7164C8.65731 31.7092 8.57389 31.7039 8.49281 31.7039C8.1959 31.7039 7.93123 31.7765 7.83105 32.105Z" fill="url(#paint2_radial_112_504)"/>
<path d="M13.3896 31.7678C13.4631 31.7725 13.4656 31.8607 13.4673 31.9498C13.7725 31.9831 14.2297 32.0265 14.4128 31.9971C14.4944 31.7183 14.88 31.6972 14.9278 31.3899C14.7863 31.3023 14.607 31.2614 14.4194 31.2614C14.0178 31.2614 13.5781 31.4489 13.3896 31.7678Z" fill="url(#paint3_radial_112_504)"/>
<path d="M11.6162 32.362C11.7796 32.9481 12.4821 32.739 13.0238 32.6855C13.0795 32.4834 12.9136 32.542 12.8788 32.4462C12.9742 32.3144 13.2305 32.3192 13.1596 32.0464C13.0185 31.9351 12.861 31.8912 12.7001 31.8912C12.2917 31.8912 11.861 32.1746 11.6162 32.362Z" fill="url(#paint4_radial_112_504)"/>
<path d="M10.1211 33.2345C10.1202 33.4185 10.2779 33.4144 10.2768 33.5981C10.5125 33.3505 10.8267 33.5261 10.9319 33.1676C10.8746 33.0902 10.7755 33.061 10.6642 33.061C10.465 33.061 10.2269 33.155 10.1211 33.2345Z" fill="url(#paint5_radial_112_504)"/>
<path d="M16.9269 33.5481C16.8419 33.5541 16.7194 33.5506 16.5752 33.547C16.2966 33.5404 15.9371 33.5337 15.6123 33.5938C15.6696 33.9594 15.9667 34.0427 16.2248 34.1709C16.6904 33.9277 17.0543 33.5982 17.7425 33.5439C17.6051 33.318 17.295 33.2961 16.9685 33.2938C16.8228 33.3891 17.0563 33.5199 16.9269 33.5481Z" fill="url(#paint6_radial_112_504)"/>
<path d="M13.7773 34.1933C13.9292 34.7253 14.4119 34.64 14.8265 34.7344C14.9897 34.4475 15.3131 34.2966 15.4558 33.992C15.3754 33.9862 15.2995 33.9836 15.2269 33.9836C14.6837 33.9836 14.336 34.1307 13.7773 34.1933Z" fill="url(#paint7_radial_112_504)"/>
<path d="M17.6059 34.1866C17.5436 34.1918 17.5363 34.2436 17.4863 34.2592C17.5003 34.4256 17.5139 34.592 17.5277 34.7582C17.974 35.2539 18.5435 34.9088 18.9825 34.8892C20.1371 34.8385 21.3016 35.1565 22.4058 35.2976C24.6168 35.5804 26.5007 35.9861 28.4778 36.6173C29.4659 36.933 30.4553 37.2811 31.4337 37.4409C27.4797 35.697 23.0055 34.1852 17.8601 34.1853C17.7759 34.1853 17.6906 34.1858 17.6059 34.1866Z" fill="url(#paint8_radial_112_504)"/>
<path d="M30.5955 40.2048C30.5985 40.2845 30.5224 40.2975 30.5484 40.3967C32.3519 43.3367 32.4186 48.3553 32.8813 51.9429C33.2691 49.4713 33.0333 45.4945 32.3026 42.6377C32.1043 41.8622 31.3811 40.1912 30.6996 40.1913C30.6647 40.1913 30.6299 40.1957 30.5955 40.2048Z" fill="url(#paint9_radial_112_504)"/>
<path d="M47.1113 5.73624C41.2693 7.27684 35.9627 9.7683 34.7217 15.6387C35.3044 15.12 35.534 14.2903 35.9341 13.5927C36.1487 13.2186 36.3657 12.9367 36.6052 12.5956C36.8386 12.263 37.1242 11.8749 37.1513 11.6093C37.3878 11.1176 38.5816 10.128 39.2573 9.74075C45.1599 6.35714 51.6729 5.89808 53.6436 3.78368C53.306 4.51524 52.4497 5.0798 51.7873 5.63152C42.6246 7.43179 39.1068 14.6765 38.6027 15.507C40.1275 14.5041 44.868 5.68411 57.8763 5.63184C59.5079 5.62527 61.5957 5.57831 63.1349 4.69601C62.161 6.09623 59.5553 5.78694 58.0986 6.80619C60.5536 6.24742 64.3224 6.09575 66.8386 5.45794C65.9217 6.30987 64.2781 6.88523 62.8672 7.54292C61.5501 8.1571 59.6885 8.24538 58.0502 8.50504C47.7853 10.1314 45.1134 15.7676 45.2472 16.1517C46.2065 15.4303 48.0227 12.0783 55.7366 10.1396C58.4814 9.44962 61.3834 9.5462 64.2266 9.56529C69.4246 9.6002 74.4795 11.9074 79.6876 10.5506C77.5845 11.9411 75.7415 12.4477 73.0037 13.2356C62.3163 10.5114 56.0462 14.8893 55.6699 15.4181C55.9859 15.49 58.6358 14.3649 59.562 14.1679C68.3175 12.3037 75.0198 14.4889 81.3864 16.6876C81.3864 16.6876 84.2129 17.8487 88.0095 17.8366C85.4595 19.7501 81.6136 21.0032 77.7872 21.0019C75.5785 19.9503 73.0246 19.0464 70.2355 18.4859C68.5512 18.1475 66.9456 17.8316 64.9729 17.8526C64.5761 17.857 64.151 17.8463 63.7126 17.836C62.2895 17.8021 60.7272 17.7679 59.5434 18.2375C59.8438 18.4881 60.6265 18.3868 60.9976 18.3687C64.9387 18.1755 69.3624 18.913 72.5615 20.0518C76.821 21.5682 80.3534 23.5635 83.7992 26.1557C86.3449 28.0717 88.5315 31.062 91.9403 32.0131C91.395 32.1094 90.8943 32.1858 90.3243 32.2092C88.9123 32.2671 87.3168 32.1894 86.2668 31.7276C85.4234 31.3562 79.5128 27.1571 79.1587 26.9779C79.5203 27.7147 87.441 33.4669 90.9292 35.7373C90.5822 35.9081 85.4997 33.9286 83.0814 32.6807C83.0995 32.9557 84.8377 34.4341 85.4796 35.1198C87.1264 36.8783 88.4481 39.187 89.5733 41.3734C91.2831 44.6948 92.7785 48.9153 94.926 51.4777C94.3335 51.4246 92.8505 50.37 92.4905 50.1094C92.1552 49.8665 91.7796 49.4265 91.4413 49.5682C91.3671 49.8548 91.7245 50.0492 91.8775 50.2855C92.3673 51.0438 92.7201 52.3254 93.0226 53.5182C93.6426 55.9621 94.0448 58.2446 94.778 60.341C94.0577 59.5669 93.5078 58.6713 92.7589 57.9341C92.3274 57.509 90.8143 55.8474 90.5205 56.6749C90.495 57.1714 90.9015 58.5201 90.9347 58.6494C91.3128 60.1317 92.0597 61.7891 92.7542 63.2075C93.2599 64.2392 93.9877 65.4346 94.5908 66.4458C95.3377 67.6977 97.3812 70.2156 97.5228 70.0331C96.7623 69.0987 96.1284 67.7961 95.4629 67.127C94.3213 64.9165 92.5822 61.5996 92.0572 58.5567C94.0481 60.0262 94.8858 62.0777 96.6014 63.9434C96.9146 64.1461 97.3622 65.0405 97.4709 65.3529C97.5817 64.8043 96.8935 63.729 96.6457 63.2006C96.4202 62.7196 96.2444 62.2915 96.2156 61.7919C95.0099 58.6227 94.7606 55.4008 93.6942 51.7677C94.9142 52.3583 96.5047 52.8986 98.0732 53.1017C98.5969 53.1695 99.1437 53.3672 99.5222 53.1708C99.0226 53.016 98.7384 52.7959 98.7384 52.7959C93.7614 48.4885 91.4412 41.2594 87.6766 35.88C89.7271 36.734 93.5703 37.5211 95.6283 36.593C94.0546 36.5122 92.9087 36.1064 92.1981 35.7858C91.4246 35.4369 90.5667 34.7181 89.8653 34.2559C89.0967 33.7491 88.3078 33.323 87.6689 32.742C88.9751 33.2416 94.2965 34.3734 97.4322 31.6232C97.6022 31.4742 97.8955 31.3603 98.0198 31.1352C92.9492 32.56 85.2816 25.9 84.3055 25.1357C83.7079 24.6671 83.1736 24.2565 83.0059 24.15C82.5693 23.8723 82.1756 23.5319 81.7391 23.2497C80.8026 22.6452 79.6961 22.2692 78.8361 21.5433C79.8022 21.6566 80.7419 21.4956 81.6367 21.2495C81.7574 21.2897 83.4818 21.0086 84.3544 20.7117C87.9612 19.4842 90.436 16.525 93.5503 14.9943C92.3022 14.777 90.6188 16.0675 86.9405 16.2924C83.0734 16.5289 81.1138 15.5241 80.0055 15.1694C79.3467 14.9586 75.6011 13.8276 74.6089 13.6684C81.4403 12.3618 83.7806 7.28217 83.7806 7.28217C82.8308 8.18449 82.2767 8.45355 82.2767 8.45355C80.9109 9.15866 79.0733 9.42709 77.5375 9.59769C76.3896 9.72525 73.9359 9.35055 71.1253 8.97585C68.5335 8.63025 65.6381 8.28466 63.1837 8.33302C64.6436 7.72714 65.9295 7.25383 67.1752 6.49722C68.67 5.58973 70.1099 4.26324 70.6908 2.69227C68.8929 4.50115 64.9762 5.19577 63.1393 5.51178C64.3044 4.57674 65.3773 3.92564 65.8855 2.27234C62.5378 4.9333 57.6261 4.53512 53.0758 5.27435C53.0758 5.27435 55.2243 3.36233 56.8358 0.562065C56.8358 0.562065 52.4549 4.42664 47.1113 5.73624Z" fill="url(#paint10_radial_112_504)"/>
<path d="M38.2547 6.75161C38.9312 5.87386 40.137 5.13931 40.3561 4.06732C39.2153 5.18032 37.6598 5.97089 36.4 7.09297C35.128 8.22523 34.1914 9.63075 33.2012 10.9347C33.418 9.2235 34.8501 8.23493 35.5218 7.10252C33.2045 8.33118 31.9895 10.4004 31.7417 10.7411C30.7458 12.1094 30.629 13.9956 29.68 15.4307C28.9203 14.4121 29.504 13.3127 29.9322 12.3971C27.5763 13.3755 28.2654 16.8099 24.4156 18.133C23.7936 18.3468 23.0651 18.7245 22.4403 19.0175C21.6838 19.3715 20.8408 19.6737 20.3174 20.1672C20.0213 20.4463 19.0201 21.8174 18.8053 22.1027C18.5759 22.4072 18.404 22.7944 18.1915 23.0321C17.8728 23.3879 17.4539 23.3347 16.9922 23.2815C16.7579 23.2546 16.5125 23.2275 16.2636 23.2539C14.5529 23.4347 13.0376 24.9367 10.7183 25.2804C10.52 25.3096 10.3177 25.3053 10.1115 25.301C9.92042 25.297 9.72618 25.293 9.52881 25.3156C8.67235 25.4136 7.80383 25.7529 7.0707 25.9575C5.39361 26.4256 4.34979 27.0179 2.88666 27.7463C2.06243 28.1572 0.970876 28.7814 0.6929 29.3082C0.158704 30.3206 1.36608 31.2794 1.91139 31.907C2.11048 33.3522 2.84299 33.0432 3.13161 32.9992C3.5877 33.4725 3.4315 33.954 3.51445 34.5996C3.82044 36.9771 4.68818 38.1012 6.37857 38.8832C6.81495 39.8184 6.67627 41.4371 7.05082 42.4687C7.49126 43.6808 8.18448 44.9401 8.82479 45.7122C8.43099 44.4238 8.05832 42.5546 8.34021 41.3581C8.55167 41.0865 8.80867 40.6304 8.82432 40.3764C8.87253 40.493 8.92309 40.4302 8.97474 40.3678C9.00573 40.3302 9.03703 40.2928 9.06865 40.2936C8.98319 41.9586 9.48546 43.4113 10.0364 44.4197C10.5564 45.3706 10.9835 46.1279 11.5565 46.868C11.8673 47.2694 12.21 47.7103 12.5793 47.8509C12.6096 47.3399 12.0996 47.1535 12.0818 46.3854C11.0549 44.0232 10.8412 39.413 13.3047 38.3751C13.6762 38.8222 14.1231 39.6116 14.7637 39.3219C15.3519 40.4977 16.0614 41.531 16.2721 43.1524C16.6624 43.2319 16.6361 42.9583 16.8128 42.8566C17.5205 44.1198 18.2038 45.4116 18.5442 47.1081C18.6454 47.1409 18.7142 47.1246 18.7736 47.1082C18.8446 47.0885 18.9021 47.0688 18.9859 47.1345C19.4989 49.4549 19.6305 50.9368 19.5262 52.9277C18.962 53.0946 17.6762 54.3152 17.5195 54.4741C17.291 54.5838 15.6252 56.6096 14.5759 57.6046C13.9215 56.483 13.8417 54.3938 13.9669 53.2605C13.6939 53.4558 13.449 53.8487 13.2906 54.195C12.403 56.1368 12.3987 59.2872 12.9207 61.1305C11.5778 60.4101 10.7068 56.8443 11.1233 55.3154C10.2356 55.8588 9.81743 57.5802 9.84686 58.8731C9.88379 60.4814 10.9534 61.2529 11.1325 62.2823C10.9286 64.4205 9.72133 66.0602 10.7431 68.2153C11.1532 69.0812 12.7274 70.2239 12.7406 71.1265C12.8331 70.9395 12.7988 71.138 12.7917 71.3363C12.7861 71.495 12.7978 71.654 12.9065 71.6149C13.2795 71.1531 13.422 70.3353 13.1732 69.5214C13.7971 70.2109 14.5832 70.9586 14.7607 72.0273C14.9085 72.9171 14.3554 73.6487 14.4626 74.5C15.3842 73.6768 15.4932 72.1644 15.8579 70.8695C16.8645 72.1035 18.1786 73.1699 17.8074 75.4799C18.3438 74.6393 18.5244 73.6823 18.1116 72.3161C17.8517 71.4555 17.0907 70.739 17.2721 69.7484C17.4798 70.3702 18.1024 70.5019 18.669 70.7003C18.79 70.9458 18.8997 71.2035 19.2138 71.2204C18.946 70.4646 18.4397 69.9904 18.2857 69.1001C19.0456 69.5086 19.954 70.0126 20.9869 69.8819C21.4118 70.3382 21.8382 70.793 22.5184 70.9481C22.5804 70.6258 22.2087 70.6938 22.046 70.5476C21.229 69.8151 20.8886 68.0749 21.1714 66.7905C21.2537 67.2485 21.5071 67.6628 21.7156 68.0641C21.905 68.4282 22.0443 69.0364 22.5516 69.0621C22.2354 67.652 22.3038 65.7249 22.6801 64.5318C22.7864 64.9611 23.0585 65.3559 23.3389 65.6703C23.6037 65.9671 23.9368 66.3942 24.2784 66.4091C24.1103 64.8901 24.6499 63.4789 25.6065 62.7215C26.7463 63.3157 27.233 64.6794 27.8741 65.8613C27.3734 67.1176 26.8768 68.2798 26.8732 69.7104C26.8662 72.7589 28.4514 76.2198 28.0757 78.9646C27.9616 79.7983 27.6345 81.2094 27.3975 82.1592C27.7683 81.6103 28.2573 80.1565 28.2928 80.0766C29.2759 77.87 28.3888 73.5767 28.0358 70.87C28.098 70.8061 27.9685 68.2106 28.3872 67.5139C29.0748 68.9276 29.6697 70.4394 30.1231 72.5809C30.0975 68.8454 29.01 65.6149 27.7633 62.2296C26.2474 58.1132 26.9599 53.4921 28.2161 49.4494C27.4916 50.1478 27.0886 51.3993 26.7743 52.5184C26.4124 53.8072 26.1014 55.7216 26.069 56.908C26.026 58.4796 26.1723 59.9776 26.3921 61.5894C26.1427 60.5445 25.0991 61.444 24.7865 61.9101C24.178 62.8178 23.8598 64.5655 23.5677 65.4005C23.0441 64.5908 23.2122 63.5534 23.3364 62.5946C22.7911 62.426 22.6741 63.164 22.5355 63.5395C22.1511 64.5783 21.9714 65.9109 21.8933 67.1704C21.7469 66.4521 21.3152 65.6423 21.1418 64.9101C21.0011 64.3166 21.0057 63.4609 20.2285 63.7298C20.5635 66.0081 20.0496 67.6024 20.5768 69.4762C19.6144 69.5563 18.9884 68.6609 18.64 68.0663C18.4031 67.6622 18.2802 67.1073 17.9914 67.0525C17.4978 67.7204 17.9428 69.135 17.9736 69.8791C17.6393 69.4753 17.4924 68.8501 17.2214 68.3717C16.9745 68.3554 16.8639 68.4556 16.733 68.5374C16.9401 69.9451 16.9105 70.8897 17.5094 71.8634C16.3954 70.9498 15.8125 69.1026 15.5026 67.3206C15.378 66.6041 15.3992 66.1651 14.995 65.7303C14.6765 65.6479 14.4909 65.8343 14.3295 66.0363C14.391 66.4884 14.5062 67.3562 14.5726 67.4603C14.8695 68.829 15.6451 70.1826 15.2287 71.6121C15.0963 71.2084 15.1295 70.8171 15.0115 70.4998C14.5699 69.3131 13.5682 69.0455 12.8833 68.2898C12.6374 68.0187 12.6756 67.6446 12.3126 67.4584C12.0414 68.2 12.7022 69.2269 12.7777 70.0566C11.6412 68.8971 10.6578 65.7971 11.7182 64.0546C11.9453 64.18 12.3788 64.2512 12.6064 64.1699C13.8736 64.7442 15.2946 64.752 16.8352 64.4488C17.4585 64.0219 17.9676 63.4169 18.5457 63.1153C19.4984 61.5874 19.9526 60.0762 21.0849 58.8884C21.1332 59.0363 21.3317 59.0077 21.4741 59.0446C22.5968 57.8311 23.6989 56.6001 24.4757 55.0933C24.5375 55.1799 24.5452 55.3307 24.7405 55.26C24.907 54.7051 25.4069 54.4333 25.5677 53.8736C25.0041 52.121 24.3442 50.4826 23.9931 48.4792C24.038 48.2517 24.2246 47.9802 24.0041 47.8504C23.8404 47.7506 23.7765 47.873 23.7169 47.9954C23.6586 48.1149 23.604 48.2345 23.4635 48.1462C23.622 47.5923 23.2543 46.9199 23.3819 46.3951C23.2637 46.3901 23.1792 46.4726 23.1063 46.5548C23.0141 46.6587 22.9404 46.7625 22.8413 46.6911C22.7521 45.9559 23.0715 45.392 22.9989 44.7946C22.8607 44.6944 22.8299 44.8063 22.7801 44.9179C22.7428 45.0018 22.6948 45.0855 22.583 45.0801C21.8814 43.9747 22.2046 41.9303 21.3032 40.9801C20.9044 41.2726 21.1332 41.7434 20.7621 42.0287C20.6751 40.7228 20.114 39.3197 19.3732 38.1258C18.6169 36.9072 17.9091 35.7248 16.6471 36.2789C16.4172 36.1399 16.1129 36.0883 15.9824 35.8314C16.371 35.722 16.819 35.84 17.0321 35.6195C15.9462 35.3423 13.8938 35.5013 12.8292 35.6522C13.3602 36.3252 14.8363 35.8842 15.4676 36.4389C14.6598 37.2369 13.5745 36.8723 12.6772 36.8572C12.7363 36.9748 13.0189 37.1782 12.9577 37.211C12.1564 37.2438 11.417 37.2039 10.9212 36.8765C10.8583 36.6522 10.6144 36.2839 10.3864 36.4813C10.2729 36.7517 10.7475 36.9622 10.7803 37.4532C9.53273 37.3643 8.92903 36.6625 8.14237 35.913C8.06161 36.2545 8.39875 36.3288 8.25616 36.5314C7.47764 36.81 6.5941 36.6453 6.10028 36.2697C5.15601 35.5512 5.05787 33.8809 4.44057 32.8912C4.29125 34.2798 5.02829 35.7423 5.52805 36.9446C4.2025 36.4559 4.28514 34.3063 3.74985 32.8853C3.85707 32.7829 3.95239 32.6705 4.03581 32.548C3.10516 31.89 1.85724 31.6059 1.52338 30.2439C3.30096 28.4229 6.47108 26.4638 9.57498 25.8767C10.3429 25.7316 10.9563 25.7645 11.5419 25.7977C12.0096 25.8241 12.4598 25.8504 12.9572 25.7861C14.4317 24.7623 16.3397 23.8459 18.1855 23.723C18.8673 23.6778 19.5251 23.7701 19.9836 23.4491C20.6677 22.9706 20.9319 21.3269 21.6432 20.7385C24.8283 18.1035 29.5267 17.8866 30.3695 16.9433C31.8275 15.312 32.4675 11.5885 32.6656 11.2927C32.5169 12.2891 32.325 13.9312 32.9381 14.5972C33.2917 11.3531 35.253 8.67662 37.3923 6.94819C36.7678 7.91891 35.7439 9.53559 35.8874 10.7758C37.3011 9.05508 38.7055 7.32665 41.0504 6.39553C41.1951 6.29896 41.0791 6.26765 41.1595 6.198C42.7775 5.60339 44.5942 4.78433 46.393 4.19739C44.7404 5.95446 42.5156 6.38285 40.8885 7.47581C41.4403 7.35623 42.4449 7.10878 43.2788 6.77665C44.8069 6.16873 46.2663 5.27548 47.209 4.193C47.5821 3.76462 47.8009 3.22791 48.1609 2.79623C48.5469 2.33341 49.1155 1.95699 49.2273 1.26455C46.6679 3.96558 41.4615 4.52483 38.2547 6.75161ZM28.7198 14.4429C29.1355 15.2271 29.2142 16.4675 28.4891 16.9727C28.7649 16.298 28.7092 15.3424 28.7198 14.4429ZM11.4244 37.6512C12.024 37.742 12.4892 37.9917 13.2632 37.8762C13.0055 38.3099 12.2145 37.9795 11.8605 38.3686C11.9808 38.0227 11.5216 37.9483 11.4244 37.6512ZM14.7598 37.7528C16.0663 37.6311 17.3325 37.8283 17.8033 38.883C17.749 38.9915 17.5441 38.9726 17.4395 39.0386C17.4707 38.8951 17.6012 38.7107 17.4658 38.5968C17.068 38.6268 16.8908 38.8441 16.6186 38.9805C16.0179 38.3495 15.2309 37.5745 14.3799 38.4748C14.145 38.1141 13.5673 38.025 13.3256 37.8708C13.8548 37.7329 14.3668 37.6741 14.7078 37.8827C14.8039 37.8527 14.6441 37.7772 14.7598 37.7528ZM7.6254 38.7804C8.21328 38.3272 9.13 38.6119 9.56419 37.93C10.444 38.1429 10.6653 38.0731 11.6783 38.4464C10.5803 39.7544 10.2303 42.5055 10.9453 44.7839C10.4498 44.1824 9.86924 42.8132 9.6703 41.4994C9.48561 40.2809 9.71241 39.279 9.72994 38.4186C9.3075 38.5437 9.35977 39.0715 9.25115 39.4625C8.98084 39.3855 8.88224 39.5133 8.4407 39.5295C8.38874 39.18 8.39437 38.7625 8.00495 38.812C7.89836 39.1289 7.81713 39.8483 8.10246 39.9967C7.96175 40.9009 7.67094 41.9246 7.63776 42.7342C7.20045 41.652 6.78724 39.4268 7.6254 38.7804ZM22.3893 52.6291C22.5433 52.6763 22.9271 52.6583 22.7839 52.8474C22.9111 52.8728 22.9496 52.8228 22.9881 52.7728C23.0215 52.7292 23.0549 52.6856 23.1476 52.692C23.0502 53.2902 22.1825 53.7269 21.9047 54.3638C19.3533 56.1526 18.286 58.9477 18.1649 59.2545C17.9509 59.7954 17.3794 60.7145 16.9781 61.6121C16.0176 61.035 15.5385 59.8898 14.9907 58.8255C16.2522 56.7766 17.6513 54.5561 19.9568 53.5826C19.4359 54.226 18.5455 54.6912 18.3132 55.7269C19.4427 54.7321 20.6849 53.3301 22.3893 52.6291ZM14.0783 62.2279C13.1261 60.7192 12.7343 57.7179 13.2943 55.764C13.5806 58.5057 14.824 60.481 15.9439 62.0112C15.5612 62.2074 15.1293 62.367 14.7066 62.367C14.4923 62.367 14.2802 62.326 14.0783 62.2279ZM10.5762 57.0553C11.0292 58.7784 11.4831 60.5005 12.4579 61.6085C10.5961 61.5422 10.1939 58.7784 10.5762 57.0553ZM12.4205 62.6783C12.7584 62.5094 13.1203 62.9012 13.5064 62.9031C13.3856 62.9428 13.2613 62.961 13.1408 62.961C12.8403 62.961 12.5629 62.8481 12.4205 62.6783Z" fill="url(#paint11_radial_112_504)"/>
<path d="M29.9998 20.0498C29.9929 20.0434 29.8227 20.0293 29.6869 20.0609C28.0754 20.4353 20.9264 23.8848 17.9879 25.8738C15.8973 25.6514 13.8737 26.3656 12.3137 27.0947C11.9454 27.2667 11.5206 27.37 11.2949 27.6811C11.3524 27.8945 11.5979 27.8862 11.8434 27.8779C11.9958 27.8727 12.1484 27.8676 12.2559 27.9154C13.6947 27.0402 15.5686 26.0446 17.6399 26.2163C17.4686 26.2839 14.4071 28.1485 15.8399 28.75C16.024 28.6935 16.0377 28.4927 16.3232 28.5218C17.0538 27.5176 18.0053 26.7002 19.1985 26.0878C20.5467 24.6015 22.5188 23.6444 24.3711 22.5854C24.0959 23.0482 23.6628 23.3769 23.4088 23.8572C23.5209 24.2953 23.8787 24.4432 24.0521 24.8087C23.9151 25.0986 23.9034 25.4946 23.8226 25.832C23.3758 25.6916 22.4478 25.4101 22.1083 25.5966C22.1169 25.9083 22.6246 25.9105 22.7575 25.8569C23.6844 26.1484 24.3236 26.4065 25.3441 26.7738C25.6606 26.1887 26.3612 25.877 27.1324 25.6218C28.1552 25.2834 29.2444 25.3824 30.3225 25.4846C30.2187 25.0823 29.7384 25.1243 29.3461 25.0628C28.4903 24.7172 26.8815 24.409 25.4553 24.3165C25.2643 24.0631 24.8148 24.1142 24.6038 23.8845C24.2239 23.0703 25.2989 22.4127 25.5094 21.9266C26.8412 21.2082 28.1435 20.7964 29.5168 20.2782C29.8977 20.134 30.3654 20.0969 30.6651 19.7438C30.3712 19.7843 30.1117 19.8546 29.9998 20.0498ZM24.9303 24.799C24.8838 24.8757 24.8619 24.9732 24.8935 25.1161C24.8104 25.123 24.7273 25.1297 24.6442 25.1366C24.6115 24.9158 24.707 24.8032 24.9303 24.799ZM25.8237 24.9767C26.2188 25.1487 26.8991 24.9848 27.169 25.3049C26.3479 25.3946 25.5744 25.7542 24.9239 26.2437C24.6299 26.2249 24.4814 26.0355 24.2122 25.9882C24.1745 25.7049 24.2811 25.544 24.3481 25.3496C24.4964 25.5497 24.7682 25.6511 25.0381 25.6511C25.4381 25.6511 25.8345 25.429 25.8237 24.9767Z" fill="url(#paint12_radial_112_504)"/>
<path d="M13.3611 29.1383C12.7797 29.0001 11.9151 29.0893 11.5889 29.7237C12.2012 30.5249 13.098 29.5567 13.4856 29.128C13.9598 29.495 14.7258 28.8007 15.0658 28.4955C14.9842 28.4826 14.8991 28.4765 14.8116 28.4765C14.1783 28.4765 13.4413 28.796 13.3611 29.1383Z" fill="url(#paint13_radial_112_504)"/>
<path d="M31.5587 48.8548C31.659 51.103 31.4084 53.3577 30.8259 55.1928C30.9079 56.0845 30.3414 56.5201 30.2575 57.4365C30.2651 57.5397 30.1389 57.6448 30.2106 57.6287C31.3042 56.0387 31.8346 53.7274 32.0394 51.6402C32.2031 49.9723 32.186 48.1154 31.7997 46.4496C31.677 45.9196 31.6466 45.1783 31.1051 44.8747C31.1849 46.1416 31.4955 47.4374 31.5587 48.8548Z" fill="url(#paint14_radial_112_504)"/>
<path d="M40.9586 19.7114C40.6676 19.8452 39.7293 20.3365 39.001 20.7959C38.6647 21.008 37.4022 21.91 36.8469 22.5116C35.6747 23.7811 35.1865 23.5342 35.271 23.8211C35.4504 24.0056 35.6346 24.0648 35.858 24.0865C36.8511 24.1836 37.4812 23.7466 37.9214 23.2258C39.0209 21.9255 40.9879 20.3453 42.6573 19.7596C44.1996 19.2185 45.6175 19.4863 47.0553 19.7541C47.9034 19.912 48.7585 20.0701 49.6502 20.0617C48.3652 19.4533 46.4458 19.0372 44.5699 19.0372C43.2699 19.0372 41.9905 19.2373 40.9586 19.7114Z" fill="url(#paint15_radial_112_504)"/>
<path d="M7.61009 28.6748C6.38581 28.8726 2.53468 29.6557 2.93192 31.3203C3.03053 31.7341 3.99546 32.2326 4.57286 32.1893C5.32336 30.8925 5.66614 29.2498 7.90591 29.2151C8.07167 28.4666 8.64155 28.0605 9.08653 27.5485C9.0042 27.5546 9.02048 27.4441 8.95161 27.4342C8.60696 27.9149 7.73171 28.1908 7.61009 28.6748Z" fill="url(#paint16_radial_112_504)"/>
<path d="M9.1709 30.86C9.91937 31.4341 11.1111 30.8374 11.1147 30.0719C11.0609 30.0466 10.9931 30.035 10.9151 30.035C10.4348 30.035 9.56673 30.4762 9.1709 30.86Z" fill="url(#paint17_radial_112_504)"/>
<path d="M19.5059 36.6667C19.8128 36.8795 20.4235 36.9264 20.3207 37.4157C20.995 37.6198 20.9994 38.1161 21.0571 38.7358C22.9727 40.5069 23.8718 43.4582 25.2648 45.608C25.2025 45.6132 25.1864 45.5634 25.135 45.5556C25.4493 45.8533 25.5817 46.305 25.8979 46.4346C24.8835 43.477 23.7733 40.7088 22.1488 38.2693C22.1383 38.1444 22.1282 38.0197 22.1178 37.8951C21.5166 37.2363 20.7253 36.8015 19.9216 36.3813C19.72 36.4227 19.5229 36.4688 19.5059 36.6667Z" fill="url(#paint18_radial_112_504)"/>
<mask id="mask0_112_504" style="mask-type:luminance" maskUnits="userSpaceOnUse" x="-14" y="-8" width="132" height="94">
<path d="M-13.9053 -7.28132H117.866V85.8901H-13.9053V-7.28132Z" fill="white" style="fill:white;fill-opacity:1;"/>
</mask>
<g mask="url(#mask0_112_504)">
<path d="M40.6347 51.3721H43.2606L39.6455 40.8946V39.5517C39.6455 39.3329 39.7868 39.1149 40.0692 38.896L40.0492 38.9114C40.1971 38.7967 40.332 38.7112 40.4533 38.6536C40.5746 38.5969 40.709 38.5681 40.8568 38.5681H46.1484V41.3349L45.1794 40.616H42.3922L46.0883 51.2062V52.4868C46.0883 52.5811 46.0678 52.6801 46.0278 52.7841C45.987 52.8883 45.923 52.9869 45.8356 53.0807C45.7483 53.1743 45.6372 53.2499 45.5027 53.3075C45.3676 53.3644 45.2063 53.3931 45.0177 53.3931H39.625V50.6687L40.5541 51.3721H40.6347Z" fill="#1D418C" style="fill:#1D418C;fill:color(display-p3 0.1137 0.2549 0.5490);fill-opacity:1;"/>
</g>
<path d="M40.856 38.8626C40.7597 38.8626 40.6758 38.8801 40.5994 38.9156C40.5076 38.9595 40.3957 39.0315 40.2689 39.1285C40.1325 39.2356 39.9668 39.3975 39.9668 39.5522V40.8497C39.9962 40.9353 43.6994 51.6665 43.6994 51.6665H40.437C40.437 51.6665 40.143 51.4443 39.9463 51.2954V53.0996H45.0168C45.1568 53.0996 45.2745 53.0797 45.3667 53.0409C45.4584 53.0016 45.5315 52.9523 45.5892 52.8907C45.6509 52.8243 45.6961 52.7553 45.7237 52.6853C45.7509 52.6144 45.7652 52.5473 45.7652 52.4873V51.2525C45.7351 51.1661 41.9507 40.3226 41.9507 40.3226H45.2928C45.2928 40.3226 45.605 40.5539 45.8254 40.7172V38.8626H40.856Z" fill="url(#paint19_linear_112_504)"/>
<mask id="mask1_112_504" style="mask-type:luminance" maskUnits="userSpaceOnUse" x="-14" y="-8" width="132" height="94">
<path d="M-13.9053 -7.28132H117.866V85.8901H-13.9053V-7.28132Z" fill="white" style="fill:white;fill-opacity:1;"/>
</mask>
<g mask="url(#mask1_112_504)">
<path d="M46.3164 38.5681H50.886L50.058 39.5057V51.3993H51.8711V39.4905L51.0024 38.5681H55.5932L54.7246 39.4894V52.4555L55.8551 53.3931H49.9091C48.0664 53.3931 47.1449 53.1016 47.1449 52.5183V39.5057L46.3164 38.5681Z" fill="#1D418C" style="fill:#1D418C;fill:color(display-p3 0.1137 0.2549 0.5490);fill-opacity:1;"/>
</g>
<path d="M51.7042 38.8626C51.9093 39.0803 52.1931 39.3817 52.1931 39.3817V51.6939H49.7357V39.4024C49.7357 39.4024 50.0096 39.092 50.2123 38.8626H46.9902C47.1928 39.092 47.467 39.4024 47.467 39.4024V52.5188C47.467 52.8824 48.38 53.0996 49.909 53.0996H55.0213C54.7665 52.8883 54.4023 52.5861 54.4023 52.5861V39.381C54.4023 39.381 54.6861 39.0797 54.8906 38.8626H51.7042Z" fill="url(#paint20_linear_112_504)"/>
<mask id="mask2_112_504" style="mask-type:luminance" maskUnits="userSpaceOnUse" x="-14" y="-8" width="132" height="94">
<path d="M-13.9053 -7.28132H117.866V85.8901H-13.9053V-7.28132Z" fill="white" style="fill:white;fill-opacity:1;"/>
</mask>
<g mask="url(#mask2_112_504)">
<path d="M59.4706 40.6976V44.6191H60.0325C60.3813 44.6191 60.6794 44.5543 60.9274 44.4243C61.1756 44.294 61.3759 44.1302 61.53 43.9316C61.6846 43.734 61.7976 43.5182 61.8721 43.2834C61.9454 43.0491 61.9823 42.8228 61.9823 42.6038C61.9823 42.3742 61.9454 42.1454 61.8721 41.9161C61.7976 41.6866 61.6805 41.4813 61.5203 41.2991C61.359 41.1167 61.1512 40.9707 60.8965 40.8616C60.642 40.7524 60.327 40.6976 59.9529 40.6976H59.4706ZM59.4115 45.7071V52.4715L60.2385 53.3931H55.6699L56.4982 52.4715V39.5057L55.6699 38.5681H60.0419C63.7866 38.5395 64.3881 40.863 64.4689 41.1443C64.5508 41.4255 64.7389 42.8242 64.365 43.629C64.1632 44.0629 63.1216 46.0264 60.3772 46.5662L59.4115 45.7071Z" fill="#1D418C" style="fill:#1D418C;fill:color(display-p3 0.1137 0.2549 0.5490);fill-opacity:1;"/>
</g>
<path d="M60.162 38.8626H56.3428C56.5453 39.092 56.8195 39.4024 56.8195 39.4024V52.5772C56.8195 52.5772 56.548 52.8794 56.3501 53.0996H59.5572C59.3595 52.8792 59.0884 52.5768 59.0884 52.5768V45.0101C59.0884 45.0101 60.2247 46.0209 60.4445 46.2167C63.1468 45.4268 63.8705 43.9048 64.0716 43.5066C64.2656 43.1192 64.6518 40.8763 63.1028 39.6879C62.0879 38.9092 60.5885 38.8616 60.2374 38.8616C60.1886 38.8616 60.162 38.8626 60.162 38.8626ZM59.1479 40.404H59.9521C60.3725 40.404 60.7364 40.4686 61.033 40.5958C61.331 40.7236 61.5791 40.8984 61.7702 41.115C61.9563 41.326 62.094 41.5677 62.1801 41.8331C62.2624 42.0901 62.3036 42.349 62.3036 42.6043C62.3036 42.8483 62.2624 43.1041 62.1811 43.3647C62.0961 43.6328 61.9649 43.8807 61.7916 44.1028C61.6116 44.3348 61.3744 44.5288 61.0868 44.6796C60.7912 44.8348 60.4359 44.9134 60.0316 44.9134H59.1479V40.404Z" fill="url(#paint21_linear_112_504)"/>
<mask id="mask3_112_504" style="mask-type:luminance" maskUnits="userSpaceOnUse" x="-14" y="-8" width="132" height="94">
<path d="M-13.9053 -7.28132H117.866V85.8901H-13.9053V-7.28132Z" fill="white" style="fill:white;fill-opacity:1;"/>
</mask>
<g mask="url(#mask3_112_504)">
<path d="M68.512 45.9195V51.3721H70.4518L71.4408 50.6376V53.3931H64.8011L65.629 52.4547V45.9466H64.6797L65.629 43.9657V39.5195L64.8011 38.5681H71.4408V41.2747L70.4518 40.6024H68.512V43.8578H71.7039L70.5519 45.9195H68.512Z" fill="#1D418C" style="fill:#1D418C;fill:color(display-p3 0.1137 0.2549 0.5490);fill-opacity:1;"/>
</g>
<path d="M65.4677 38.8626C65.6738 39.0999 65.9502 39.4174 65.9502 39.4174V44.0275C65.9502 44.0275 65.4188 45.1361 65.1709 45.6531H65.9502V52.559C65.9502 52.559 65.676 52.8695 65.4733 53.0996H71.1175V51.2565C70.8866 51.428 70.5651 51.6665 70.5651 51.6665H68.1889V45.6259H70.3534C70.4715 45.4144 70.9059 44.637 71.1766 44.1524H68.1889V40.309H70.5575C70.5575 40.309 70.8807 40.5287 71.1175 40.6895V38.8626H65.4677Z" fill="url(#paint22_linear_112_504)"/>
<mask id="mask4_112_504" style="mask-type:luminance" maskUnits="userSpaceOnUse" x="-14" y="-8" width="132" height="94">
<path d="M-13.9053 -7.28132H117.866V85.8901H-13.9053V-7.28132Z" fill="white" style="fill:white;fill-opacity:1;"/>
</mask>
<g mask="url(#mask4_112_504)">
<path d="M76.1751 44.619C76.5274 44.619 76.8279 44.5542 77.0782 44.4241C77.328 44.2939 77.5341 44.13 77.6964 43.9314C77.8593 43.734 77.977 43.518 78.0516 43.2834C78.1257 43.0491 78.1641 42.8226 78.1641 42.6037C78.1641 42.374 78.1257 42.1452 78.0516 41.9159C77.977 41.6866 77.8593 41.4811 77.6964 41.2989C77.5341 41.1166 77.3209 40.9705 77.0577 40.8614C76.7938 40.7522 76.4724 40.6974 76.0943 40.6974H75.6078V44.619H76.1751ZM78.621 45.6592L81.4297 52.268H81.409L81.5106 52.4554L82.6216 53.3931H78.8227V52.6116L75.5479 46.0179V52.4713L76.3756 53.3931H71.7861L72.6349 52.4713V39.5055L71.7863 38.568H76.1959C76.2904 38.568 76.3641 38.5725 76.4186 38.5814C76.6481 38.5919 76.8941 38.6128 77.1566 38.6442C77.1566 38.6442 80.427 38.8932 80.7613 41.8857C81.0439 44.4158 78.621 45.6592 78.621 45.6592Z" fill="#1D418C" style="fill:#1D418C;fill:color(display-p3 0.1137 0.2549 0.5490);fill-opacity:1;"/>
</g>
<path d="M76.195 38.8626H72.4697C72.676 39.0906 72.9562 39.4004 72.9562 39.4004V52.5792C72.9562 52.5792 72.6784 52.8808 72.4769 53.0996H75.6941C75.4962 52.8792 75.2249 52.5772 75.2249 52.5772V46.0184L75.8405 45.897L79.1441 52.5485V53.0996H81.7974C81.546 52.8875 81.2473 52.6348 81.2473 52.6348L81.1128 52.387L81.1285 52.3751L78.2277 45.55C81.0291 43.9781 80.4071 41.4904 80.4071 41.4904C79.7189 39.0202 77.0429 38.859 76.3562 38.859C76.2532 38.859 76.195 38.8626 76.195 38.8626ZM75.2849 40.404H76.0936C76.5163 40.404 76.8851 40.4678 77.19 40.5941C77.4982 40.722 77.7524 40.8968 77.9458 41.1141C78.1333 41.3241 78.2729 41.5661 78.3597 41.8328C78.4431 42.0906 78.4853 42.3499 78.4853 42.6043C78.4853 42.8472 78.4434 43.1034 78.3604 43.3656C78.2748 43.6351 78.1377 43.8854 77.953 44.1091C77.766 44.3379 77.5248 44.5302 77.237 44.68C76.9388 44.8351 76.5815 44.9134 76.1744 44.9134H75.2849V40.404Z" fill="url(#paint23_linear_112_504)"/>
<mask id="mask5_112_504" style="mask-type:luminance" maskUnits="userSpaceOnUse" x="-14" y="-8" width="132" height="94">
<path d="M-13.9053 -7.28132H117.866V85.8901H-13.9053V-7.28132Z" fill="white" style="fill:white;fill-opacity:1;"/>
</mask>
<g mask="url(#mask5_112_504)">
<path d="M77.071 54.6106C77.0092 54.6113 70.8926 54.7508 70.2215 60.1937C70.2143 60.2504 69.5755 66.0051 77.6722 67.5282L81.0508 68.1157C81.0508 68.1157 80.922 63.5806 80.9139 63.2965C81.0406 63.192 81.8204 62.5498 81.8204 62.5498L77.4105 62.1331C77.4105 62.1331 77.4731 64.6797 77.4878 65.2776C76.5242 65.0419 73.9552 64.0846 73.9552 60.562C73.9552 60.4994 73.9562 60.4359 73.9577 60.3717C74.2936 56.6703 76.9067 56.6793 77.0178 56.6813C77.0178 56.6813 79.6838 56.7056 79.837 56.707C79.9524 56.7729 80.9899 57.3665 80.9899 57.3665L80.9103 54.6106H77.071Z" fill="#1D418C" style="fill:#1D418C;fill:color(display-p3 0.1137 0.2549 0.5490);fill-opacity:1;"/>
<path d="M33.4422 55.9903C32.888 55.5542 32.3277 55.1036 31.7611 54.637C34.8939 54.6351 37.9183 54.6337 40.8405 54.6322C40.3048 55.0175 39.767 55.4146 39.2262 55.8254C39.1852 57.572 39.1443 59.3197 39.1027 61.0685C40.3145 59.1346 41.5254 57.3355 42.7267 55.6516C42.7369 55.3113 42.7471 54.9713 42.7576 54.6312C45.0571 54.6304 47.2933 54.6297 49.4703 54.6286C48.9643 54.9521 47.9031 55.6514 47.8843 55.6639C47.9045 55.6534 44.9512 59.8445 43.4268 62.2358C44.7849 65.1176 46.115 67.7546 47.4368 70.2074C47.9284 70.3771 48.4193 70.543 48.9082 70.7053C46.7101 71.4093 44.4794 72.2176 42.2282 73.1323C42.2384 72.7843 42.249 72.4367 42.2595 72.0888C41.1899 70.0785 40.1061 67.929 38.9953 65.6128C38.934 68.2099 38.8728 70.81 38.811 73.4109C39.3162 73.5913 39.8189 73.7648 40.3196 73.9316C37.4765 75.1578 34.6063 76.553 31.7324 78.1221C32.2527 77.3711 32.7755 76.6409 33.3012 75.9308C33.3247 72.5884 33.4261 58.289 33.4422 55.9903Z" fill="#1D418C" style="fill:#1D418C;fill:color(display-p3 0.1137 0.2549 0.5490);fill-opacity:1;"/>
</g>
<path d="M43.0436 54.9257C43.0347 55.2217 43.0186 55.7501 43.0186 55.7501L42.9667 55.8227C41.7166 57.5751 40.5008 59.3927 39.3526 61.2252L38.784 62.1326L38.9363 55.6748C38.9363 55.6748 39.5039 55.2555 39.948 54.9271C39.8941 54.9273 33.9336 54.9304 32.5957 54.9309C33.0834 55.3236 33.7355 55.8487 33.7355 55.8487L33.7369 55.9927L33.5952 76.0267C33.5952 76.0267 33.1178 76.6934 32.7017 77.2749C34.9497 76.0819 37.2338 74.9727 39.5198 73.9666C39.118 73.8279 38.5094 73.6182 38.5094 73.6182L38.5176 73.4044L38.7021 65.6062L39.2613 65.4858C40.3596 67.7763 41.456 69.9513 42.5199 71.9509L42.5565 72.02C42.5565 72.02 42.5445 72.4183 42.5362 72.6994C44.3511 71.9716 46.1798 71.3081 47.9957 70.7069C47.6728 70.5978 47.2317 70.4487 47.2317 70.4487L47.1783 70.3471C45.8168 67.8203 44.503 65.2081 43.1616 62.3617L43.0924 62.215L43.1796 62.0781C44.6163 59.8239 47.7215 55.4197 47.7215 55.4197C47.7215 55.4197 48.1026 55.1711 48.4818 54.9233C47.3361 54.9238 43.4947 54.9254 43.0436 54.9257Z" fill="url(#paint24_linear_112_504)"/>
<mask id="mask6_112_504" style="mask-type:luminance" maskUnits="userSpaceOnUse" x="-14" y="-8" width="132" height="94">
<path d="M-13.9053 -7.28132H117.866V85.8901H-13.9053V-7.28132Z" fill="white" style="fill:white;fill-opacity:1;"/>
</mask>
<g mask="url(#mask6_112_504)">
<path d="M49.2324 70.605C49.6987 70.1422 50.164 69.692 50.627 69.2522C50.7837 64.6789 50.9399 60.1144 51.0956 55.558C50.6624 55.2563 50.2266 54.9472 49.7893 54.6307C52.242 54.63 54.6206 54.6292 56.929 54.6287C56.5104 54.9084 56.0881 55.1926 55.6627 55.4827C55.5439 59.6747 55.4243 63.8719 55.3047 68.0767C55.7271 68.2666 56.1472 68.4552 56.567 68.6426C54.1726 69.1653 51.7231 69.818 49.2324 70.605Z" fill="#1D418C" style="fill:#1D418C;fill:color(display-p3 0.1137 0.2549 0.5490);fill-opacity:1;"/>
</g>
<path d="M50.7123 54.9218C50.9818 55.1134 51.3935 55.4056 51.3935 55.4056L51.3902 55.5655L50.9175 69.3782C50.9175 69.3782 50.5534 69.7314 50.3096 69.9678C52.097 69.4304 53.8838 68.956 55.6486 68.5502C55.4332 68.4536 55.0056 68.262 55.0056 68.262L55.099 64.9885L55.3736 55.3207C55.3736 55.3207 55.7483 55.068 55.9672 54.9206C54.6735 54.9208 51.4121 54.9217 50.7123 54.9218Z" fill="url(#paint25_linear_112_504)"/>
<mask id="mask7_112_504" style="mask-type:luminance" maskUnits="userSpaceOnUse" x="-14" y="-8" width="132" height="94">
<path d="M-13.9053 -7.28132H117.866V85.8901H-13.9053V-7.28132Z" fill="white" style="fill:white;fill-opacity:1;"/>
</mask>
<g mask="url(#mask7_112_504)">
<path d="M61.3003 54.6132C62.5929 56.1496 63.8804 57.6274 65.1677 59.0901C65.1682 58.4967 65.1693 57.9037 65.1699 57.3106C65.1876 56.6639 65.2058 56.0167 65.2228 55.3706C64.8453 55.1192 64.4681 54.8672 64.0889 54.6132H70.3967C70.043 54.8725 69.6864 55.1311 69.3272 55.3901C69.3807 59.6554 69.433 63.918 69.4865 68.1769C69.3737 68.1908 69.2612 68.2057 69.1485 68.2202C67.0093 65.6864 64.8547 63.2722 62.6966 60.7736C62.6779 62.7806 62.6583 64.7886 62.6397 66.7976C63.0488 67.0036 63.4575 67.2118 63.8655 67.4211C61.5941 67.6791 59.2556 68.0631 56.8613 68.5757C57.3015 68.2052 57.7378 67.8433 58.172 67.4899C58.262 63.4657 58.3506 59.4452 58.4398 55.4311C58.0322 55.1627 57.6236 54.8901 57.213 54.6132H61.3003Z" fill="#1D418C" style="fill:#1D418C;fill:color(display-p3 0.1137 0.2549 0.5490);fill-opacity:1;"/>
</g>
<path d="M65.0601 54.9049C65.1944 54.9948 65.5223 55.2139 65.5223 55.2139L65.5182 55.3762C65.5182 55.3762 65.4653 57.3183 65.4653 57.3214C65.4653 57.3911 65.4623 59.8661 65.4623 59.8661L64.9482 59.2823C63.8358 58.0178 62.519 56.5116 61.1654 54.9049H58.1858C58.3733 55.03 58.7374 55.2729 58.7374 55.2729L58.7353 55.4354L58.4644 67.6285C58.4644 67.6285 58.1265 67.9085 57.9512 68.0537C59.6139 67.7239 61.2631 67.4546 62.8809 67.2475C62.7233 67.1673 62.346 66.9755 62.346 66.9755L62.347 66.7928L62.4113 59.9943L65.3053 63.3184C66.5806 64.7772 67.8966 66.2854 69.1892 67.8122C69.181 67.1587 69.0326 55.2394 69.0326 55.2394C69.0326 55.2394 69.348 55.0103 69.493 54.9049H65.0601Z" fill="url(#paint26_linear_112_504)"/>
<mask id="mask8_112_504" style="mask-type:luminance" maskUnits="userSpaceOnUse" x="-14" y="-8" width="132" height="94">
<path d="M-13.9053 -7.28132H117.866V85.8901H-13.9053V-7.28132Z" fill="white" style="fill:white;fill-opacity:1;"/>
</mask>
<g mask="url(#mask8_112_504)">
<path d="M83.3284 66.7793C84.2642 67.0105 85.1762 67.2684 86.0632 67.5542C84.8017 63.5956 83.4445 60.0445 82.041 56.7651C82.0304 56.3527 82.0204 55.9404 82.0099 55.5281C82.005 55.3287 82.1465 55.1351 82.4342 54.9439C82.7069 54.736 82.9952 54.6288 83.2962 54.6288C85.1762 54.6296 87.0017 54.63 88.7741 54.631V57.5443C88.4691 57.2716 88.1603 57.0063 87.8496 56.7485C86.8973 56.6953 86.4713 56.6473 85.4849 56.6034C86.8336 60.1151 88.1141 63.9673 89.2687 68.3032C89.2687 68.773 89.2949 69.9461 89.2579 70.04C89.221 70.1347 89.1635 70.2125 89.0837 70.2718C89.0051 70.3318 88.904 70.3643 88.7818 70.3709C88.6592 70.377 88.5121 70.3413 88.3396 70.2651C86.6297 69.5141 84.2202 68.8536 82.2947 68.364C82.2749 67.5415 82.2542 66.7179 82.2331 65.8943C82.5702 66.174 82.905 66.4612 83.236 66.7568C83.2664 66.7638 83.298 66.7715 83.3284 66.7793Z" fill="#1D418C" style="fill:#1D418C;fill:color(display-p3 0.1137 0.2549 0.5490);fill-opacity:1;"/>
</g>
<path d="M82.6216 55.1883L82.6136 55.1944L82.6051 55.1999C82.4259 55.319 82.3193 55.437 82.3193 55.5159C82.3193 55.5165 82.3466 56.5976 82.3491 56.697C83.8811 60.2817 85.1933 63.8023 86.3581 67.4573L86.5414 68.0324L85.967 67.8474C85.0964 67.5669 84.1833 67.3081 83.253 67.0784C83.2503 67.0776 83.0924 67.0391 83.0924 67.0391L83.0282 66.986C83.0282 66.986 82.7934 66.784 82.5599 66.5832C82.5754 67.2069 82.5917 67.855 82.5982 68.1192C84.3461 68.5672 86.751 69.2261 88.4635 69.9783C88.6234 70.0488 88.7158 70.0607 88.7652 70.0583C88.8048 70.0561 88.8607 70.048 88.8945 70.0222C88.9242 69.9999 88.9421 69.9715 88.9574 69.9383C88.9637 69.8638 88.966 69.701 88.966 69.5041C88.966 69.2706 88.9634 68.9973 88.9609 68.7941C88.9609 68.7941 88.958 68.4171 88.9574 68.3446C87.8831 64.3147 86.6521 60.509 85.1939 56.7122L85.0213 56.2625L86.8656 56.3716L87.9698 56.4427L88.0466 56.5068C88.0466 56.5068 88.2572 56.6879 88.4625 56.8648V54.9388C87.9504 54.9387 83.2951 54.937 83.2951 54.937C83.0637 54.937 82.8435 55.019 82.6216 55.1883Z" fill="url(#paint27_linear_112_504)"/>
<path d="M77.0738 54.9203C77.0738 54.9203 71.1744 54.994 70.5288 60.2309C70.5288 60.2309 69.8245 65.7351 77.7286 67.2221L80.7285 67.7437L80.5981 63.1527L81.0415 62.7874L77.7286 62.4742L77.8069 65.657C77.8069 65.657 73.5161 65.1239 73.6463 60.3501C74.0112 56.2854 77.0243 56.3701 77.0243 56.3701L79.9199 56.3963L80.6624 56.821L80.6076 54.9203H77.0738Z" fill="url(#paint28_linear_112_504)"/>
<mask id="mask9_112_504" style="mask-type:luminance" maskUnits="userSpaceOnUse" x="-14" y="-8" width="132" height="94">
<path d="M-13.9053 -7.28132H117.866V85.8901H-13.9053V-7.28132Z" fill="white" style="fill:white;fill-opacity:1;"/>
</mask>
<g mask="url(#mask9_112_504)">
<path d="M60.5966 20.3668L59.7943 19.5432L58.9333 20.3055L59.736 21.1266L60.5966 20.3668ZM59.5925 26.1245L58.8941 25.4064L59.6435 24.7429L60.3455 25.4602L59.5925 26.1245ZM65.4108 27.8024C63.1134 26.9249 64.112 24.7662 64.112 24.7662C64.112 24.7662 63.7398 25.5657 62.4842 25.4377C59.9707 25.1826 59.8029 21.639 59.8029 21.639C59.3281 23.9168 58.3288 24.9633 56.9715 25.1834C55.4837 25.4238 55.1488 24.3335 55.1488 24.3335C55.1488 24.3335 55.7102 26.1545 54.0416 27.0359C52.5072 27.8485 51.4221 26.2896 51.4221 26.2896L53.7151 30.2295C55.0504 28.8091 56.8791 27.443 59.3746 27.4366C61.8897 27.4302 64.1467 28.6383 65.3522 30.2201L65.3641 30.2207L67.4225 27.1657C66.3361 28.2031 65.4108 27.8024 65.4108 27.8024ZM65.3115 24.1165L65.0631 23.2824L64.1888 23.5172L64.4374 24.3505L65.3115 24.1165ZM68.4106 25.7341L67.478 25.909L67.6637 26.8354L68.5953 26.6615L68.4106 25.7341ZM55.2632 23.05L54.4251 22.7157L54.0763 23.5127L54.9157 23.8465L55.2632 23.05ZM50.7262 24.9652L50.4771 25.795L51.3503 26.0357L51.6001 25.2051L50.7262 24.9652Z" fill="#1C63B7" style="fill:#1C63B7;fill:color(display-p3 0.1098 0.3882 0.7176);fill-opacity:1;"/>
<path d="M47.8209 33.4041V31.4963L47.339 31.0961H49.9978L49.5138 31.496V33.3572H50.5583V31.496L50.0687 31.0961H52.7389L52.2338 31.4898V37.0407L52.7389 37.4277H50.0727L50.5664 37.0407V34.2593H49.5138V37.035L49.9978 37.4277H47.339L47.8209 37.035V34.2593L47.2686 34.2587L47.8209 33.4041Z" fill="#1C63B7" style="fill:#1C63B7;fill:color(display-p3 0.1098 0.3882 0.7176);fill-opacity:1;"/>
<path d="M54.9453 34.2368V36.5652H56.0744L56.65 36.2518V37.4277H52.7793L53.2612 37.0274V34.2478H52.709L53.2612 33.4015V31.5021L52.7793 31.0961H56.65V32.2509L56.0744 31.9638H54.9453V33.357H56.8027L56.1319 34.2368H54.9453Z" fill="#1C63B7" style="fill:#1C63B7;fill:color(display-p3 0.1098 0.3882 0.7176);fill-opacity:1;"/>
<path d="M58.4418 31.0877L59.9704 33.3016V32.4476L59.9823 31.4879L59.5008 31.0877H62.2288L61.747 31.4944V38.0028L61.582 38.0234L59.0178 34.1418V37.0295L59.5008 37.423H56.8438L57.3255 37.0295V31.4879L56.8438 31.0877H58.4418Z" fill="#1C63B7" style="fill:#1C63B7;fill:color(display-p3 0.1098 0.3882 0.7176);fill-opacity:1;"/>
<path d="M63.872 31.0877L65.3998 33.3016V32.4476L65.4117 31.4879L64.9312 31.0877H67.6591L67.1767 31.4944V38.0028L67.0121 38.0234L64.4486 34.1418V37.0295L64.9302 37.423H62.2744L62.7559 37.0295V31.4879L62.2744 31.0877H63.872Z" fill="#1C63B7" style="fill:#1C63B7;fill:color(display-p3 0.1098 0.3882 0.7176);fill-opacity:1;"/>
<path d="M69.8789 33.3562H70.9222V31.9411H69.8789V33.3562ZM70.4386 37.4268L70.9316 37.0397V34.2584H69.8789V37.0341L70.3603 37.4268H67.7034L68.1855 37.0341V34.2584H67.6328L68.1941 33.4038V31.629C68.2021 31.4825 68.3861 31.3506 68.7474 31.2354C69.0758 31.1418 69.4264 31.0953 69.7935 31.0953H71.0156C71.1862 31.0995 71.3539 31.1141 71.514 31.1383C71.6747 31.1631 71.8396 31.1997 72.0123 31.2485C72.347 31.3423 72.5433 31.4686 72.5984 31.629V37.0466L73.1045 37.4268H70.4386Z" fill="#1C63B7" style="fill:#1C63B7;fill:color(display-p3 0.1098 0.3882 0.7176);fill-opacity:1;"/>
<path d="M73.1484 37.4277L73.6199 37.035V31.4963L73.1484 31.0961H75.7028L75.2441 31.4963V37.035L75.7028 37.4277H73.1484Z" fill="#1C63B7" style="fill:#1C63B7;fill:color(display-p3 0.1098 0.3882 0.7176);fill-opacity:1;"/>
<path d="M47.1667 32.4661V31.0836C47.1667 31.0836 43.6189 30.6923 43.3712 34.2008C43.3712 34.2008 43.319 37.0572 46.332 37.4094L47.1667 37.4355V36.0269L46.5798 36.3661C46.5798 36.3661 45.0669 36.4964 44.9625 34.2399C44.9625 34.2399 45.0276 32.0618 46.5928 32.1139L47.1667 32.4661Z" fill="#1C63B7" style="fill:#1C63B7;fill:color(display-p3 0.1098 0.3882 0.7176);fill-opacity:1;"/>
</g>
<defs>
<radialGradient id="paint0_radial_112_504" cx="0" cy="0" r="1" gradientUnits="userSpaceOnUse" gradientTransform="translate(10.758 50.1468) scale(17.1888 17.1888)">
<stop stop-color="#FFF200" style="stop-color:#FFF200;stop-color:color(display-p3 1.0000 0.9490 0.0000);stop-opacity:1;"/>
<stop offset="1" stop-color="#F25C19" style="stop-color:#F25C19;stop-color:color(display-p3 0.9490 0.3608 0.0980);stop-opacity:1;"/>
</radialGradient>
<radialGradient id="paint1_radial_112_504" cx="0" cy="0" r="1" gradientUnits="userSpaceOnUse" gradientTransform="translate(10.7584 50.1419) scale(17.1886 17.1886)">
<stop stop-color="#FFF200" style="stop-color:#FFF200;stop-color:color(display-p3 1.0000 0.9490 0.0000);stop-opacity:1;"/>
<stop offset="1" stop-color="#F25C19" style="stop-color:#F25C19;stop-color:color(display-p3 0.9490 0.3608 0.0980);stop-opacity:1;"/>
</radialGradient>
<radialGradient id="paint2_radial_112_504" cx="0" cy="0" r="1" gradientUnits="userSpaceOnUse" gradientTransform="translate(10.7594 50.1393) scale(17.1856 17.1857)">
<stop stop-color="#FFF200" style="stop-color:#FFF200;stop-color:color(display-p3 1.0000 0.9490 0.0000);stop-opacity:1;"/>
<stop offset="1" stop-color="#F25C19" style="stop-color:#F25C19;stop-color:color(display-p3 0.9490 0.3608 0.0980);stop-opacity:1;"/>
</radialGradient>
<radialGradient id="paint3_radial_112_504" cx="0" cy="0" r="1" gradientUnits="userSpaceOnUse" gradientTransform="translate(10.7589 50.1352) scale(17.1863 17.1863)">
<stop stop-color="#FFF200" style="stop-color:#FFF200;stop-color:color(display-p3 1.0000 0.9490 0.0000);stop-opacity:1;"/>
<stop offset="1" stop-color="#F25C19" style="stop-color:#F25C19;stop-color:color(display-p3 0.9490 0.3608 0.0980);stop-opacity:1;"/>
</radialGradient>
<radialGradient id="paint4_radial_112_504" cx="0" cy="0" r="1" gradientUnits="userSpaceOnUse" gradientTransform="translate(10.7576 50.1484) scale(17.1904 17.1904)">
<stop stop-color="#FFF200" style="stop-color:#FFF200;stop-color:color(display-p3 1.0000 0.9490 0.0000);stop-opacity:1;"/>
<stop offset="1" stop-color="#F25C19" style="stop-color:#F25C19;stop-color:color(display-p3 0.9490 0.3608 0.0980);stop-opacity:1;"/>
</radialGradient>
<radialGradient id="paint5_radial_112_504" cx="0" cy="0" r="1" gradientUnits="userSpaceOnUse" gradientTransform="translate(10.7595 50.1456) scale(17.192 17.192)">
<stop stop-color="#FFF200" style="stop-color:#FFF200;stop-color:color(display-p3 1.0000 0.9490 0.0000);stop-opacity:1;"/>
<stop offset="1" stop-color="#F25C19" style="stop-color:#F25C19;stop-color:color(display-p3 0.9490 0.3608 0.0980);stop-opacity:1;"/>
</radialGradient>
<radialGradient id="paint6_radial_112_504" cx="0" cy="0" r="1" gradientUnits="userSpaceOnUse" gradientTransform="translate(10.7598 50.1383) scale(17.1885 17.1885)">
<stop stop-color="#FFF200" style="stop-color:#FFF200;stop-color:color(display-p3 1.0000 0.9490 0.0000);stop-opacity:1;"/>
<stop offset="1" stop-color="#F25C19" style="stop-color:#F25C19;stop-color:color(display-p3 0.9490 0.3608 0.0980);stop-opacity:1;"/>
</radialGradient>
<radialGradient id="paint7_radial_112_504" cx="0" cy="0" r="1" gradientUnits="userSpaceOnUse" gradientTransform="translate(10.7589 50.1468) scale(17.1885 17.1885)">
<stop stop-color="#FFF200" style="stop-color:#FFF200;stop-color:color(display-p3 1.0000 0.9490 0.0000);stop-opacity:1;"/>
<stop offset="1" stop-color="#F25C19" style="stop-color:#F25C19;stop-color:color(display-p3 0.9490 0.3608 0.0980);stop-opacity:1;"/>
</radialGradient>
<radialGradient id="paint8_radial_112_504" cx="0" cy="0" r="1" gradientUnits="userSpaceOnUse" gradientTransform="translate(10.7586 50.1429) scale(17.189 17.189)">
<stop stop-color="#FFF200" style="stop-color:#FFF200;stop-color:color(display-p3 1.0000 0.9490 0.0000);stop-opacity:1;"/>
<stop offset="1" stop-color="#F25C19" style="stop-color:#F25C19;stop-color:color(display-p3 0.9490 0.3608 0.0980);stop-opacity:1;"/>
</radialGradient>
<radialGradient id="paint9_radial_112_504" cx="0" cy="0" r="1" gradientUnits="userSpaceOnUse" gradientTransform="translate(10.7613 50.1377) scale(17.1873 17.1873)">
<stop stop-color="#FFF200" style="stop-color:#FFF200;stop-color:color(display-p3 1.0000 0.9490 0.0000);stop-opacity:1;"/>
<stop offset="1" stop-color="#F25C19" style="stop-color:#F25C19;stop-color:color(display-p3 0.9490 0.3608 0.0980);stop-opacity:1;"/>
</radialGradient>
<radialGradient id="paint10_radial_112_504" cx="0" cy="0" r="1" gradientUnits="userSpaceOnUse" gradientTransform="translate(10.7597 50.1132) scale(17.1887 17.1887)">
<stop stop-color="#FFF200" style="stop-color:#FFF200;stop-color:color(display-p3 1.0000 0.9490 0.0000);stop-opacity:1;"/>
<stop offset="1" stop-color="#F25C19" style="stop-color:#F25C19;stop-color:color(display-p3 0.9490 0.3608 0.0980);stop-opacity:1;"/>
</radialGradient>
<radialGradient id="paint11_radial_112_504" cx="0" cy="0" r="1" gradientUnits="userSpaceOnUse" gradientTransform="translate(10.7573 50.1468) scale(17.1888)">
<stop stop-color="#FFF200" style="stop-color:#FFF200;stop-color:color(display-p3 1.0000 0.9490 0.0000);stop-opacity:1;"/>
<stop offset="1" stop-color="#F25C19" style="stop-color:#F25C19;stop-color:color(display-p3 0.9490 0.3608 0.0980);stop-opacity:1;"/>
</radialGradient>
<radialGradient id="paint12_radial_112_504" cx="0" cy="0" r="1" gradientUnits="userSpaceOnUse" gradientTransform="translate(10.7592 50.1472) scale(17.1889 17.1888)">
<stop stop-color="#FFF200" style="stop-color:#FFF200;stop-color:color(display-p3 1.0000 0.9490 0.0000);stop-opacity:1;"/>
<stop offset="1" stop-color="#F25C19" style="stop-color:#F25C19;stop-color:color(display-p3 0.9490 0.3608 0.0980);stop-opacity:1;"/>
</radialGradient>
<radialGradient id="paint13_radial_112_504" cx="0" cy="0" r="1" gradientUnits="userSpaceOnUse" gradientTransform="translate(10.7589 50.1425) scale(17.1886 17.1886)">
<stop stop-color="#FFF200" style="stop-color:#FFF200;stop-color:color(display-p3 1.0000 0.9490 0.0000);stop-opacity:1;"/>
<stop offset="1" stop-color="#F25C19" style="stop-color:#F25C19;stop-color:color(display-p3 0.9490 0.3608 0.0980);stop-opacity:1;"/>
</radialGradient>
<radialGradient id="paint14_radial_112_504" cx="0" cy="0" r="1" gradientUnits="userSpaceOnUse" gradientTransform="translate(11.8797 50.1405) scale(16.388 16.388)">
<stop stop-color="#FFF200" style="stop-color:#FFF200;stop-color:color(display-p3 1.0000 0.9490 0.0000);stop-opacity:1;"/>
<stop offset="1" stop-color="#F25C19" style="stop-color:#F25C19;stop-color:color(display-p3 0.9490 0.3608 0.0980);stop-opacity:1;"/>
</radialGradient>
<radialGradient id="paint15_radial_112_504" cx="0" cy="0" r="1" gradientUnits="userSpaceOnUse" gradientTransform="translate(10.7562 50.1478) scale(17.1902)">
<stop stop-color="#FFF200" style="stop-color:#FFF200;stop-color:color(display-p3 1.0000 0.9490 0.0000);stop-opacity:1;"/>
<stop offset="1" stop-color="#F25C19" style="stop-color:#F25C19;stop-color:color(display-p3 0.9490 0.3608 0.0980);stop-opacity:1;"/>
</radialGradient>
<radialGradient id="paint16_radial_112_504" cx="0" cy="0" r="1" gradientUnits="userSpaceOnUse" gradientTransform="translate(10.7589 50.1468) scale(17.189 17.189)">
<stop stop-color="#FFF200" style="stop-color:#FFF200;stop-color:color(display-p3 1.0000 0.9490 0.0000);stop-opacity:1;"/>
<stop offset="1" stop-color="#F25C19" style="stop-color:#F25C19;stop-color:color(display-p3 0.9490 0.3608 0.0980);stop-opacity:1;"/>
</radialGradient>
<radialGradient id="paint17_radial_112_504" cx="0" cy="0" r="1" gradientUnits="userSpaceOnUse" gradientTransform="translate(10.7577 50.1359) scale(17.1871 17.1871)">
<stop stop-color="#FFF200" style="stop-color:#FFF200;stop-color:color(display-p3 1.0000 0.9490 0.0000);stop-opacity:1;"/>
<stop offset="1" stop-color="#F25C19" style="stop-color:#F25C19;stop-color:color(display-p3 0.9490 0.3608 0.0980);stop-opacity:1;"/>
</radialGradient>
<radialGradient id="paint18_radial_112_504" cx="0" cy="0" r="1" gradientUnits="userSpaceOnUse" gradientTransform="translate(10.759 50.1427) scale(17.1887 17.1887)">
<stop stop-color="#FFF200" style="stop-color:#FFF200;stop-color:color(display-p3 1.0000 0.9490 0.0000);stop-opacity:1;"/>
<stop offset="1" stop-color="#F25C19" style="stop-color:#F25C19;stop-color:color(display-p3 0.9490 0.3608 0.0980);stop-opacity:1;"/>
</radialGradient>
<linearGradient id="paint19_linear_112_504" x1="42.8859" y1="39.0243" x2="42.8859" y2="47.3679" gradientUnits="userSpaceOnUse">
<stop stop-color="#00ADEF" style="stop-color:#00ADEF;stop-color:color(display-p3 0.0000 0.6784 0.9373);stop-opacity:1;"/>
<stop offset="1" stop-color="#1D418C" style="stop-color:#1D418C;stop-color:color(display-p3 0.1137 0.2549 0.5490);stop-opacity:1;"/>
</linearGradient>
<linearGradient id="paint20_linear_112_504" x1="51.0058" y1="39.0243" x2="51.0058" y2="47.3679" gradientUnits="userSpaceOnUse">
<stop stop-color="#00ADEF" style="stop-color:#00ADEF;stop-color:color(display-p3 0.0000 0.6784 0.9373);stop-opacity:1;"/>
<stop offset="1" stop-color="#1D418C" style="stop-color:#1D418C;stop-color:color(display-p3 0.1137 0.2549 0.5490);stop-opacity:1;"/>
</linearGradient>
<linearGradient id="paint21_linear_112_504" x1="60.3016" y1="39.2307" x2="60.3016" y2="47.4519" gradientUnits="userSpaceOnUse">
<stop stop-color="#00ADEF" style="stop-color:#00ADEF;stop-color:color(display-p3 0.0000 0.6784 0.9373);stop-opacity:1;"/>
<stop offset="1" stop-color="#1D418C" style="stop-color:#1D418C;stop-color:color(display-p3 0.1137 0.2549 0.5490);stop-opacity:1;"/>
</linearGradient>
<linearGradient id="paint22_linear_112_504" x1="68.1737" y1="39.0243" x2="68.1737" y2="47.3679" gradientUnits="userSpaceOnUse">
<stop stop-color="#00ADEF" style="stop-color:#00ADEF;stop-color:color(display-p3 0.0000 0.6784 0.9373);stop-opacity:1;"/>
<stop offset="1" stop-color="#1D418C" style="stop-color:#1D418C;stop-color:color(display-p3 0.1137 0.2549 0.5490);stop-opacity:1;"/>
</linearGradient>
<linearGradient id="paint23_linear_112_504" x1="77.1335" y1="39.0208" x2="77.1335" y2="47.3665" gradientUnits="userSpaceOnUse">
<stop stop-color="#00ADEF" style="stop-color:#00ADEF;stop-color:color(display-p3 0.0000 0.6784 0.9373);stop-opacity:1;"/>
<stop offset="1" stop-color="#1D418C" style="stop-color:#1D418C;stop-color:color(display-p3 0.1137 0.2549 0.5490);stop-opacity:1;"/>
</linearGradient>
<linearGradient id="paint24_linear_112_504" x1="40.5387" y1="54.9233" x2="40.5387" y2="62.1876" gradientUnits="userSpaceOnUse">
<stop stop-color="#00ADEF" style="stop-color:#00ADEF;stop-color:color(display-p3 0.0000 0.6784 0.9373);stop-opacity:1;"/>
<stop offset="1" stop-color="#1D418C" style="stop-color:#1D418C;stop-color:color(display-p3 0.1137 0.2549 0.5490);stop-opacity:1;"/>
</linearGradient>
<linearGradient id="paint25_linear_112_504" x1="53.1384" y1="54.9206" x2="53.1384" y2="62.1849" gradientUnits="userSpaceOnUse">
<stop stop-color="#00ADEF" style="stop-color:#00ADEF;stop-color:color(display-p3 0.0000 0.6784 0.9373);stop-opacity:1;"/>
<stop offset="1" stop-color="#1D418C" style="stop-color:#1D418C;stop-color:color(display-p3 0.1137 0.2549 0.5490);stop-opacity:1;"/>
</linearGradient>
<linearGradient id="paint26_linear_112_504" x1="63.7221" y1="54.905" x2="63.7221" y2="62.1693" gradientUnits="userSpaceOnUse">
<stop stop-color="#00ADEF" style="stop-color:#00ADEF;stop-color:color(display-p3 0.0000 0.6784 0.9373);stop-opacity:1;"/>
<stop offset="1" stop-color="#1D418C" style="stop-color:#1D418C;stop-color:color(display-p3 0.1137 0.2549 0.5490);stop-opacity:1;"/>
</linearGradient>
<linearGradient id="paint27_linear_112_504" x1="85.6428" y1="54.9067" x2="85.6428" y2="62.1711" gradientUnits="userSpaceOnUse">
<stop stop-color="#00ADEF" style="stop-color:#00ADEF;stop-color:color(display-p3 0.0000 0.6784 0.9373);stop-opacity:1;"/>
<stop offset="1" stop-color="#1D418C" style="stop-color:#1D418C;stop-color:color(display-p3 0.1137 0.2549 0.5490);stop-opacity:1;"/>
</linearGradient>
<linearGradient id="paint28_linear_112_504" x1="75.777" y1="55.2484" x2="75.777" y2="62.1612" gradientUnits="userSpaceOnUse">
<stop stop-color="#00ADEF" style="stop-color:#00ADEF;stop-color:color(display-p3 0.0000 0.6784 0.9373);stop-opacity:1;"/>
<stop offset="1" stop-color="#1D418C" style="stop-color:#1D418C;stop-color:color(display-p3 0.1137 0.2549 0.5490);stop-opacity:1;"/>
</linearGradient>
</defs>
</svg>
