<svg width="36" height="36" viewBox="0 0 36 36" fill="none" xmlns="http://www.w3.org/2000/svg">
<path d="M31.2453 2.13583C32.3301 2.99042 32.9781 4.16479 33.233 5.51331C33.3938 7.13764 33.1408 8.69664 32.0978 9.99325C31.1817 11.0468 30.203 11.6879 28.8283 12.0235C28.83 12.0874 28.8318 12.1512 28.8336 12.2169C28.8765 13.7859 28.9194 15.3548 28.9622 16.9238C28.9829 17.6826 29.0036 18.4413 29.0244 19.2001C29.0425 19.8632 29.0606 20.5263 29.0787 21.1893C29.0882 21.5389 29.0977 21.8884 29.1073 22.238C29.1475 23.7029 29.1857 25.1678 29.2192 26.633C29.2207 26.6969 29.2222 26.7608 29.2237 26.8267C29.2473 27.8578 29.2673 28.8888 29.2709 29.9202C29.2718 30.0838 29.2732 30.2474 29.2753 30.411C29.2901 31.6335 29.2941 32.6272 28.4767 33.6095C28.4391 33.655 28.4015 33.7005 28.3628 33.7473C27.8325 34.3297 27.0729 34.6597 26.2971 34.7345C25.9969 34.7477 25.6968 34.7509 25.3964 34.7542C25.3022 34.7555 25.208 34.7568 25.1138 34.7581C24.8511 34.7616 24.5883 34.7647 24.3255 34.7677C24.1552 34.7696 23.985 34.7717 23.8147 34.7738C19.9505 34.821 16.0859 34.85 12.2214 34.8735C11.9592 34.8751 11.697 34.8767 11.4348 34.8784C10.5068 34.8842 9.57877 34.8888 8.65071 34.8913C8.37638 34.8921 8.10207 34.8934 7.82774 34.895C7.5119 34.8969 7.19608 34.8978 6.88023 34.8979C6.76692 34.8981 6.65361 34.8986 6.5403 34.8995C5.34729 34.9089 4.47265 34.6355 3.58611 33.8204C2.70006 32.8435 2.6406 31.6982 2.64699 30.4424C2.64694 30.3004 2.64679 30.1584 2.64656 30.0163C2.6462 29.63 2.64716 29.2436 2.64836 28.8573C2.64941 28.4452 2.64927 28.0332 2.64928 27.6212C2.64951 26.8269 2.65089 26.0325 2.65271 25.2382C2.65415 24.5999 2.65516 23.9616 2.65587 23.3233C2.65866 20.8457 2.66414 18.3682 2.67205 15.8907C2.67229 15.8161 2.67252 15.7414 2.67277 15.6645C2.67811 13.98 2.68491 12.2956 2.69562 10.6112C2.69752 10.311 2.69925 10.0108 2.70085 9.71062C2.70356 9.20178 2.70698 8.69294 2.71127 8.1841C2.71256 8.02111 2.71364 7.85812 2.71448 7.69512C2.71566 7.47692 2.71768 7.25874 2.71994 7.04054C2.7201 6.97894 2.72025 6.91735 2.7204 6.85388C2.73413 5.83268 2.97393 4.91169 3.7001 4.16638C4.45405 3.45204 5.17261 3.18812 6.21435 3.20329C6.34048 3.20345 6.34048 3.20345 6.46916 3.20361C6.70141 3.20426 6.93358 3.20622 7.16582 3.20881C7.36667 3.21083 7.56751 3.21179 7.76837 3.21277C8.50714 3.21646 9.24584 3.22492 9.98455 3.23447C10.0764 3.23565 10.0764 3.23565 10.1702 3.23685C12.0516 3.26128 13.9328 3.2939 15.814 3.32841C16.7349 3.3453 17.6558 3.36155 18.5766 3.37781C18.7138 3.38023 18.8509 3.38265 18.9881 3.38507C19.0551 3.38625 19.122 3.38744 19.191 3.38865C19.5835 3.39559 19.9759 3.40265 20.3683 3.40982C20.6106 3.41424 20.8529 3.4186 21.0951 3.42296C21.2063 3.42497 21.3176 3.42701 21.4288 3.42908C21.675 3.43366 21.9211 3.43788 22.1673 3.44141C22.3388 3.44402 22.5102 3.44757 22.6816 3.4522C22.795 3.45438 22.795 3.45438 22.9108 3.4566C23.0087 3.45912 23.0087 3.45912 23.1086 3.46169C23.2963 3.45723 23.2963 3.45723 23.4931 3.28555C23.5737 3.1776 23.5737 3.1776 23.6559 3.06747C23.7194 2.98915 23.7835 2.91134 23.8482 2.83401C23.8806 2.79484 23.913 2.75566 23.9464 2.71529C25.8106 0.610713 29.0695 0.575459 31.2453 2.13583ZM24.0163 3.86728C23.2213 4.90877 23.0838 6.09273 23.2335 7.35681C23.4103 8.24644 23.8563 9.04042 24.4689 9.70322C24.5289 9.76888 24.5289 9.76888 24.59 9.83588C25.3353 10.5648 26.4599 10.9656 27.4836 10.9952C28.7741 10.9584 29.9032 10.498 30.7971 9.56259C30.8637 9.49801 30.8637 9.49801 30.9316 9.43213C31.6679 8.67157 31.9745 7.65569 31.9987 6.61963C31.9465 5.32898 31.489 4.22176 30.5539 3.32991C29.6943 2.57295 28.4648 2.12898 27.3188 2.1622C25.9347 2.2989 24.9052 2.80209 24.0163 3.86728ZM19.4948 3.78114C19.2482 3.78903 19.0016 3.79652 18.755 3.80404C18.3356 3.81685 17.9163 3.82977 17.4969 3.8428C16.4072 3.87662 15.3175 3.90994 14.2277 3.94171C14.1739 3.94328 14.1201 3.94485 14.0646 3.94647C12.6489 3.98763 11.2336 4.02046 9.81728 4.03235C9.74671 4.03297 9.67613 4.03359 9.60341 4.03423C8.96437 4.03969 8.32537 4.04353 7.6863 4.0428C7.46303 4.04276 7.23976 4.04373 7.01649 4.04489C6.8698 4.04524 6.72317 4.04408 6.57648 4.04281C5.68895 4.04779 5.01942 4.2798 4.37933 4.89807C3.97266 5.33564 3.83454 5.81126 3.8423 6.40205C3.84216 6.45582 3.84201 6.50958 3.84187 6.56498C3.84165 6.74288 3.84296 6.92074 3.84429 7.09863C3.84451 7.22661 3.84464 7.3546 3.84469 7.48258C3.84502 7.75312 3.84603 8.02364 3.84759 8.29417C3.84951 8.62687 3.85033 8.95957 3.85067 9.29228C3.85199 10.4885 3.85924 11.6846 3.88317 12.8805C3.88465 12.9546 3.88612 13.0286 3.88764 13.1048C3.88916 13.1808 3.89067 13.2568 3.89223 13.3351C3.93393 15.436 3.94706 17.5364 3.95413 19.6376C3.95498 19.8897 3.95586 20.1417 3.95675 20.3938C3.96226 21.9578 3.96722 23.5218 3.9712 25.0858C3.97319 25.8663 3.97568 26.6469 3.9787 27.4275C3.98057 27.9168 3.98184 28.4061 3.98264 28.8955C3.98328 29.1979 3.9845 29.5003 3.98589 29.8027C3.98641 29.9422 3.9867 30.0817 3.98673 30.2212C3.97078 31.6856 3.97079 31.6856 4.7059 32.9072C5.26087 33.4212 5.80756 33.5493 6.55382 33.5503C6.64071 33.5508 6.64071 33.5508 6.72935 33.5513C6.92356 33.5524 7.11777 33.553 7.31199 33.5536C7.4515 33.5543 7.59101 33.555 7.73052 33.5557C8.11118 33.5576 8.49183 33.5591 8.87249 33.5605C9.27629 33.562 9.68009 33.5639 10.0839 33.5658C10.7674 33.5689 11.451 33.5718 12.1346 33.5745C12.825 33.5772 13.5154 33.5801 14.2058 33.5833C14.3312 33.5839 14.3312 33.5839 14.4592 33.5844C14.6276 33.5852 14.796 33.586 14.9644 33.5868C16.0444 33.5917 17.1245 33.5964 18.2046 33.5999C18.2853 33.6001 18.366 33.6004 18.4492 33.6006C18.7705 33.6017 19.0918 33.6027 19.4131 33.6036C20.3058 33.6063 21.1985 33.6101 22.0911 33.6168C22.6089 33.6207 23.1266 33.6238 23.6443 33.6261C23.9918 33.6277 24.3392 33.6305 24.6867 33.6342C24.8961 33.6362 25.1055 33.6369 25.315 33.6374C25.4542 33.638 25.5934 33.64 25.7327 33.6421C26.4971 33.6414 27.1452 33.4489 27.7033 32.9063C28.1621 32.3384 28.2861 31.8279 28.3079 31.1105C28.3118 31.0033 28.3118 31.0033 28.3158 30.8939C28.3386 30.2399 28.3528 29.5857 28.3632 28.9315C28.3665 28.7228 28.3701 28.5141 28.3737 28.3053C28.3791 28.0011 28.3843 27.6968 28.3895 27.3926C28.4394 24.4677 28.5034 21.5432 28.5796 18.6189C28.5865 18.3538 28.5934 18.0888 28.6002 17.8237C28.6111 17.4031 28.6222 16.9825 28.6333 16.5618C28.6374 16.4086 28.6415 16.2553 28.6455 16.102C28.651 15.889 28.6568 15.676 28.6626 15.4631C28.6644 15.3952 28.6662 15.3273 28.6681 15.2574C28.6786 14.884 28.6922 14.5109 28.7088 14.1377C28.7123 14.0561 28.7159 13.9745 28.7195 13.8904C28.7264 13.7343 28.7338 13.5783 28.7416 13.4222C28.7615 12.972 28.7467 12.5407 28.6877 12.0938C28.6127 12.0932 28.6127 12.0932 28.5362 12.0926C26.8642 12.076 25.5447 11.7598 24.258 10.6173C24.2098 10.5757 24.1616 10.5341 24.1119 10.4912C23.1393 9.59327 22.5482 8.2446 22.4801 6.93301C22.4447 5.75208 22.748 4.77235 23.2736 3.72665C22.0128 3.71788 20.7549 3.74038 19.4948 3.78114Z" fill="#E6F1F5" style="fill:#E6F1F5;fill:color(display-p3 0.9020 0.9451 0.9608);fill-opacity:1;"/>
<path d="M22.3594 19.6172C22.429 19.652 22.429 19.652 22.5 19.6875C23.3743 22.6891 23.1017 26.1477 22.5703 29.1797C22.6569 29.1875 22.7435 29.1953 22.8327 29.2033C23.1533 29.2323 23.4738 29.2621 23.7943 29.2921C23.9331 29.305 24.072 29.3177 24.2108 29.3302C24.4102 29.3481 24.6095 29.3668 24.8088 29.3857C24.9023 29.3938 24.9023 29.3938 24.9977 29.4021C25.0554 29.4077 25.1131 29.4134 25.1725 29.4192C25.2489 29.4262 25.2489 29.4262 25.3268 29.4333C25.4531 29.4609 25.4531 29.4609 25.5938 29.6016C24.349 29.7453 23.1048 29.8867 21.854 29.9663C21.7364 29.9738 21.7364 29.9738 21.6164 29.9815C21.3485 29.9973 21.0806 30.0107 20.8125 30.0234C20.7525 30.0264 20.6924 30.0294 20.6306 30.0325C19.3298 30.0962 18.0306 30.1048 16.7286 30.1029C16.446 30.1025 16.1634 30.1028 15.8808 30.1032C13.8169 30.1057 11.7532 30.0801 9.69434 29.9268C9.60043 29.92 9.60043 29.92 9.50462 29.9132C8.48839 29.8404 7.47812 29.7421 6.46875 29.6016C6.66607 29.4042 6.82448 29.4193 7.09991 29.3857C7.17219 29.3766 7.17219 29.3766 7.24592 29.3674C7.39988 29.3482 7.55394 29.3298 7.70801 29.3115C7.81238 29.2987 7.91675 29.2858 8.02112 29.2728C8.27702 29.2411 8.53302 29.2102 8.78906 29.1797C8.76958 29.1143 8.75009 29.049 8.73001 28.9817C8.70454 28.8947 8.67907 28.8078 8.65283 28.7183C8.62754 28.6326 8.60226 28.547 8.5762 28.4587C8.21878 27.0821 8.26713 25.256 8.92969 23.9766C9.16656 24.1634 9.2125 24.3776 9.29004 24.6621C9.31342 24.7459 9.33681 24.8296 9.3609 24.9159C9.68805 26.2893 9.58725 27.8485 9.14062 29.1797C9.60841 29.1612 10.0762 29.1425 10.544 29.1235C10.7028 29.1171 10.8617 29.1107 11.0206 29.1044C11.25 29.0954 11.4793 29.0861 11.7087 29.0767C11.7789 29.074 11.8491 29.0713 11.9214 29.0685C12.3559 29.0504 12.7865 29.0172 13.2188 28.9688C13.2106 28.9178 13.2024 28.8668 13.194 28.8143C13.1566 28.5787 13.1195 28.3431 13.0825 28.1074C13.0697 28.0273 13.0569 27.9472 13.0437 27.8646C12.7017 25.6763 12.678 23.1531 13.3594 21.0234C13.429 20.9886 13.429 20.9886 13.5 20.9531C13.9371 22.4419 14.0124 23.9285 14.0186 25.4707C14.0194 25.5728 14.0194 25.5728 14.0202 25.6769C14.0274 26.8082 13.9776 27.9512 13.6406 29.0391C13.6929 29.0276 13.7452 29.0161 13.799 29.0043C14.1678 28.9545 14.5318 28.9601 14.9035 28.9619C14.9841 28.962 15.0646 28.9621 15.1476 28.9622C15.4041 28.9626 15.6605 28.9635 15.917 28.9644C16.0912 28.9647 16.2654 28.965 16.4397 28.9653C16.866 28.9661 17.2924 28.9673 17.7188 28.9688C17.7041 28.9262 17.6895 28.8837 17.6744 28.8398C17.6553 28.7836 17.6362 28.7273 17.6165 28.6693C17.5975 28.6137 17.5785 28.5581 17.559 28.5008C17.1073 27.0452 17.333 25.3749 17.8594 23.9766C17.9058 23.9766 17.9522 23.9766 18 23.9766C18.6306 25.6143 18.6714 27.3641 18.1406 29.0391C18.195 29.0387 18.2493 29.0383 18.3052 29.0379C19.2984 29.0322 20.2901 29.0325 21.2827 29.0698C21.3598 29.0726 21.437 29.0753 21.5164 29.0782C22.0512 29.1004 22.0512 29.1004 22.2891 29.1797C22.2813 29.1417 22.2735 29.1036 22.2655 29.0645C21.6426 25.9713 21.6668 22.6941 22.3594 19.6172Z" fill="#E6F1F5" style="fill:#E6F1F5;fill:color(display-p3 0.9020 0.9451 0.9608);fill-opacity:1;"/>
<path d="M22.1484 14.1328C22.1948 14.1328 22.2413 14.1328 22.2891 14.1328C22.1936 14.3939 22.0749 14.6123 21.9207 14.8434C21.8751 14.9119 21.8295 14.9804 21.7826 15.0509C21.7336 15.1236 21.6847 15.1962 21.6343 15.271C21.5837 15.3464 21.5331 15.4218 21.4811 15.4994C21.0744 16.1027 20.6557 16.6958 20.2242 17.2815C20.1027 17.4466 19.9818 17.6122 19.8611 17.7778C19.4788 18.3009 19.0934 18.8211 18.6943 19.3315C18.6636 19.371 18.6329 19.4104 18.6012 19.4511C18.5195 19.5545 18.4356 19.6563 18.3516 19.7578C18.3068 19.813 18.262 19.8682 18.2159 19.9251C18.0151 20.0823 17.9001 20.06 17.6484 20.0391C17.4399 19.9599 17.4399 19.9599 17.2211 19.8484C17.0995 19.7872 17.0995 19.7872 16.9755 19.7247C16.8893 19.6801 16.803 19.6355 16.7168 19.5908C16.628 19.5456 16.5392 19.5004 16.4504 19.4553C15.8537 19.1507 15.2656 18.8318 14.6827 18.5015C14.3191 18.2964 13.9463 18.111 13.5703 17.9297C13.5268 17.9744 13.5268 17.9744 13.4824 18.0201C13.2262 18.2803 12.9626 18.5254 12.6859 18.7635C12.5089 18.92 12.3366 19.0807 12.1644 19.2424C11.7101 19.6688 11.2445 20.0716 10.7578 20.4609C10.665 20.5374 10.5722 20.6139 10.4796 20.6906C10.4304 20.731 10.3813 20.7715 10.3307 20.8132C10.2346 20.8923 10.1386 20.9717 10.0429 21.0513C9.7338 21.3046 9.41409 21.5229 9.07031 21.7266C9.18372 21.3547 9.42144 21.0816 9.65918 20.7817C9.70307 20.7259 9.74695 20.67 9.79217 20.6124C10.1326 20.1817 10.4852 19.763 10.8457 19.3491C11.0281 19.1393 11.2032 18.9242 11.3774 18.7075C11.5879 18.4481 11.8061 18.2088 12.0462 17.9769C12.1729 17.8505 12.2892 17.7183 12.4058 17.5825C12.4892 17.4873 12.5727 17.3921 12.6562 17.2969C12.7012 17.2439 12.7462 17.1908 12.7925 17.1362C12.8389 17.0848 12.8853 17.0334 12.9331 16.9805C12.9743 16.9333 13.0156 16.8862 13.0581 16.8376C13.3018 16.681 13.5061 16.6767 13.7812 16.7344C14.0759 16.8547 14.3486 17.008 14.625 17.165C14.7438 17.2307 14.7438 17.2307 14.8649 17.2978C15.6306 17.7224 16.3865 18.165 17.139 18.6124C17.1911 18.6424 17.2432 18.6723 17.2969 18.7031C17.3443 18.7318 17.3918 18.7605 17.4407 18.79C17.6151 18.8582 17.6878 18.8454 17.8594 18.7734C17.9782 18.6783 17.9782 18.6783 18.0849 18.5556C18.1258 18.5112 18.1668 18.4667 18.209 18.4209C18.2517 18.3734 18.2944 18.3258 18.3384 18.2769C18.4048 18.2042 18.4048 18.2042 18.4727 18.1301C18.7211 17.8577 18.9661 17.5824 19.2068 17.3032C19.6422 16.8076 20.0916 16.3235 20.5626 15.8615C20.6795 15.7422 20.7876 15.6178 20.896 15.4907C21.1551 15.189 21.4361 14.9114 21.7204 14.6337C21.8838 14.4731 22.0208 14.3243 22.1484 14.1328Z" fill="#E6F1F5" style="fill:#E6F1F5;fill:color(display-p3 0.9020 0.9451 0.9608);fill-opacity:1;"/>
<path d="M23.4009 12.9066C23.5936 13.1214 23.6213 13.2906 23.625 13.5702C23.5961 13.8461 23.5437 14.1158 23.4888 14.3876C23.4732 14.4665 23.4576 14.5454 23.4415 14.6267C23.313 15.2537 23.157 15.8712 22.9878 16.4882C22.9647 16.5723 22.9417 16.6565 22.9179 16.7432C22.7827 17.2222 22.6263 17.6833 22.4297 18.1405C22.3833 18.1405 22.3369 18.1405 22.2891 18.1405C22.1891 17.6222 22.2051 17.1016 22.2056 16.5761C22.2055 16.5226 22.2055 16.469 22.2054 16.4139C22.2055 15.6223 22.2344 14.8456 22.3594 14.0624C22.3178 14.0667 22.2763 14.0709 22.2335 14.0753C21.3844 14.16 20.5412 14.2167 19.6875 14.2162C19.5738 14.2163 19.5738 14.2163 19.4578 14.2163C19.0606 14.2136 18.6724 14.2051 18.2812 14.1327C18.258 14.0863 18.2348 14.0399 18.2109 13.9921C22.4575 12.3825 22.4575 12.3825 23.4009 12.9066Z" fill="#E6F1F5" style="fill:#E6F1F5;fill:color(display-p3 0.9020 0.9451 0.9608);fill-opacity:1;"/>
<path d="M12.2256 9.90095C12.2859 9.90102 12.3462 9.90108 12.4084 9.90115C14.0115 9.90493 15.5187 10.0565 17.0859 10.4063C17.0627 10.4527 17.0395 10.4991 17.0156 10.5469C16.8072 10.6017 16.6029 10.647 16.3916 10.6876C16.336 10.6992 16.2805 10.7108 16.2232 10.7227C15.0187 10.9603 13.8113 10.9932 12.5869 10.991C12.3329 10.9908 12.0789 10.9924 11.8249 10.9942C10.4459 10.9979 8.91986 10.9807 7.59375 10.5469C7.57055 10.5005 7.54734 10.4541 7.52344 10.4063C8.31673 10.2172 9.1008 10.0571 9.91406 9.98445C9.98219 9.97829 10.0503 9.97213 10.1205 9.96579C10.8225 9.90876 11.5217 9.89995 12.2256 9.90095Z" fill="#E6F1F5" style="fill:#E6F1F5;fill:color(display-p3 0.9020 0.9451 0.9608);fill-opacity:1;"/>
<path d="M30.1641 4.42969C30.1989 4.5341 30.1989 4.5341 30.2344 4.64062C30.1303 4.80058 30.0254 4.94209 29.9048 5.08887C29.8698 5.13231 29.8348 5.17574 29.7988 5.2205C29.4553 5.6418 29.0918 6.04317 28.7159 6.43562C28.6254 6.53047 28.5362 6.62658 28.4472 6.72281C28.1019 7.08542 27.7293 7.40212 27.334 7.70801C27.2866 7.74554 27.2392 7.78307 27.1904 7.82173C26.9751 7.98366 26.8301 8.07851 26.5616 8.12714C26.311 8.07403 26.2407 8.00856 26.0859 7.80469C25.9867 7.63122 25.8959 7.46114 25.8091 7.28174C25.7727 7.20776 25.7727 7.20776 25.7356 7.13229C25.1719 5.96715 25.1719 5.96715 25.1719 5.625C25.3935 5.72298 25.5418 5.83768 25.7113 6.01007C25.758 6.0572 25.8047 6.10433 25.8528 6.15289C25.9007 6.20202 25.9486 6.25114 25.998 6.30176C26.0471 6.35143 26.0961 6.4011 26.1466 6.45227C26.2674 6.57464 26.3877 6.69733 26.5078 6.82031C26.7609 6.70125 26.9293 6.5578 27.1318 6.36328C27.9971 5.56478 29.0471 4.81295 30.1641 4.42969Z" fill="#E6F1F5" style="fill:#E6F1F5;fill:color(display-p3 0.9020 0.9451 0.9608);fill-opacity:1;"/>
<path d="M14.0625 7.52339C14.0625 7.5698 14.0625 7.6162 14.0625 7.66401C12.0551 8.38571 9.69621 8.37127 7.66406 7.73433C7.61766 7.71112 7.57125 7.68792 7.52344 7.66401C7.52344 7.61761 7.52344 7.5712 7.52344 7.52339C9.58574 6.8724 12.0041 6.78778 14.0625 7.52339Z" fill="#E6F1F5" style="fill:#E6F1F5;fill:color(display-p3 0.9020 0.9451 0.9608);fill-opacity:1;"/>
</svg>
