<svg width="55" height="60" viewBox="0 0 55 60" fill="none" xmlns="http://www.w3.org/2000/svg">
<path fill-rule="evenodd" clip-rule="evenodd" d="M32.7934 24.2713C32.7171 24.0922 32.5211 24.0048 32.356 24.0753L23.8195 27.7227L30.823 21.7257C31.2757 21.2982 31.1684 20.725 30.9881 20.2538C30.9881 20.2538 30.7467 19.5993 30.6287 19.3228C29.0251 15.5648 24.9287 16.1681 22.6967 17.4465L19.0827 19.5168C17.2274 20.5793 14.7181 23.4171 15.8347 26.5046L15.9734 26.8937C16.0262 27.0398 16.1562 27.1161 16.2643 27.065L19.5684 25.4746C19.6868 25.4181 19.7364 25.3162 19.6794 25.0954C19.5135 24.3984 20.0231 23.6375 20.6925 23.3123L24.5652 21.3489C25.0092 21.1232 25.5403 21.0221 26.1184 21.1958L18.5611 28.2608C17.6294 29.1311 17.3653 30.7363 17.8988 32.2115L18.5739 34.0788C18.6296 34.2323 18.767 34.3231 18.8818 34.281L34.3817 28.6714C34.5538 28.6087 34.6293 28.4082 34.5509 28.2237L32.7934 24.2713Z" fill="white" style="fill:white;fill-opacity:1;"/>
<path fill-rule="evenodd" clip-rule="evenodd" d="M13.3354 23.1865C13.2847 23.0449 13.1452 22.9859 13.0247 23.0544L10.0895 24.7273C9.98018 24.7896 9.92983 24.9493 9.97646 25.0847L10.6429 27.0212C10.8826 27.7409 10.7832 28.4535 10.4225 28.6731L0.833777 33.4722C0.327455 33.7256 0.22553 34.6994 0.587837 35.6341C0.954271 36.5795 1.65867 37.1506 2.19429 36.924L11.8309 32.8652C12.2147 32.7129 12.7165 33.1243 12.9859 33.825L13.6837 35.8507C13.7341 35.9972 13.8727 36.0806 13.9936 36.0368L17.2523 34.8579C17.386 34.8092 17.4504 34.6449 17.3951 34.491L13.3358 23.1865H13.3354Z" fill="white" style="fill:white;fill-opacity:1;"/>
<path fill-rule="evenodd" clip-rule="evenodd" d="M51.9572 11.7286C49.4635 6.92779 46.0117 4.07638 44.0466 5.19383L31.84 12.1581C30.3871 12.9942 30.6772 16.6408 32.4041 20.655C34.1311 24.6693 36.8665 27.7856 38.4647 27.2071L52.7069 22.0518C54.9035 21.2385 54.3873 16.4064 51.9572 11.7286ZM46.9608 17.8556L39.1576 21.1832C38.487 21.4642 37.4785 20.1041 36.8232 18.6537C36.1675 17.2036 35.832 15.6062 36.4646 15.2803L43.8593 11.5359C44.6182 11.1575 45.8442 12.5221 46.6228 14.0819C47.4011 15.6417 47.7584 17.5094 46.9608 17.8556Z" fill="white" style="fill:white;fill-opacity:1;"/>
<path fill-rule="evenodd" clip-rule="evenodd" d="M4.78613 26.2446L12.3414 12.1451L6.29148 17.6978C8.17482 11.567 12.3975 7.33032 17.0002 4.98977C16.8945 5.39376 15.3826 14.3 15.3826 14.3L23.7057 0L26.0801 9.49344L31.8903 0.359419L32.8501 5.79238L40.2328 4.01757L31.1087 9.73855L30.916 5.30462L28.4525 11.404L23.3298 14.6161L22.8474 3.72541L18.3326 17.7493L4.78613 26.2446Z" fill="#FE9100" style="fill:#FE9100;fill:color(display-p3 0.9961 0.5686 0.0000);fill-opacity:1;"/>
<path fill-rule="evenodd" clip-rule="evenodd" d="M21.0039 46.5888V41.2656H22.2831V46.5888H21.0039Z" fill="white" style="fill:white;fill-opacity:1;"/>
<path fill-rule="evenodd" clip-rule="evenodd" d="M25.8671 46.6714C25.0554 46.6714 24.3931 46.4279 23.8798 45.941C23.366 45.4545 23.1094 44.7868 23.1094 43.9384C23.1094 43.09 23.3549 42.4631 23.846 41.951C24.3366 41.4389 25.0179 41.1831 25.8898 41.1831C26.7617 41.1831 27.4575 41.4666 27.9787 42.034L27.1744 42.9901C26.8389 42.5886 26.3982 42.3876 25.8518 42.3876C25.4512 42.3876 25.1144 42.5283 24.8413 42.8089C24.5681 43.0904 24.4319 43.4667 24.4319 43.9384C24.4319 44.375 24.5644 44.7389 24.8301 45.0302C25.0955 45.3216 25.4611 45.4668 25.9274 45.4668C26.3937 45.4668 26.8562 45.2935 27.2573 44.9473L27.9634 45.9789C27.4525 46.4407 26.7539 46.6714 25.8671 46.6714Z" fill="white" style="fill:white;fill-opacity:1;"/>
<path fill-rule="evenodd" clip-rule="evenodd" d="M31.3124 46.6714C30.5007 46.6714 29.8384 46.4279 29.3251 45.941C28.8114 45.4545 28.5547 44.7868 28.5547 43.9384C28.5547 43.09 28.8002 42.4631 29.2913 41.951C29.7819 41.4389 30.4632 41.1831 31.3351 41.1831C32.2071 41.1831 32.9028 41.4666 33.424 42.034L32.6197 42.9901C32.2842 42.5886 31.8435 42.3876 31.2972 42.3876C30.8965 42.3876 30.5598 42.5283 30.2866 42.8089C30.0134 43.0904 29.8772 43.4667 29.8772 43.9384C29.8772 44.375 30.0097 44.7389 30.2754 45.0302C30.5408 45.3216 30.9064 45.4668 31.3727 45.4668C31.839 45.4668 32.3016 45.2935 32.7026 44.9473L33.4087 45.9789C32.8978 46.4407 32.1992 46.6714 31.3124 46.6714Z" fill="white" style="fill:white;fill-opacity:1;"/>
<path fill-rule="evenodd" clip-rule="evenodd" d="M1.99764 59.9176L0 53.5627H1.6213L2.68718 57.5279H2.70492L3.70849 53.5627H5.21343L6.18976 57.5188H6.21658L7.29154 53.5627H8.91284L6.89745 59.9176H5.57161L4.48757 55.6928H4.46983L3.33215 59.9176H1.99723H1.99764Z" fill="white" style="fill:white;fill-opacity:1;"/>
<path fill-rule="evenodd" clip-rule="evenodd" d="M12.5693 59.9996C11.6 59.9996 10.8102 59.6951 10.1999 59.086C9.58913 58.4774 9.28418 57.6896 9.28418 56.7236C9.28418 55.7576 9.58913 54.9682 10.1999 54.3562C10.8102 53.7443 11.6 53.4385 12.5693 53.4385C13.5386 53.4385 14.3119 53.743 14.9255 54.3521C15.5387 54.9612 15.8453 55.7514 15.8453 56.7236C15.8453 57.6958 15.5387 58.4848 14.9255 59.0905C14.3119 59.6967 13.5266 59.9996 12.5693 59.9996ZM12.5693 58.6044C13.0599 58.6044 13.4668 58.4245 13.7899 58.0647C14.113 57.7045 14.2748 57.2576 14.2748 56.7236C14.2748 56.1896 14.113 55.7427 13.7899 55.3825C13.4668 55.0226 13.0599 54.8423 12.5693 54.8423C12.0786 54.8423 11.6627 55.0239 11.3396 55.387C11.0165 55.7501 10.8551 56.1958 10.8551 56.7236C10.8551 57.2514 11.0165 57.697 11.3396 58.0602C11.6627 58.4233 12.0725 58.6044 12.5693 58.6044Z" fill="white" style="fill:white;fill-opacity:1;"/>
<path fill-rule="evenodd" clip-rule="evenodd" d="M21.9938 59.9176H20.3003C19.9714 59.1298 19.5117 58.4469 18.92 57.8679H18.3377V59.9176H16.877V53.5627H19.359C20.1357 53.5627 20.7092 53.7505 21.0798 54.1264C21.4499 54.5024 21.6352 55.0099 21.6352 55.6483C21.6352 56.5371 21.2502 57.1491 20.4794 57.4829C21.0947 58.1395 21.5997 58.9511 21.9938 59.9176ZM19.0904 56.5611C19.4131 56.5611 19.6595 56.488 19.8299 56.3419C19.9999 56.1959 20.0849 55.9883 20.0849 55.7197C20.0849 55.451 20.0044 55.2587 19.8431 55.1069C19.6817 54.9542 19.4399 54.8783 19.1172 54.8783H18.3377V56.5611H19.0904Z" fill="white" style="fill:white;fill-opacity:1;"/>
<path fill-rule="evenodd" clip-rule="evenodd" d="M23.0664 59.9173V53.5625H24.5949V58.5836H27.4818V59.9173H23.0664Z" fill="white" style="fill:white;fill-opacity:1;"/>
<path fill-rule="evenodd" clip-rule="evenodd" d="M28.3896 59.9173V53.5625H30.6015C31.6021 53.5625 32.4056 53.8563 33.0109 54.4439C33.6163 55.0319 33.9192 55.7999 33.9192 56.749C33.9192 57.6981 33.6254 58.4627 33.0377 59.0446C32.4505 59.6264 31.6471 59.9173 30.6283 59.9173H28.3896ZM29.8554 58.5836H30.5297C31.069 58.5836 31.5064 58.4091 31.8423 58.06C32.1778 57.7109 32.3457 57.2739 32.3457 56.749C32.3457 56.2241 32.184 55.7764 31.86 55.4244C31.5365 55.072 31.1288 54.8962 30.6374 54.8962H29.855V58.5836H29.8554Z" fill="white" style="fill:white;fill-opacity:1;"/>
<path fill-rule="evenodd" clip-rule="evenodd" d="M40.062 59.9999C39.0923 59.9999 38.3004 59.7089 37.6868 59.1267C37.0732 58.5449 36.7666 57.7468 36.7666 56.7329C36.7666 55.719 37.06 54.9684 37.6464 54.3565C38.2332 53.7445 39.0473 53.4387 40.0889 53.4387C41.1304 53.4387 41.9623 53.7775 42.585 54.4555L41.6243 55.5985C41.2232 55.1186 40.6963 54.8785 40.0439 54.8785C39.5652 54.8785 39.1625 55.0468 38.836 55.3827C38.5101 55.7186 38.3466 56.1688 38.3466 56.7329C38.3466 57.2549 38.5055 57.6898 38.8228 58.0377C39.1402 58.386 39.5772 58.5597 40.1338 58.5597C40.6905 58.5597 41.2439 58.353 41.723 57.9387L42.5668 59.1717C41.9565 59.7238 41.1213 59.9999 40.062 59.9999Z" fill="white" style="fill:white;fill-opacity:1;"/>
<path fill-rule="evenodd" clip-rule="evenodd" d="M45.919 59.9998C45.1106 59.9998 44.4698 59.7774 43.9969 59.333C43.5236 58.8882 43.2871 58.23 43.2871 57.3585V53.5625H44.7962V57.2689C44.7962 57.675 44.8936 57.9989 45.0883 58.2403C45.2827 58.4825 45.56 58.603 45.919 58.603C46.278 58.603 46.545 58.4912 46.7546 58.2675C46.9642 58.0435 47.0691 57.7109 47.0691 57.2689V53.5625H48.569V57.3585C48.569 58.2065 48.3384 58.858 47.8774 59.3149C47.4161 59.7717 46.7633 59.9998 45.919 59.9998Z" fill="white" style="fill:white;fill-opacity:1;"/>
<path fill-rule="evenodd" clip-rule="evenodd" d="M49.6416 59.9173V53.5625H52.0486C52.798 53.5625 53.3608 53.761 53.7384 54.1575C54.116 54.5545 54.3046 55.0872 54.3046 55.7553C54.3046 56.4234 54.0937 56.9726 53.6715 57.3304C53.2494 57.6886 52.6696 57.8677 51.9331 57.8677H51.095V59.9173H49.6416ZM51.095 56.5608H51.7635C52.0903 56.5608 52.3387 56.4878 52.5079 56.3417C52.6775 56.1956 52.7621 55.9881 52.7621 55.7194C52.7621 55.4508 52.6804 55.2585 52.517 55.1066C52.3531 54.954 52.1113 54.878 51.7903 54.878H51.095V56.5608Z" fill="white" style="fill:white;fill-opacity:1;"/>
<path fill-rule="evenodd" clip-rule="evenodd" d="M49.0249 26.8643C48.6745 32.1808 46.2424 36.9259 42.5339 40.2985L43.2928 32.787L36.6627 45.8049L32.6674 35.0682L26.4471 39.6218L22.9953 36.2715L16.6574 44.5067L16.3025 39.2962L9.2041 39.4447L19.2224 36.2801L18.9356 38.9533L22.798 34.3914L26.4244 36.3424L29.2168 33.1225L36.118 30.9421L36.8443 41.3759L39.5273 29.8659L49.0249 26.8643Z" fill="#FE9100" style="fill:#FE9100;fill:color(display-p3 0.9961 0.5686 0.0000);fill-opacity:1;"/>
<path fill-rule="evenodd" clip-rule="evenodd" d="M14.6914 51.9533V48.4458H15.2943L16.4609 50.5454H16.4708L17.6373 48.4458H18.2402V51.9533H17.6373V49.6066H17.627L16.6602 51.2766H16.2665L15.2997 49.6066H15.2943V51.9533H14.6914Z" fill="white" style="fill:white;fill-opacity:1;"/>
<path fill-rule="evenodd" clip-rule="evenodd" d="M19.1064 51.9533V48.4458H21.513V48.9794H19.7056V49.9474H21.3595V50.481H19.7056V51.4198H21.5823V51.9533H19.1064Z" fill="white" style="fill:white;fill-opacity:1;"/>
<path fill-rule="evenodd" clip-rule="evenodd" d="M22.2832 51.9533V48.4458H22.8667L24.6819 50.9803H24.6923V48.4458H25.2956V51.9533H24.6972L22.8968 49.4584H22.8869V51.9533H22.2832Z" fill="white" style="fill:white;fill-opacity:1;"/>
<path fill-rule="evenodd" clip-rule="evenodd" d="M25.874 49.6838L26.0267 48.4458H26.6168L26.3217 49.6838H25.874Z" fill="white" style="fill:white;fill-opacity:1;"/>
<path fill-rule="evenodd" clip-rule="evenodd" d="M28.2711 51.9944C27.7722 51.9944 27.3575 51.8788 27.0273 51.6481L27.3096 51.1043C27.6071 51.3349 27.9323 51.4505 28.2859 51.4505C28.4873 51.4505 28.6437 51.41 28.7543 51.3292C28.8649 51.2483 28.9202 51.1439 28.9202 51.0151C28.9202 50.9132 28.8888 50.8282 28.8261 50.7605C28.7634 50.6929 28.6982 50.6442 28.6305 50.6145C28.5624 50.5852 28.4312 50.5373 28.2364 50.4713C28.1935 50.4548 28.1605 50.4432 28.1374 50.4366C28.002 50.3904 27.8984 50.3541 27.8275 50.3281C27.7565 50.3017 27.6657 50.2579 27.5551 50.1968C27.4445 50.1358 27.3599 50.0739 27.3026 50.0116C27.2444 49.9488 27.1932 49.8647 27.1487 49.759C27.1041 49.6538 27.0818 49.5366 27.0818 49.4079C27.0818 49.0918 27.1891 48.8454 27.4041 48.6688C27.6187 48.4926 27.8993 48.4043 28.2463 48.4043C28.7518 48.4043 29.1628 48.5347 29.4801 48.7951L29.148 49.2845C29.0258 49.1821 28.8814 49.0988 28.7147 49.0348C28.548 48.9705 28.3883 48.9383 28.2364 48.9383C28.0747 48.9383 27.9447 48.9746 27.8473 49.0472C27.7499 49.1198 27.7012 49.2218 27.7012 49.3538C27.7012 49.4755 27.7491 49.568 27.8448 49.6307C27.941 49.6934 28.1176 49.7706 28.3751 49.863C28.5207 49.9125 28.6297 49.9513 28.7023 49.9794C28.7749 50.0074 28.8657 50.0471 28.9746 50.0978C29.0836 50.149 29.1645 50.1977 29.2173 50.2439C29.2701 50.2901 29.3266 50.3475 29.3861 50.4168C29.4455 50.4861 29.4867 50.5637 29.5098 50.6491C29.533 50.7349 29.5445 50.8323 29.5445 50.9409C29.5445 51.6432 29.1199 51.9944 28.2711 51.9944Z" fill="white" style="fill:white;fill-opacity:1;"/>
<path fill-rule="evenodd" clip-rule="evenodd" d="M32.2325 51.9533V48.9794H31.2393V48.4458H33.839V48.9794H32.8304V51.9533H32.2325Z" fill="white" style="fill:white;fill-opacity:1;"/>
<path fill-rule="evenodd" clip-rule="evenodd" d="M34.2612 51.9531L34.2505 51.5495L35.4233 50.3289C35.5966 50.1469 35.7257 49.9897 35.8107 49.8572C35.8957 49.7244 35.9378 49.5845 35.9378 49.438C35.9378 49.2771 35.8858 49.1454 35.7814 49.0423C35.677 48.9391 35.5293 48.8875 35.3383 48.8875C35.0622 48.8875 34.7952 49.0047 34.5369 49.2387L34.208 48.7513C34.5794 48.465 34.9809 48.3218 35.4125 48.3218C35.7488 48.3218 36.0245 48.4171 36.2403 48.6073C36.4561 48.798 36.5642 49.0538 36.5642 49.3749C36.5642 49.7735 36.3625 50.1787 35.9593 50.5905L35.1897 51.382L35.1951 51.3977H36.6014V51.9531H34.2612Z" fill="white" style="fill:white;fill-opacity:1;"/>
<path fill-rule="evenodd" clip-rule="evenodd" d="M38.4177 51.9944C37.9869 51.9944 37.6452 51.833 37.3931 51.5103C37.1405 51.1876 37.0146 50.737 37.0146 50.1581C37.0146 49.5791 37.1372 49.1545 37.3823 48.8215C37.6278 48.4885 37.9728 48.3218 38.4177 48.3218C38.8625 48.3218 39.1943 48.4831 39.4452 48.8058C39.6956 49.1285 39.8207 49.5791 39.8207 50.1581C39.8207 50.737 39.6989 51.1575 39.4555 51.4922C39.212 51.8268 38.8662 51.9944 38.4177 51.9944ZM38.4177 51.4295C38.6665 51.4295 38.8592 51.3176 38.9958 51.0944C39.1324 50.8715 39.2009 50.5592 39.2009 50.1581C39.2009 49.757 39.1315 49.4442 38.9929 49.2189C38.8547 48.994 38.6628 48.8817 38.4177 48.8817C38.1725 48.8817 37.9807 48.994 37.8424 49.2189C37.7038 49.4442 37.6349 49.757 37.6349 50.1581C37.6349 50.5592 37.7046 50.8625 37.8449 51.0894C37.9848 51.316 38.1758 51.4295 38.4177 51.4295Z" fill="white" style="fill:white;fill-opacity:1;"/>
</svg>
