<svg width="131" height="82" viewBox="0 0 131 82" fill="none" xmlns="http://www.w3.org/2000/svg">
<g clip-path="url(#clip0_112_782)">
<path d="M89.4467 44.1198C101.019 36.3712 107.606 26.5162 105.64 17.7086C102.312 2.82731 76.2297 -4.01916 47.3822 2.42795C18.531 8.87164 -2.15274 26.1684 1.17403 41.0546C3.43117 51.1586 16.1697 57.5524 33.1509 58.6003L30.9025 58.5657H27.1277L24.7736 67.3152L16.3413 58.9701L16.7985 57.0468L6.89089 57.0515L0 81.8015H16.0968L18.1618 73.1742L26.8642 81.9926H38.5456C38.5456 81.9926 46.6231 82.3621 51.2114 78.4449L50.2615 81.6652H65.3777L67.992 78.119H73.9369L74.8022 81.5415H89.032L91.347 72.7138L100.314 81.601L114.852 81.6229L117.254 81.5211C121.647 81.1796 125.268 77.6586 125.268 73.2353C125.268 73.2353 125.7 68.3184 121.473 66.0883L124.445 66.0975C124.445 66.0975 127.46 66.0193 128.775 64.1853C129.434 63.2645 130.072 61.9453 130.09 60.517L130.166 58.946L130.113 57.2825H125.358L128.871 44.0457H90.5438L89.4467 44.1198Z" fill="white" style="fill:white;fill-opacity:1;"/>
<path fill-rule="evenodd" clip-rule="evenodd" d="M18.4443 54.4318C23.887 53.7927 30.9534 51.5483 38.0692 46.9418C38.0692 46.9418 33.4141 47.6591 28.0065 47.4712C22.6073 47.288 16.4728 46.2041 13.5996 42.6344C16.3782 44.2649 21.4584 44.8554 29.0042 42.6265C28.3432 42.4809 25.3092 41.837 22.9057 39.8323C20.5196 37.8461 18.7691 34.5272 20.5883 29.1032C20.4849 31.7801 22.121 34.2923 27.1057 34.9298C26.8456 34.0449 26.0625 32.2262 26.6717 29.3242C27.2817 26.4438 29.2812 22.5282 34.5088 17.4406C32.225 20.2977 30.8821 23.5806 32.5876 26.1132C33.3974 24.4499 34.5738 22.1896 37.3672 19.3515C40.1239 16.5494 44.4807 13.1851 51.6213 9.29274C47.8027 11.7817 44.1672 15.0347 42.764 18.523C45.1134 16.4305 47.7794 14.2643 51.8531 12.0996C55.8943 9.95534 61.3199 7.79362 69.2172 5.6792C64.4273 7.36307 59.1349 9.98018 55.0031 13.6046C58.084 12.0806 61.7475 10.4485 66.4761 9.30965C71.19 8.17104 76.9734 7.50368 84.3255 7.87344C79.2837 8.15386 73.1006 9.43044 66.7893 12.3547C69.1794 11.9397 73.2391 11.335 77.8348 11.7203C82.4373 12.1089 87.6383 13.4996 92.3418 17.1084C88.4206 15.2993 82.7201 14.347 75.3725 15.4999C76.1049 15.7222 79.4716 16.6572 82.4225 19.2009C85.3986 21.7728 87.9924 26.0048 87.0581 32.9171C86.4323 28.7319 83.6098 24.9056 77.4386 23.1152C78.0211 23.9861 78.8286 26.572 78.5428 29.9881C78.2608 33.4449 76.8151 37.7866 72.8548 42.1035C70.1108 45.186 67.7802 46.0051 67.7802 46.0051C67.7802 46.0051 69.3716 44.2287 70.6175 41.4348C71.8634 38.6654 72.7726 34.9158 71.4952 30.9436C70.2821 37.9026 64.233 43.6229 58.3586 47.523C52.4026 51.4841 46.681 53.5422 46.3905 53.165C46.3905 53.165 48.8504 51.4468 51.6869 48.8434C54.4953 46.2575 57.3805 43.6668 58.8944 40.1849C50.4645 48.7337 37.4056 54.0169 25.3967 54.6528C21.6973 54.8499 19.1293 54.468 18.4443 54.4318Z" fill="url(#paint0_linear_112_782)"/>
<path d="M58.112 25.8203C57.0204 24.0598 53.4569 24.1428 50.1256 26.0178C46.7613 27.8972 44.8956 30.8875 45.9515 32.6792C47.0237 34.4945 50.6505 34.399 54.0312 32.4755C57.3899 30.5741 59.1896 27.5853 58.112 25.8203Z" fill="white" style="fill:white;fill-opacity:1;"/>
<path d="M82.8669 22.9369C80.6975 19.192 76.8438 17.2983 72.3852 16.7219C67.9259 16.147 62.8363 16.8691 58.1882 18.387C61.3921 17.1247 64.3359 16.2474 66.2484 15.9562C71.6317 13.9528 76.4772 13.4501 80.179 13.7461C74.9947 12.598 69.5281 12.9191 64.4284 14.1486C59.3097 15.3845 54.534 17.5301 50.7733 20.0238C53.2072 18.1739 55.6475 16.6516 57.4472 15.8291C61.3879 12.9363 65.9537 11.0801 69.9323 10.04C63.5919 11.1395 58.0635 13.1884 53.601 15.6472C49.1002 18.1298 45.6693 21.0432 43.6252 23.8406C44.7459 21.8623 46.1728 20.0907 47.4925 18.9616C49.3273 15.9607 52.7357 13.3636 56.1275 11.4683C50.0345 14.2705 45.5676 17.417 42.6832 20.4493C39.7738 23.5163 38.4589 26.4828 38.6844 28.8821C38.1298 27.3003 38.1433 25.7324 38.6585 24.5671C37.9731 22.18 39.5943 19.4188 41.8325 17.1006C37.1102 21.0429 34.6691 24.6015 34.0926 27.4882C33.5114 30.4124 34.8107 32.6257 37.5235 33.8505C35.2233 33.2365 33.6563 32.3516 33.138 31.4728C29.816 30.4452 29.1187 28.1693 29.6857 25.9C25.2626 34.6714 31.6145 38.3584 41.0366 37.135C37.5196 37.8914 34.6038 38.1499 33.0204 37.9133C29.0833 39.3168 24.2249 37.9902 22.5918 36.4192C24.194 40.0217 28.0739 41.5488 32.8753 41.516C37.6774 41.4801 43.3654 39.884 48.5798 37.2949C45.0493 39.3498 41.685 40.9036 39.445 41.5507C37.9742 43.9204 27.8786 45.6074 23.9323 45.5839C27.9812 46.436 33.4036 46.2497 38.0416 45.1859C45.3054 43.5131 52.1751 39.0538 57.5061 33.9821C57.5061 33.9821 57.5204 33.9662 57.5383 33.943C57.5344 33.9573 57.5204 33.9665 57.5061 33.9821C55.8867 36.3754 48.0895 42.4276 48.0895 42.4276C47.4756 44.8129 40.3724 48.0942 32.9279 51.5981C41.3192 49.5088 50.3599 45.7369 56.853 39.8745C60.017 37.0176 61.8385 34.5474 62.8754 32.6569C64.3084 30.0538 64.282 28.5031 64.282 28.5031C64.282 28.5031 64.282 28.4955 64.2891 28.4936C64.7012 31.5637 63.0704 34.5834 63.0704 34.5834C62.3899 42.227 55.4511 46.9588 55.4511 46.9588C57.0245 46.0488 58.9738 44.7144 58.9738 44.7144C65.0073 39.7756 68.1281 35.2333 69.1108 31.49C70.0787 27.7874 68.9871 24.838 66.5476 23.0289C68.7117 24.108 70.2174 25.4317 70.671 26.6065C74.4161 28.7632 75.2249 32.2575 74.4301 35.7553C77.1448 30.054 76.7185 25.9785 74.543 23.3281C72.3847 20.6999 68.4659 19.436 64.0848 19.3778C67.266 19.1571 69.9592 19.2869 71.4369 19.7241C76.9886 19.4769 80.6991 20.9319 82.8669 22.9369ZM53.3719 31.6925C49.9933 33.5611 46.3642 33.6533 45.2993 31.8912C44.2421 30.1415 46.1139 27.2329 49.4861 25.4005C52.8216 23.5805 56.3746 23.4959 57.4609 25.2078C58.5517 26.9324 56.7341 29.841 53.3719 31.6925Z" fill="url(#paint1_radial_112_782)"/>
<path d="M83.9477 17.813C96.4637 21.1461 97.4767 34.945 80.6621 42.2691C94.6122 34.1165 91.1565 22.1296 83.9146 17.8788L83.9477 17.813Z" fill="#F79433" style="fill:#F79433;fill:color(display-p3 0.9686 0.5804 0.2000);fill-opacity:1;"/>
<path d="M82.2676 44.2431C102.019 37.2777 108.116 9.19723 82.5583 10.1511C97.2934 5.40212 104.515 14.1672 102.218 24.5016C101.027 29.8709 97.6074 34.5776 93.4536 38.0656C90.1055 40.8757 86.193 42.9869 82.2676 44.2431Z" fill="#00A65D" style="fill:#00A65D;fill:color(display-p3 0.0000 0.6510 0.3647);fill-opacity:1;"/>
<path d="M23.1597 42.0565C8.77798 39.7243 10.5612 23.7184 29.064 17.9653C12.7793 25.7326 14.3156 39.9093 23.1967 41.9907L23.1597 42.0565Z" fill="#00A65D" style="fill:#00A65D;fill:color(display-p3 0.0000 0.6510 0.3647);fill-opacity:1;"/>
<path d="M27.188 15.3057C6.79975 20.0813 -3.11581 47.8175 22.3875 49.6438C0.429538 54.1594 -2.60993 32.4269 14.9728 20.6689C17.5891 18.9179 20.53 17.4391 23.5042 16.3787C24.693 15.9558 25.9133 15.6064 27.188 15.3057Z" fill="#F79433" style="fill:#F79433;fill:color(display-p3 0.9686 0.5804 0.2000);fill-opacity:1;"/>
<path d="M76.3064 44.8306L68.8938 49.8581L68.8618 49.7973L64.2553 45.0121L61.1328 56.5151H64.4339L65.9658 50.8796L68.1297 53.2134L71.3867 51.0062L69.8926 56.5151H73.185L76.3064 44.8306Z" fill="white" style="fill:white;fill-opacity:1;"/>
<path d="M79.0349 56.2015C77.4803 56.2015 76.1897 55.7738 75.4013 54.9799C74.6465 54.2279 74.3935 53.213 74.6933 52.1056L76.2783 46.2571H78.5L77.0519 51.6076C76.7886 52.5863 76.9573 53.4403 77.5297 54.007C77.9867 54.4661 78.6739 54.7071 79.5094 54.7071C81.4139 54.7071 83.0743 53.4744 83.5511 51.7107L85.0367 46.2568H87.2508L85.6977 51.9991C85.046 54.3987 82.1833 56.2015 79.0349 56.2015Z" fill="url(#paint2_linear_112_782)"/>
<path d="M117.917 55.967L117.471 54.0905H112.209L110.747 55.967H108.459L114.802 48.1997L116.417 46.2246H119.209L118.515 47.0672L118.502 47.0907C118.319 47.3664 118.236 47.6703 118.278 47.9788L118.279 48.0166L120.319 55.967H117.917ZM113.299 52.6873H117.169L116.278 48.8623L113.299 52.6873Z" fill="url(#paint3_linear_112_782)"/>
<path d="M126.719 45.689H123.419L120.5 56.473H123.796L126.719 45.689Z" fill="white" style="fill:white;fill-opacity:1;"/>
<path d="M110.128 48.8936C110.427 47.7782 110.022 47.0752 109.624 46.6822C109.021 46.0711 108.012 45.7344 106.789 45.7344H99.7622L96.834 56.5152H104.53C107.014 56.5152 109.107 55.2027 109.622 53.3138C109.912 52.2285 109.542 51.3307 108.608 50.7844C109.37 50.3301 109.918 49.6627 110.128 48.8936ZM106.392 53.0537C106.252 53.5815 105.544 53.984 104.752 53.984H100.824L101.286 52.2708H105.428C105.808 52.2708 106.108 52.3633 106.272 52.5293C106.441 52.6966 106.431 52.9049 106.392 53.0537ZM106.819 48.9155C106.712 49.3276 106.245 49.7362 105.448 49.7362H101.973L102.367 48.2793H106.059C106.277 48.2793 106.576 48.3124 106.731 48.4675C106.88 48.6131 106.852 48.8106 106.819 48.9155Z" fill="white" style="fill:white;fill-opacity:1;"/>
<path d="M97.5137 55.9982L100.159 46.2544H106.789C107.872 46.2544 108.75 46.5348 109.261 47.0486C109.694 47.4792 109.816 48.054 109.623 48.7618C109.453 49.3885 108.997 49.9507 108.345 50.336L107.579 50.7919L108.345 51.2336C109.081 51.6612 109.345 52.3347 109.116 53.1804C108.664 54.8439 106.78 55.9982 104.529 55.9982H97.5137ZM100.143 54.5025H104.752C105.787 54.5025 106.689 53.9511 106.893 53.1884C107 52.7935 106.91 52.4285 106.642 52.1578C106.378 51.8962 105.955 51.749 105.427 51.749H100.89L100.143 54.5025ZM101.292 50.2578H105.446C106.518 50.2578 107.157 49.6562 107.321 49.0547C107.42 48.6963 107.341 48.3405 107.095 48.1024C106.872 47.8767 106.522 47.7641 106.058 47.7641H101.971L101.292 50.2578Z" fill="url(#paint4_linear_112_782)"/>
<path d="M93.6813 56.5152H96.975L99.9027 45.7344H98.8685L92.6881 49.8583L88.7365 45.7344H87.8506L84.9258 56.5152H88.2227L89.7543 50.8798L91.9237 53.2136L95.1815 51.0064L93.6813 56.5152Z" fill="white" style="fill:white;fill-opacity:1;"/>
<path d="M123.584 55.6237C123.584 55.6129 123.592 55.5579 123.6 55.4968L126.076 46.2119L123.91 46.2196L121.177 55.9541H121.265L123.467 55.9417L123.479 55.9369H123.481H123.789C123.592 55.8431 123.584 55.7553 123.584 55.6237Z" fill="url(#paint5_linear_112_782)"/>
<path d="M96.6828 55.7101C96.6828 55.7069 96.6868 55.6519 96.6921 55.5956L97.0335 54.3238L99.2196 46.2544H99.0253L92.6104 50.529L88.5161 46.2544H88.2516L85.6035 55.9982H87.8244L89.4964 49.8444L91.9962 52.5337L96.0442 49.7834L94.3614 56.0204L96.5871 56.0048L96.8681 56.0013C96.6868 55.9138 96.6828 55.8353 96.6828 55.7101Z" fill="url(#paint6_linear_112_782)"/>
<path d="M72.8739 55.7104C72.8739 55.7057 72.8739 55.6946 72.8779 55.6806L75.5674 45.9556L68.8222 50.5293L64.5148 46.037L61.8145 55.9985H64.0393L65.7081 49.8448L68.2082 52.534L72.2531 49.7837L70.5695 55.9988H70.6736H70.7016H71.9829H72.7645H72.7796H73.0605C72.8784 55.9092 72.8739 55.8294 72.8739 55.7104Z" fill="url(#paint7_linear_112_782)"/>
<path d="M52.6485 75.8823L51.3656 80.7925H64.7934L67.4201 77.3014H74.6799L75.5212 80.6688H88.4469L90.9192 71.177L100.67 80.7722H113.996L116.4 80.6736C120.793 80.3274 124.413 77.1653 124.413 72.7403C124.413 71.5076 124.134 70.3373 123.633 69.2928C123.633 69.2928 122.259 65.7953 116.903 66.0411C116.903 66.0411 114.68 66.0268 114.14 66.0458C113.604 66.0709 113.222 66.0191 113.222 66.0191C113.374 66.0268 113.101 66.0099 113.063 65.8595C113.036 65.7437 113.122 65.6198 113.225 65.5743C113.225 65.5743 113.713 65.2143 115.938 65.2143C118.16 65.2143 123.533 65.2143 123.533 65.2143C123.533 65.2143 126.733 65.4038 128.059 63.5775C128.838 62.5031 129.234 61.1483 129.253 59.7229V58.2584L117.012 58.2756C117.012 58.2756 111.582 58.1017 108.496 60.5124L108.845 59.1792H100.914L98.4013 68.6476L88.9932 59.3032H87.839L98.3606 69.7442C98.3606 69.7442 98.5939 69.9524 98.858 69.8866C99.0858 69.8269 99.1868 69.6815 99.2394 69.4667C99.2909 69.2491 101.706 60.0409 101.706 60.0409H107.789L106.756 63.9002C106.756 63.9002 108.46 58.9696 117.07 59.1185C119.479 59.1605 128.371 59.1185 128.371 59.1185L128.382 59.7137C128.368 61.0027 127.958 62.1962 127.275 63.1829C127.275 63.1829 126.167 64.5173 123.442 64.3075H115.948C113.22 64.3075 112.506 65.1237 112.506 65.1237C112.278 65.2989 112.13 65.5746 112.13 65.8849C112.13 66.4127 112.632 66.7103 113.145 66.7433C113.145 66.7433 115.43 66.9547 116.929 66.8511C118.438 66.7433 121.391 67.1144 122.697 69.4326C123.24 70.4055 123.512 71.5454 123.512 72.7408C123.512 76.6737 120.291 79.623 115.968 79.9079L101.25 79.9333L91.2683 70.2144C91.2683 70.2144 91.0069 69.7883 90.6607 69.8697C90.3176 69.9464 90.2904 70.4271 90.2904 70.4271L87.908 79.8252H76.2004L75.3272 76.4358H67.0157L64.3639 79.9333H52.4508L54.7248 71.325C54.7248 71.325 51.9103 79.5088 40.138 80.0099L27.7753 80.0631L17.8426 70.4271C17.8426 70.4271 17.7109 70.1044 17.3938 70.1877C17.0742 70.2659 16.996 70.8754 16.996 70.8754L14.6686 79.9333H2.51886L8.4112 58.9636L15.2905 58.962L15.5426 58.0361H7.77688L1.36914 80.8821H15.2661L17.7276 71.4579L27.3651 80.945H38.1703C38.1705 80.9448 47.5974 81.5648 52.6485 75.8823Z" fill="#ED1C24" style="fill:#ED1C24;fill:color(display-p3 0.9294 0.1098 0.1412);fill-opacity:1;"/>
<path d="M14.6406 59.7698L25.0573 70.0118C25.0573 70.0118 25.2352 70.2562 25.5264 70.1825C25.8428 70.1355 25.8938 69.7189 25.8938 69.7189L28.415 60.3618H43.6988C43.6988 60.3618 47.122 60.1316 50.1879 61.2295C53.2533 62.3259 56.0005 65.3944 55.3482 69.0938L57.6912 60.2363H63.7583L58.8745 78.4776L73.6931 60.1269H81.1966L79.0405 62.7974C79.0405 62.7974 78.154 63.5773 78.6366 64.8024L82.1317 78.2083L87.2386 59.2798H86.3069L82.1484 74.9254L79.4766 64.7257C79.4766 64.7257 79.1192 63.9159 79.9071 63.0781L82.9262 59.3625H73.2396L60.7124 74.858L64.8207 59.3813H57.0252L55.5506 64.9591C55.5506 64.9591 54.3562 61.9109 50.4279 60.517C46.8395 59.2436 43.6316 59.5819 43.6316 59.5819H27.7072L25.1995 68.9673L15.8527 59.7698H14.6406Z" fill="#ED1C24" style="fill:#ED1C24;fill:color(display-p3 0.9294 0.1098 0.1412);fill-opacity:1;"/>
<path d="M40.4939 74.5434C44.3157 74.5215 47.619 72.5323 48.345 69.8084C48.5448 69.0599 48.5995 67.9776 47.7194 67.1223C46.8956 66.3062 45.4906 65.8849 43.6547 65.8944L39.6574 65.8867L37.3635 74.5437L40.4939 74.5434Z" fill="white" style="fill:white;fill-opacity:1;"/>
<path d="M53.3324 63.25C51.9768 61.9108 49.347 60.3321 44.4891 60.3572L34.2173 60.4088L29.0391 80.0377L39.6569 80.0033C47.2016 80.0202 53.6361 75.7742 55.1006 70.2625C55.8166 67.5685 55.1894 65.0811 53.3324 63.25ZM49.177 69.9868C48.35 73.0929 44.7037 75.3561 40.4958 75.3812L36.2315 75.3828L38.9937 64.9778H43.6502C45.7147 64.9637 47.334 65.476 48.3233 66.4549C49.2381 67.3583 49.5436 68.6145 49.177 69.9868Z" fill="white" style="fill:white;fill-opacity:1;"/>
<path d="M8.75842 79.148C8.35351 79.0116 8.34505 78.7661 8.34505 78.5073C8.34505 78.4949 8.35747 78.3868 8.37623 78.2663L13.2804 59.7744H9.0584L3.65845 79.148H8.75842Z" fill="url(#paint8_linear_112_782)"/>
<path d="M49.176 69.9869C48.349 73.0929 44.7027 75.3562 40.4947 75.3813L36.2305 75.3829L38.9927 64.9778H43.6492C45.7136 64.9638 47.333 65.476 48.3223 66.455C49.237 67.3584 49.5426 68.6146 49.176 69.9869Z" fill="#ED1B2F" style="fill:#ED1B2F;fill:color(display-p3 0.9294 0.1059 0.1843);fill-opacity:1;"/>
<path d="M40.4939 74.5434C44.3157 74.5215 47.619 72.5323 48.345 69.8084C48.5448 69.0599 48.5995 67.9776 47.7194 67.1223C46.8956 66.3062 45.4906 65.8849 43.6547 65.8944L39.6574 65.8867L37.3635 74.5437L40.4939 74.5434Z" fill="white" style="fill:white;fill-opacity:1;"/>
<path d="M74.2 71.9819H70.4512L73.3207 68.436L74.2 71.9819Z" fill="#ED1C24" style="fill:#ED1C24;fill:color(display-p3 0.9294 0.1098 0.1412);fill-opacity:1;"/>
<path d="M117.925 72.5323C117.405 72.0594 116.982 72.0875 115.662 72.097L113.897 72.1049C112.352 72.0483 111.037 71.8245 109.72 71.3123C108.888 70.9911 108.057 70.4617 108.032 70.4461C106.239 69.146 106.066 67.5549 106.129 66.6901C106.129 66.5916 106.134 66.4303 106.15 66.2266L103.711 75.3267C104.407 74.8304 105.248 74.5436 106.148 74.5391L114.701 74.7474C115.519 74.6768 117.731 74.7585 118.061 73.5633C118.14 73.2747 118.098 72.6858 117.925 72.5323ZM114.706 73.8839L106.146 73.6772C105.697 73.6788 105.26 73.7431 104.847 73.8543L106.003 69.4939C106.353 70.0185 106.863 70.5463 107.591 71.035C109.72 72.4649 112.229 72.7987 113.864 72.8566L115.682 72.8912C116.709 72.8835 117.227 72.8082 117.289 73.1011C117.437 73.7335 116.628 73.862 114.706 73.8839Z" fill="#ED1B2F" style="fill:#ED1B2F;fill:color(display-p3 0.9294 0.1059 0.1843);fill-opacity:1;"/>
<path d="M76.8431 78.8661L76.0216 75.4563L66.5533 75.5018L63.9163 78.9322L59.5371 78.9557L71.1059 64.621L74.0515 60.9855L79.3418 60.9575L77.9827 62.6366L77.9627 62.6713C77.6389 63.1552 77.5083 63.6938 77.5734 64.2327L77.5834 64.289L81.3909 78.8447L76.8431 78.8661ZM68.6529 72.7718L75.4185 72.734L73.8266 66.0617L68.6529 72.7718Z" fill="url(#paint9_linear_112_782)"/>
<path d="M30.0996 79.1106L34.8621 61.1874L44.4792 61.1375C49.0419 61.114 51.4721 62.5642 52.7077 63.7845C54.3369 65.3914 54.8858 67.5859 54.2497 69.9604C52.8814 75.1151 46.6008 79.0262 39.6338 79.0638L30.0996 79.1106ZM35.0915 76.1908L40.4843 76.1628C45.0673 76.1393 49.0659 73.602 49.9934 70.1312C50.4437 68.4365 50.0536 66.8874 48.911 65.7612C47.7582 64.6223 45.9279 64.0242 43.6295 64.0379L38.3136 64.0662L35.0915 76.1908Z" fill="url(#paint10_linear_112_782)"/>
<path d="M58.1046 78.34C58.1046 78.312 58.1744 77.8027 58.18 77.7541C58.2183 77.4565 58.3594 76.88 58.4118 76.6546L62.5624 61.042L58.3348 61.0655L54.0299 77.2783L53.574 78.9886L57.7991 78.9683H57.8718L57.8734 78.9635L58.5021 78.9603C58.1189 78.7708 58.1046 78.5985 58.1046 78.34Z" fill="url(#paint11_linear_112_782)"/>
<path d="M102.223 60.8488L100.249 68.2746L100.245 68.3093L99.8317 69.8583L99.8079 69.8988L99.4682 71.1645C99.298 71.5731 98.984 71.4997 98.8128 71.4198L97.7384 70.3658C97.7291 70.3531 97.7104 70.3423 97.6977 70.3344L97.6633 70.3092L95.7537 68.4047L95.6536 68.3029L87.747 60.4463L82.8516 78.8518L87.1512 78.8266L87.7768 78.8235C87.3947 78.634 87.3838 78.4632 87.3814 78.2079C87.3814 78.1751 87.4512 77.6677 87.4565 77.6159C87.5104 77.2416 87.7142 76.4223 87.7142 76.4223L89.0534 71.3931H89.0479L89.2931 70.48L89.503 69.695L89.5109 69.6842L89.8336 68.5001C89.9965 68.0928 90.3176 68.1681 90.4883 68.2448L91.4757 69.2238L91.4985 69.2378L92.3789 70.1134L93.6483 71.3601H93.6351L101.26 78.9411H101.636L106.212 61.7839C106.294 61.4409 106.421 61.1229 106.585 60.8285L102.223 60.8488Z" fill="url(#paint12_linear_112_782)"/>
<path d="M121.674 69.5642C122.235 70.3957 122.623 71.4561 122.623 72.623C122.623 76.069 119.531 78.6219 116.656 78.8098L114.512 78.9509C113.761 78.9884 113.213 78.9885 113.103 78.9885C113.103 78.9885 112.12 79.0215 110.981 78.9557C103.426 78.5579 102.735 79.0167 102.735 79.0167C102.698 78.7707 102.753 78.44 102.798 78.2209C102.826 78.0581 102.876 77.8607 102.952 77.6445C103.45 76.2833 104.655 75.353 106.148 75.3435L114.69 75.5501C115.565 75.5441 118.223 75.5174 118.9 73.6268C119.167 72.8907 118.916 72.3674 118.744 72.128C118.275 71.4622 117.326 71.2021 115.663 71.2069L113.926 71.19C112.632 71.1477 110.826 70.8062 109.716 70.3566C108.956 70.045 108.534 69.6924 108.534 69.6924C107.145 68.6619 106.921 67.4197 106.987 66.6648C107.008 65.9615 107.235 60.3229 116.011 60.0221C116.011 60.0221 116.942 59.9658 117.386 59.9658L120.19 59.9925C121.083 60.0364 122.503 60.0364 123.435 60.0753C124.072 60.0803 124.577 60.0753 125.217 60.0803C125.872 60.0599 126.655 60.0599 127.477 59.9048C127.477 59.9048 127.459 60.8304 127.275 61.3614C126.778 62.7368 125.844 63.3915 124.342 63.4055L115.515 63.4367C114.636 63.4509 111.827 63.5321 111.281 65.3365L111.268 65.3756C111.101 65.8862 111.169 66.3889 111.459 66.7835C111.931 67.4353 112.888 67.7141 114.565 67.7094L117.485 67.6906C117.485 67.6909 120.319 67.5437 121.674 69.5642Z" fill="url(#paint13_linear_112_782)"/>
<path d="M76.7374 44.5306L76.938 43.7896L68.9703 49.1824L63.9927 43.9899L60.459 57.0356H64.8313L66.22 51.9168L68.0556 53.8936L70.5191 52.216L69.2137 57.0356H73.5821L74.1234 55.0525C74.1234 55.0525 74.9943 56.5358 77.0971 57.0136C79.9798 57.7386 82.4936 56.5752 82.9252 56.3746C83.435 56.1428 84.252 55.6728 84.7288 55.2296L84.2449 57.0356H88.6204L90.0072 51.9168L91.843 53.8936L94.3074 52.216L93.0004 57.0356H104.276C104.276 57.0356 105.979 57.1294 107.414 56.4293L108.477 55.1183C108.477 55.1183 107.905 55.6604 107.108 55.9937C106.309 56.3304 105.476 56.5577 104.239 56.5199H93.6802L95.1806 51.005L91.9228 53.2122L89.7534 50.8784L88.2218 56.5138H84.9246L85.8846 52.9769C85.8846 52.9769 85.3451 54.2112 83.952 55.1886C82.8988 55.9279 81.6613 56.4496 80.1936 56.65C79.604 56.7314 77.7652 56.8849 76.2598 56.1829C75.807 55.9715 74.19 55.1527 74.0544 53.2447L73.1851 56.5136H69.8927L71.3868 51.0047L68.1298 53.2119L65.966 50.8781L64.4341 56.5136H61.1332L64.2557 45.0109L68.9114 49.8333L76.7374 44.5306Z" fill="#ED1C24" style="fill:#ED1C24;fill:color(display-p3 0.9294 0.1098 0.1412);fill-opacity:1;"/>
<path d="M76.5596 45.2103L76.4219 45.732H79.1785L77.6517 51.3878C77.6517 51.3878 77.2224 52.5359 77.6374 53.2939C78.0494 54.0459 79.1897 54.4796 80.7316 53.9941C81.0614 53.886 82.5024 53.3254 83.0122 51.7118C83.0685 51.5255 83.8416 48.6531 83.8416 48.6531L84.639 45.7365H88.7365L92.6881 49.8575L98.8688 45.7333H106.74C106.74 45.7333 108.874 45.6316 109.845 46.9253C110.873 48.4509 109.556 49.9891 109.556 49.9891C109.556 49.9891 109.17 50.467 108.609 50.7833C108.609 50.7833 110.6 51.7887 109.264 54.1587L116.174 45.7056H120.302L119.003 47.2982C119.003 47.2982 118.682 47.5818 118.829 48.0454C118.982 48.5294 120.753 55.5635 120.753 55.5635L123.42 45.6881H126.72L123.796 56.4722H117.504L117.061 54.6083H112.462L111.001 56.4893H108.028L107.608 57.0111H111.255L112.718 55.1345H116.649L117.092 57.0111H124.189L127.397 45.168H123.023L120.762 53.5088L119.34 47.9593C119.34 47.9593 119.251 47.7872 119.414 47.6022C119.58 47.4235 121.4 45.1851 121.4 45.1851H115.926L110.209 52.1836C110.209 52.1836 110.149 51.4628 109.48 50.7942C109.48 50.7942 110.901 49.7243 110.731 47.8197C110.689 47.3593 110.306 45.5282 107.377 45.2274C107.182 45.2103 106.675 45.2103 106.675 45.2103H98.7121L92.7624 49.1825L88.9593 45.2103H84.2394L82.5632 51.3925C82.5632 51.3925 82.2304 52.9525 80.5413 53.5041C80.0988 53.6481 78.9724 53.8484 78.3439 53.3394C77.7143 52.8335 78.0791 51.7824 78.0791 51.7824L79.853 45.2103H76.5596Z" fill="#ED1C24" style="fill:#ED1C24;fill:color(display-p3 0.9294 0.1098 0.1412);fill-opacity:1;"/>
<path d="M106.115 48.2784H102.366L101.973 49.7352H105.529C106.206 49.7148 106.798 49.3187 106.84 48.7937C106.889 48.2644 106.115 48.2784 106.115 48.2784ZM105.589 49.2119L102.651 49.218L102.768 48.7982H106.058C106.058 48.7982 106.258 48.7856 106.307 48.8218C106.358 48.8611 106.058 49.196 105.589 49.2119Z" fill="#ED1C24" style="fill:#ED1C24;fill:color(display-p3 0.9294 0.1098 0.1412);fill-opacity:1;"/>
<path d="M105.544 52.2743L101.287 52.2695L100.824 53.9827L104.91 53.9751C105.655 53.928 106.391 53.4864 106.413 52.8943C106.44 52.2899 105.544 52.2743 105.544 52.2743ZM104.897 53.4599L101.501 53.4631L101.687 52.791H105.554C105.554 52.791 105.907 52.763 105.892 52.9165C105.878 53.073 105.515 53.4097 104.897 53.4599Z" fill="#ED1C24" style="fill:#ED1C24;fill:color(display-p3 0.9294 0.1098 0.1412);fill-opacity:1;"/>
<path d="M114.717 51.9598L115.88 50.5923L116.203 51.9598H114.717Z" fill="#ED1C24" style="fill:#ED1C24;fill:color(display-p3 0.9294 0.1098 0.1412);fill-opacity:1;"/>
<path d="M29.0149 61.2342L27.0477 68.6569L27.0382 68.6915L26.6253 70.245L26.6058 70.2797L26.2611 71.5502C26.0935 71.9556 25.7748 71.8837 25.6064 71.8055L24.5334 70.748C24.521 70.7372 24.5038 70.7279 24.4943 70.7136L24.4559 70.6901L22.5458 68.7872L22.4457 68.6867L14.5414 60.8301L9.66797 79.1576H14.4836C14.1891 78.9882 14.1788 78.8237 14.1756 78.5859C14.1756 78.5579 14.2462 78.0486 14.2507 77.9983C14.3001 77.6241 14.5068 76.8063 14.5068 76.8063L15.8492 71.7769H15.8405L16.0881 70.8656L16.298 70.0762L16.3051 70.0637L16.6262 68.8857C16.793 68.4753 17.111 68.5503 17.2793 68.6259L18.2715 69.6046L18.2911 69.6189L19.1752 70.4993L20.4417 71.7444H20.4285L27.8847 79.1578H28.472L33.0064 62.1635C33.0872 61.822 33.2131 61.5009 33.3809 61.2109L29.0149 61.2342Z" fill="url(#paint14_linear_112_782)"/>
</g>
<defs>
<linearGradient id="paint0_linear_112_782" x1="75.0754" y1="11.8748" x2="5.18659" y2="74.803" gradientUnits="userSpaceOnUse">
<stop stop-color="#004081" style="stop-color:#004081;stop-color:color(display-p3 0.0000 0.2510 0.5059);stop-opacity:1;"/>
<stop offset="0.1156" stop-color="#00488A" style="stop-color:#00488A;stop-color:color(display-p3 0.0000 0.2824 0.5412);stop-opacity:1;"/>
<stop offset="0.4913" stop-color="#0061A5" style="stop-color:#0061A5;stop-color:color(display-p3 0.0000 0.3804 0.6471);stop-opacity:1;"/>
<stop offset="0.7996" stop-color="#0070B8" style="stop-color:#0070B8;stop-color:color(display-p3 0.0000 0.4392 0.7216);stop-opacity:1;"/>
<stop offset="1" stop-color="#0077C0" style="stop-color:#0077C0;stop-color:color(display-p3 0.0000 0.4667 0.7529);stop-opacity:1;"/>
</linearGradient>
<radialGradient id="paint1_radial_112_782" cx="0" cy="0" r="1" gradientUnits="userSpaceOnUse" gradientTransform="translate(52.7299 30.8191) scale(34.41 34.41)">
<stop stop-color="#FFCC32" style="stop-color:#FFCC32;stop-color:color(display-p3 1.0000 0.8000 0.1961);stop-opacity:1;"/>
<stop offset="0.35" stop-color="#FFCC32" style="stop-color:#FFCC32;stop-color:color(display-p3 1.0000 0.8000 0.1961);stop-opacity:1;"/>
<stop offset="0.74" stop-color="#ED1B2F" style="stop-color:#ED1B2F;stop-color:color(display-p3 0.9294 0.1059 0.1843);stop-opacity:1;"/>
<stop offset="1" stop-color="#ED1B2F" style="stop-color:#ED1B2F;stop-color:color(display-p3 0.9294 0.1059 0.1843);stop-opacity:1;"/>
</radialGradient>
<linearGradient id="paint2_linear_112_782" x1="80.945" y1="56.1915" x2="80.8929" y2="46.2331" gradientUnits="userSpaceOnUse">
<stop stop-color="#003B7A" style="stop-color:#003B7A;stop-color:color(display-p3 0.0000 0.2314 0.4784);stop-opacity:1;"/>
<stop offset="0.1838" stop-color="#004080" style="stop-color:#004080;stop-color:color(display-p3 0.0000 0.2510 0.5020);stop-opacity:1;"/>
<stop offset="0.4834" stop-color="#004D90" style="stop-color:#004D90;stop-color:color(display-p3 0.0000 0.3020 0.5647);stop-opacity:1;"/>
<stop offset="0.8594" stop-color="#0062AA" style="stop-color:#0062AA;stop-color:color(display-p3 0.0000 0.3843 0.6667);stop-opacity:1;"/>
<stop offset="1" stop-color="#006CB7" style="stop-color:#006CB7;stop-color:color(display-p3 0.0000 0.4235 0.7176);stop-opacity:1;"/>
</linearGradient>
<linearGradient id="paint3_linear_112_782" x1="114.389" y1="55.9979" x2="114.338" y2="46.2357" gradientUnits="userSpaceOnUse">
<stop stop-color="#003B7A" style="stop-color:#003B7A;stop-color:color(display-p3 0.0000 0.2314 0.4784);stop-opacity:1;"/>
<stop offset="0.1838" stop-color="#004080" style="stop-color:#004080;stop-color:color(display-p3 0.0000 0.2510 0.5020);stop-opacity:1;"/>
<stop offset="0.4834" stop-color="#004D90" style="stop-color:#004D90;stop-color:color(display-p3 0.0000 0.3020 0.5647);stop-opacity:1;"/>
<stop offset="0.8594" stop-color="#0062AA" style="stop-color:#0062AA;stop-color:color(display-p3 0.0000 0.3843 0.6667);stop-opacity:1;"/>
<stop offset="1" stop-color="#006CB7" style="stop-color:#006CB7;stop-color:color(display-p3 0.0000 0.4235 0.7176);stop-opacity:1;"/>
</linearGradient>
<linearGradient id="paint4_linear_112_782" x1="103.634" y1="56.0028" x2="103.583" y2="46.2366" gradientUnits="userSpaceOnUse">
<stop stop-color="#003B7A" style="stop-color:#003B7A;stop-color:color(display-p3 0.0000 0.2314 0.4784);stop-opacity:1;"/>
<stop offset="0.1838" stop-color="#004080" style="stop-color:#004080;stop-color:color(display-p3 0.0000 0.2510 0.5020);stop-opacity:1;"/>
<stop offset="0.4834" stop-color="#004D90" style="stop-color:#004D90;stop-color:color(display-p3 0.0000 0.3020 0.5647);stop-opacity:1;"/>
<stop offset="0.8594" stop-color="#0062AA" style="stop-color:#0062AA;stop-color:color(display-p3 0.0000 0.3843 0.6667);stop-opacity:1;"/>
<stop offset="1" stop-color="#006CB7" style="stop-color:#006CB7;stop-color:color(display-p3 0.0000 0.4235 0.7176);stop-opacity:1;"/>
</linearGradient>
<linearGradient id="paint5_linear_112_782" x1="123.652" y1="55.9418" x2="123.601" y2="46.2212" gradientUnits="userSpaceOnUse">
<stop stop-color="#003B7A" style="stop-color:#003B7A;stop-color:color(display-p3 0.0000 0.2314 0.4784);stop-opacity:1;"/>
<stop offset="0.1838" stop-color="#004080" style="stop-color:#004080;stop-color:color(display-p3 0.0000 0.2510 0.5020);stop-opacity:1;"/>
<stop offset="0.4834" stop-color="#004D90" style="stop-color:#004D90;stop-color:color(display-p3 0.0000 0.3020 0.5647);stop-opacity:1;"/>
<stop offset="0.8594" stop-color="#0062AA" style="stop-color:#0062AA;stop-color:color(display-p3 0.0000 0.3843 0.6667);stop-opacity:1;"/>
<stop offset="1" stop-color="#006CB7" style="stop-color:#006CB7;stop-color:color(display-p3 0.0000 0.4235 0.7176);stop-opacity:1;"/>
</linearGradient>
<linearGradient id="paint6_linear_112_782" x1="92.4372" y1="56.0301" x2="92.3859" y2="46.2328" gradientUnits="userSpaceOnUse">
<stop stop-color="#003B7A" style="stop-color:#003B7A;stop-color:color(display-p3 0.0000 0.2314 0.4784);stop-opacity:1;"/>
<stop offset="0.1838" stop-color="#004080" style="stop-color:#004080;stop-color:color(display-p3 0.0000 0.2510 0.5020);stop-opacity:1;"/>
<stop offset="0.4834" stop-color="#004D90" style="stop-color:#004D90;stop-color:color(display-p3 0.0000 0.3020 0.5647);stop-opacity:1;"/>
<stop offset="0.8594" stop-color="#0062AA" style="stop-color:#0062AA;stop-color:color(display-p3 0.0000 0.3843 0.6667);stop-opacity:1;"/>
<stop offset="1" stop-color="#006CB7" style="stop-color:#006CB7;stop-color:color(display-p3 0.0000 0.4235 0.7176);stop-opacity:1;"/>
</linearGradient>
<linearGradient id="paint7_linear_112_782" x1="68.717" y1="56.0212" x2="68.6645" y2="45.9918" gradientUnits="userSpaceOnUse">
<stop stop-color="#003B7A" style="stop-color:#003B7A;stop-color:color(display-p3 0.0000 0.2314 0.4784);stop-opacity:1;"/>
<stop offset="0.1838" stop-color="#004080" style="stop-color:#004080;stop-color:color(display-p3 0.0000 0.2510 0.5020);stop-opacity:1;"/>
<stop offset="0.4834" stop-color="#004D90" style="stop-color:#004D90;stop-color:color(display-p3 0.0000 0.3020 0.5647);stop-opacity:1;"/>
<stop offset="0.8594" stop-color="#0062AA" style="stop-color:#0062AA;stop-color:color(display-p3 0.0000 0.3843 0.6667);stop-opacity:1;"/>
<stop offset="1" stop-color="#006CB7" style="stop-color:#006CB7;stop-color:color(display-p3 0.0000 0.4235 0.7176);stop-opacity:1;"/>
</linearGradient>
<linearGradient id="paint8_linear_112_782" x1="8.5199" y1="79.1492" x2="8.41917" y2="59.7777" gradientUnits="userSpaceOnUse">
<stop stop-color="#003B7A" style="stop-color:#003B7A;stop-color:color(display-p3 0.0000 0.2314 0.4784);stop-opacity:1;"/>
<stop offset="0.1838" stop-color="#004080" style="stop-color:#004080;stop-color:color(display-p3 0.0000 0.2510 0.5020);stop-opacity:1;"/>
<stop offset="0.4834" stop-color="#004D90" style="stop-color:#004D90;stop-color:color(display-p3 0.0000 0.3020 0.5647);stop-opacity:1;"/>
<stop offset="0.8594" stop-color="#0062AA" style="stop-color:#0062AA;stop-color:color(display-p3 0.0000 0.3843 0.6667);stop-opacity:1;"/>
<stop offset="1" stop-color="#006CB7" style="stop-color:#006CB7;stop-color:color(display-p3 0.0000 0.4235 0.7176);stop-opacity:1;"/>
</linearGradient>
<linearGradient id="paint9_linear_112_782" x1="70.4638" y1="78.9012" x2="70.3707" y2="61.0038" gradientUnits="userSpaceOnUse">
<stop stop-color="#003B7A" style="stop-color:#003B7A;stop-color:color(display-p3 0.0000 0.2314 0.4784);stop-opacity:1;"/>
<stop offset="0.1838" stop-color="#004080" style="stop-color:#004080;stop-color:color(display-p3 0.0000 0.2510 0.5020);stop-opacity:1;"/>
<stop offset="0.4834" stop-color="#004D90" style="stop-color:#004D90;stop-color:color(display-p3 0.0000 0.3020 0.5647);stop-opacity:1;"/>
<stop offset="0.8594" stop-color="#0062AA" style="stop-color:#0062AA;stop-color:color(display-p3 0.0000 0.3843 0.6667);stop-opacity:1;"/>
<stop offset="1" stop-color="#006CB7" style="stop-color:#006CB7;stop-color:color(display-p3 0.0000 0.4235 0.7176);stop-opacity:1;"/>
</linearGradient>
<linearGradient id="paint10_linear_112_782" x1="42.3321" y1="79.0496" x2="42.239" y2="61.149" gradientUnits="userSpaceOnUse">
<stop stop-color="#003B7A" style="stop-color:#003B7A;stop-color:color(display-p3 0.0000 0.2314 0.4784);stop-opacity:1;"/>
<stop offset="0.1838" stop-color="#004080" style="stop-color:#004080;stop-color:color(display-p3 0.0000 0.2510 0.5020);stop-opacity:1;"/>
<stop offset="0.4834" stop-color="#004D90" style="stop-color:#004D90;stop-color:color(display-p3 0.0000 0.3020 0.5647);stop-opacity:1;"/>
<stop offset="0.8594" stop-color="#0062AA" style="stop-color:#0062AA;stop-color:color(display-p3 0.0000 0.3843 0.6667);stop-opacity:1;"/>
<stop offset="1" stop-color="#006CB7" style="stop-color:#006CB7;stop-color:color(display-p3 0.0000 0.4235 0.7176);stop-opacity:1;"/>
</linearGradient>
<linearGradient id="paint11_linear_112_782" x1="58.1149" y1="78.9669" x2="58.0218" y2="61.0656" gradientUnits="userSpaceOnUse">
<stop stop-color="#003B7A" style="stop-color:#003B7A;stop-color:color(display-p3 0.0000 0.2314 0.4784);stop-opacity:1;"/>
<stop offset="0.1838" stop-color="#004080" style="stop-color:#004080;stop-color:color(display-p3 0.0000 0.2510 0.5020);stop-opacity:1;"/>
<stop offset="0.4834" stop-color="#004D90" style="stop-color:#004D90;stop-color:color(display-p3 0.0000 0.3020 0.5647);stop-opacity:1;"/>
<stop offset="0.8594" stop-color="#0062AA" style="stop-color:#0062AA;stop-color:color(display-p3 0.0000 0.3843 0.6667);stop-opacity:1;"/>
<stop offset="1" stop-color="#006CB7" style="stop-color:#006CB7;stop-color:color(display-p3 0.0000 0.4235 0.7176);stop-opacity:1;"/>
</linearGradient>
<linearGradient id="paint12_linear_112_782" x1="94.765" y1="78.9772" x2="94.6685" y2="60.4107" gradientUnits="userSpaceOnUse">
<stop stop-color="#003B7A" style="stop-color:#003B7A;stop-color:color(display-p3 0.0000 0.2314 0.4784);stop-opacity:1;"/>
<stop offset="0.1838" stop-color="#004080" style="stop-color:#004080;stop-color:color(display-p3 0.0000 0.2510 0.5020);stop-opacity:1;"/>
<stop offset="0.4834" stop-color="#004D90" style="stop-color:#004D90;stop-color:color(display-p3 0.0000 0.3020 0.5647);stop-opacity:1;"/>
<stop offset="0.8594" stop-color="#0062AA" style="stop-color:#0062AA;stop-color:color(display-p3 0.0000 0.3843 0.6667);stop-opacity:1;"/>
<stop offset="1" stop-color="#006CB7" style="stop-color:#006CB7;stop-color:color(display-p3 0.0000 0.4235 0.7176);stop-opacity:1;"/>
</linearGradient>
<linearGradient id="paint13_linear_112_782" x1="115.15" y1="78.9832" x2="115.05" y2="59.97" gradientUnits="userSpaceOnUse">
<stop stop-color="#004081" style="stop-color:#004081;stop-color:color(display-p3 0.0000 0.2510 0.5059);stop-opacity:1;"/>
<stop offset="1" stop-color="#0077C0" style="stop-color:#0077C0;stop-color:color(display-p3 0.0000 0.4667 0.7529);stop-opacity:1;"/>
</linearGradient>
<linearGradient id="paint14_linear_112_782" x1="21.5714" y1="79.1937" x2="21.4751" y2="60.7937" gradientUnits="userSpaceOnUse">
<stop stop-color="#003B7A" style="stop-color:#003B7A;stop-color:color(display-p3 0.0000 0.2314 0.4784);stop-opacity:1;"/>
<stop offset="0.1838" stop-color="#004080" style="stop-color:#004080;stop-color:color(display-p3 0.0000 0.2510 0.5020);stop-opacity:1;"/>
<stop offset="0.4834" stop-color="#004D90" style="stop-color:#004D90;stop-color:color(display-p3 0.0000 0.3020 0.5647);stop-opacity:1;"/>
<stop offset="0.8594" stop-color="#0062AA" style="stop-color:#0062AA;stop-color:color(display-p3 0.0000 0.3843 0.6667);stop-opacity:1;"/>
<stop offset="1" stop-color="#006CB7" style="stop-color:#006CB7;stop-color:color(display-p3 0.0000 0.4235 0.7176);stop-opacity:1;"/>
</linearGradient>
<clipPath id="clip0_112_782">
<rect width="130.166" height="82" fill="white" style="fill:white;fill-opacity:1;"/>
</clipPath>
</defs>
</svg>
