<svg width="25" height="32" viewBox="0 0 25 32" fill="none" xmlns="http://www.w3.org/2000/svg">
<path d="M20.8291 0.214311C21.2628 0.520092 21.5708 0.858687 21.7255 1.37447C21.7879 1.99811 21.7054 2.49086 21.3037 2.98287C20.9871 3.31116 20.7495 3.4372 20.297 3.46297C19.8796 3.46786 19.482 3.45686 19.0712 3.37837C19.0386 3.43375 19.006 3.48913 18.9724 3.54619C18.7354 3.90078 18.4233 4.19074 18.122 4.49019C18.0594 4.55271 17.9968 4.61522 17.9323 4.67964C17.4951 5.11051 17.0531 5.50144 16.54 5.83931C16.5511 5.88744 16.5623 5.93557 16.5738 5.98515C16.6693 6.52328 16.7148 7.13741 16.423 7.61965C16.167 7.94157 15.8813 8.1784 15.4853 8.30025C14.8664 8.35368 14.179 8.40766 13.6572 8.019C13.3625 7.76576 13.1501 7.5346 13.0991 7.14009C13.0969 7.01828 13.0969 7.01828 13.0947 6.894C13.0247 6.89681 12.9547 6.89962 12.8827 6.90251C12.5912 6.89365 12.3354 6.83823 12.0576 6.75777C12.0113 6.74494 11.9649 6.73212 11.9172 6.7189C11.7221 6.66447 11.5291 6.60651 11.3369 6.54244C11.2083 6.63696 11.2083 6.63696 11.082 6.77095C10.7937 7.03545 10.5294 7.18162 10.1416 7.24556C9.89107 7.22359 9.89107 7.22359 9.64937 7.17525C9.54832 7.17322 9.44721 7.17325 9.34615 7.17525C9.08687 7.17525 9.08687 7.17525 8.94625 7.10494C8.92667 7.19195 8.92667 7.19195 8.9067 7.28072C8.76938 7.61505 8.55849 7.82751 8.31344 8.08931C8.25579 8.1533 8.19815 8.21729 8.13875 8.28322C7.7985 8.66089 7.45029 9.02972 7.09176 9.39009C7.05748 9.42469 7.0232 9.45929 6.98788 9.49494C6.42234 10.0581 6.42234 10.0581 6.20406 10.0581C6.27367 10.2669 6.34328 10.4757 6.415 10.6909C6.50201 10.6677 6.58902 10.6445 6.67867 10.6206C7.08281 10.529 7.47935 10.5377 7.89156 10.5502C7.89419 10.5052 7.89682 10.4602 7.89953 10.4137C7.93612 9.93229 8.01266 9.58626 8.29146 9.18355C8.53783 9.01709 8.72184 9.05497 9.01656 9.07369C9.23374 9.08402 9.23374 9.08402 9.45601 9.00337C9.96535 8.87178 10.5882 8.82773 11.0781 9.02892C11.3759 9.21079 11.5087 9.41473 11.5962 9.75292C11.6574 10.0691 11.6954 10.3684 11.6884 10.6909C11.7609 10.6677 11.8335 10.6445 11.9082 10.6206C12.3433 10.509 12.7897 10.539 13.2353 10.5502C13.2664 10.4835 13.2664 10.4835 13.2982 10.4154C13.3759 10.269 13.3759 10.269 13.4946 10.1767C13.7261 10.1079 13.9147 10.1552 14.1494 10.1987C14.3012 10.2064 14.3012 10.2064 14.479 10.1328C14.9829 9.97113 15.5984 9.87608 16.1049 10.0756C16.3179 10.1926 16.4612 10.289 16.6103 10.4799C16.6103 10.5495 16.6103 10.6192 16.6103 10.6909C16.6891 10.6756 16.7678 10.6604 16.849 10.6447C16.9525 10.6249 17.0561 10.6052 17.1596 10.5854C17.2115 10.5753 17.2634 10.5653 17.3169 10.5549C17.5299 10.5144 17.7289 10.4799 17.9462 10.4799C17.9446 10.4125 17.9446 10.4125 17.9429 10.3436C17.9216 9.32507 17.9513 8.32156 18.0385 7.30708C18.0448 7.23042 18.0448 7.23042 18.0511 7.1522C18.1626 5.80132 18.1626 5.80132 18.4682 5.43965C18.6367 5.29904 18.7849 5.29375 19.0009 5.27681C19.2382 5.30757 19.2382 5.30757 19.4228 5.34712C19.4228 5.32392 19.4228 5.30072 19.4228 5.27681C19.6219 5.24916 19.8211 5.22303 20.0205 5.19771C20.1039 5.18588 20.1039 5.18588 20.1891 5.17381C20.5818 5.12554 20.8744 5.1509 21.2509 5.27681C21.5804 5.54178 21.7192 5.78676 21.7709 6.20447C21.7779 6.33152 21.7779 6.33152 21.7851 6.46114C21.7879 6.50826 21.7906 6.55538 21.7934 6.60394C21.8022 6.75919 21.8101 6.91447 21.8178 7.06978C21.8237 7.17816 21.8295 7.28654 21.8354 7.39492C21.899 8.60992 21.9283 9.82614 21.9541 11.0424C22.0448 11.04 22.1355 11.0375 22.229 11.035C22.3498 11.033 22.4705 11.0311 22.5913 11.0293C22.6509 11.0275 22.7105 11.0257 22.7719 11.0239C23.2684 11.0181 23.6054 11.0884 23.9799 11.4379C24.3952 11.9991 24.3197 12.8642 24.3491 13.5341C24.3519 13.5963 24.3548 13.6585 24.3578 13.7226C24.4442 15.6325 24.462 17.5447 24.4806 19.4563C24.484 19.8011 24.4886 20.1459 24.4937 20.4906C24.5006 20.9568 24.5056 21.423 24.5092 21.8893C24.5108 22.0625 24.5131 22.2358 24.5159 22.4091C24.5197 22.6485 24.5212 22.8879 24.5221 23.1274C24.5245 23.2313 24.5245 23.2313 24.5269 23.3374C24.5255 23.8248 24.4145 24.2093 24.1337 24.6127C23.6415 25.0368 23.0841 25.1257 22.4552 25.1274C22.3948 25.1281 22.3343 25.1288 22.2721 25.1295C22.0739 25.1317 21.8757 25.1329 21.6775 25.134C21.5395 25.1354 21.4014 25.1367 21.2634 25.1382C20.9013 25.1418 20.5391 25.1446 20.177 25.1472C19.807 25.15 19.437 25.1536 19.067 25.1571C18.3419 25.1639 17.6167 25.1699 16.8916 25.1752C16.9245 25.2167 16.9574 25.2582 16.9913 25.301C17.2127 25.5824 17.4288 25.8589 17.6095 26.1687C17.6459 26.2307 17.6824 26.2927 17.7199 26.3565C17.7569 26.4206 17.7939 26.4847 17.832 26.5507C17.8912 26.6523 17.8912 26.6523 17.9517 26.7559C18.0676 26.9553 18.1828 27.155 18.2978 27.3549C18.3289 27.4086 18.36 27.4624 18.392 27.5177C18.6873 28.029 18.969 28.5455 19.2338 29.0732C19.2575 29.1201 19.2811 29.1671 19.3055 29.2155C19.4311 29.4686 19.5393 29.7227 19.6381 29.9873C19.693 30.1313 19.693 30.1313 19.7744 30.2377C20.0188 30.2961 20.0188 30.2961 20.2666 30.3081C20.4486 30.4621 20.5374 30.5675 20.5646 30.8079C20.5653 30.9461 20.5572 31.0843 20.5478 31.2221C20.4782 31.2453 20.4086 31.2685 20.3369 31.2924C20.3369 31.3388 20.3369 31.3852 20.3369 31.4331C19.7816 31.5188 19.2726 31.5438 18.79 31.2221C18.7457 30.8896 18.8241 30.7242 19.0009 30.4487C18.9701 30.4134 18.9393 30.3782 18.9076 30.3418C18.4424 29.7869 18.0735 29.1784 17.692 28.5647C17.4243 28.138 17.14 27.722 16.8539 27.3074C16.3674 26.5977 15.9808 25.9785 15.9072 25.1049C15.5596 25.1133 15.212 25.1221 14.8643 25.1311C14.7464 25.1341 14.6284 25.1371 14.5104 25.1399C13.8948 25.1548 13.2848 25.1714 12.6728 25.2456C12.6867 25.3216 12.6867 25.3216 12.7008 25.3992C12.8082 26.0339 12.8529 26.663 12.8841 27.3053C12.8926 27.4787 12.9017 27.6521 12.9109 27.8254C12.9167 27.9378 12.9225 28.0501 12.9282 28.1624C12.9309 28.2132 12.9335 28.264 12.9362 28.3163C12.9618 28.8482 12.9725 29.3636 12.8837 29.8906C12.8707 29.9697 12.8576 30.0488 12.8442 30.1304C12.829 30.2183 12.829 30.2183 12.8134 30.3081C12.8579 30.328 12.9024 30.3479 12.9483 30.3685C13.0947 30.4487 13.0947 30.4487 13.187 30.6069C13.2456 30.8415 13.2306 30.99 13.165 31.2221C13.0474 31.3775 12.9768 31.4272 12.7865 31.4765C12.328 31.5196 11.968 31.4898 11.5478 31.2924C11.4775 31.2221 11.4775 31.2221 11.4555 30.9892C11.4775 30.7299 11.4775 30.7299 11.6093 30.5585C11.7587 30.4487 11.7587 30.4487 11.8994 30.4487C11.8845 30.3844 11.8845 30.3844 11.8692 30.3188C11.7319 29.6341 11.7374 28.9549 11.7404 28.259C11.7412 28.0512 11.7404 27.8434 11.7395 27.6356C11.7396 27.4994 11.7398 27.3632 11.7401 27.2269C11.7398 27.1669 11.7395 27.1069 11.7392 27.045C11.7439 26.4091 11.8278 25.8191 11.8994 25.1752C10.368 25.2101 10.368 25.2101 8.80562 25.2456C8.6664 25.5936 8.52719 25.9417 8.38375 26.3002C8.24484 26.5694 8.10526 26.8303 7.95308 27.0913C7.91362 27.1599 7.87415 27.2285 7.83349 27.2992C7.20301 28.3872 6.5182 29.4295 5.78219 30.4487C5.80539 30.4719 5.82859 30.4951 5.8525 30.519C5.88501 30.9498 5.88501 30.9498 5.77367 31.16C5.59491 31.3392 5.44359 31.3668 5.19771 31.4199C5.11967 31.4377 5.04164 31.4556 4.96123 31.474C4.71952 31.5044 4.54074 31.4946 4.30562 31.4331C4.12917 31.2331 4.09663 31.0954 4.05953 30.831C4.09469 30.5893 4.09469 30.5893 4.23092 30.4179C4.52015 30.2704 4.76067 30.2831 5.07906 30.3081C5.08604 30.2366 5.09302 30.1652 5.10021 30.0916C5.15198 29.8012 5.2375 29.6022 5.37349 29.3413C5.39747 29.2948 5.42144 29.2484 5.44614 29.2005C5.50167 29.0932 5.55753 28.986 5.61365 28.8789C5.72633 28.6632 5.83737 28.4466 5.94835 28.23C6.97613 26.2285 6.97613 26.2285 7.47779 25.4785C7.51577 25.4217 7.55376 25.3648 7.5929 25.3063C7.62185 25.263 7.6508 25.2198 7.68062 25.1752C7.61809 25.1766 7.61809 25.1766 7.55429 25.1779C4.01016 25.2524 4.01016 25.2524 2.77415 25.258C2.63969 25.2587 2.50524 25.2601 2.37079 25.2615C1.60896 25.2624 0.978597 25.1851 0.400533 24.6539C0.0448835 24.265 -0.00492993 23.8111 0.00035645 23.3043C0.00035999 23.2507 0.000363531 23.197 0.000367179 23.1418C0.000626909 22.9583 0.00198245 22.7748 0.00337769 22.5913C0.00391739 22.457 0.00442535 22.3228 0.00490548 22.1886C0.00722669 21.6841 0.0118169 21.1797 0.0165613 20.6752C0.0170559 20.6216 0.0175516 20.568 0.0180612 20.5128C0.0261433 19.6367 0.0352521 18.7606 0.0451515 17.8845C0.0472951 17.6939 0.0493849 17.5032 0.0514708 17.3125C0.0649857 16.0946 0.080727 14.8767 0.115713 13.6591C0.117732 13.5765 0.11975 13.4939 0.12183 13.4089C0.148582 12.5838 0.176743 11.7443 0.772421 11.1215C1.31585 10.7662 1.85393 10.8059 2.4775 10.9018C2.61916 10.9454 2.76019 10.9914 2.89937 11.0424C2.90227 10.9511 2.90517 10.8597 2.90816 10.7656C2.96312 10.2932 3.18542 9.94432 3.55279 9.6458C3.94792 9.37572 4.23066 9.27323 4.71431 9.26705C4.79888 9.26523 4.88344 9.26342 4.97057 9.26155C5.24007 9.28651 5.40933 9.36042 5.64156 9.49556C5.69005 9.43347 5.73854 9.37139 5.7885 9.30742C6.15216 8.84266 6.51784 8.3801 6.894 7.92534C7.00096 7.79489 7.10632 7.66313 7.21041 7.53038C7.50404 7.15888 7.76866 6.86212 8.17281 6.61275C8.15758 6.57015 8.14236 6.52755 8.12667 6.48366C7.93353 5.90244 7.84705 5.41021 8.10689 4.83736C8.35782 4.38837 8.7026 4.06474 9.19701 3.90379C9.72618 3.80102 10.3241 3.76854 10.7972 4.05925C11.2417 4.40848 11.4419 4.79245 11.5478 5.34712C11.5478 5.43994 11.5478 5.53275 11.5478 5.62837C11.6394 5.63263 11.7309 5.63689 11.8252 5.64128C11.9466 5.64722 12.068 5.65317 12.1894 5.65913C12.2496 5.6619 12.3098 5.66466 12.3718 5.66751C12.6307 5.68046 12.8709 5.69594 13.1252 5.75032C13.3063 5.79016 13.3063 5.79016 13.4218 5.67809C13.4665 5.61215 13.4665 5.61215 13.5122 5.54488C13.7709 5.20459 14.0749 5.00751 14.5009 4.92525C15.0337 4.88515 15.4845 4.92702 15.9775 5.13619C16.2092 4.87343 16.4397 4.60978 16.6655 4.34187C17.8755 2.9089 17.8755 2.9089 18.3681 2.74556C18.3333 2.68175 18.2985 2.61794 18.2627 2.5522C18.0888 2.14221 18.0783 1.66745 18.2083 1.24263C18.467 0.687338 18.9593 0.265087 19.5283 0.0517129C20.0096 -0.0428401 20.3974 -0.0183562 20.8291 0.214311ZM19.3525 1.55025C19.2458 1.8535 19.2633 2.03994 19.3964 2.32369C19.5489 2.59669 19.7275 2.84716 19.915 3.09712C20.2802 3.00046 20.4778 2.7636 20.6884 2.46431C20.7757 2.20247 20.7968 1.96286 20.7587 1.69087C20.6171 1.42705 20.5158 1.29456 20.2666 1.12837C19.85 1.05264 19.6057 1.23691 19.3525 1.55025ZM9.2275 5.27681C9.09132 5.49843 9.09132 5.49843 9.08687 5.769C9.23018 6.17751 9.47007 6.54269 9.71969 6.894C10.0849 6.79734 10.2825 6.56048 10.4931 6.26119C10.5894 5.97229 10.6153 5.71887 10.5634 5.41744C10.4565 5.20767 10.3337 5.06163 10.1416 4.92525C9.72053 4.83503 9.51116 4.96676 9.2275 5.27681ZM19.0712 5.48775C18.9055 5.63943 18.8 5.76534 18.7694 5.99244C18.7687 6.19367 18.7772 6.39286 18.7884 6.5938C18.7915 6.67467 18.7946 6.75555 18.7979 6.83888C18.805 7.02118 18.8126 7.2034 18.8209 7.38565C18.8448 7.91649 18.8624 8.44757 18.8801 8.97865C18.8822 9.03963 18.8842 9.1006 18.8864 9.16342C18.9571 11.2778 18.9765 13.3936 19.0052 15.5089C19.0097 15.8469 19.0144 16.1849 19.0191 16.523C19.037 17.8133 19.0544 19.1036 19.0712 20.394C19.3212 20.4995 19.4928 20.5505 19.7648 20.533C19.8271 20.5294 19.8894 20.5257 19.9536 20.522C20.0177 20.5175 20.0818 20.5129 20.1479 20.5083C20.2134 20.5043 20.2789 20.5003 20.3463 20.4962C20.5073 20.4863 20.6682 20.4756 20.8291 20.4643C20.9254 20.2717 20.9103 20.1162 20.9127 19.9005C20.9139 19.8101 20.9151 19.7197 20.9163 19.6266C20.9172 19.5258 20.9182 19.4249 20.9191 19.3241C20.9204 19.2183 20.9217 19.1124 20.923 19.0066C20.9258 18.7777 20.9283 18.5488 20.9307 18.3199C20.9345 17.9546 20.9388 17.5893 20.9432 17.2239C20.9501 16.6419 20.9567 16.0599 20.9631 15.4779C20.9745 14.449 20.9862 13.4201 20.9983 12.3911C21.002 12.0809 21.0055 11.7708 21.009 11.4606C21.0343 9.16206 21.0343 9.16206 21.0675 8.03019C21.0696 7.95477 21.0717 7.87935 21.074 7.80164C21.0835 7.47061 21.0943 7.1397 21.1074 6.8088C21.111 6.69917 21.1145 6.58954 21.118 6.47992C21.1234 6.34317 21.1234 6.34317 21.1289 6.20367C21.1086 5.9598 21.0741 5.86686 20.8994 5.69869C20.7148 5.63717 20.5935 5.61675 20.4033 5.6086C20.3485 5.60597 20.2937 5.60334 20.2372 5.60063C20.1517 5.59696 20.1517 5.59696 20.0644 5.59322C19.384 5.56373 19.384 5.56373 19.0712 5.48775ZM14.2988 6.38863C14.1811 6.61744 14.1962 6.77895 14.2197 7.03462C14.3049 7.22376 14.4168 7.38833 14.5361 7.55757C14.5663 7.6023 14.5965 7.64703 14.6276 7.69312C14.7015 7.80243 14.7769 7.91082 14.8525 8.019C15.251 7.7615 15.5741 7.51199 15.6962 7.03462C15.6911 6.71077 15.6672 6.49224 15.4721 6.23042C15.018 5.8167 14.7009 5.99996 14.2988 6.38863ZM8.75811 9.37044C8.37314 9.88777 8.67271 11.2717 8.69906 11.8973C8.73326 12.7498 8.75295 13.602 8.76664 14.455C8.77059 14.7 8.77482 14.945 8.77912 15.1901C8.79127 15.885 8.80296 16.5799 8.81441 17.2748C8.8215 17.7036 8.82892 18.1324 8.83654 18.5612C8.83936 18.7239 8.84205 18.8865 8.84461 19.0491C8.84815 19.2742 8.85211 19.4993 8.85616 19.7244C8.85711 19.7916 8.85806 19.8588 8.85905 19.9281C8.86022 19.9889 8.8614 20.0496 8.86262 20.1122C8.8635 20.1653 8.86438 20.2183 8.86528 20.273C8.86307 20.3962 8.86307 20.3962 8.94625 20.4643C9.07146 20.4704 9.1969 20.4718 9.32226 20.4712C9.39816 20.471 9.47407 20.4707 9.55228 20.4705C9.63218 20.4699 9.71208 20.4693 9.79439 20.4687C9.87456 20.4684 9.95473 20.4681 10.0373 20.4677C10.2361 20.4669 10.4349 20.4658 10.6337 20.4643C10.7404 20.2509 10.7196 20.0278 10.7238 19.7933C10.7251 19.7369 10.7264 19.6805 10.7277 19.6224C10.7319 19.4299 10.7356 19.2374 10.7392 19.0449C10.742 18.9065 10.7449 18.7682 10.7477 18.6299C10.8011 15.9534 10.8491 13.2756 10.8535 10.5986C10.8537 10.5472 10.8538 10.4958 10.854 10.4429C10.8544 10.3046 10.8542 10.1664 10.854 10.0281C10.8539 9.95459 10.8539 9.88105 10.8538 9.80529C10.8559 9.63526 10.8559 9.63526 10.7744 9.49556C10.5116 9.40798 10.2576 9.40275 9.98336 9.39009C9.87898 9.38517 9.77461 9.38005 9.67025 9.37471C9.61954 9.37217 9.56882 9.36964 9.51658 9.36702C9.36812 9.35494 9.36812 9.35494 9.09676 9.3044C8.88161 9.2607 8.88161 9.2607 8.75811 9.37044ZM4.23531 10.6206C4.05405 10.8311 4.02586 10.9439 4.01119 11.2226C4.08251 11.665 4.39905 12.0256 4.65719 12.3784C5.05568 12.1209 5.37882 11.8714 5.50094 11.394C5.49566 11.1008 5.46822 10.7909 5.29 10.5502C4.87746 10.2463 4.62529 10.3136 4.23531 10.6206ZM14.0791 10.3393C13.9152 10.454 13.8293 10.5227 13.7275 10.6909C13.7035 10.8563 13.7035 10.8563 13.7124 11.0444C13.714 11.1203 13.7156 11.1962 13.7172 11.2744C13.7331 11.6755 13.753 12.0763 13.7739 12.4772C13.8746 14.4218 13.8959 16.3662 13.9127 18.313C13.9149 18.5543 13.9172 18.7955 13.9196 19.0368C13.9211 19.2057 13.9222 19.3746 13.9233 19.5435C13.9243 19.6454 13.9252 19.7473 13.9262 19.8491C13.9269 19.9378 13.9276 20.0264 13.9283 20.1177C13.9244 20.3191 13.9244 20.3191 14.0087 20.4643C14.2885 20.4663 14.5683 20.4676 14.8481 20.4687C14.9679 20.4696 14.9679 20.4696 15.0902 20.4705C15.1661 20.4707 15.242 20.4709 15.3202 20.4712C15.3906 20.4715 15.4609 20.4719 15.5334 20.4723C15.6936 20.4827 15.6936 20.4827 15.7666 20.394C15.783 20.2094 15.7946 20.0266 15.8031 19.8416C15.806 19.7825 15.8089 19.7234 15.8119 19.6625C15.8721 18.3578 15.8874 17.0508 15.9122 15.7451C15.9224 15.2128 15.9335 14.6806 15.9459 14.1484C15.9556 13.7259 15.9638 13.3033 15.9715 12.8808C15.9749 12.7018 15.9789 12.5229 15.9833 12.3439C15.9894 12.0951 15.9938 11.8463 15.9976 11.5974C15.9999 11.5236 16.0021 11.4498 16.0043 11.3737C16.015 10.9844 16.015 10.9844 15.8459 10.6457C15.6711 10.5342 15.5571 10.5083 15.3507 10.4945C15.2531 10.4868 15.2531 10.4868 15.1535 10.479C15.0524 10.4729 15.0524 10.4729 14.9492 10.4668C14.8149 10.4572 14.6807 10.4474 14.5465 10.4374C14.4872 10.4336 14.4279 10.4299 14.3667 10.4261C14.2197 10.4096 14.2197 10.4096 14.0791 10.3393ZM1.07125 11.8159C0.990484 11.9774 0.991926 12.067 0.991752 12.2467C0.991633 12.3087 0.991513 12.3706 0.99139 12.4345C0.99173 12.5037 0.992071 12.5729 0.992422 12.6442C0.992623 12.7182 0.992824 12.7922 0.993031 12.8685C0.999041 13.9456 1.03244 15.0223 1.06188 16.0989C1.07719 16.6586 1.09221 17.2184 1.10668 17.7782C1.1083 17.8406 1.10991 17.903 1.11158 17.9673C1.13288 18.8 1.14799 19.6325 1.15524 20.4655C1.15665 20.6258 1.15821 20.7861 1.15983 20.9464C1.16424 21.394 1.16815 21.8415 1.16886 22.2891C1.16953 22.5111 1.17191 22.733 1.17397 22.9549C1.17361 23.034 1.17325 23.1132 1.17288 23.1947C1.17382 23.2668 1.17476 23.3389 1.17572 23.4132C1.17602 23.5068 1.17602 23.5068 1.17633 23.6022C1.22451 23.8283 1.31576 23.9048 1.49312 24.0502C1.66835 24.0924 1.66835 24.0924 1.86257 24.0865C1.97544 24.0879 1.97544 24.0879 2.09059 24.0894C2.2145 24.0888 2.21451 24.0888 2.34092 24.0882C2.47263 24.0892 2.47263 24.0892 2.60699 24.0902C2.85086 24.092 3.0947 24.0921 3.33858 24.0919C3.60153 24.092 3.86447 24.0937 4.12742 24.0952C4.64263 24.0979 5.15783 24.099 5.67305 24.0997C6.27292 24.1005 6.87277 24.1027 7.47263 24.1049C8.54296 24.1088 9.6133 24.1113 10.6836 24.1131C11.7224 24.1148 12.7611 24.1177 13.7999 24.1219C14.9306 24.1264 16.0614 24.1302 17.1921 24.1329C17.3127 24.1332 17.4332 24.1335 17.5538 24.1338C17.6131 24.1339 17.6725 24.1341 17.7336 24.1342C18.1518 24.1353 18.57 24.1368 18.9881 24.1384C19.4978 24.1405 20.0075 24.1417 20.5172 24.142C20.7773 24.1421 21.0374 24.1426 21.2975 24.1441C21.5793 24.1456 21.8612 24.1454 22.1431 24.1452C22.2254 24.1458 22.3077 24.1465 22.3925 24.1473C22.9411 24.145 22.9411 24.145 23.4306 23.9096C23.5321 23.7067 23.5152 23.5286 23.5207 23.3015C23.522 23.2508 23.5233 23.2 23.5246 23.1477C23.5288 22.971 23.5325 22.7943 23.5361 22.6176C23.5375 22.555 23.5388 22.4923 23.5403 22.4277C23.5726 20.9441 23.5902 19.4602 23.6084 17.9763C23.6108 17.7872 23.6131 17.5981 23.6155 17.4091C23.6239 16.7391 23.6313 16.069 23.6368 15.399C23.6394 15.0779 23.6424 14.7567 23.6462 14.4356C23.6502 14.1 23.6531 13.7643 23.6552 13.4286C23.6562 13.3012 23.6575 13.1738 23.6592 13.0465C23.6616 12.8703 23.6626 12.6941 23.6632 12.5179C23.6642 12.466 23.6652 12.4142 23.6662 12.3607C23.6657 12.0489 23.6218 11.8533 23.4306 11.6049C23.2431 11.481 23.0768 11.4422 22.8549 11.4204C22.8061 11.4151 22.7572 11.4099 22.7069 11.4044C22.5333 11.3949 22.362 11.393 22.1883 11.3933C22.1312 11.3934 22.0742 11.3935 22.0155 11.3936C21.9503 11.3938 21.9503 11.3938 21.8837 11.394C21.8782 12.5742 21.884 13.7538 21.9011 14.9339C21.9041 15.1399 21.907 15.3459 21.9098 15.5519C21.9216 16.4004 21.9216 16.4004 21.9346 17.2489C21.9403 17.6006 21.9452 17.9524 21.9497 18.3041C21.9515 18.436 21.9535 18.5679 21.9559 18.6998C21.9919 20.724 21.9919 20.724 21.5322 21.2377C21.149 21.585 20.6747 21.5441 20.1831 21.5673C20.1125 21.5716 20.0419 21.5758 19.9692 21.5801C19.347 21.6097 18.7938 21.5808 18.2978 21.1674C17.8803 20.6605 17.9251 19.8793 17.9238 19.2584C17.9228 19.1348 17.9228 19.1348 17.9217 19.0087C17.9195 18.7386 17.9183 18.4685 17.9171 18.1984C17.9158 18.0102 17.9144 17.822 17.913 17.6339C17.9097 17.1907 17.9071 16.7474 17.9048 16.3042C17.9021 15.7992 17.8986 15.2941 17.8951 14.7891C17.8879 13.7512 17.8816 12.7132 17.8759 11.6752C17.5047 11.652 17.1334 11.6288 16.7509 11.6049C16.7472 12.5016 16.7544 13.3978 16.7663 14.2944C16.7671 14.3527 16.7679 14.411 16.7687 14.4711C16.776 15.0212 16.7836 15.5713 16.7912 16.1214C16.8002 16.7732 16.8087 17.425 16.8156 18.0768C16.819 18.3905 16.8233 18.7042 16.8286 19.0178C16.8321 19.2422 16.8343 19.4665 16.8366 19.6909C16.8383 19.7692 16.8399 19.8476 16.8416 19.9284C16.845 20.4352 16.8175 20.8784 16.4521 21.2641C15.9275 21.5741 15.3806 21.5447 14.7866 21.5454C14.6996 21.5471 14.6126 21.5488 14.523 21.5506C14.0134 21.5522 13.6642 21.5218 13.2353 21.2377C12.958 20.8894 12.8758 20.627 12.8682 20.1887C12.8666 20.1025 12.8649 20.0163 12.8633 19.9274C12.8618 19.8326 12.8604 19.7377 12.859 19.6428C12.8574 19.5443 12.8557 19.4459 12.854 19.3474C12.8496 19.0842 12.8458 18.8209 12.8421 18.5577C12.8398 18.3947 12.8374 18.2317 12.835 18.0687C12.8123 16.498 12.8131 14.9324 12.8837 13.3627C12.8907 13.1876 12.8976 13.0125 12.9043 12.8373C12.9196 12.4499 12.9362 12.0626 12.9541 11.6752C12.5364 11.652 12.1187 11.6288 11.6884 11.6049C11.6891 11.7173 11.6897 11.8297 11.6903 11.9455C11.696 13.0049 11.7003 14.0643 11.703 15.1237C11.7045 15.6683 11.7064 16.2129 11.7097 16.7576C11.7125 17.2324 11.7143 17.7073 11.7149 18.1821C11.7153 18.4334 11.7161 18.6847 11.7182 18.936C11.7204 19.2169 11.7205 19.4978 11.7204 19.7788C11.7214 19.8616 11.7224 19.9443 11.7234 20.0296C11.721 20.5122 11.6679 20.8277 11.4072 21.2377C10.9397 21.6058 10.2744 21.5613 9.7109 21.5542C9.58187 21.5558 9.58187 21.5558 9.45025 21.5574C8.94516 21.5553 8.59928 21.515 8.17281 21.2377C7.69162 20.7059 7.73049 19.9356 7.73497 19.2584C7.73495 19.176 7.73493 19.0936 7.73491 19.0087C7.73501 18.7386 7.7361 18.4685 7.7372 18.1984C7.73747 18.0102 7.73767 17.822 7.73781 17.6339C7.73824 17.1907 7.73939 16.7474 7.74081 16.3042C7.74239 15.7992 7.74316 15.2941 7.74386 14.7891C7.74533 13.7511 7.74782 12.7132 7.75094 11.6752C7.28687 11.652 6.82281 11.6288 6.34469 11.6049C6.22867 11.7906 6.11265 11.9762 5.99312 12.1674C5.61197 12.5295 5.25739 12.6154 4.74068 12.6113C4.66552 12.6108 4.66552 12.6108 4.58883 12.6102C4.07204 12.5987 3.67161 12.4968 3.27346 12.1444C3.08395 11.9044 2.99429 11.6112 2.89937 11.3237C2.23123 11.298 1.54878 11.2996 1.07125 11.8159Z" fill="#E6F1F5" style="fill:#E6F1F5;fill:color(display-p3 0.9020 0.9451 0.9608);fill-opacity:1;"/>
</svg>
