<svg width="256" height="131" viewBox="0 0 256 131" fill="none" xmlns="http://www.w3.org/2000/svg">
<path d="M255.109 128.439C238.617 128.517 222.126 128.551 205.635 128.682C176.341 128.915 147.049 129.207 117.756 129.482C117.264 129.486 116.775 129.609 116.282 129.636C115.759 129.664 115.233 129.642 114.707 129.642C114.702 129.517 114.697 129.392 114.692 129.267C115.115 129.211 115.538 129.113 115.962 129.108C117.369 129.091 118.483 128.449 119.421 127.48C120.249 126.626 120.197 125.869 119.144 125.343C117.949 124.746 116.681 124.24 115.389 123.908C113.264 123.361 111.104 122.931 108.939 122.566C108.008 122.409 107.029 122.54 106.041 122.742C108.274 123.682 110.108 125.014 111.556 126.853C112.035 127.462 112.476 128.118 112.825 128.807C113.222 129.59 112.932 130.143 112.084 130.097C110.319 130.003 108.539 129.88 106.815 129.527C106.158 129.392 105.424 128.703 105.101 128.074C104.498 126.896 104.123 125.591 103.753 124.311C103.641 123.925 103.857 123.445 103.908 123.103C101.493 121.097 98.9405 119.179 96.6291 117.005C93.7155 114.265 90.9732 111.34 88.2059 108.448C86.1488 106.299 84.1289 104.11 82.1748 101.867C81.3684 100.941 80.7421 99.8497 80.1 98.7935C79.5822 97.9418 79.6479 97.0524 80.1239 96.1633C81.1925 94.1674 82.8649 92.7535 84.6312 91.4307C85.3667 90.8799 86.1438 90.3846 86.9622 89.8227C86.8126 89.6856 86.7042 89.5604 86.5723 89.4692C82.2922 86.5089 77.9943 83.5739 73.7432 80.5727C73.032 80.0706 72.5227 79.283 71.7395 78.4308C70.475 78.8721 68.884 79.3409 67.3632 79.977C64.5845 81.1394 61.8212 82.3459 59.0987 83.6337C54.9455 85.5983 52.8595 88.8665 52.8962 93.5287C52.9109 95.3945 52.5741 97.2632 52.3938 99.1303C52.3577 99.5038 52.3054 99.8757 52.2214 100.573C53.8601 99.0402 55.0299 97.6098 55.5413 95.6901C56.1612 93.3636 56.8364 91.0514 57.5169 88.7416C57.6361 88.3369 57.8995 87.9745 58.2228 87.5872C58.6045 89.8392 60.5046 90.6483 61.868 91.8823C62.0272 91.8328 62.1225 91.8334 62.1551 91.7886C63.4015 90.0734 64.949 90.1733 66.6663 90.9798C71.6572 93.3236 76.118 96.4203 79.9625 100.369C80.4554 100.875 80.6356 101.685 80.9607 102.354C80.2276 102.304 79.3757 102.48 78.7805 102.168C74.5183 99.9312 70.2918 97.6242 66.091 95.2736C64.7093 94.5004 63.4368 93.5322 62.0296 92.5969C61.262 93.4597 60.4844 94.2759 59.7716 95.1453C57.3455 98.1048 54.9303 101.074 52.5378 104.06C51.8547 104.913 52.0187 105.064 53.0054 105.572C54.1285 106.149 55.255 106.807 56.1936 107.64C59.5386 110.608 62.6153 113.835 65.2446 117.472C66.1831 118.771 67.3202 119.932 68.1952 121.268C68.764 122.136 69.0823 123.188 69.4042 124.193C69.7279 125.203 69.2568 125.984 68.3009 126.304C65.1296 127.362 62.0212 127.11 59.0118 125.662C58.8254 125.573 58.5793 125.436 58.5261 125.269C58.1282 124.018 57.1021 124.241 56.181 124.241C38.0223 124.245 19.8637 124.254 1.70499 124.261C1.18266 124.261 0.660341 124.261 0.138017 124.261C0.128226 124.158 0.118434 124.055 0.108643 123.952C0.410517 123.911 0.712371 123.836 1.01427 123.835C19.4923 123.824 37.9703 123.814 56.4483 123.83C57.4453 123.831 58.2877 123.853 58.7908 122.746C59.0054 122.274 59.5957 121.973 60.2547 121.378C59.4294 121.052 58.8586 120.689 58.2502 120.608C53.2099 119.932 48.6061 118.033 44.2204 115.58C42.1157 114.402 40.3345 112.746 39.3993 110.488C38.4821 108.274 37.9455 105.936 38.8069 103.52C40.5077 98.7502 42.1955 93.9753 43.8886 89.2022C44.9307 86.2645 46.0113 83.3393 46.9823 80.3783C47.1795 79.7767 46.9616 79.0397 46.9378 78.3651C46.9161 77.7498 46.8893 77.1342 46.8991 76.5192C46.8997 76.48 47.3295 76.3963 47.3369 76.416C47.5611 77.0185 47.9182 77.6299 47.9236 78.2428C47.9342 79.4378 48.3082 80.076 49.7853 80.5775C49.5076 79.1046 49.2943 77.7221 48.9787 76.3632C48.5862 74.6733 48.0969 73.0061 47.6733 71.3232C47.3993 70.2345 47.4059 69.1981 48.4199 68.5182C47.7751 67.3219 47.1119 66.2017 46.5562 65.0307C45.9516 63.7565 45.9567 62.4542 46.5121 61.1211C48.5023 56.3443 48.1472 57.9352 45.828 53.6875C45.2571 54.1385 44.7186 54.8864 44.0878 54.9745C43.4176 55.068 42.66 54.5357 41.895 54.2603C40.5237 56.2478 38.3506 56.057 36.2843 55.9266C32.2843 55.6741 30.5196 53.5854 30.9669 49.624C31.2237 47.349 31.7068 45.0994 32.1048 42.7385C31.7206 43.0761 31.3688 43.4323 30.9704 43.7251C30.2482 44.256 29.6731 44.114 29.431 43.259C29.2659 42.6759 29.1715 41.9839 29.3252 41.4163C29.8053 39.6435 30.7515 38.1236 32.0987 36.8412C32.437 36.5192 32.6544 35.9948 32.7641 35.5253C32.965 34.6664 33.0108 33.7722 33.1897 32.9069C33.2658 32.5384 33.514 32.2055 33.7716 31.6763C34.3228 32.6343 34.7479 33.3734 35.173 34.1124L35.5147 34.1193C34.3623 31.4982 34.6352 29.3327 37.2659 27.9478C38.2262 27.4423 39.2113 27.0406 40.1841 28.0178C40.4198 27.7355 40.6195 27.4964 40.8674 27.1994C39.7774 25.9914 40.5738 25.0452 41.3346 24.1444C45.3624 19.375 49.2367 14.5039 52.3465 9.05715C53.7673 6.5687 55.4024 4.20035 56.9834 1.80595C58.2157 -0.0602716 59.0448 -0.32528 61.0672 0.670021C62.1977 1.22642 63.258 1.97727 64.2346 2.78048C65.4107 3.74772 65.506 4.27176 64.8688 5.66322C64.3251 6.85062 63.6389 7.97282 63.0174 9.12477C58.586 17.3385 52.1013 23.7091 44.8241 29.3703C43.3486 30.5181 43.3936 30.5164 43.9661 32.3372C44.7497 34.8296 46.1332 36.7949 48.3782 38.2365C50.4294 39.5536 52.3302 41.1046 54.367 42.6039C56.39 41.4931 58.749 41.5348 61.0696 41.3983C61.7972 41.3555 62.2649 41.134 62.3519 40.2988C61.0046 40.5081 59.7205 40.7103 58.4353 40.9052C58.1552 40.9477 57.8718 40.9773 57.5889 40.9912C55.2071 41.1083 54.0016 39.5867 54.6609 37.2689C54.7298 37.0268 54.936 36.7019 55.1364 36.6533C55.334 36.6054 55.6794 36.8008 55.8306 36.9917C56.3735 37.6771 56.8616 38.4057 57.4984 39.2974C57.7263 38.2679 57.8613 37.4156 58.118 36.6017C58.2441 36.2021 58.596 35.8735 58.8457 35.5128C59.139 35.8216 59.507 36.0885 59.7089 36.4484C60.0455 37.0486 60.2757 37.7082 60.7762 38.3216C60.8115 37.8887 60.7953 37.4432 60.8979 37.0269C60.984 36.6775 61.2085 36.3622 61.3717 36.0319C61.7299 36.2109 62.1265 36.3411 62.4349 36.5833C62.7197 36.8069 62.9098 37.1507 63.3008 37.6414V34.2305C62.5986 34.3058 61.9369 34.3259 61.2969 34.4542C58.8651 34.9417 56.4425 35.4747 54.0117 35.9676C53.2122 36.1298 52.9735 36.5707 53.1252 37.3403C53.2549 37.9981 53.3528 38.6674 53.3886 39.3357C53.401 39.5673 53.2368 39.88 53.0509 40.0206C52.956 40.0924 52.6238 39.8843 52.4201 39.7661C52.3045 39.699 52.2149 39.5683 52.1422 39.4488C51.3661 38.1746 50.3861 37.1321 49.1665 36.2266C47.8693 35.2634 47.8251 34.3703 48.5199 32.8978C48.6154 32.6953 48.6511 32.4158 48.5985 32.2002C48.2007 30.5678 48.742 29.1521 49.7378 27.944C51.7564 25.495 54.2499 23.9527 57.5912 24.4316C59.4669 24.7004 60.9394 25.615 61.6481 27.4466C62.0052 28.3696 62.5116 28.8998 63.5658 28.8783C64.0448 28.8686 64.5447 29.0434 65.003 29.2186C65.226 29.3038 65.3751 29.5821 65.5577 29.773C65.3656 29.9524 65.201 30.2318 64.9765 30.2934C64.0809 30.5392 63.2646 30.4288 62.49 29.7968C62.1146 29.4904 61.492 29.2502 61.0328 29.3197C57.2679 29.8895 53.6366 30.9533 50.1197 32.4202C49.3418 32.7446 49.2147 33.1605 49.5803 33.8791C50.0851 34.8712 50.535 35.8913 51.0085 36.8994C51.1391 36.8931 51.2697 36.8868 51.4003 36.8805C51.566 36.2276 51.7901 35.5833 51.887 34.9204C52.2589 32.3761 52.4557 32.0134 55.0052 31.5017C57.2554 31.0501 59.5583 30.8604 61.8377 30.5541C62.8762 30.4145 63.422 30.8452 63.5542 31.905C63.6598 32.7515 63.5035 33.737 64.6611 34.1451C64.8698 34.2187 64.9781 34.9288 64.9276 35.3185C64.7695 36.54 64.5147 37.7491 64.2945 38.9624C64.2296 39.3198 64.1549 39.6754 64.055 40.1828C64.5778 40.1053 64.9161 39.9966 65.2466 40.0165C66.4707 40.0903 67.7628 39.9864 68.9008 40.3504C71.6832 41.2402 72.7934 42.9596 72.4526 45.861C72.189 48.1056 71.733 50.3404 71.1894 52.5368C70.0238 57.2472 70.3241 61.8739 71.6366 66.4976C72.1583 68.3355 72.5501 70.2107 72.9817 72.0734C73.5383 74.476 73.0016 76.4973 70.8779 77.9488C70.8014 78.0012 70.7615 78.1069 70.7045 78.1878C70.7691 78.279 70.8336 78.3703 70.8982 78.4615C71.8037 77.8537 72.7092 77.246 73.6146 76.6382C73.6836 76.6728 73.7526 76.7074 73.8215 76.7419C73.6255 77.0844 73.4872 77.482 73.2224 77.7589C72.4682 78.5473 72.412 78.9236 73.3315 79.645C75.7002 81.5033 78.0667 83.3724 80.5322 85.0973C82.9037 86.7564 85.3983 88.2401 87.8657 89.8182C87.8145 89.8529 87.612 90.0044 87.3964 90.1341C85.1682 91.4744 83.0625 92.9684 81.4044 95.0045C79.8321 96.9352 79.7763 97.7049 81.14 99.7477C81.8047 100.743 82.5726 101.671 83.2938 102.629C83.3689 102.586 83.4441 102.543 83.5193 102.5C83.2921 102.073 83.0806 101.638 82.835 101.222C82.0011 99.812 81.8811 98.397 82.5835 96.8701C83.5639 94.739 84.6288 92.6916 87.0061 91.8342C89.1245 91.0701 91.0676 91.229 92.7584 92.9839C96.0507 96.4012 98.7504 100.268 101.239 104.265C104.083 108.832 106.709 113.536 109.397 118.198C109.748 118.808 109.907 119.529 110.156 120.198C110.034 120.289 109.912 120.379 109.79 120.47C109.356 120.085 108.83 119.765 108.504 119.303C106.561 116.557 104.685 113.764 102.745 111.016C101.195 108.818 99.6139 106.641 97.9847 104.501C97.5633 103.948 96.9096 103.571 96.3627 103.113C96.2444 103.198 96.1261 103.282 96.0078 103.367C96.2225 103.931 96.3447 104.555 96.6668 105.05C98.6965 108.164 100.763 111.254 102.834 114.342C103.603 115.489 104.43 116.598 105.201 117.744C105.439 118.097 105.581 118.515 105.767 118.903C105.689 118.973 105.61 119.044 105.532 119.115C105.18 118.878 104.804 118.67 104.479 118.401C100.608 115.187 96.7582 111.947 92.8668 108.757C91.9475 108.004 90.8937 107.414 89.9017 106.749C89.8001 106.84 89.6985 106.931 89.5969 107.022C89.9099 107.472 90.1547 107.995 90.5472 108.359C92.6489 110.311 94.7657 112.248 96.92 114.141C98.7295 115.732 100.606 117.246 102.432 118.818C102.77 119.11 103.008 119.517 103.153 120.024C101.134 119.48 99.6867 118.078 98.1232 116.888C96.5385 115.681 95.0369 114.366 93.456 113.157C94.5169 114.262 95.5009 115.456 96.6551 116.452C98.878 118.372 101.19 120.189 103.481 122.03C104.117 122.541 104.796 122.592 105.653 122.426C106.916 122.183 108.286 122.035 109.533 122.264C112.348 122.783 115.116 123.556 117.902 124.232C118.072 124.273 118.232 124.361 118.394 124.431C120.943 125.534 121.09 126.866 118.852 128.559C118.746 128.639 118.649 128.732 118.337 129.001C118.939 129.001 119.304 129.004 119.668 129C142.684 128.788 165.7 128.542 188.717 128.373C210.847 128.211 232.978 128.13 255.109 128.014V128.439ZM48.2585 57.9846C47.7755 59.1752 47.1884 60.286 46.8888 61.4696C46.657 62.3856 46.5863 63.4408 46.8066 64.3461C47.0505 65.3485 47.6948 66.2571 48.1876 67.1946C48.5953 67.9704 49.1765 68.2915 50.1361 68.3032C52.3156 68.33 54.0488 69.432 55.4504 71.0398C55.6601 71.2803 55.7519 71.768 55.6598 72.0683C55.6101 72.2301 55.0433 72.3304 54.7301 72.2923C54.246 72.2334 53.725 72.1219 53.3152 71.8745C52.0485 71.1097 50.8316 70.2629 49.5845 69.4649C49.2865 69.2742 48.7255 68.9561 48.6628 69.0275C48.3608 69.3712 48.016 69.8251 48.0082 70.2458C47.9955 70.9375 48.2081 71.6391 48.3659 72.3273C48.8958 74.6377 49.5005 76.9327 49.9651 79.2559C50.2953 80.9071 50.2142 80.9522 51.9137 81.0097C56.9115 81.1787 61.795 80.3159 66.6761 79.3855C68.3052 79.075 69.6453 78.3018 70.9301 77.3317C72.4448 76.1881 73.0272 74.6859 72.6716 72.8491C72.3557 71.2168 72.0716 69.565 71.5776 67.9829C69.7776 62.2192 69.5344 56.455 71.1675 50.6064C71.6315 48.9447 71.8398 47.2044 72.0722 45.4875C72.3148 43.6943 71.5708 42.336 70.0394 41.3655C68.0546 40.1076 65.9866 40.0464 63.8182 40.8578C63.7435 40.531 63.6742 40.2272 63.6047 39.9235L63.3191 39.8379C63.0666 40.2706 62.8141 40.7033 62.4916 41.2559C62.9095 41.2759 63.1177 41.2933 63.3259 41.2947C65.3505 41.3074 66.2465 42.2102 66.1693 44.2263C66.1464 44.8223 66.1193 45.4666 65.8849 45.9963C65.3211 47.2706 64.6334 48.4901 63.9553 49.8104C65.4056 52.1644 66.2442 54.8983 66.4517 57.7942C66.5306 58.8953 66.3671 60.0606 66.0703 61.1291C65.7534 62.27 64.9945 62.5463 63.908 62.0743C63.2008 61.767 62.484 61.3901 61.9082 60.8878C59.3734 58.6769 56.8898 56.4075 54.3832 54.1643C54.1212 53.9298 53.83 53.7278 53.5524 53.5108C53.4322 53.6196 53.312 53.7284 53.1918 53.8372C54.5534 55.8021 55.8539 57.813 57.2927 59.7197C58.9558 61.9237 60.7817 64.005 62.443 66.2102C62.8413 66.739 62.8678 67.5473 63.0654 68.2271C62.3595 68.2505 61.6128 68.436 60.9547 68.2702C57.4403 67.3853 54.5792 65.3914 52.1807 62.7403C50.8104 61.2257 49.5745 59.5898 48.2585 57.9846ZM42.44 30.4753C42.753 30.3024 43.2611 30.0607 43.7251 29.7527C44.0757 29.5199 44.3755 29.2084 44.6883 28.9214C48.4141 25.5027 52.1938 22.14 55.8453 18.6437C58.8213 15.7942 60.5509 12.0283 62.7796 8.63391C63.4937 7.54622 64.0841 6.36024 64.5832 5.15794C64.7605 4.73081 64.691 3.95629 64.4045 3.62478C63.2084 2.24081 61.7093 1.23256 59.9394 0.688419C59.0351 0.410406 58.286 0.596125 57.7387 1.4598C56.8487 2.86449 55.91 4.23835 54.9948 5.6272C51.9602 10.2324 49.4284 15.1707 45.8195 19.3961C44.3717 21.0913 42.9478 22.8088 41.5734 24.5633C41.2044 25.0343 40.6889 25.9347 40.8726 26.1983C41.6064 27.2514 41.0054 27.8061 40.375 28.4676C39.7715 29.1009 39.9609 29.9172 40.7934 30.2067C41.2182 30.3545 41.6927 30.3599 42.44 30.4753ZM109.268 119.549C109.332 119.508 109.396 119.467 109.46 119.426C109.384 119.241 109.328 119.045 109.229 118.874C106.428 114.036 103.789 109.093 100.765 104.399C98.3566 100.662 95.6059 97.1211 92.7648 93.6939C90.5521 91.0248 86.9987 91.2304 84.818 93.9631C83.9741 95.0206 83.4514 96.3391 82.8173 97.5569C82.34 98.4735 82.3484 99.454 82.9065 100.301C84.3632 102.51 85.5778 105.004 87.4564 106.787C91.7642 110.877 96.4088 114.612 100.923 118.485C101.101 118.637 101.34 118.717 101.551 118.831C101.077 118.194 100.505 117.722 99.9461 117.236C96.8733 114.566 93.7961 111.901 90.7409 109.211C90.2946 108.817 89.8957 108.337 89.5925 107.827C89.3821 107.473 89.3735 106.999 89.2747 106.579C89.6986 106.609 90.1529 106.554 90.5384 106.692C90.9959 106.855 91.4267 107.142 91.8128 107.447C94.4247 109.51 97.0384 111.571 99.6176 113.674C101.247 115.003 102.817 116.403 104.414 117.771C103.416 115.951 102.199 114.319 101.076 112.624C99.3757 110.058 97.6996 107.474 96.1136 104.838C95.8097 104.333 95.9693 103.549 95.9151 102.894C96.5313 103.138 97.1689 103.34 97.7549 103.641C98.0537 103.795 98.2858 104.108 98.5036 104.384C99.3369 105.439 100.207 106.472 100.964 107.58C103.2 110.854 105.378 114.168 107.605 117.448C108.105 118.185 108.711 118.85 109.268 119.549ZM52.7577 52.8713C54.12 53.0353 54.713 53.8814 55.4239 54.5068C57.7889 56.5873 60.0866 58.7474 62.512 60.754C63.1858 61.3115 64.3673 61.8957 65.0424 61.6658C66.1183 61.2995 66.089 59.9197 66.0792 58.8709C66.0531 56.0653 65.3607 53.4075 64.0594 50.9159C63.8859 50.5836 63.6725 50.2721 63.4834 49.9605C61.0387 51.1678 60.824 51.158 59.4758 49.833C54.7607 51.6763 50.6545 50.6137 47.0179 47.1526C48.0761 49.4492 48.6941 51.824 48.4227 54.2254C48.1442 56.6903 49.1069 58.4638 50.5648 60.2401C53.3072 63.5817 56.3505 66.4779 60.6214 67.7461C61.2774 67.9409 61.9649 68.0294 62.6379 68.1671C62.7056 68.0752 62.7733 67.9834 62.841 67.8915C62.6137 67.4396 62.4483 66.9409 62.1479 66.5442C61.0794 65.1331 59.9227 63.7877 58.8772 62.3605C56.9978 59.7952 55.1574 57.2007 53.3455 54.5874C53.0537 54.1665 52.9933 53.5854 52.7577 52.8713ZM65.6991 80.249C60.557 80.9185 55.4807 81.8028 50.1625 81.3224C50.5521 84.9093 49.6431 88.107 48.053 91.1439C47.4618 92.273 46.8482 93.3906 46.2321 94.5065C44.6922 97.2955 43.1405 100.078 41.607 102.871C41.4363 103.181 41.3519 103.539 41.1319 104.134C42.9985 103.152 44.7311 102.765 46.4357 103.312C47.8111 103.754 48.8044 103.438 49.7877 102.561C50.1036 102.279 50.4566 102.033 50.8168 101.809C51.4699 101.403 51.7787 100.839 51.8425 100.068C52.047 97.6004 52.3843 95.1404 52.5018 92.6694C52.6829 88.8653 54.2593 85.9082 57.5717 84.0102C59.256 83.0451 61.066 82.2966 62.8314 81.4764C63.7739 81.0385 64.7424 80.6563 65.6991 80.249ZM41.7906 38.3452C42.5175 39.6388 43.1377 40.8208 43.8302 41.9588C45.2535 44.2976 46.8195 46.5329 49.0536 48.1888C52.0031 50.3749 55.2191 50.8893 58.6981 49.6339C59.2221 49.4449 59.4633 49.2131 59.4357 48.5698C59.3457 46.4718 59.9318 44.5126 60.8912 42.6578C61.0126 42.423 61.1203 42.1811 61.2994 41.8063C58.9584 41.9687 56.7403 41.891 54.6887 42.9352C55.0389 43.6406 55.4799 44.1631 55.5149 44.7114C55.5448 45.1788 55.1438 45.6992 54.855 46.1456C54.7704 46.2764 54.2312 46.3008 54.2169 46.2609C54.0686 45.8463 53.9493 45.4129 53.8965 44.9756C53.8636 44.7034 53.918 44.4027 54.0039 44.1376C54.2201 43.4708 54.0215 42.9924 53.4681 42.5822C51.4494 41.0862 49.4741 39.5298 47.4245 38.0778C46.0853 37.1291 45.0124 35.9988 44.3673 34.4934C43.9113 33.4293 43.51 32.3418 43.0082 31.0724C41.2427 32.9497 39.5737 34.7243 37.7276 36.6874C39.069 37.0848 40.1185 37.3957 41.1656 37.7059C41.4964 36.602 41.0895 35.297 42.5391 35.0738C43.1292 34.9829 43.9275 36.1299 43.9204 36.9863C43.9103 38.209 42.9215 38.1541 41.7906 38.3452ZM33.5253 41.2189C33.4423 41.3294 33.0731 41.6248 32.9646 41.9963C32.0702 45.0585 31.2619 48.1408 31.3537 51.3745C31.4009 53.0372 32.2237 54.1979 33.7142 54.8541C35.812 55.7776 37.9831 55.8165 40.1482 55.1288C40.5787 54.9921 40.9554 54.5906 41.27 54.2347C41.3896 54.0994 41.367 53.6558 41.2351 53.5101C40.1524 52.3148 39.0286 51.1566 37.8752 49.9428C37.4249 50.6215 36.8544 50.9916 36.1865 50.386C35.5454 49.8048 36.0547 49.2649 36.3538 48.6916C36.5245 48.3644 36.4667 47.9048 36.4652 47.505C36.4637 47.1048 36.4041 46.7049 36.37 46.3049C36.735 46.281 37.0999 46.2558 37.465 46.2341C37.5635 46.2283 37.6626 46.2332 37.9304 46.2332C37.7662 44.8088 37.6067 43.4257 37.4804 42.3293C36.1003 41.9418 34.9514 41.6192 33.5253 41.2189ZM41.531 107.504C42.5669 108.428 43.6092 109.359 44.6556 110.286C44.7318 110.354 44.8732 110.455 44.9249 110.427C46.3384 109.682 47.1651 110.873 48.0757 111.479C51.1416 113.519 54.1318 115.673 57.1576 117.773C57.5431 118.041 57.9675 118.252 58.3739 118.49C58.202 117.92 57.9151 117.524 57.5902 117.162C55.1778 114.473 52.7473 111.801 50.3486 109.1C49.8345 108.521 49.3948 107.868 48.9878 107.207C48.8456 106.977 48.905 106.622 48.8724 106.324C49.1687 106.299 49.5036 106.173 49.7538 106.269C50.3447 106.495 50.9265 106.778 51.4574 107.122C55.8786 109.987 59.8518 113.384 63.4494 117.23C63.748 117.549 64.213 117.712 64.6006 117.948C64.6742 117.85 64.7477 117.752 64.8213 117.654C64.6345 117.364 64.4867 117.037 64.2551 116.789C61.5769 113.916 58.9593 110.98 56.1609 108.229C55.1131 107.198 53.6361 106.604 52.3559 105.809C52.129 105.668 51.9074 105.519 51.6499 105.352C51.4635 105.664 51.3058 105.928 51.2012 106.103C50.2382 105.494 49.5091 104.99 48.736 104.566C48.4646 104.418 48.0194 104.328 47.7652 104.447C45.73 105.405 43.7216 106.42 41.531 107.504ZM47.6768 79.8956C47.6155 80.0323 47.536 80.1815 47.4798 80.3391C46.2777 83.7072 45.0654 87.0718 43.8812 90.4462C42.2519 95.0892 40.6316 99.7355 39.0418 104.392C38.8278 105.019 38.8133 105.713 38.7064 106.376C38.8393 106.419 38.9722 106.462 39.105 106.505C39.8153 105.201 40.5165 103.892 41.2374 102.594C43.0596 99.3135 44.8987 96.042 46.716 92.7586C48.5519 89.4414 50.1046 86.0349 49.8024 82.1016C49.7752 81.7482 49.6914 81.2907 49.4559 81.0838C48.9372 80.6282 48.3047 80.3019 47.6768 79.8956ZM39.0022 107.714C39.272 108.617 39.3331 109.691 39.8658 110.423C40.9547 111.918 42.0937 113.518 43.5752 114.559C47.2842 117.165 51.5163 118.715 55.9238 119.759C56.4865 119.892 57.0645 119.961 57.6354 120.06C56.214 118.875 54.7595 117.814 53.1846 116.98C48.9469 114.736 45.3691 111.637 41.9191 108.389C41.0642 107.585 40.3291 107.262 39.0022 107.714ZM80.3575 102.296L80.6068 101.968C80.3351 101.577 80.1197 101.126 79.7815 100.804C78.5261 99.6088 77.2953 98.3737 75.9366 97.3041C72.8131 94.8456 69.5634 92.5583 65.81 91.1322C64.0868 90.4774 63.6493 90.6738 62.4363 92.3508C68.1706 96.131 73.8438 99.9809 80.3575 102.296ZM61.6099 28.4529C61.0716 26.6688 59.9342 25.344 57.9254 24.9118C54.367 24.1461 49.9761 26.7916 49.0472 30.3163C48.8824 30.9414 49.0238 31.6469 49.0238 32.1118C53.2868 30.8725 57.4107 29.6736 61.6099 28.4529ZM49.5609 106.534L49.2016 106.861C49.813 107.659 50.3792 108.496 51.0439 109.247C53.5074 112.028 56.0218 114.764 58.4699 117.558C58.9039 118.054 59.1131 118.746 59.4261 119.347C60.9972 120.792 62.6559 120.235 64.6213 119.047C63.6262 118.721 62.8958 118.482 62.1655 118.242C62.1764 118.171 62.1873 118.1 62.1982 118.029C62.5071 117.929 62.8161 117.829 63.305 117.671C59.0836 113.356 54.7385 109.428 49.5609 106.534ZM47.7157 56.0608L48.166 55.9471C48.0276 54.2706 48.0983 52.5414 47.6928 50.9321C47.2787 49.289 46.4859 47.7154 45.6713 46.2129C45.39 45.694 44.5201 45.1469 43.9622 45.1886C42.1811 45.3218 40.6506 46.2315 39.0721 47.1852C40.927 48.9039 41.9424 50.8213 42.1018 53.2348C42.1323 53.6967 43.0311 54.1692 43.6097 54.4937C43.8409 54.6234 44.4145 54.4809 44.6159 54.2628C45.2075 53.6224 45.51 52.9154 45.0999 51.9558C44.4492 50.4332 43.9236 48.8527 43.435 47.269C43.326 46.9157 43.5896 46.4475 43.6817 46.0321C44.0291 46.2383 44.4725 46.3683 44.7073 46.6638C45.7787 48.0118 46.0892 49.644 45.9213 51.2773C45.7176 53.2606 47.0011 54.5186 47.7157 56.0608ZM63.3284 33.6064C63.2423 33.01 63.2238 32.3302 63.0206 31.7109C62.9216 31.409 62.4459 30.9827 62.1951 31.0165C59.401 31.3929 56.6127 31.8198 53.8343 32.2994C52.9784 32.4472 52.625 33.1169 52.4474 33.9716C52.2153 35.0879 51.8158 36.1691 51.4968 37.2679C51.4609 37.3916 51.4241 37.5672 51.4825 37.6578C51.885 38.2823 52.3127 38.8906 52.7322 39.5041C52.9247 39.102 52.976 38.8133 52.9168 38.5494C52.2668 35.6497 52.7012 35.8218 55.127 35.2644C57.8071 34.6485 60.5183 34.1682 63.3284 33.6064ZM61.5496 92.3086C60.3468 91.1957 59.1463 90.0849 57.8453 88.8812C57.2841 90.8892 56.6223 92.8363 56.2121 94.835C55.733 97.1696 54.5953 99.0736 52.8414 100.592C51.7746 101.516 52.0064 102.595 51.9386 103.907C55.2326 99.9317 58.3668 96.1495 61.5496 92.3086ZM67.5988 120.782C66.6345 121.119 65.9548 121.535 65.264 121.554C64.2978 121.581 63.3258 121.289 62.351 121.181C61.9421 121.136 61.5197 121.213 61.1034 121.235C61.0976 121.339 61.0917 121.444 61.0859 121.548C61.9683 122.248 62.7807 123.075 63.7537 123.611C64.6501 124.105 65.719 124.285 66.7119 124.604C66.6787 124.694 66.6456 124.784 66.6124 124.873C63.9687 124.638 61.325 124.402 58.6813 124.166C58.637 124.306 58.5927 124.446 58.5484 124.586C58.7726 124.821 58.9536 125.145 59.2277 125.279C62.1231 126.692 65.1227 126.904 68.1793 125.893C68.8897 125.658 69.2641 125.051 68.9841 124.281C68.5426 123.066 68.0354 121.876 67.5988 120.782ZM38.436 46.8955C40.7112 45.9703 42.5903 44.2993 45.0595 44.8446C43.9649 42.9614 42.7696 41.1227 41.8168 39.166C41.3956 38.3009 40.9764 37.8807 40.002 37.9592C40.294 39.4743 39.5367 40.4923 38.4049 41.3478C38.1752 41.5214 37.8696 41.8345 37.8888 42.0587C38.0228 43.6259 38.2329 45.1866 38.436 46.8955ZM63.4624 49.1077C64.9719 47.937 66.1171 45.2446 65.6697 43.4647C65.5135 42.8434 64.9334 42.0125 64.3957 41.8773C63.5985 41.6768 62.269 41.6828 61.8626 42.175C60.2949 44.0738 59.7597 46.4024 59.8724 48.8956C61.5893 48.5999 62.786 48.6706 63.4624 49.1077ZM112.539 129.612C111.96 126.926 107.669 123.339 105.06 123.222C104.282 123.187 103.995 123.649 104.17 124.295C104.472 125.41 104.806 126.532 105.283 127.579C105.8 128.714 106.725 129.337 108.065 129.325C108.905 129.317 109.746 129.537 110.59 129.603C111.206 129.65 111.829 129.612 112.539 129.612ZM33.1191 40.0701C35.1058 39.6868 35.6299 37.8591 36.9737 36.9594C35.8491 35.5199 34.8007 34.1781 33.6145 32.6599C33.4437 33.88 33.2961 34.9338 33.148 35.991C34.5156 36.1511 34.7322 36.2867 34.7705 36.9351C34.8145 37.6805 34.0918 38.871 33.5235 38.8571C32.3843 38.8293 33.0262 37.6598 32.4912 37.099C31.0118 38.4594 30.061 40.0722 29.6196 41.9765C29.5466 42.2915 29.6811 42.6684 29.7689 43.0039C29.9552 43.7163 30.3538 43.7264 30.8392 43.2715C31.8712 42.3047 33.0077 41.4089 33.1191 40.0701ZM55.3782 37.095C55.2773 37.1323 55.1765 37.1696 55.0756 37.2068C55.0539 37.5826 55.0008 37.9596 55.0157 38.3339C55.0896 40.1942 55.5731 40.7018 57.4134 40.5402C58.9915 40.4016 60.5548 40.0853 62.121 39.8255C63.0001 39.6797 63.2248 38.9733 62.9825 38.3179C62.7204 37.6088 62.1584 37.0105 61.7272 36.3638C61.6222 36.4055 61.5172 36.4472 61.4123 36.4889C61.3568 37.003 61.3382 37.5247 61.234 38.0287C61.1546 38.4127 60.9665 38.7743 60.8268 39.1458C60.5474 38.8311 60.194 38.5551 60.0043 38.1934C59.6378 37.4945 59.3635 36.7472 59.051 36.0199C58.9322 36.0233 58.8133 36.0268 58.6945 36.0303C58.4825 37.0021 58.2823 37.9766 58.0514 38.9439C57.9834 39.2288 57.8289 39.4931 57.714 39.7669C57.4363 39.5857 57.0896 39.4593 56.894 39.213C56.3549 38.5338 55.8791 37.8045 55.3782 37.095ZM37.2697 36.2244C37.3599 36.1697 37.45 36.115 37.5402 36.0603C37.5757 35.8174 37.5879 35.5682 37.6509 35.3326C37.8782 34.4833 37.8936 33.7623 37.144 33.0564C36.4791 32.4302 36.7316 31.5729 37.2554 30.9307C37.8105 30.2502 38.5028 29.6833 39.0924 29.0282C39.3029 28.7943 39.3881 28.4478 39.5305 28.1527C39.216 28.0645 38.8845 27.8626 38.5895 27.9064C36.4182 28.2287 34.9608 30.3479 35.4621 32.4514C35.6582 33.2742 35.8913 34.1023 36.2357 34.8707C36.4616 35.375 36.917 35.7767 37.2697 36.2244ZM39.4477 29.1949C38.7193 29.9914 38.0448 30.5833 37.5725 31.307C37.3369 31.6678 37.2569 32.545 37.4754 32.715C38.4212 33.4506 38.3791 34.3383 38.2943 35.4225C39.6809 33.9472 41.0676 32.4719 42.6164 30.8242C41.1701 30.7985 39.9952 30.7995 39.4477 29.1949ZM47.5729 104.238C45.6299 103.155 42.4893 103.396 41.2117 104.692C40.8772 105.031 40.9707 105.83 40.9639 106.419C40.9627 106.525 41.496 106.792 41.6758 106.72C43.5903 105.951 45.4833 105.127 47.5729 104.238ZM37.3801 37.0761C36.1858 38.3588 35.1857 39.4329 34.1553 40.5396C34.8861 41.3773 35.7108 41.7796 36.7271 41.5827C36.9765 41.5343 37.3384 41.177 37.3508 40.9459C37.4141 39.7609 37.3801 38.5707 37.3801 37.0761ZM41.2777 53.0254C41.5806 50.8689 40.114 48.2804 38.2745 47.4783C38.2745 48.2231 38.0178 49.0539 38.3234 49.5008C39.1845 50.7601 40.2767 51.8617 41.2777 53.0254ZM56.9352 118.291C53.186 115.832 49.7836 112.872 45.9073 110.624C45.811 110.768 45.7147 110.912 45.6184 111.055C49.2461 113.688 52.8113 116.414 56.9352 118.291ZM49.4522 68.7577C51.2815 70.3589 52.9616 71.6496 55.3241 71.9557C54.6478 70.1562 51.8857 68.6248 49.4522 68.7577ZM58.6195 123.57C58.6713 123.662 58.7231 123.754 58.7749 123.847H63.2013C62.3468 123.165 61.6554 122.581 60.9221 122.054C60.7471 121.928 60.3327 121.881 60.1991 121.996C59.6373 122.48 59.1403 123.039 58.6195 123.57ZM48.6363 103.927C49.5151 104.483 50.2399 104.942 51.0223 105.437C51.9244 104.326 51.308 103.126 51.6136 101.788C50.5038 102.585 49.6341 103.21 48.6363 103.927ZM37.8827 41.1072C38.9233 40.4672 39.7159 39.7317 39.5663 38.6948C39.4909 38.1722 38.6319 37.7625 38.1272 37.3018C38.0457 37.3669 37.9642 37.432 37.8827 37.4971V41.1072ZM62.8574 120.768C64.0164 121.316 65.4058 121.394 66.2829 120.829C66.4796 120.703 66.4821 120.275 66.574 119.986C66.0726 119.908 65.5274 119.668 65.0797 119.789C64.3046 119.999 63.5901 120.432 62.8574 120.768ZM45.172 51.3265C45.7399 49.3845 44.9664 47.1413 43.5832 46.5962C44.151 48.2867 44.6615 49.8066 45.172 51.3265ZM41.4516 36.935C41.8461 37.2965 42.1484 37.7745 42.3834 37.7435C42.7729 37.692 43.4611 37.1743 43.4285 37.0942C43.1991 36.5294 42.8178 36.0261 42.485 35.5032C42.1855 35.9181 41.8861 36.3331 41.4516 36.935ZM60.1875 49.496C60.5524 50.7387 61.7421 50.7341 62.9576 49.4851C62.168 48.7026 61.6443 48.7046 60.1875 49.496ZM63.8774 34.2067C63.8083 35.7473 63.7441 37.1782 63.68 38.6091C64.6465 37.1281 64.7334 34.9244 63.8774 34.2067ZM48.8472 33.2608C48.2159 34.5189 48.6191 35.4208 50.2123 36.4202C49.7333 35.3117 49.3276 34.3726 48.8472 33.2608ZM33.0737 38.2529C33.2958 38.3222 33.5178 38.3916 33.7399 38.4609C33.9197 37.8868 34.0994 37.3126 34.2792 36.7384C34.0288 36.6813 33.5688 36.5505 33.559 36.5782C33.366 37.1254 33.2252 37.691 33.0737 38.2529ZM36.7488 48.5551C36.6351 49.1791 36.5543 49.6228 36.4735 50.0665C36.7192 50.0654 37.0668 50.1678 37.1922 50.0446C37.634 49.6102 37.6435 49.1394 36.7488 48.5551ZM40.6345 107.002C40.4622 106.411 40.3444 106.006 40.1539 105.351C39.7916 106.012 39.5549 106.445 39.2064 107.081C39.8001 107.048 40.156 107.029 40.6345 107.002ZM54.4105 44.0047C54.3822 44.5948 54.3539 45.1849 54.3165 45.9657C55.435 45.2049 55.2181 44.594 54.4105 44.0047ZM62.9502 29.1964C62.9139 29.359 62.8776 29.5217 62.8413 29.6843C63.4988 29.7934 64.1562 29.9025 64.8137 30.0117C64.8398 29.8676 64.8659 29.7235 64.892 29.5794C64.2448 29.4517 63.5975 29.3241 62.9502 29.1964ZM65.5447 118.173C65.1626 118.472 64.9104 118.669 64.4049 119.065C65.1862 119.173 65.6655 119.24 66.3982 119.341C66.0472 118.861 65.8348 118.57 65.5447 118.173Z" fill="#A9C3CC" stroke="#A9C3CC" style="fill:#A9C3CC;fill:color(display-p3 0.6627 0.7647 0.8000);fill-opacity:1;stroke:#A9C3CC;stroke:color(display-p3 0.6627 0.7647 0.8000);stroke-opacity:1;" stroke-width="0.2"/>
</svg>
