<svg width="36" height="36" viewBox="0 0 36 36" fill="none" xmlns="http://www.w3.org/2000/svg">
<path d="M26.2306 8.14319C26.5489 8.15371 26.8671 8.16084 27.1855 8.1667C27.3494 8.17062 27.5133 8.17455 27.6772 8.17848C27.7497 8.17918 27.8222 8.17989 27.8969 8.18062C28.3834 8.19414 28.8494 8.27034 29.2218 8.6095C29.5394 8.9752 29.6199 9.23245 29.6194 9.71287C29.6195 9.76401 29.6196 9.81516 29.6198 9.86785C29.62 10.0415 29.6193 10.2152 29.6185 10.3889C29.6184 10.5163 29.6184 10.6437 29.6185 10.7711C29.6184 11.1262 29.6174 11.4814 29.6162 11.8366C29.6152 12.1407 29.6148 12.4449 29.6143 12.749C29.6124 13.9368 29.6076 15.1247 29.6023 16.3125C29.602 16.368 29.6018 16.4235 29.6015 16.4806C29.5938 18.2393 29.5848 19.9979 29.5748 21.7566C29.5726 22.1393 29.5705 22.522 29.5684 22.9046C29.5651 23.5204 29.5615 24.1362 29.5575 24.7519C29.5557 25.0369 29.5539 25.322 29.5524 25.607C29.5488 26.2765 29.5428 26.9459 29.5339 27.6153C29.5319 27.7806 29.5302 27.9459 29.5286 28.1112C29.5257 28.3948 29.5213 28.6783 29.5158 28.9618C29.514 29.0689 29.5126 29.1761 29.5117 29.2833C29.5009 30.4636 29.5009 30.4636 29.0787 30.9026C28.7146 31.2238 28.4026 31.3158 27.928 31.3594C27.8679 31.365 27.8078 31.3707 27.7458 31.3765C25.0142 31.6159 22.2597 31.6465 19.5193 31.6477C19.4469 31.6478 19.3744 31.6478 19.2997 31.6479C16.9937 31.6474 14.6878 31.6099 12.3821 31.5727C11.6062 31.5601 10.8303 31.5485 10.0544 31.5381C9.49983 31.5307 8.94525 31.5221 8.39068 31.5129C8.06272 31.5074 7.73477 31.5024 7.40679 31.4985C7.10067 31.4948 6.7946 31.4898 6.48852 31.4839C6.37725 31.482 6.26598 31.4805 6.1547 31.4795C5.3533 31.472 4.48894 31.4376 3.82836 30.9287C2.44679 29.5117 2.87174 26.1199 2.87365 24.2781C2.87367 24.2027 2.87368 24.1273 2.8737 24.0496C2.87522 22.0862 2.92383 20.1237 2.97351 18.161C2.98478 17.7148 2.99551 17.2686 3.00619 16.8223C3.01776 16.3389 3.02961 15.8555 3.04146 15.372C3.04361 15.2837 3.04576 15.1953 3.04798 15.1042C3.07071 14.1756 3.09651 13.2472 3.12965 12.3189C3.13371 12.2017 3.13371 12.2017 3.13785 12.0821C3.1793 10.9668 3.29754 9.95202 4.0349 9.0659C4.06626 9.02819 4.09762 8.99047 4.12992 8.95162C4.52866 8.50148 4.95565 8.31804 5.55462 8.27819C5.66931 8.2732 5.78402 8.26855 5.89873 8.26417C5.99568 8.2602 5.99568 8.2602 6.09457 8.25616C6.31621 8.24732 6.53785 8.23905 6.75951 8.23094C6.8385 8.22801 6.91748 8.22508 6.99886 8.22206C13.1622 7.99728 19.3266 7.9295 26.2306 8.14319ZM8.11565 8.99069C7.86712 9.00031 7.61857 9.00917 7.37001 9.01787C7.20735 9.0237 7.04468 9.02955 6.88201 9.03541C6.80997 9.03788 6.73793 9.04036 6.66371 9.04291C6.52672 9.04801 6.38976 9.05385 6.25284 9.06047C6.10964 9.06732 5.96635 9.07227 5.82304 9.07576C5.71261 9.08066 5.7126 9.08066 5.59994 9.08565C5.50111 9.08885 5.50111 9.08885 5.40028 9.09212C5.11892 9.16157 4.97868 9.28154 4.78197 9.49217C4.7186 9.72262 4.7186 9.72262 4.72763 9.98265C4.72688 10.0319 4.72614 10.0812 4.72537 10.132C4.72336 10.3001 4.7244 10.468 4.72539 10.6361C4.72458 10.761 4.72358 10.8859 4.72242 11.0108C4.71974 11.3626 4.7198 11.7144 4.72033 12.0662C4.72054 12.4484 4.71859 12.8306 4.71698 13.2128C4.71503 13.7403 4.71365 14.2679 4.71349 14.7954C4.71348 14.8433 4.71346 14.8912 4.71345 14.9405C4.71342 15.0399 4.71339 15.1392 4.71336 15.2385C4.71301 16.2907 4.70951 17.3429 4.70452 18.3951C4.69801 19.7697 4.69283 21.1442 4.68926 22.5188C4.68885 22.6739 4.68845 22.829 4.68804 22.9841C4.68784 23.0608 4.68763 23.1376 4.68743 23.2166C4.68592 23.7611 4.68361 24.3056 4.68101 24.8501C4.67782 25.5229 4.67594 26.1956 4.67563 26.8684C4.67543 27.2181 4.67465 27.5679 4.67236 27.9176C4.67026 28.2419 4.66979 28.5662 4.67061 28.8905C4.67063 29.0088 4.67004 29.1271 4.66881 29.2454C4.66722 29.4064 4.66779 29.5673 4.66891 29.7283C4.66868 29.8181 4.66845 29.9079 4.66821 30.0005C4.72359 30.2985 4.82633 30.4022 5.06322 30.5859C5.27094 30.6235 5.44007 30.6397 5.64804 30.6407C5.70639 30.6423 5.76474 30.644 5.82485 30.6457C5.95097 30.649 6.07711 30.6515 6.20326 30.6534C6.39801 30.6562 6.59259 30.6611 6.78728 30.6666C7.21854 30.6782 7.64983 30.6862 8.08117 30.6939C8.24556 30.6969 8.40995 30.7 8.57434 30.7031C9.10904 30.7129 9.64375 30.722 10.1785 30.7309C10.316 30.7333 10.316 30.7333 10.4563 30.7356C13.3305 30.784 16.2045 30.8122 19.0792 30.8142C19.3412 30.8144 19.6031 30.8149 19.8651 30.8155C22.06 30.8198 24.2464 30.7741 26.4382 30.6562C26.5415 30.6507 26.6448 30.6452 26.7481 30.6398C26.9964 30.6265 27.2446 30.613 27.4929 30.5991C27.5636 30.5952 27.6342 30.5912 27.707 30.5872C28.1222 30.5604 28.3352 30.4744 28.6179 30.164C28.7018 29.9301 28.6987 29.7 28.7015 29.4532C28.7027 29.3632 28.7039 29.2733 28.7051 29.1806C28.7061 29.079 28.707 28.9775 28.708 28.8759C28.7093 28.7657 28.7106 28.6554 28.7119 28.5452C28.7154 28.2343 28.7185 27.9235 28.7215 27.6126C28.7234 27.4125 28.7255 27.2125 28.7276 27.0124C28.7616 23.7535 28.7789 20.4944 28.7981 17.2353C28.7987 17.1352 28.7987 17.1352 28.7993 17.0331C28.8046 16.1229 28.8099 15.2126 28.8149 14.3024C28.8159 14.1235 28.8169 13.9445 28.818 13.7656C28.8186 13.6508 28.8193 13.536 28.8199 13.4212C28.8204 13.3375 28.8204 13.3375 28.8209 13.2521C28.8224 12.9819 28.8237 12.7117 28.8245 12.4414C28.8248 12.3384 28.8252 12.2353 28.8255 12.1322C28.8257 12.0821 28.8258 12.0321 28.826 11.9805C28.8273 11.6795 28.831 11.3787 28.8368 11.0777C28.8395 10.9331 28.8416 10.7885 28.8435 10.6439C28.8459 10.468 28.8494 10.292 28.8542 10.1162C28.859 9.67973 28.859 9.67973 28.7266 9.27019C28.2441 8.9209 27.5861 8.97205 27.0144 8.9561C26.9261 8.95322 26.8377 8.95034 26.7467 8.94737C26.5049 8.93961 26.263 8.93274 26.0211 8.92615C25.8674 8.92194 25.7138 8.91752 25.5601 8.91305C23.2322 8.84609 20.9048 8.83713 18.5762 8.84126C18.2454 8.84183 17.9146 8.84204 17.5838 8.84222C14.4264 8.84425 11.271 8.86626 8.11565 8.99069Z" fill="#E6F1F5" style="fill:#E6F1F5;fill:color(display-p3 0.9020 0.9451 0.9608);fill-opacity:1;"/>
<path d="M17.1064 10.851C17.6698 11.253 17.9799 11.7007 18.1407 12.3751C18.2281 13.1094 18.0847 13.686 17.6661 14.2911C17.292 14.7553 16.8335 15.0778 16.2423 15.1876C15.5796 15.255 15.0226 15.1872 14.4716 14.7978C13.9044 14.3293 13.5303 13.8191 13.4298 13.0782C13.4089 12.347 13.565 11.7034 14.0643 11.1542C14.9045 10.4584 16.1475 10.2963 17.1064 10.851Z" fill="#E6F1F5" style="fill:#E6F1F5;fill:color(display-p3 0.9020 0.9451 0.9608);fill-opacity:1;"/>
<path d="M17.1439 17.0993C17.5451 17.4118 17.8005 17.8666 17.9305 18.3518C18.0195 19.2021 17.9266 19.8406 17.3957 20.5394C17.0242 20.9515 16.4485 21.2774 15.8912 21.3217C15.0257 21.3397 14.4984 21.1677 13.8667 20.5677C13.3801 20.0122 13.2561 19.414 13.2707 18.694C13.3158 18.0561 13.5951 17.5837 14.0633 17.1565C14.9795 16.4477 16.1819 16.4944 17.1439 17.0993Z" fill="#E6F1F5" style="fill:#E6F1F5;fill:color(display-p3 0.9020 0.9451 0.9608);fill-opacity:1;"/>
<path d="M16.9359 23.5415C17.4189 23.8936 17.7161 24.3098 17.8588 24.8906C17.9372 25.6265 17.8796 26.2301 17.4427 26.8352C17.043 27.3162 16.6189 27.5773 16.0307 27.7734C15.4156 27.8184 14.8803 27.8243 14.3432 27.4922C14.3002 27.4683 14.2572 27.4445 14.213 27.4199C13.7011 27.1031 13.3812 26.5905 13.2182 26.02C13.0691 25.2971 13.1893 24.6221 13.5763 23.9919C14.347 22.9713 15.9131 22.893 16.9359 23.5415Z" fill="#E6F1F5" style="fill:#E6F1F5;fill:color(display-p3 0.9020 0.9451 0.9608);fill-opacity:1;"/>
<path d="M31.8522 4.99205C31.9928 5.13268 31.9928 5.13268 32.0217 5.35299C31.9851 5.69775 31.8623 5.89492 31.6718 6.17803C31.6386 6.22867 31.6054 6.27931 31.5713 6.33148C31.5011 6.43786 31.4303 6.54385 31.359 6.64948C31.2503 6.81115 31.1447 6.97453 31.0391 7.13823C30.9704 7.24162 30.9015 7.3449 30.8324 7.44805C30.8011 7.4969 30.7698 7.54574 30.7376 7.59607C30.5649 7.84646 30.4911 7.93202 30.1889 8.0202C29.9538 8.01549 29.9538 8.01549 29.7428 7.87487C29.6904 7.4746 29.7825 7.26347 30.0073 6.93663C30.0346 6.89636 30.0619 6.85609 30.0899 6.81459C30.1768 6.68679 30.2652 6.56014 30.3537 6.43346C30.4118 6.34848 30.4698 6.26343 30.5277 6.1783C30.6863 5.94578 30.8472 5.71491 31.0085 5.48424C31.0462 5.42932 31.084 5.37439 31.1229 5.3178C31.3584 4.97877 31.4433 4.8796 31.8522 4.99205Z" fill="#E6F1F5" style="fill:#E6F1F5;fill:color(display-p3 0.9020 0.9451 0.9608);fill-opacity:1;"/>
<path d="M29.1091 4.42967C29.41 4.88107 29.1551 5.59085 29.0551 6.09657C29.0396 6.17298 29.024 6.24938 29.008 6.32811C28.9927 6.40669 28.9775 6.48527 28.9617 6.56624C28.9466 6.64137 28.9315 6.71651 28.916 6.79393C28.9024 6.86154 28.8889 6.92916 28.8749 6.99882C28.8278 7.17186 28.8278 7.17186 28.6872 7.38279C28.4411 7.40477 28.4411 7.40477 28.195 7.38279C28.0544 7.24217 28.0544 7.24217 28.0352 6.97767C28.0455 6.52373 28.1359 6.08289 28.2214 5.63816C28.237 5.55283 28.2526 5.4675 28.2686 5.37957C28.404 4.66025 28.404 4.66025 28.5466 4.42967C28.7527 4.32659 28.8899 4.37488 29.1091 4.42967Z" fill="#E6F1F5" style="fill:#E6F1F5;fill:color(display-p3 0.9020 0.9451 0.9608);fill-opacity:1;"/>
<path d="M32.9058 8.50766C33.0376 8.59115 33.0376 8.59115 33.1167 8.71859C33.1519 8.88998 33.1519 8.88998 33.1167 9.07016C32.8559 9.32209 32.5784 9.43549 32.2378 9.54037C32.192 9.55528 32.1462 9.57019 32.0991 9.58555C31.7266 9.70483 31.3854 9.7835 30.9941 9.78646C30.9337 9.78746 30.8732 9.78846 30.8109 9.78949C30.6558 9.77328 30.6558 9.77328 30.5151 9.63266C30.4976 9.38656 30.4976 9.38656 30.5151 9.14047C30.7237 8.93192 30.9819 8.91945 31.2622 8.86361C31.594 8.7972 31.913 8.72794 32.2293 8.60571C32.4813 8.50865 32.6395 8.47051 32.9058 8.50766Z" fill="#E6F1F5" style="fill:#E6F1F5;fill:color(display-p3 0.9020 0.9451 0.9608);fill-opacity:1;"/>
</svg>
