<svg width="58" height="83" viewBox="0 0 58 83" fill="none" xmlns="http://www.w3.org/2000/svg">
<g clip-path="url(#clip0_112_753)">
<path d="M30.9352 52.2675C30.1969 52.3763 29.5043 52.548 28.8576 52.7683C28.2137 52.9887 27.6042 53.2462 27.0404 53.5524C26.4767 53.8557 25.9589 54.1991 25.4839 54.5854C24.9974 54.9775 24.5594 55.3953 24.1703 55.8331C23.8555 56.1908 23.5666 56.5657 23.3005 56.9606C23.2346 57.0579 23.1687 57.1609 23.1057 57.2582V57.2639C23.0971 57.2754 23.0887 57.2868 23.0858 57.2954C23.0085 57.4184 22.9341 57.5415 22.8626 57.6674C22.648 58.048 22.4504 58.4372 22.2787 58.8378C22.1785 59.0725 22.0842 59.3128 22.0012 59.5532C21.8867 59.868 21.7836 60.1885 21.6978 60.5118V60.5147C21.5433 61.0985 21.426 61.6822 21.3516 62.2631C21.2858 62.7811 21.2543 63.3019 21.2486 63.8313C21.2457 63.9057 21.24 63.9801 21.24 64.0545C21.2429 64.2234 21.2457 64.395 21.2543 64.5639C21.2629 64.7327 21.2687 64.9073 21.283 65.0761C21.2887 65.1619 21.2972 65.2478 21.3086 65.3365C21.3115 65.3852 21.3144 65.4367 21.3202 65.4853C21.3345 65.6112 21.3488 65.7429 21.3659 65.8688C21.4403 66.4354 21.5518 66.9991 21.6978 67.5571C21.8494 68.1151 22.0328 68.6617 22.2646 69.1911C22.4963 69.732 22.7624 70.2442 23.0657 70.7364C23.3719 71.2257 23.7152 71.6864 24.1044 72.1214L24.259 72.2931C24.6052 72.6622 24.9831 73.0085 25.3951 73.3347C25.8644 73.7067 26.3823 74.0387 26.9431 74.3334C27.5069 74.6282 28.1135 74.8828 28.7689 75.0975C29.4242 75.3121 30.1339 75.4724 30.8922 75.5754C31.6448 75.6898 32.4461 75.7471 33.2903 75.7471H33.3961C34.1859 75.7471 34.9528 75.6784 35.7054 75.5468C36.4867 75.4066 37.245 75.1976 37.9776 74.9258C38.3181 74.797 38.6529 74.6482 38.9791 74.488C39.085 74.4393 39.1881 74.3821 39.294 74.3277C39.3112 74.3163 39.3254 74.3105 39.3425 74.2991C39.4312 74.2533 39.5201 74.2046 39.6059 74.1531C39.7233 74.0845 39.8348 74.0187 39.9521 73.9471C40.4615 73.6266 40.9507 73.2575 41.4229 72.8511L39.6059 70.7678L39.3425 70.4646L39.294 70.4101L39.1681 70.2699C39.108 70.3243 39.0449 70.3787 38.9791 70.4331C38.8675 70.5246 38.7474 70.6162 38.6301 70.702C38.321 70.931 37.992 71.137 37.6543 71.323C37.308 71.5061 36.9589 71.6693 36.5983 71.8095C36.2463 71.9497 35.8829 72.067 35.5023 72.1701C35.1303 72.2616 34.7582 72.3332 34.3862 72.3818C34.0114 72.4333 33.6451 72.4562 33.2903 72.4562C32.6807 72.4505 32.1142 72.4104 31.5877 72.3332C31.0497 72.2531 30.546 72.1357 30.0767 71.9755C29.6045 71.821 29.1695 71.6349 28.7661 71.4203C28.3654 71.2057 27.9905 70.9567 27.65 70.6763C27.3123 70.3987 27.009 70.1011 26.7343 69.7835C26.4567 69.463 26.2107 69.1224 25.9989 68.7647C25.9932 68.7561 25.9875 68.7504 25.9846 68.7418C25.7786 68.3899 25.5983 68.0322 25.4409 67.663C25.4151 67.5972 25.395 67.5342 25.3693 67.4684C25.2462 67.1508 25.1375 66.8246 25.0488 66.484C24.9544 66.092 24.8742 65.6856 24.8256 65.2736C24.7712 64.8701 24.7455 64.4666 24.7398 64.0574C24.7398 63.6338 24.7626 63.2218 24.8113 62.8212C24.8628 62.4062 24.9371 61.9999 25.043 61.5906C25.1432 61.1814 25.2748 60.7837 25.4379 60.3917C25.5982 59.9968 25.7871 59.6219 26.0017 59.2527C26.2221 58.8865 26.474 58.5431 26.7515 58.2168C27.0291 57.8906 27.3438 57.5873 27.6872 57.2954C28.0306 57.0064 28.3997 56.7545 28.8118 56.5285C29.2153 56.3024 29.6532 56.1078 30.1197 55.9475C30.5833 55.7844 31.0782 55.6643 31.6134 55.5784C32.137 55.4983 32.6979 55.4554 33.2903 55.4525C33.648 55.4525 34.0085 55.4668 34.3662 55.5126C34.7267 55.5527 35.0759 55.6128 35.4307 55.6986H35.4337C35.7885 55.7845 36.1376 55.8961 36.4781 56.0191C36.8187 56.1507 37.1506 56.2995 37.4768 56.4655V56.4741C37.8088 56.6487 38.1235 56.8461 38.4182 57.0665L38.4984 57.1237V53.3034C38.4211 53.2662 38.3382 53.2262 38.2581 53.189C38.0807 53.1031 37.906 53.0287 37.74 52.9572C37.0361 52.671 36.3121 52.4535 35.5652 52.3104C34.8269 52.1674 34.0686 52.0901 33.2903 52.0901C32.4632 52.093 31.682 52.1531 30.9352 52.2675ZM9.39585 52.4936H1.07422L2.36774 53.9788L4.15328 56.0277H15.0532C15.4138 56.0277 15.7543 56.0592 16.0748 56.1164C16.4039 56.1765 16.7043 56.2595 16.979 56.3797C17.248 56.4913 17.497 56.6258 17.7288 56.7774C17.9549 56.9348 18.1609 57.1123 18.3412 57.3097C18.5186 57.5043 18.6732 57.7103 18.8077 57.9307C18.9393 58.1481 19.0451 58.3742 19.1338 58.6232L19.1368 58.626C19.2197 58.8635 19.2826 59.1125 19.3256 59.3586C19.3685 59.6076 19.3886 59.8594 19.3886 60.1141C19.3886 60.363 19.3685 60.612 19.3256 60.8638C19.2884 61.1128 19.2254 61.356 19.1453 61.5992L19.1425 61.605C19.0567 61.8482 18.945 62.0743 18.8163 62.2918C18.6846 62.5093 18.53 62.7182 18.3497 62.9156C18.2782 62.9929 18.201 63.0644 18.1237 63.1359C18.0035 63.2447 17.8805 63.3505 17.7432 63.4421C17.7288 63.4564 17.7059 63.465 17.6916 63.4736C17.477 63.6167 17.2452 63.7426 16.9905 63.8485C16.713 63.9629 16.4096 64.0517 16.0834 64.1118C15.7657 64.1661 15.4195 64.1947 15.0532 64.1947H9.73626L12.7896 67.6973L19.5573 75.4667L24.1245 75.3923L17.3453 67.6229L16.9018 67.2109L17.5142 67.1336C18.0579 67.022 18.5558 66.8761 19.0051 66.7015C19.4572 66.527 19.8635 66.3238 20.2298 66.0891H20.2327C20.3472 66.0176 20.4559 65.9375 20.5646 65.8574C20.5503 65.7601 20.5389 65.6656 20.5304 65.5798C20.5132 65.431 20.5017 65.2821 20.4874 65.1333C20.4702 64.8901 20.4616 64.6469 20.453 64.4036C20.4501 64.2892 20.4444 64.1718 20.4444 64.0602C20.4444 63.8313 20.4559 63.6052 20.4645 63.382C20.4817 62.9728 20.5102 62.5636 20.5646 62.1601C20.639 61.5849 20.7507 60.9955 20.9024 60.4117V60.4088L20.9281 60.3115C21.0854 59.7106 21.2945 59.1097 21.5491 58.523C21.7352 58.0909 21.9439 57.6731 22.1671 57.2811C22.2157 57.1981 22.2617 57.1151 22.3103 57.0321V57.0293L22.4333 56.8347C22.4562 56.7975 22.479 56.7631 22.5019 56.7259C22.3674 56.4455 22.2244 56.1736 22.0585 55.9132C21.8009 55.5155 21.5004 55.1434 21.157 54.7886V54.7915C20.8165 54.4424 20.4331 54.1305 20.0067 53.8557C19.5861 53.581 19.1167 53.3378 18.6074 53.1346C18.0894 52.9229 17.5285 52.7626 16.9305 52.6539C16.3496 52.5508 15.7257 52.4965 15.0532 52.4965H11.9284L11.3045 52.4936H9.39585ZM49.1035 52.4965H39.3425V69.2626L42.5475 72.9284C42.5475 72.9284 41.2999 74.0873 40.3699 74.6224C40.244 74.6968 40.1267 74.7741 40.0094 74.8399C39.8978 74.9058 39.7832 74.9659 39.6716 75.0288C39.56 75.0861 39.4456 75.1462 39.3425 75.1948V75.4695H49.7617C50.3454 75.4695 50.9063 75.4409 51.4385 75.3865C51.9737 75.3322 52.4946 75.2491 52.9925 75.1404C53.4876 75.0317 53.9454 74.8915 54.3775 74.714C54.8068 74.5366 55.2102 74.3248 55.5794 74.0816C55.9457 73.8384 56.272 73.5579 56.5524 73.2346C56.6182 73.163 56.6724 73.0801 56.7297 73.0057C56.9357 72.7424 57.1304 72.4591 57.2907 72.1443C57.4967 71.7379 57.6511 71.2858 57.757 70.7851C57.8629 70.2757 57.9144 69.7234 57.9201 69.1167C57.9201 68.9278 57.9001 68.5959 57.8601 68.2582C57.8314 68.0007 57.7885 67.7345 57.7341 67.5371C57.6769 67.3082 57.5939 67.0764 57.4966 66.8446C57.3964 66.61 57.2791 66.3724 57.1475 66.1349C57.0273 65.9232 56.8871 65.72 56.7297 65.5254C56.7154 65.5053 56.7012 65.4825 56.6869 65.4653C56.5095 65.2478 56.309 65.0418 56.0887 64.8529C55.8769 64.6612 55.6395 64.4981 55.3762 64.3521C55.113 64.2119 54.8268 64.086 54.512 63.9858L53.7652 63.7541L54.4806 63.4278C54.8125 63.2733 55.1158 63.1073 55.3848 62.9242C55.6452 62.7439 55.8798 62.5436 56.0801 62.3318C56.2804 62.1172 56.4551 61.894 56.6039 61.6593C56.6497 61.5849 56.6896 61.5105 56.7297 61.4333C56.8212 61.2702 56.9015 61.1013 56.9616 60.9268C57.0475 60.6921 57.1131 60.3916 57.1618 60.0797C57.2161 59.7192 57.2419 59.3529 57.2419 59.061C57.2391 58.483 57.1848 57.8706 57.0818 57.2982C56.9959 56.8375 56.8785 56.4111 56.7297 56.0534C56.7154 56.0162 56.6983 55.9733 56.6811 55.9333C56.5008 55.5441 56.2805 55.1864 56.0258 54.8659C55.7682 54.5425 55.4734 54.2564 55.1415 54.0017C54.8067 53.747 54.4434 53.5266 54.0485 53.3349C53.6536 53.1432 53.2272 52.9887 52.775 52.8628C52.3229 52.7397 51.8421 52.6481 51.3385 52.5852C50.8348 52.5251 50.3082 52.4965 49.7617 52.4965H49.1035ZM42.9396 61.502V55.7673H49.7617L49.7646 55.7701C50.1195 55.7701 50.4456 55.7988 50.7432 55.8474C51.0466 55.9018 51.3212 55.9762 51.573 56.0821C51.822 56.1822 52.0452 56.2967 52.2427 56.4255C52.443 56.56 52.6204 56.7059 52.7721 56.869C52.9209 57.0264 53.0469 57.1895 53.1556 57.3555C53.2672 57.5214 53.3503 57.6989 53.4218 57.8763C53.479 58.0366 53.5248 58.2454 53.5563 58.4515C53.5935 58.7176 53.6106 58.9952 53.6106 59.1583C53.6106 59.4158 53.579 59.7478 53.5104 60.0626C53.456 60.3315 53.3645 60.5919 53.2444 60.7894C53.1156 61.0012 52.941 61.1929 52.7293 61.3618C52.5204 61.5277 52.2742 61.6708 51.9938 61.7939C51.7105 61.9141 51.3757 62.0084 50.9951 62.0714C50.6231 62.1315 50.2109 62.1601 49.7617 62.1601H42.9396V61.502ZM42.9396 65.305H49.7617C49.9963 65.305 50.2368 65.3222 50.4858 65.3566C50.7319 65.3938 50.9808 65.4481 51.2384 65.5111C51.4931 65.5826 51.7448 65.6713 51.988 65.7743C52.2255 65.8774 52.4631 66.0004 52.6863 66.1349C52.9181 66.278 53.1298 66.4325 53.3158 66.6071C53.5075 66.7845 53.6736 66.9762 53.8195 67.188C53.9683 67.3969 54.0771 67.6974 54.1543 68.0207C54.2459 68.3899 54.2888 68.7905 54.2888 69.0852C54.2888 69.3828 54.2516 69.6547 54.1714 69.9065C54.0913 70.1583 53.9683 70.3873 53.8137 70.5904C53.6649 70.785 53.4933 70.9624 53.2959 71.1198C53.1013 71.2744 52.8895 71.406 52.6577 71.5147C52.4316 71.6206 52.1969 71.7122 51.9594 71.7866C51.7133 71.8667 51.4672 71.924 51.2125 71.9698C50.955 72.0127 50.7089 72.0442 50.4685 72.067C50.2281 72.0871 49.9906 72.0985 49.7617 72.0985H42.9396V65.305ZM4.15328 75.4695H7.74742V64.1862H4.15328V75.4695Z" fill="url(#paint0_linear_112_753)"/>
<path d="M24.3706 0.944645C24.1674 0.896 23.927 0.84737 23.6037 0.873123C23.575 1.13639 23.5865 1.45402 23.7067 1.73446C23.4921 1.73446 23.2975 1.74304 23.1544 1.77738C23.226 2.02348 23.3089 2.25812 23.4692 2.42982C23.2774 2.48419 23.1402 2.57003 23.0544 2.68735C23.0658 2.71597 23.08 2.74172 23.0944 2.76748L23.0828 2.77608L23.1057 2.78752C23.2059 2.96207 23.3375 3.09943 23.5006 3.19386C23.3776 3.32264 23.266 3.46572 23.2002 3.66889L23.2288 3.68605L23.2088 3.71181H23.2688C23.5378 3.87779 23.824 3.98653 24.1331 4.02659C23.99 4.47586 23.7154 4.81067 23.3005 4.79064C22.751 4.76488 22.5105 4.3843 22.2415 4.09528C22.3789 4.08669 22.522 4.08958 22.6622 4.09244C22.8025 4.0953 22.9426 4.09814 23.0828 4.08956C23.0027 3.53727 22.8597 2.99927 22.6937 2.5643L22.0756 3.0365C22.0584 2.72172 22.0355 2.40691 22.0183 2.09499C21.5175 2.20087 21.0024 2.34398 20.4444 2.59867L20.9253 3.13378C21.0025 3.24538 21.0798 3.34842 21.1427 3.41996H20.4215C20.4816 3.85778 20.6362 4.30418 20.9052 4.75632C21.0797 4.66761 21.26 4.57605 21.4346 4.48734C21.4489 4.54457 21.4661 4.59892 21.4718 4.65615C21.4661 4.87936 21.406 5.1283 21.3373 5.31431C21.2972 5.36868 21.2543 5.42022 21.197 5.466C20.9652 5.67204 20.619 5.6291 20.2212 5.4202C20.3843 5.28284 20.5504 5.14265 20.7164 5.00529C20.4703 4.96237 20.2269 4.92229 19.9837 4.87936C20.0495 4.6161 20.1096 4.34995 20.1755 4.08096C19.9809 4.10099 19.7606 4.1325 19.5002 4.18401C19.4687 3.97511 19.44 3.7662 19.4085 3.55445C19.234 3.72328 19.0537 3.87779 18.8706 4.02659C18.0836 3.79766 17.7145 3.9608 17.4083 4.18401C18.5272 4.47017 18.2639 5.20843 18.7818 6.02971C19.0165 6.39886 19.5659 6.41892 19.9608 6.61351C20.2298 6.87106 20.3443 7.20298 20.1297 7.7009C20.5131 8.00709 20.7191 8.29615 20.8479 8.57659C21.8351 7.94131 23.1172 7.5893 24.8313 7.64081C26.5426 7.5893 27.8246 7.94131 28.8118 8.57659C28.9406 8.29615 29.1466 8.00709 29.5272 7.7009C29.3155 7.20298 29.4299 6.87106 29.6989 6.61351C30.0938 6.41892 30.6432 6.39886 30.8779 6.02971C31.3987 5.20843 31.1327 4.47017 32.2516 4.18401C31.9454 3.9608 31.5789 3.79766 30.7891 4.02659C30.6089 3.87779 30.4287 3.72328 30.2484 3.55445C30.2198 3.7662 30.1911 3.97511 30.1597 4.18401C29.8993 4.1325 29.6788 4.10099 29.4843 4.08096C29.5501 4.34995 29.6131 4.6161 29.676 4.87936C29.4328 4.92229 29.1895 4.96237 28.9463 5.00529C29.1123 5.14265 29.2755 5.28284 29.4415 5.4202C29.038 5.6291 28.6945 5.67204 28.4627 5.466C28.3539 5.36871 28.2825 5.26854 28.2367 5.16266C28.2109 5.06823 28.188 4.9652 28.1708 4.86504C28.168 4.73913 28.1879 4.61325 28.2251 4.48734C28.3997 4.57605 28.5771 4.66761 28.7545 4.75632C29.0235 4.30418 29.1781 3.85778 29.2382 3.41996H28.5056C28.5514 3.36272 28.6059 3.29119 28.666 3.21107L29.2153 2.59867C28.6544 2.34398 28.1394 2.20087 27.6414 2.09499C27.6214 2.40691 27.6013 2.72172 27.5841 3.0365L26.966 2.5643C26.8 2.99927 26.6571 3.53727 26.5799 4.08956C26.7172 4.09814 26.8546 4.0953 26.9976 4.09244C27.1379 4.08958 27.2809 4.08669 27.4182 4.09528C27.1492 4.3843 26.9089 4.76488 26.3594 4.79064C25.9445 4.81067 25.6697 4.47586 25.5267 4.02659C25.8386 3.98653 26.1276 3.87493 26.3994 3.70609L26.4366 3.70898L26.4253 3.69181L26.4625 3.66889C26.3938 3.46572 26.2822 3.32264 26.1563 3.19386C26.3509 3.0794 26.4996 2.91342 26.6055 2.68735C26.5283 2.57575 26.3937 2.48419 26.1905 2.42982C26.3508 2.25812 26.4368 2.02348 26.5054 1.77738C26.3595 1.74304 26.1676 1.73446 25.953 1.73446C26.0732 1.45402 26.0847 1.13639 26.0533 0.873123C25.7356 0.84737 25.4924 0.896 25.2921 0.944645C25.2206 0.552605 25.0488 0.283615 24.8313 0.0689926C24.611 0.283615 24.4393 0.552605 24.3706 0.944645ZM24.4993 2.76464C24.4993 2.48134 24.6482 2.24952 24.8313 2.24952C25.0116 2.24952 25.1604 2.48134 25.1604 2.76464C25.1604 3.0508 25.0116 3.27971 24.8313 3.27971C24.6482 3.27971 24.4993 3.0508 24.4993 2.76464ZM24.8857 5.73786C25.8557 5.74644 27.0663 5.98396 28.52 6.92829C26.0246 6.05836 23.6008 6.02974 21.2543 6.92829C22.3904 6.02974 23.9127 5.73214 24.8857 5.73786ZM14.6239 7.94415C14.6411 8.02714 15.202 8.15305 15.4796 8.50502C16.5584 9.89577 15.6914 11.5641 17.5629 12.2423C15.9375 13.2553 16.2179 15.536 13.9487 16.1913C13.3735 16.3344 12.8699 16.157 12.5179 15.9824C12.2689 15.8594 12.0943 15.7334 12.0285 15.7249L12.0142 15.702V15.7249C12.0084 15.7249 12.0027 15.7335 11.9998 15.7449C11.6708 18.8097 14.4351 18.2174 14.7843 18.1601C14.6555 18.5779 14.0746 19.093 13.8456 19.6109C13.2676 20.933 14.1919 23.56 11.3789 23.4026C11.3246 24.6503 12.9956 24.5701 13.8655 24.4929C14.1603 24.4643 14.3636 24.4385 14.375 24.4642C14.4609 24.6645 13.4278 25.4086 13.5709 27.0626C13.6625 28.0956 14.7613 30.9887 11.851 31.1032C11.7795 31.1061 11.7309 31.1804 11.7537 31.2491C12.3604 33.0376 14.913 31.8873 15.059 31.6927C15.1391 31.5868 15.3251 32.328 15.1191 33.0663C14.9159 33.7903 14.3321 34.5142 12.907 34.4427L12.8869 34.4198L12.8899 34.4427L12.8756 34.4398C12.6667 34.4284 13.2189 36.1625 15.0103 36.2312C15.6656 36.2569 16.1634 36.0767 16.5183 35.8964C16.8788 35.7104 17.0877 35.5273 17.1593 35.5616C17.4139 35.6875 18.5529 37.9739 17.517 39.3332C17.2966 39.6193 17.062 39.8311 17.4398 39.7567C20.8823 39.0757 21.1112 36.6862 20.6076 35.2811C20.0982 33.8646 18.8906 33.3467 18.6245 31.5811C18.2467 29.0457 20.3071 27.8982 20.3843 28.0585C20.4359 28.1586 19.3027 29.4778 19.9266 31.2749C20.5389 33.0434 22.2558 34.4885 22.3674 35.8248C22.376 35.905 23.0943 34.1851 22.5735 32.4882C21.8009 29.99 22.2559 28.9255 22.4476 28.6422C22.4648 28.6165 22.5077 28.6279 22.5049 28.6623C22.4476 29.1144 22.4391 30.8542 25.3951 32.5712C25.6098 32.7057 25.8157 32.8202 26.0017 32.9003C26.2192 33.0119 26.4539 33.1263 26.7 33.2351C26.6943 29.9872 24.5824 28.7881 24.9258 27.3745C25.0002 27.0654 25.2319 26.5218 25.3492 26.2613C25.375 26.2356 25.4065 26.2099 25.4351 26.1841C25.5696 26.6362 25.604 27.3373 25.7242 27.7866C26.2021 29.5722 28.4341 29.681 30.36 31.355C29.7848 29.1544 28.8548 28.0356 28.4513 27.0826C28.2682 26.6477 28.2825 25.6375 28.7804 25.2912C28.9378 25.1825 29.2582 25.3571 29.862 25.5316C30.9724 25.8493 33.0298 26.1698 36.7642 24.7361C36.9703 24.6817 37.182 24.6302 37.3909 24.6016C37.989 24.5558 38.7645 24.6674 38.9763 24.9507C38.7044 23.5772 36.8873 23.0306 35.7054 23.1136C34.0314 23.2108 31.539 25.1653 28.6001 23.8376C29.1353 23.3997 31.227 23.6 32.2543 23.1222C34.2775 22.1864 34.0916 20.727 34.0687 20.1775C34.0687 20.1518 34.0343 20.1432 34.0114 20.1604C31.6735 22.2265 30.503 21.8459 29.3183 21.4653C28.5514 21.2221 27.776 20.9759 26.6771 21.3937C25.7443 21.7457 25.1747 22.1091 25.5696 21.3451C26.162 20.189 27.8818 20.3807 28.9377 20.4923C29.5902 20.561 30.2742 20.3922 30.5747 19.8857C30.8723 19.3763 30.9408 18.6323 30.8635 18.6008C30.7806 18.5636 30.2226 19.093 29.8334 19.1474C28.9349 19.2618 29.0379 19.01 28.1107 18.9929C27.155 18.9786 26.3651 18.6924 25.9072 18.0828C25.8071 17.8797 26.3337 17.7366 26.411 15.9996C26.4367 15.4187 26.3051 13.6359 27.4441 13.0664C28.4542 14.1224 30.4373 14.3198 31.5362 15.0639C31.6563 15.1469 31.6705 15.7249 31.7936 15.7621C31.9481 15.7993 32.7064 14.254 32.4575 13.1265C32.4002 12.8661 33.2845 12.8747 33.6251 11.4983C33.771 10.8945 32.9326 10.7256 32.4404 10.7256C31.6649 10.7256 29.8821 10.3565 29.6446 10.2306C28.9836 7.97562 22.854 7.27167 20.559 9.33776C19.9724 9.86715 20.2299 9.76984 19.4859 9.08878C18.3355 8.03571 16.7903 7.7925 15.7515 7.7925C15.0762 7.7925 14.6153 7.89837 14.6239 7.94415ZM16.8189 10.0217C16.7902 9.90721 16.4754 8.98004 16.6271 9.00293C16.6586 9.00866 18.1495 10.697 20.3816 10.966C20.6649 11.0004 19.7434 11.6814 18.8907 11.6814H18.8133C17.6171 11.6213 17.0878 11.0862 16.8189 10.0217ZM26.1018 10.903C25.1117 10.0989 24.6224 9.97874 24.5337 9.83567C25.189 9.77271 25.8443 9.74982 26.4939 9.87287C27.029 9.97016 27.5727 10.1562 28.0821 10.3422C28.0964 10.3479 28.1423 10.3565 28.1537 10.3651C28.1537 10.3765 28.1337 10.428 28.1308 10.4395C27.9391 10.7771 27.6501 11.0318 27.2666 11.1377L27.052 11.1921L27.0577 11.195C27.0205 11.1978 26.9803 11.2007 26.9431 11.2007C26.6427 11.2007 26.3565 11.1034 26.1018 10.903ZM25.7871 10.7228C25.7957 10.7199 25.7958 10.7256 25.8044 10.7314C25.7986 10.7285 25.7928 10.7228 25.7871 10.7228ZM14.5953 16.9811C17.6372 15.9767 16.8674 12.8375 19.9608 12.6286C20.184 12.6143 18.6417 13.7017 18.2554 15.2928C18.0866 15.9996 18.1637 15.8708 18.799 15.5017C18.9535 15.413 20.1039 14.5917 20.0925 14.689C19.7691 17.0584 17.4483 16.8695 17.0391 20.2377C16.9933 20.6011 19.3543 19.3448 19.6204 19.1331C19.7291 19.3563 18.3212 22.0405 18.0923 22.6242C17.7289 23.5485 17.0105 24.7247 17.6944 25.9466C17.7917 26.124 18.0551 25.3142 20.0525 24.3956C21.4518 23.7517 22.4132 22.1893 22.376 22.1578C22.5191 22.2865 22.2243 24.3298 23.1429 25.4286C25.3578 23.3683 25.1834 22.4983 25.4037 22.6786C26.3166 23.4427 26.7572 24.1438 26.3451 26.0296C25.9645 24.6846 25.2864 23.932 25.2091 24.0751C25.1691 24.1523 25.1232 24.2325 25.0717 24.3183C25.0574 24.3412 25.0403 24.367 25.0231 24.3984C24.5366 25.1825 23.721 26.1726 23.2975 26.7278C23.0256 27.0855 23.2003 27.5605 22.8254 27.2429C21.3316 25.9866 21.7408 25.1453 21.5205 25.0881C21.4404 25.068 20.124 26.0954 19.8979 26.2699C17.5571 28.0785 16.9763 30.1131 16.8332 30.7999C16.8217 30.8657 16.7531 30.8571 16.713 30.8056C14.4352 27.7494 15.142 25.0909 16.4612 22.6586C16.8045 22.0204 16.507 22.0977 16.2065 22.3581C15.6742 22.8131 14.2577 23.3854 14.3979 23.1708C15.5883 21.388 14.6183 19.631 16.8646 17.1442C16.6529 17.1385 16.009 17.1471 15.7772 17.1586C15.6742 17.1614 15.4538 17.1872 15.2335 17.1872C14.9473 17.1872 14.6554 17.1471 14.5953 16.9811ZM23.578 16.6349C23.867 16.2114 23.7983 15.8766 23.7811 15.3357C23.7468 14.317 25.3693 12.9548 25.5095 13.0807C25.5439 13.1122 24.7111 14.0337 24.7082 15.0696C24.7025 15.8966 24.6969 16.6234 24.3736 17.3989C23.6353 19.1674 24.196 19.485 24.1044 19.6853C24.0643 19.7712 24.0444 19.7884 23.9442 19.7912C23.764 19.7912 21.8066 19.2103 23.578 16.6349ZM46.0674 10.6713C45.0745 11.9762 44.8282 13.5501 44.2988 15.061C43.6664 16.8724 42.2699 18.1916 41.0509 19.6167C40.4213 20.3578 39.4456 21.5025 38.8247 22.2465C39.8892 23.1422 40.2297 23.6773 40.3299 24.6102C42.5591 24.8449 43.16 27.1055 43.2458 27.0226C44.153 26.124 43.8868 23.995 43.9612 23.9749C44.256 23.8948 44.691 25.8378 44.9943 25.8722C45.3291 25.9122 45.6753 24.2353 45.7268 23.9434C45.9615 22.6815 45.7784 21.3623 46.4795 20.2033C46.9373 19.4478 47.5526 19.5308 48.3024 19.754C48.952 19.9458 50.5715 20.4323 51.7447 18.4749C51.9565 18.1201 52.629 17.0155 52.526 16.7579C52.4716 16.7007 52.1655 16.8352 51.8679 16.9697C51.576 17.0985 51.2897 17.2301 51.2525 17.1814C50.5314 16.3287 49.8648 16.446 49.3697 16.5662C49.1436 16.6234 48.952 16.6749 48.8089 16.6377C48.2709 16.4946 48.3052 15.8336 48.5284 15.4244C49.0578 14.4371 50.437 14.7748 51.3098 14.3685C51.8392 14.1224 51.948 13.6702 52.3457 13.3383C52.7349 13.0149 53.2186 13.241 53.6106 13.3555C53.851 13.427 53.8424 13.3583 53.8481 13.2439C53.8539 13.0979 53.4789 12.4111 52.8379 12.0391C50.8863 10.9116 49.3354 11.9304 48.8031 12.4369C48.6715 12.5628 48.5913 12.0935 48.8431 11.6242C49.0921 11.1606 49.6616 10.6999 50.8091 10.8029C50.9035 10.7342 51.058 10.2106 51.4443 9.96732C51.8163 9.73266 52.4001 9.82997 52.3887 9.74698C52.2885 9.07737 51.3556 9.08308 50.8405 9.08594C50.6946 9.0888 50.5801 9.08879 50.5286 9.07734C50.1594 8.9686 49.8047 8.92281 49.467 8.92281C47.7386 8.92281 46.4681 10.1447 46.0674 10.6713ZM41.3857 23.1737C41.0166 22.6815 40.7105 21.8802 40.8593 21.7142C44.3218 17.8396 45.2605 15.7592 45.292 15.9996C45.0573 17.5821 44.113 19.3076 43.2201 20.6039C41.9467 22.4411 42.1384 23.5657 42.0297 23.6201C42.0096 23.6286 41.9839 23.6372 41.961 23.6372C41.7607 23.6372 41.4859 23.3082 41.3857 23.1737ZM2.35901 14.2025C0.759366 16.074 0.948378 19.0501 2.29334 20.4523C2.50796 20.6726 2.84846 20.9244 2.6968 21.1333C2.59378 21.2764 0.341727 21.5282 0.0870437 23.8604C-0.101823 25.5974 1.3633 27.4976 1.71242 27.4976C1.94135 27.4976 2.05572 26.1927 2.83408 25.5316C3.79272 24.7218 5.39814 24.636 6.31958 25.5545C8.84924 28.0756 6.08208 36.8293 5.4096 38.5119C3.74987 36.3486 1.89265 37.3615 1.33463 39.1672C0.99124 40.289 1.30893 42.2664 1.60081 42.1319C1.76393 41.3106 2.84836 39.0499 4.51954 41.6683C4.69124 41.943 5.14335 43.1878 4.75131 43.1391C2.21306 42.8272 1.68371 44.5127 1.57496 45.1365C1.46908 45.7518 1.9385 44.8675 3.23195 44.8218C4.95465 44.7645 5.13487 45.9578 5.56697 47.4459C6.1164 49.3288 8.07365 52.5739 14.0144 51.4092C14.4093 51.3319 14.4522 51.269 14.4293 50.834C14.4179 50.5822 13.9915 47.6691 13.6023 47.7349C7.72744 48.6878 7.21246 44.8418 6.92058 43.4911C6.42838 41.2247 6.6915 35.6103 10.921 36.2799C11.4303 36.36 11.6507 36.8121 11.6937 36.1511C11.7852 34.7889 11.1442 33.6987 9.65329 33.733C9.21547 33.7416 8.94364 33.9476 9.00374 33.7902C11.0555 28.3303 11.0184 23.6401 10.2314 20.9101C8.35134 14.3971 11.2272 14.048 11.2158 13.5243C10.9811 13.2095 8.74629 14.0852 8.03089 14.8149C6.58005 16.2972 6.39103 18.5607 6.47974 18.8154C5.17198 15.1096 6.99205 14.5946 6.49127 11.6528C6.3024 10.5282 5.49249 9.51233 5.27215 9.46368C5.24925 9.45796 5.22934 9.45508 5.21503 9.45508C4.95176 9.45508 5.75002 10.2506 2.35901 14.2025ZM5.66146 22.3467C5.48404 21.9231 5.08326 21.5798 4.71411 21.1391C3.36915 19.5223 0.902483 17.522 4.39938 13.1838C2.73105 19.5594 7.52143 22.4296 7.75894 25.1482C7.799 25.6203 7.44421 25.0394 7.27252 24.8477C5.38385 22.753 3.79841 23.3997 2.90272 24.0464C2.45631 24.3698 2.18167 24.6932 2.12444 24.676C1.84973 24.5959 2.33332 22.4182 4.86013 22.4955C5.07475 22.4983 5.37237 22.6071 5.55265 22.6071C5.68142 22.6071 5.74731 22.547 5.66146 22.3467ZM7.00354 48.0067C7.06936 47.9781 8.25402 48.8252 9.03238 49.2487C10.4689 50.0242 11.6451 49.8868 12.3547 49.7495C12.638 49.6951 12.8468 49.6407 12.9699 49.6464L12.9785 49.6493L13.0186 49.6693L13.03 49.655L13.0387 49.6579C13.239 49.738 13.4249 50.2274 13.3791 50.4506C13.3019 50.7997 12.3977 50.7997 11.8482 50.794C11.7338 50.794 11.6365 50.794 11.5649 50.7968C8.15103 50.6595 6.86046 48.0668 7.00354 48.0067ZM26.8315 16.5862C26.6942 16.9411 26.7773 16.8953 26.8775 16.8695C27.9878 16.5605 28.4398 16.8295 29.1238 17.13C30.7034 17.8253 31.8365 17.4819 32.4203 16.3344C31.9481 16.3344 31.2528 17.2501 29.2582 15.6819C28.932 15.4244 28.6058 15.3071 28.2968 15.3071C27.6844 15.3071 27.1463 15.7764 26.8315 16.5862ZM35.7255 26.3529L35.5624 26.3844L35.6682 26.393C35.6625 26.4016 35.6597 26.4073 35.6654 26.4102C35.7599 26.5733 39.2253 26.4474 40.762 28.5707C41.8208 30.0301 42.6591 32.6971 44.9999 31.9989C45.6753 31.7986 46.056 31.418 46.2678 31.2434C46.2935 31.2234 46.2849 31.1862 46.2534 31.1833C45.8356 31.1719 44.2589 31.0002 43.243 29.1802C42.2758 27.4375 40.8334 25.7692 38.65 25.7692C37.803 25.7863 36.0746 26.1726 35.7255 26.3529ZM33.6135 31.8615C34.4978 32.554 37.7028 34.4627 38.5527 35.6131C38.4841 35.4929 37.5397 31.687 36.4752 30.3048C36.3607 30.1588 35.4279 29.1201 35.3449 29.1487C36.0289 28.9284 37.1963 29.515 37.6742 29.9729C38.298 30.5623 38.5184 31.4867 38.733 32.2879C39.5743 35.4729 42.3444 35.5158 42.413 35.3756C42.4388 35.3212 40.9165 34.5429 41.0252 31.7642C41.071 30.5337 40.2412 29.06 39.0564 28.3475C37.0276 27.1284 34.5407 27.1456 32.592 27.157C31.6133 27.1656 30.772 27.1713 30.1911 27.0254C31.7535 28.8597 32.4145 30.9229 33.6135 31.8615ZM31.4703 33.444C31.4217 34.3082 31.1297 33.4898 30.7434 33.052C30.2626 32.5111 27.8991 31.1948 27.9363 31.3293C28.4828 33.2379 27.9935 34.7975 27.5871 35.5874L27.5813 35.5959C27.3953 35.9536 27.2294 36.1511 27.1836 36.1482C27.0835 36.1454 26.3337 34.1794 24.1818 33.4011C24.1417 33.3868 24.093 33.4182 24.0958 33.464C24.94 39.7739 15.4137 41.0816 15.0646 46.2297C14.953 47.8923 15.471 49.9269 15.3079 51.7326C15.8172 51.744 16.3237 51.7841 16.8302 51.8642C17.1106 50.5393 16.9047 49.2573 16.6786 47.7292C15.9146 42.6097 22.4705 41.0988 24.1217 37.8165C21.9526 44.0176 18.2209 43.7887 18.5672 47.3744C18.6301 48.0125 18.9621 50.1129 18.2982 52.2104C18.4985 52.2734 18.696 52.345 18.8935 52.4251C19.4257 52.6426 19.9438 52.903 20.4245 53.2177C20.7965 53.4553 21.1426 53.7271 21.466 54.0276H21.4775L21.7008 54.2565C22.0728 54.6371 22.4076 55.0521 22.6995 55.5013L22.7251 55.5356C23.2717 54.6972 23.7124 53.6842 23.9327 52.4737C24.1531 53.3494 24.1989 54.1163 24.1159 54.7859C24.3992 54.5055 24.694 54.2451 25.003 53.9932C25.4065 53.667 25.8273 53.3751 26.2737 53.109C25.8301 51.9472 24.6597 50.3418 24.5538 49.7981C24.2591 48.3101 26.1391 47.629 27.1779 47.0911C28.4828 46.4071 29.8306 45.5343 30.5317 44.3582C30.9838 43.5913 31.2385 42.584 31.0153 42.4609C30.9495 42.4295 30.649 42.6612 30.174 42.893C29.533 43.2107 28.5772 43.5254 27.4612 43.1821C27.135 43.0848 29.2954 41.2762 26.9489 37.7679L26.9833 37.7879L26.9803 37.8022L27.0291 37.8165H27.0434C29.098 38.9011 29.6103 39.2102 29.1667 42.0889C30.8265 42.0403 31.642 40.392 31.7021 40.5465C32.6464 43.0447 31.4788 43.9976 31.6533 43.9976C32.3831 43.9976 33.4878 43.494 34.0029 43.1048C34.2947 42.8845 34.266 42.7872 34.3948 43.2536C34.7296 44.5041 33.7252 45.6173 33.9112 45.5944C37.4338 45.1451 39.1566 42.7357 40.6675 44.4011C43.1457 47.1254 45.2546 45.5171 45.7296 45.2625C46.1646 47.3457 48.059 46.8249 48.2107 47.1311C48.4453 47.5975 48.6199 47.712 48.5827 47.8494C48.4167 48.4274 48.4597 48.642 48.9519 48.0296C49.3382 47.546 49.1893 47.1969 49.4183 46.6446C49.8647 45.5543 49.4956 44.7646 48.9318 44.3096C48.6171 44.0549 47.2636 43.6142 47.0805 43.4339C47.358 43.1621 48.6599 42.9446 50.0449 43.6485C50.2853 43.7687 50.5458 43.6628 50.8091 43.5541C51.0323 43.4596 51.2584 43.3681 51.4702 43.4196C52.011 43.5541 51.8965 44.2637 52.2713 44.4641C52.3572 44.5127 52.8809 43.5941 51.8822 41.9087C51.7277 41.6511 51.7161 41.3506 51.513 41.116C50.8605 40.3491 49.4755 40.3834 48.5369 40.4178C48.142 40.4292 47.8244 40.4435 47.6785 40.3977C47.6871 40.2203 49.9248 39.6766 49.9821 38.4346C50.005 37.9281 50.3025 37.7049 50.8405 37.6763C50.9521 37.6677 51.0724 37.6878 51.1869 37.7078C51.4787 37.7564 51.7133 37.8051 51.573 37.4159C51.2439 36.4973 50.4313 36.5574 49.6701 36.6204C49.4526 36.6375 49.2352 36.6576 49.0407 36.6519C45.9759 36.566 45.8184 39.3475 44.379 39.7424C43.3946 40.0085 42.1813 39.8998 41.4802 39.1901C39.0306 36.7206 34.2632 34.3082 33.3275 33.4068C32.5233 32.6284 31.7937 31.1604 31.4989 30.9802C31.6907 32.2049 31.4932 33.009 31.4703 33.444ZM30.3886 40.0343C30.6834 37.9167 28.5743 35.8592 28.5743 35.8592C28.7031 35.6875 30.6032 36.4487 31.7192 37.5332C32.7065 38.489 37.185 41.3879 38.384 41.8915C38.9277 42.1204 41.4516 42.9732 41.8065 43.0504C40.5817 42.9245 37.9261 42.77 36.9474 42.5697C36.647 42.5067 36.5612 42.4552 36.5354 42.7156C36.5182 42.9074 36.4352 43.2107 36.2864 43.4425C36.0374 43.8345 35.631 44.2437 35.6682 43.6285C35.7197 42.77 34.4549 40.9414 34.2374 40.9472C34.1258 41.6254 33.0957 43.039 33.1042 42.7643C33.1901 39.5993 31.227 38.6264 31.1468 38.5663C31.1182 38.5463 31.3272 39.6251 30.586 40.6181C30.4601 40.7869 30.3858 40.8642 30.3429 40.8642C30.2599 40.8642 30.3171 40.5523 30.3886 40.0343ZM38.5557 35.616C38.5557 35.616 38.5556 35.6131 38.5527 35.6131L38.5557 35.616ZM32.0311 46.5216C29.8134 48.0668 25.7728 47.9896 26.7772 50.3361C26.8974 50.6137 27.3123 51.3148 27.6786 52.3993C27.9848 52.2706 28.2967 52.1532 28.6115 52.0445C29.3298 51.8041 30.0709 51.6238 30.8178 51.5122C31.6362 51.3892 32.4632 51.3319 33.2903 51.3291C34.103 51.3291 34.91 51.4092 35.7084 51.5609C36.5068 51.7154 37.2794 51.9472 38.0349 52.2534C38.2151 52.3306 38.4011 52.4108 38.5814 52.4966V51.5208C36.2921 50.3676 34.2518 48.8681 32.6636 46.8878C32.4747 46.6532 32.386 46.4443 32.2229 46.4443C32.1685 46.4443 32.1055 46.4701 32.0311 46.5216Z" fill="url(#paint1_linear_112_753)"/>
<path d="M2.02734 82.3799H57.9203V76.8312H2.02734V82.3799Z" fill="url(#paint2_linear_112_753)"/>
<mask id="mask0_112_753" style="mask-type:luminance" maskUnits="userSpaceOnUse" x="-1667" y="-23" width="2267" height="135">
<path d="M-1666.92 111.709H599.479V-22.4206H-1666.92V111.709Z" fill="white" style="fill:white;fill-opacity:1;"/>
</mask>
<g mask="url(#mask0_112_753)">
<path d="M3.57327 80.4734V78.745C3.57327 78.6134 3.56182 78.5304 3.53607 78.4932C3.51031 78.456 3.4817 78.4274 3.44736 78.4073C3.44163 78.4045 3.43305 78.3987 3.42733 78.3959C3.41874 78.393 3.41302 78.3902 3.41016 78.3844H4.19138C4.42603 78.3844 4.62348 78.4302 4.78087 78.5189C4.94112 78.6105 5.02124 78.7593 5.02124 78.9682C5.02124 79.1256 4.97546 79.2544 4.88389 79.3545C4.79232 79.4575 4.6893 79.5291 4.57769 79.5749C4.56053 79.5806 4.54049 79.5892 4.52332 79.5949C4.50615 79.5978 4.48612 79.6035 4.46895 79.6092C4.48326 79.6264 4.50043 79.6464 4.51474 79.6664C4.52905 79.6865 4.54336 79.7036 4.55766 79.7237C4.60059 79.7752 4.64065 79.8267 4.68071 79.8782C4.72364 79.9326 4.76084 79.9841 4.8009 80.0356C4.91823 80.1844 5.03841 80.3217 5.1586 80.4477C5.27879 80.5736 5.41329 80.6766 5.55637 80.751H5.16719C5.13857 80.751 5.10709 80.751 5.08134 80.7481C5.05272 80.7453 5.02411 80.7367 4.99549 80.7281C4.95829 80.7138 4.91823 80.6938 4.87816 80.6623C4.8381 80.6308 4.79232 80.5879 4.74653 80.5306L4.01968 79.5548C4.07691 79.5348 4.13128 79.5148 4.17993 79.4947C4.22858 79.4747 4.27436 79.4547 4.31156 79.4375C4.42317 79.3889 4.50329 79.3345 4.5548 79.2801C4.60631 79.2229 4.63207 79.1485 4.63207 79.0569V78.9997C4.63207 78.8852 4.59486 78.7965 4.51474 78.7335C4.43748 78.6706 4.32587 78.6391 4.18279 78.6391C4.1599 78.6391 4.13414 78.642 4.10839 78.6448C4.08264 78.6448 4.05688 78.6477 4.03113 78.6506C4.01682 78.6534 4.00537 78.6563 3.99679 78.6563C3.98534 78.6591 3.97389 78.6591 3.96531 78.662V80.4448C3.96531 80.5163 3.97676 80.5764 4.00537 80.6308C4.03399 80.6823 4.07405 80.7224 4.12842 80.751H3.41016C3.46453 80.7367 3.50459 80.7052 3.53321 80.6566C3.55896 80.605 3.57327 80.5449 3.57327 80.4734ZM5.29882 79.7494C5.29882 79.6922 5.30454 79.6321 5.31599 79.5691C5.32744 79.5062 5.34175 79.4404 5.36464 79.3745C5.42759 79.1885 5.54778 79.0168 5.72234 78.8595C5.8969 78.7021 6.15158 78.6219 6.47781 78.6219C6.80689 78.6219 7.08161 78.7164 7.30481 78.9052C7.52516 79.0941 7.64535 79.3602 7.66251 79.7008C7.66251 79.7494 7.65679 79.8009 7.64821 79.8524C7.63962 79.9068 7.63104 79.9583 7.61673 80.0127C7.55663 80.2159 7.43931 80.399 7.25903 80.5678C7.07875 80.7367 6.83551 80.8225 6.52932 80.8225C6.14014 80.8225 5.84253 80.7195 5.64222 80.5135C5.43904 80.3046 5.32458 80.0528 5.29882 79.7494ZM5.69659 79.7237C5.69659 79.9784 5.78243 80.1844 5.95413 80.3418C6.12297 80.4992 6.31469 80.5793 6.52932 80.5793C6.75824 80.5793 6.94139 80.4992 7.07588 80.3361C7.21324 80.1729 7.28192 79.9869 7.28192 79.7809V79.7237C7.28192 79.7094 7.27906 79.6951 7.27906 79.6807C7.2762 79.6693 7.27334 79.655 7.27334 79.6407C7.24758 79.4432 7.16173 79.2601 7.01865 79.097C6.87843 78.931 6.68957 78.848 6.45491 78.848C6.44061 78.848 6.4263 78.848 6.40913 78.8509C6.39482 78.8509 6.38051 78.8537 6.3662 78.8537C6.19737 78.8766 6.04284 78.9568 5.90262 79.0941C5.76526 79.2315 5.69372 79.4261 5.69372 79.675V79.7008L5.69659 79.7122V79.7237ZM8.47807 80.502V79.8267L7.90289 78.8738C7.88 78.8223 7.84566 78.7765 7.79987 78.7364C7.75122 78.6992 7.69685 78.6591 7.6339 78.6219H7.92864C8.01449 78.6219 8.08031 78.6363 8.12037 78.662C8.15757 78.6878 8.19191 78.725 8.22053 78.7736C8.22911 78.7822 8.23484 78.7879 8.2377 78.7965C8.24342 78.8051 8.24915 78.8137 8.25201 78.8223L8.68125 79.552L9.10763 78.9224C9.11335 78.9138 9.11621 78.9052 9.11908 78.8967C9.1248 78.8881 9.1248 78.8795 9.1248 78.868C9.12766 78.8595 9.13052 78.8509 9.13052 78.8394C9.13338 78.8308 9.13338 78.8223 9.13338 78.8165V78.7965C9.12766 78.7564 9.11335 78.7164 9.09046 78.682C9.06757 78.6477 9.03895 78.6277 9.00461 78.6219H9.63703L8.81002 79.8267V80.4763C8.81002 80.5392 8.82147 80.5879 8.84722 80.6251C8.87298 80.6623 8.90159 80.6938 8.93593 80.7195C8.94166 80.7252 8.95024 80.731 8.95883 80.7367C8.96741 80.7424 8.97313 80.7481 8.98172 80.751H8.32927C8.38078 80.7252 8.41512 80.6938 8.44087 80.6537C8.46663 80.6165 8.47807 80.565 8.47807 80.502ZM9.78583 80.4047L10.3925 78.8738C10.3954 78.868 10.3954 78.8623 10.3982 78.8595V78.848L10.4068 78.8137C10.4097 78.8022 10.4097 78.7908 10.4097 78.7851C10.4097 78.7507 10.4011 78.725 10.381 78.7049C10.3639 78.682 10.341 78.6649 10.3152 78.6477H10.816L11.5686 80.4534C11.5944 80.5049 11.6201 80.5449 11.6459 80.5764C11.6716 80.6079 11.6974 80.6394 11.726 80.668C11.7403 80.6794 11.7546 80.6909 11.7718 80.7052C11.7861 80.7195 11.8004 80.7367 11.8176 80.751H11.1451C11.1766 80.7367 11.1995 80.7224 11.2166 80.7052C11.2338 80.6909 11.2453 80.6709 11.251 80.6537C11.2567 80.6451 11.2596 80.6394 11.2596 80.6279C11.2624 80.6194 11.2624 80.6108 11.2624 80.605C11.2624 80.5879 11.2596 80.5707 11.2538 80.5535C11.251 80.5392 11.2453 80.5221 11.2395 80.5049C11.2367 80.4963 11.2309 80.4877 11.2281 80.4763C11.2252 80.4677 11.2224 80.4591 11.2195 80.4534L11.0163 79.9497H10.2351L10.0377 80.502C10.0377 80.5077 10.0377 80.5106 10.0348 80.5135C10.0348 80.5163 10.0319 80.5221 10.0291 80.5278V80.5335C10.0262 80.5449 10.0205 80.5564 10.0205 80.565C10.0176 80.5736 10.0148 80.5822 10.0148 80.5907C10.0148 80.6136 10.0205 80.6337 10.0348 80.6508C10.0462 80.6651 10.0605 80.6823 10.0749 80.6966C10.0806 80.7023 10.0863 80.7081 10.0949 80.7138C10.1035 80.7195 10.1121 80.7281 10.1178 80.7338C10.1206 80.7395 10.1235 80.7424 10.1264 80.7453C10.1292 80.7481 10.1321 80.7481 10.1349 80.751H9.51398C9.52256 80.7453 9.53115 80.7367 9.53973 80.731C9.55118 80.7224 9.55976 80.7166 9.56835 80.7109C9.63703 80.6566 9.68854 80.6022 9.72002 80.5507C9.75435 80.4963 9.77439 80.4477 9.78583 80.4047ZM10.3152 79.7237H10.9133L10.6157 78.9453L10.3152 79.7237ZM12.0923 80.4047V78.9224C12.0923 78.8566 12.0866 78.8108 12.0751 78.7851C12.0665 78.7622 12.0522 78.7393 12.0351 78.7221C12.0236 78.7107 12.0122 78.7021 12.0036 78.6906C11.9921 78.6792 11.9807 78.6649 11.9664 78.6477H12.5874C12.5874 78.6506 12.5845 78.6506 12.5788 78.6534L12.5702 78.662C12.5645 78.6677 12.5559 78.6735 12.5502 78.6792C12.5416 78.6849 12.5358 78.6906 12.5301 78.6963C12.5072 78.7164 12.4872 78.7421 12.47 78.7793C12.45 78.8165 12.4414 78.8709 12.4414 78.9453V80.4763C12.4672 80.4791 12.4901 80.482 12.5158 80.4849C12.5387 80.4877 12.5616 80.4877 12.5845 80.4906C12.6389 80.4992 12.6904 80.5049 12.739 80.5077C12.7877 80.5135 12.8335 80.5163 12.8764 80.5163C12.9565 80.5163 13.0338 80.5077 13.1053 80.4906C13.1797 80.4763 13.2512 80.4477 13.3228 80.4076C13.3457 80.3961 13.3657 80.3847 13.3857 80.3704C13.4058 80.3589 13.4258 80.3446 13.4487 80.3303L13.2684 80.751H11.9406C11.9635 80.7367 11.9807 80.7195 11.9979 80.7052C12.015 80.688 12.0265 80.6737 12.0408 80.6566C12.0608 80.6251 12.0751 80.5965 12.0808 80.5621C12.0894 80.5306 12.0923 80.502 12.0923 80.4763V80.4047ZM15.0913 79.6636V79.5548C15.0941 79.5176 15.097 79.4804 15.1027 79.4461C15.1313 79.1742 15.2315 78.9253 15.406 78.6992C15.5806 78.4703 15.8839 78.3587 16.3132 78.3587C16.3819 78.3587 16.4563 78.3615 16.5335 78.3673C16.6136 78.373 16.6966 78.3844 16.7796 78.3959C16.814 78.4016 16.8483 78.4073 16.8826 78.4159C16.917 78.4245 16.9513 78.4331 16.9857 78.4388V78.8537C16.8426 78.7707 16.7109 78.7192 16.5907 78.6963C16.4706 78.6735 16.3704 78.662 16.2874 78.662C16.027 78.662 15.8296 78.7479 15.7008 78.9196C15.5692 79.0884 15.5033 79.2801 15.5033 79.4919C15.5033 79.5119 15.5062 79.5348 15.5062 79.5548C15.5091 79.5749 15.5091 79.5949 15.5119 79.6178C15.5377 79.8324 15.6264 80.0327 15.7809 80.2101C15.9326 80.3904 16.1415 80.482 16.4047 80.482H16.4191C16.4248 80.482 16.4305 80.4791 16.4391 80.4763H16.4419H16.4648C16.4706 80.4734 16.4763 80.4734 16.482 80.4734C16.5764 80.4734 16.6594 80.4648 16.7338 80.4477C16.8054 80.4305 16.8769 80.4076 16.9485 80.379C16.9799 80.3647 17.0143 80.3475 17.0486 80.3332C17.0829 80.316 17.1173 80.2989 17.1545 80.2817L17.0143 80.6966C16.9513 80.7166 16.8855 80.7338 16.8168 80.7481C16.7481 80.7624 16.6795 80.7739 16.6108 80.7825C16.5793 80.7853 16.5478 80.7882 16.5192 80.7882C16.4906 80.7882 16.4591 80.791 16.4305 80.791C16.1071 80.791 15.8095 80.6995 15.5348 80.5163C15.2601 80.3332 15.1113 80.0499 15.0913 79.6636ZM17.4521 80.4534V78.9768C17.4521 78.9539 17.4492 78.931 17.4435 78.911C17.4406 78.868 17.4292 78.8251 17.412 78.7822C17.3977 78.7421 17.3662 78.7049 17.3233 78.6706H17.9243C17.8728 78.6963 17.8356 78.7364 17.8127 78.7994C17.7869 78.8595 17.7755 78.9339 17.7755 79.0197V79.4976H18.9344V78.9968C18.9344 78.9825 18.9316 78.9682 18.9316 78.9539C18.9316 78.9424 18.9287 78.9281 18.9258 78.9138C18.9172 78.8623 18.8972 78.8137 18.8715 78.7679C18.8457 78.7221 18.8056 78.6906 18.7541 78.6706H19.4094C19.4037 78.6792 19.398 78.6849 19.3923 78.6935C19.3865 78.6992 19.3808 78.7049 19.3722 78.7107C19.3694 78.7164 19.3637 78.7192 19.3608 78.7221C19.3579 78.7278 19.3522 78.7307 19.3493 78.7364C19.3265 78.7593 19.3036 78.7879 19.2864 78.8251C19.2664 78.8623 19.2578 78.9196 19.2578 78.9968V80.4534C19.2578 80.5278 19.2664 80.5879 19.2864 80.6308C19.3036 80.6737 19.3436 80.7138 19.4094 80.751H18.777C18.8285 80.7338 18.8657 80.7052 18.8886 80.668C18.9087 80.6308 18.923 80.5907 18.9287 80.5478C18.9287 80.5364 18.9316 80.5249 18.9316 80.5135C18.9316 80.502 18.9344 80.4877 18.9344 80.4763V79.7494H17.7755V80.4534C17.7755 80.5163 17.7869 80.5736 17.8127 80.6222C17.8356 80.6709 17.8728 80.7138 17.9243 80.751H17.3004C17.3519 80.7252 17.3891 80.6852 17.4149 80.6308C17.4378 80.5764 17.4521 80.5163 17.4521 80.4534ZM19.7986 80.4047L20.4053 78.8738C20.4053 78.868 20.4081 78.8623 20.4081 78.8595C20.411 78.8566 20.411 78.8537 20.411 78.848L20.4196 78.8137C20.4196 78.8022 20.4225 78.7908 20.4225 78.7851C20.4225 78.7507 20.4139 78.725 20.3938 78.7049C20.3738 78.682 20.3538 78.6649 20.328 78.6477H20.8259L21.5785 80.4534C21.6043 80.5049 21.6301 80.5449 21.6558 80.5764C21.6816 80.6079 21.7102 80.6394 21.7388 80.668C21.7531 80.6794 21.7674 80.6909 21.7817 80.7052C21.796 80.7195 21.8132 80.7367 21.8304 80.751H21.1579C21.1894 80.7367 21.2123 80.7224 21.2266 80.7052C21.2437 80.6909 21.2552 80.6709 21.2638 80.6537C21.2666 80.6451 21.2695 80.6394 21.2724 80.6279V80.605C21.2724 80.5879 21.2724 80.5707 21.2666 80.5535C21.2609 80.5392 21.258 80.5221 21.2523 80.5049C21.2466 80.4963 21.2437 80.4877 21.2409 80.4763C21.2351 80.4677 21.2323 80.4591 21.2323 80.4534L21.0263 79.9497H20.245L20.0476 80.502V80.5135C20.0447 80.5163 20.0447 80.5221 20.0419 80.5278V80.5335C20.0361 80.5449 20.0333 80.5564 20.0304 80.565C20.0275 80.5736 20.0275 80.5822 20.0275 80.5907C20.0275 80.6136 20.0333 80.6337 20.0447 80.6508C20.0562 80.6651 20.0705 80.6823 20.0876 80.6966C20.0934 80.7023 20.0991 80.7081 20.1077 80.7138C20.1163 80.7195 20.122 80.7281 20.1306 80.7338C20.1306 80.7395 20.1363 80.7424 20.1392 80.7453C20.142 80.7481 20.1449 80.7481 20.1477 80.751H19.5239C19.5354 80.7453 19.5439 80.7367 19.5525 80.731C19.5611 80.7224 19.5726 80.7166 19.5811 80.7109C19.6498 80.6566 19.6985 80.6022 19.7328 80.5507C19.7643 80.4963 19.7872 80.4477 19.7986 80.4047ZM20.328 79.7237H20.9261L20.6256 78.9453L20.328 79.7237ZM22.1051 80.4047V78.9224C22.1051 78.8566 22.0994 78.8108 22.0879 78.7851C22.0765 78.7622 22.065 78.7393 22.0478 78.7221C22.0364 78.7107 22.025 78.7021 22.0135 78.6906C22.0049 78.6792 21.9906 78.6649 21.9763 78.6477H22.6001C22.5973 78.6506 22.5944 78.6506 22.5916 78.6534L22.583 78.662C22.5772 78.6677 22.5687 78.6735 22.5629 78.6792C22.5544 78.6849 22.5486 78.6906 22.54 78.6963C22.52 78.7164 22.5 78.7421 22.48 78.7793C22.4628 78.8165 22.4513 78.8709 22.4513 78.9453V80.4763C22.4771 80.4791 22.5028 80.482 22.5257 80.4849C22.5486 80.4877 22.5744 80.4877 22.5973 80.4906C22.6516 80.4992 22.7032 80.5049 22.7489 80.5077C22.7976 80.5135 22.8434 80.5163 22.8892 80.5163C22.9693 80.5163 23.0437 80.5077 23.1181 80.4906C23.1896 80.4763 23.264 80.4477 23.3356 80.4076C23.3585 80.3961 23.3785 80.3847 23.3985 80.3704C23.4186 80.3589 23.4386 80.3446 23.4586 80.3303L23.2783 80.751H21.9534C21.9734 80.7367 21.9935 80.7195 22.0078 80.7052C22.025 80.688 22.0393 80.6737 22.0507 80.6566C22.0736 80.6251 22.0879 80.5965 22.0936 80.5621C22.0994 80.5306 22.1051 80.502 22.1051 80.4763V80.4047ZM23.8421 80.4047V78.9224C23.8421 78.8566 23.8364 78.8108 23.8278 78.7851C23.8163 78.7622 23.802 78.7393 23.7877 78.7221C23.7734 78.7107 23.7648 78.7021 23.7534 78.6906C23.7419 78.6792 23.7305 78.6649 23.7162 78.6477H24.34C24.3371 78.6506 24.3343 78.6506 24.3314 78.6534C24.3257 78.6563 24.3228 78.6591 24.32 78.662C24.3142 78.6677 24.3085 78.6735 24.2999 78.6792C24.2942 78.6849 24.2856 78.6906 24.2799 78.6963C24.257 78.7164 24.237 78.7421 24.2198 78.7793C24.1998 78.8165 24.1912 78.8709 24.1912 78.9453V80.4763C24.217 80.4791 24.2427 80.482 24.2656 80.4849C24.2885 80.4877 24.3114 80.4877 24.3343 80.4906C24.3886 80.4992 24.4402 80.5049 24.4888 80.5077C24.5375 80.5135 24.5832 80.5163 24.6262 80.5163C24.7063 80.5163 24.7836 80.5077 24.8551 80.4906C24.9295 80.4763 25.001 80.4477 25.0754 80.4076C25.0955 80.3961 25.1155 80.3847 25.1355 80.3704C25.1556 80.3589 25.1756 80.3446 25.1985 80.3303L25.0182 80.751H23.6904C23.7133 80.7367 23.7305 80.7195 23.7476 80.7052C23.7648 80.688 23.7791 80.6737 23.7906 80.6566C23.8106 80.6251 23.8249 80.5965 23.8335 80.5621C23.8392 80.5306 23.8421 80.502 23.8421 80.4763V80.4047ZM25.6048 80.4763V78.9768C25.6048 78.9253 25.5991 78.8709 25.5848 78.8194C25.5705 78.765 25.5362 78.7164 25.4789 78.6706H26.5434C26.5578 78.6706 26.5692 78.6706 26.5835 78.6677C26.595 78.6649 26.6093 78.6649 26.6207 78.662C26.635 78.6591 26.6465 78.6534 26.6579 78.6477V79.0455C26.615 78.9911 26.552 78.9568 26.4719 78.9396C26.3918 78.9224 26.3002 78.9138 26.1972 78.9138H26.0942C26.057 78.9138 26.0226 78.9167 25.9854 78.9196H25.9568C25.9482 78.9224 25.9396 78.9224 25.9282 78.9224V79.4976H26.2315C26.283 79.4976 26.3288 79.4976 26.366 79.4947C26.4032 79.4919 26.4347 79.4862 26.4576 79.4747V79.8267C26.4347 79.7866 26.3946 79.758 26.3374 79.7466C26.2802 79.7323 26.2229 79.7237 26.1571 79.7237H25.9282V80.4763C25.9482 80.4791 25.9654 80.482 25.9854 80.4849C26.0026 80.4906 26.0198 80.4934 26.0398 80.4934C26.0656 80.4992 26.0942 80.5049 26.1228 80.5077C26.1514 80.5106 26.18 80.5135 26.2086 80.5192C26.2344 80.5221 26.263 80.5249 26.2916 80.5278C26.3202 80.5278 26.3489 80.5306 26.3775 80.5306C26.4118 80.5306 26.4461 80.5278 26.4833 80.5249C26.5177 80.5221 26.552 80.5163 26.5892 80.5077C26.6522 80.4934 26.718 80.4734 26.7781 80.4448C26.8411 80.4133 26.9011 80.3761 26.9612 80.3303L26.781 80.751H25.4789C25.5018 80.7281 25.5218 80.7052 25.539 80.688C25.5562 80.668 25.5676 80.6451 25.5791 80.6251C25.5877 80.6022 25.5934 80.5793 25.5991 80.5535C25.6048 80.5306 25.6048 80.5049 25.6048 80.4763ZM27.3361 80.4534V79.0197C27.3361 78.9138 27.3247 78.8394 27.2989 78.7936C27.2732 78.7479 27.2445 78.7135 27.2102 78.6935C27.2016 78.6849 27.193 78.6792 27.1816 78.6735C27.173 78.6677 27.1644 78.662 27.153 78.6591C27.153 78.6591 27.1501 78.6563 27.1444 78.6534C27.1415 78.6506 27.1387 78.6506 27.1358 78.6477H27.6108L28.8928 80.2817V78.9968C28.8928 78.8938 28.8757 78.8137 28.8413 78.7536C28.8041 78.6935 28.7583 78.6591 28.6954 78.6477H29.3192C29.3078 78.6563 29.2963 78.6649 29.2849 78.6706C29.2706 78.6792 29.2591 78.6849 29.2477 78.6906C29.2162 78.7078 29.1876 78.7335 29.1647 78.7679C29.1447 78.7994 29.1275 78.868 29.1189 78.9711V80.854C29.096 80.8511 29.0731 80.8454 29.0474 80.834C29.0187 80.8225 28.993 80.8082 28.9644 80.791C28.9386 80.7767 28.9129 80.7596 28.8871 80.7424C28.8642 80.7224 28.8413 80.7023 28.8184 80.6852C28.8098 80.6766 28.8013 80.6651 28.7927 80.6566C28.7841 80.648 28.7755 80.6394 28.7698 80.6279L27.5622 79.0941V80.4276C27.5622 80.5135 27.5765 80.5822 27.6022 80.6279C27.6309 80.6737 27.6738 80.7138 27.7339 80.751H27.1358C27.1472 80.7453 27.1587 80.7367 27.1701 80.731C27.1816 80.7224 27.1902 80.7166 27.2016 80.7109C27.236 80.6852 27.2646 80.6537 27.2875 80.6194C27.3104 80.585 27.3275 80.5306 27.3361 80.4534ZM29.4165 79.7237C29.4537 79.3288 29.5996 79.0483 29.8543 78.8852C30.109 78.7221 30.4009 78.6391 30.7271 78.6391C30.77 78.6391 30.8187 78.642 30.8645 78.6448C30.9131 78.6477 30.9618 78.6534 31.0076 78.6591C31.0505 78.6649 31.0905 78.6706 31.1306 78.6763C31.1707 78.682 31.2107 78.6906 31.2479 78.6963V79.0684C31.1878 79.0197 31.122 78.9796 31.0505 78.951C30.9789 78.9196 30.9045 78.8995 30.8273 78.8852C30.8044 78.8852 30.7815 78.8824 30.7586 78.8795C30.7357 78.8766 30.71 78.8766 30.6871 78.8766H30.667C30.4524 78.8795 30.2578 78.9568 30.0775 79.0998C29.8973 79.2458 29.8085 79.4432 29.8085 79.6922V79.7065C29.8114 79.7122 29.8114 79.7151 29.8114 79.7208C29.8114 79.7265 29.8114 79.7294 29.8143 79.7351V79.7494C29.8343 80.0127 29.9144 80.2073 30.0575 80.3332C30.2006 80.4562 30.3551 80.5364 30.5211 80.5736C30.564 80.5822 30.6069 80.5879 30.647 80.5907C30.6871 80.5965 30.73 80.5965 30.77 80.5965H30.7901C30.8444 80.5936 30.896 80.5879 30.9503 80.5793C31.0018 80.5707 31.0505 80.5593 31.0877 80.5478C31.102 80.5449 31.1106 80.5421 31.122 80.5392C31.1306 80.5364 31.1392 80.5335 31.1478 80.5306V80.0556C31.1478 79.9669 31.1392 79.8925 31.122 79.8381C31.102 79.7838 31.0619 79.738 30.9961 79.7008H31.4969C31.494 79.7036 31.494 79.7094 31.4912 79.7122C31.4912 79.7151 31.4883 79.7179 31.4855 79.7208C31.4797 79.7408 31.4769 79.7637 31.474 79.7923V79.924V80.5793C31.474 80.6022 31.474 80.6279 31.4769 80.6508C31.4797 80.6766 31.4855 80.7023 31.4969 80.7281C31.4225 80.7481 31.3424 80.7653 31.2622 80.7796C31.1793 80.7939 31.0963 80.8054 31.0161 80.8111C30.9789 80.8168 30.9389 80.8197 30.9017 80.8197C30.8645 80.8225 30.8273 80.8225 30.7929 80.8225C30.4495 80.8225 30.1348 80.7395 29.8515 80.5736C29.5653 80.4047 29.4222 80.1243 29.4165 79.7237ZM31.8517 80.4763V78.9768C31.8517 78.9253 31.846 78.8709 31.8317 78.8194C31.8174 78.765 31.7831 78.7164 31.7258 78.6706H32.7903C32.8047 78.6706 32.8161 78.6706 32.8304 78.6677C32.8419 78.6649 32.8562 78.6649 32.8676 78.662C32.8819 78.6591 32.8934 78.6534 32.9048 78.6477V79.0455C32.859 78.9911 32.7989 78.9568 32.7188 78.9396C32.6387 78.9224 32.5471 78.9138 32.4441 78.9138H32.3411C32.3039 78.9138 32.2667 78.9167 32.2323 78.9196H32.2037C32.1951 78.9224 32.1865 78.9224 32.1751 78.9224V79.4976H32.4784C32.5299 79.4976 32.5757 79.4976 32.6129 79.4947C32.6501 79.4919 32.6816 79.4862 32.7045 79.4747V79.8267C32.6816 79.7866 32.6415 79.758 32.5843 79.7466C32.5271 79.7323 32.4698 79.7237 32.404 79.7237H32.1751V80.4763C32.1951 80.4791 32.2123 80.482 32.2323 80.4849C32.2495 80.4906 32.2667 80.4934 32.2867 80.4934C32.3125 80.4992 32.3411 80.5049 32.3697 80.5077C32.3983 80.5106 32.4269 80.5135 32.4555 80.5192C32.4842 80.5221 32.5099 80.5249 32.5385 80.5278C32.5671 80.5278 32.5958 80.5306 32.6244 80.5306C32.6587 80.5306 32.6931 80.5278 32.7303 80.5249C32.7646 80.5221 32.7989 80.5163 32.8333 80.5077C32.8991 80.4934 32.9649 80.4734 33.025 80.4448C33.088 80.4133 33.148 80.3761 33.2081 80.3303L33.0279 80.751H31.7258C31.7487 80.7281 31.7688 80.7052 31.7859 80.688C31.8031 80.668 31.8145 80.6451 31.826 80.6251C31.8346 80.6022 31.8403 80.5793 31.846 80.5535C31.8517 80.5306 31.8517 80.5049 31.8517 80.4763ZM33.5372 80.502V78.9453C33.5372 78.828 33.5286 78.7536 33.5058 78.7192C33.4829 78.6849 33.4571 78.6591 33.4256 78.6448C33.4199 78.6391 33.4113 78.6363 33.4056 78.6334C33.3999 78.6305 33.3941 78.6277 33.3913 78.6219H34.0952C34.307 78.6219 34.4816 78.662 34.6275 78.745C34.7677 78.8251 34.8421 78.9596 34.8421 79.1456C34.8421 79.2887 34.7992 79.4032 34.7162 79.4947C34.6361 79.5863 34.5445 79.6521 34.4444 79.6922C34.4272 79.7008 34.41 79.7065 34.3929 79.7094C34.3785 79.7151 34.3614 79.7208 34.3442 79.7237C34.3585 79.7408 34.3728 79.758 34.3843 79.7752C34.3986 79.7923 34.41 79.8095 34.4243 79.8267C34.4615 79.8725 34.4987 79.9211 34.5359 79.9669C34.5731 80.0127 34.6075 80.0613 34.6447 80.1071C34.7506 80.2416 34.8564 80.3647 34.9652 80.4791C35.0739 80.5936 35.1941 80.6852 35.3229 80.751H34.9738C34.9451 80.751 34.9194 80.751 34.8965 80.7481C34.8707 80.7453 34.845 80.7395 34.8192 80.731C34.7849 80.7195 34.7477 80.6995 34.7134 80.6709C34.6762 80.6422 34.6361 80.605 34.5932 80.5535L33.9407 79.675C33.9922 79.655 34.038 79.6378 34.0838 79.6206C34.1296 79.6035 34.1696 79.5863 34.204 79.5691C34.3013 79.5234 34.3757 79.4776 34.4215 79.4261C34.4701 79.3774 34.493 79.3087 34.493 79.2286V79.1742C34.493 79.0712 34.4558 78.9911 34.3871 78.9367C34.3156 78.8795 34.2154 78.8509 34.0867 78.8509C34.0666 78.8509 34.0437 78.8537 34.0208 78.8537C33.9979 78.8566 33.9751 78.8595 33.9493 78.8623C33.9379 78.8652 33.9293 78.8652 33.9178 78.868C33.9092 78.868 33.9007 78.8709 33.8892 78.8738V80.4763C33.8892 80.5421 33.9035 80.5965 33.9264 80.6422C33.9522 80.6909 33.9894 80.7252 34.038 80.751H33.3913C33.4399 80.7395 33.4771 80.7109 33.5029 80.6651C33.5258 80.6194 33.5372 80.565 33.5372 80.502ZM35.1283 79.2029C35.1283 78.9911 35.2055 78.8366 35.3601 78.7393C35.5146 78.6448 35.6863 78.5991 35.8752 78.5991H35.9553C35.9839 78.5991 36.0182 78.5991 36.0555 78.6019C36.0955 78.6048 36.1356 78.6076 36.1785 78.6134C36.2271 78.6191 36.2758 78.6277 36.3216 78.6363C36.3674 78.6448 36.4046 78.6591 36.4303 78.6706V79.0197C36.4303 79.0168 36.4275 79.0168 36.4246 79.014C36.4217 79.014 36.4189 79.0111 36.416 79.0111C36.3731 78.9768 36.3159 78.9453 36.2472 78.9167C36.1814 78.8881 36.1098 78.8652 36.0411 78.8509C36.0125 78.848 35.9868 78.8423 35.961 78.8394C35.9353 78.8366 35.9066 78.8337 35.8838 78.8337C35.8094 78.8337 35.7435 78.848 35.6806 78.8766C35.6176 78.9052 35.5661 78.951 35.5261 79.0197C35.5261 79.0254 35.5232 79.0312 35.5203 79.0369C35.5175 79.0426 35.5146 79.0483 35.5117 79.0569V79.0626C35.5089 79.0655 35.5089 79.0684 35.506 79.0684C35.5032 79.0798 35.5003 79.0884 35.4974 79.097C35.4974 79.1084 35.4946 79.1141 35.4946 79.1227C35.4946 79.1914 35.5318 79.2601 35.6062 79.3202C35.6806 79.3831 35.7636 79.4346 35.858 79.4747L36.2071 79.6493C36.23 79.6607 36.2558 79.675 36.2844 79.6922C36.313 79.7094 36.3416 79.7265 36.3702 79.7494C36.436 79.7923 36.4961 79.8496 36.5505 79.9183C36.6049 79.9898 36.6306 80.0671 36.6306 80.1529C36.6306 80.3618 36.5448 80.5249 36.3702 80.6422C36.1957 80.7596 35.9839 80.8197 35.735 80.8197C35.672 80.8197 35.6062 80.8139 35.5404 80.8054C35.4717 80.7968 35.4059 80.7853 35.34 80.7682C35.3114 80.7624 35.2857 80.7567 35.2571 80.751C35.2313 80.7453 35.2055 80.7367 35.1798 80.7281L35.1054 80.3303C35.1598 80.3761 35.2141 80.4162 35.2742 80.4505C35.3343 80.482 35.3944 80.5077 35.4574 80.5306C35.5089 80.5478 35.5604 80.5621 35.6119 80.5707C35.6634 80.5793 35.7121 80.5822 35.7578 80.5822C35.8752 80.5822 35.9782 80.5593 36.0698 80.5135C36.1613 80.4677 36.2128 80.4076 36.23 80.3303C36.2357 80.3132 36.2386 80.296 36.2386 80.2817V80.2416C36.2386 80.1958 36.2271 80.1558 36.2043 80.1157C36.1814 80.0785 36.1499 80.0384 36.1041 80.0012C36.0783 79.9812 36.0497 79.9612 36.0154 79.9383C35.9839 79.9183 35.9467 79.8954 35.9066 79.8753L35.5518 79.7008C35.5318 79.6922 35.5146 79.6836 35.4946 79.6722C35.4774 79.6636 35.4574 79.6521 35.4402 79.6407C35.3658 79.5949 35.3 79.5348 35.237 79.4633C35.1741 79.3889 35.1397 79.303 35.1283 79.2029Z" fill="#264288" style="fill:#264288;fill:color(display-p3 0.1490 0.2588 0.5333);fill-opacity:1;"/>
</g>
<mask id="mask1_112_753" style="mask-type:luminance" maskUnits="userSpaceOnUse" x="-1667" y="-23" width="2267" height="135">
<path d="M-1666.92 111.709H599.479V-22.4206H-1666.92V111.709Z" fill="white" style="fill:white;fill-opacity:1;"/>
</mask>
<g mask="url(#mask1_112_753)">
<path d="M38.5264 80.4463V78.7178C38.5264 78.7035 38.5264 78.6864 38.5236 78.6721C38.5236 78.6549 38.5207 78.6406 38.5179 78.6234C38.5121 78.5833 38.5007 78.5433 38.4807 78.5032C38.4578 78.4632 38.4263 78.4345 38.3862 78.4117H39.2218C39.4479 78.4117 39.6282 78.4632 39.7655 78.5662C39.9057 78.6663 39.9744 78.8008 39.9744 78.9697C39.9744 79.067 39.9429 79.1585 39.88 79.2472C39.817 79.3331 39.7369 79.3903 39.6425 79.4189C39.6625 79.4247 39.6825 79.4332 39.7054 79.4418L39.7741 79.4676C39.88 79.5134 39.9801 79.5792 40.066 79.665C40.1547 79.7537 40.2005 79.8854 40.2005 80.0599C40.1919 80.2517 40.1347 80.3976 40.0288 80.492C39.9201 80.5893 39.8027 80.658 39.6768 80.6952C39.6024 80.7181 39.5309 80.7324 39.4622 80.741C39.3907 80.7467 39.3306 80.7525 39.2819 80.7525H38.3862C38.3948 80.7439 38.4063 80.7353 38.4148 80.7267C38.4234 80.721 38.4349 80.7124 38.4435 80.7038C38.4749 80.6723 38.4978 80.638 38.5093 80.6036C38.5207 80.5664 38.5264 80.5149 38.5264 80.4463ZM38.9128 80.4749C38.9299 80.4749 38.9442 80.4777 38.9586 80.4806C38.9729 80.4806 38.9872 80.4835 39.0043 80.4863C39.0473 80.492 39.0902 80.4949 39.136 80.4978C39.1789 80.5035 39.219 80.5035 39.259 80.5035C39.405 80.5035 39.5309 80.4777 39.6282 80.4205C39.7283 80.3661 39.777 80.2603 39.777 80.1086V80.0599C39.777 79.9369 39.7283 79.831 39.6339 79.7394C39.5366 79.6479 39.362 79.6021 39.1045 79.6021C39.093 79.6021 39.0787 79.6021 39.0616 79.6049H39.0158C38.9986 79.6049 38.9843 79.6049 38.9671 79.6078C38.95 79.6078 38.9328 79.6107 38.9128 79.6107V80.4749ZM38.9128 79.3588C38.9214 79.3588 38.9299 79.3588 38.9414 79.3617C38.9528 79.3617 38.9614 79.3646 38.9729 79.3646H38.99C38.9958 79.3674 39.0015 79.3674 39.0072 79.3674H39.0759C39.0873 79.3674 39.0988 79.3646 39.1131 79.3646C39.2247 79.3588 39.3277 79.3331 39.4193 79.2902C39.508 79.2444 39.5538 79.17 39.5538 79.0612V78.9983C39.528 78.8294 39.4651 78.7322 39.362 78.7035C39.2619 78.6778 39.1131 78.6635 38.9128 78.6635V79.3588ZM40.6956 80.4777V78.9783C40.6956 78.9239 40.6898 78.8724 40.6755 78.818C40.6612 78.7665 40.6269 78.7178 40.5696 78.6721H41.6342C41.6485 78.6721 41.6599 78.6721 41.6742 78.6692C41.6857 78.6663 41.7 78.6635 41.7114 78.6606C41.7257 78.6577 41.7372 78.6549 41.7486 78.6463V79.0441C41.7057 78.9926 41.6427 78.9554 41.5626 78.9382C41.4825 78.9239 41.3909 78.9153 41.2879 78.9153H41.1849C41.1477 78.9153 41.1133 78.9153 41.0761 78.9182C41.0676 78.9182 41.059 78.9182 41.0475 78.921H41.0218V79.4991H41.3222C41.3738 79.4991 41.4195 79.4991 41.4567 79.4962C41.4939 79.4933 41.5254 79.4876 41.5483 79.4733V79.8253C41.5254 79.7881 41.4854 79.7595 41.4281 79.7452C41.3738 79.7309 41.3137 79.7251 41.2478 79.7251H41.0218V80.4777C41.0389 80.4806 41.059 80.4835 41.0761 80.4863C41.0933 80.4892 41.1105 80.492 41.1305 80.4949C41.1563 80.5006 41.1849 80.5035 41.2135 80.5064C41.2421 80.5121 41.2707 80.5149 41.2994 80.5207C41.328 80.5235 41.3537 80.5235 41.3823 80.5264C41.411 80.5292 41.4396 80.5292 41.4682 80.5292C41.5025 80.5292 41.5369 80.5292 41.5741 80.5264C41.6084 80.5207 41.6427 80.5178 41.6799 80.5092C41.7458 80.4949 41.8087 80.472 41.8717 80.4434C41.9318 80.4148 41.9919 80.3776 42.052 80.3289L41.8717 80.7525H40.5696C40.5925 80.7296 40.6126 80.7067 40.6297 80.6866C40.6469 80.6666 40.6584 80.6466 40.6698 80.6265C40.6784 80.6008 40.6841 80.5779 40.6898 80.555C40.6956 80.5321 40.6956 80.5064 40.6956 80.4777ZM42.4297 80.452V79.0212C42.4297 78.9153 42.4154 78.838 42.3896 78.7922C42.3639 78.7465 42.3353 78.715 42.3009 78.6921C42.2923 78.6864 42.2837 78.6806 42.2723 78.6749L42.2465 78.6577C42.2437 78.6577 42.2408 78.6577 42.238 78.6549C42.2322 78.652 42.2294 78.6492 42.2265 78.6463H42.7015L43.9835 80.2803V78.9954C43.9835 78.8953 43.9664 78.8151 43.932 78.755C43.8948 78.695 43.8491 78.6577 43.7861 78.6463H44.4099C44.3985 78.6577 44.387 78.6663 44.3756 78.6721C44.3613 78.6778 44.3498 78.6864 44.3384 78.6892C44.3069 78.7093 44.2783 78.735 44.2554 78.7665C44.2354 78.8008 44.2182 78.8666 44.2096 78.9725V80.8555C44.1867 80.8526 44.1638 80.844 44.1381 80.8354C44.1095 80.824 44.0837 80.8097 44.0551 80.7897C44.0293 80.7782 44.0036 80.761 43.9778 80.741C43.9549 80.7238 43.932 80.7038 43.9091 80.6866C43.9006 80.6752 43.892 80.6666 43.8834 80.658C43.8748 80.6466 43.8691 80.638 43.8605 80.6294L42.6529 79.0956V80.4291C42.6529 80.5149 42.6672 80.5808 42.693 80.6265C42.7216 80.6723 42.7645 80.7152 42.8275 80.7525H42.2265C42.238 80.7439 42.2494 80.7381 42.2609 80.7296C42.2723 80.7238 42.2809 80.7181 42.2923 80.7095C42.3267 80.6838 42.3553 80.6552 42.3782 80.6208C42.4011 80.5865 42.4182 80.5292 42.4297 80.452ZM44.5072 79.7251C44.5473 79.3274 44.6904 79.0469 44.945 78.8838C45.1997 78.7207 45.4916 78.6406 45.8178 78.6406C45.8608 78.6406 45.9094 78.6434 45.9552 78.6463C46.0038 78.6492 46.0525 78.652 46.0983 78.6577C46.1412 78.6663 46.1813 78.6721 46.2213 78.6778C46.2614 78.6835 46.3015 78.6892 46.3387 78.6978V79.0698C46.2786 79.0212 46.2127 78.9811 46.1412 78.9496C46.0697 78.921 45.9953 78.8981 45.918 78.8867C45.8951 78.8838 45.8722 78.881 45.8493 78.881C45.8264 78.8781 45.8035 78.8752 45.7778 78.8752H45.7577C45.5431 78.881 45.3485 78.9554 45.1683 79.1013C44.988 79.2472 44.8993 79.4447 44.8993 79.6937V79.708C44.9021 79.7108 44.9021 79.7165 44.9021 79.7223C44.9021 79.7251 44.9021 79.7309 44.905 79.7337V79.748C44.925 80.0142 45.0051 80.2087 45.1482 80.3347C45.2913 80.4577 45.4458 80.5378 45.6147 80.5722C45.6547 80.5808 45.6977 80.5893 45.7377 80.5922C45.7806 80.5951 45.8207 80.5979 45.8608 80.5979H45.8808C45.9352 80.5951 45.9867 80.5893 46.041 80.5808C46.0926 80.5693 46.1412 80.5607 46.1813 80.5493C46.1927 80.5464 46.2013 80.5436 46.2127 80.5378C46.2213 80.535 46.2299 80.5321 46.2385 80.5292V80.0542C46.2385 79.9655 46.2299 79.894 46.2127 79.8396C46.1927 79.7824 46.1526 79.7366 46.0897 79.6994H46.5876C46.5848 79.7051 46.5848 79.708 46.5819 79.7108C46.5819 79.7165 46.579 79.7194 46.579 79.7223C46.5704 79.7423 46.5676 79.7652 46.5647 79.7909V79.9254V80.5808C46.5647 80.6036 46.5647 80.6265 46.5676 80.6523C46.5704 80.6752 46.5762 80.7009 46.5876 80.7267C46.5132 80.7496 46.4331 80.7668 46.353 80.7811C46.27 80.7954 46.187 80.804 46.1069 80.8125C46.0697 80.8154 46.0296 80.8183 45.9924 80.8211H45.8837C45.5403 80.8211 45.2255 80.7381 44.9422 80.5722C44.656 80.4062 44.5129 80.1229 44.5072 79.7251ZM46.9367 80.4033L47.5434 78.8724C47.5434 78.8666 47.5463 78.8638 47.5463 78.8609C47.5491 78.8581 47.5491 78.8523 47.5491 78.8466C47.552 78.8352 47.5548 78.8237 47.5548 78.8123C47.5577 78.8008 47.5606 78.7922 47.5606 78.7837C47.5606 78.7522 47.5491 78.7236 47.5319 78.7035C47.5119 78.6835 47.489 78.6635 47.4633 78.6463H47.9641L48.7167 80.452C48.7424 80.5035 48.7682 80.5464 48.7939 80.5779C48.8197 80.6094 48.8483 80.6408 48.8769 80.6666C48.8912 80.678 48.9055 80.6924 48.9198 80.7067C48.9341 80.721 48.9513 80.7353 48.9685 80.7525H48.296C48.3246 80.7381 48.3475 80.7238 48.3647 80.7067C48.3818 80.6895 48.3933 80.6723 48.4019 80.6523C48.4047 80.6466 48.4076 80.638 48.4105 80.6294V80.6036C48.4105 80.5865 48.4076 80.5722 48.4047 80.555C48.399 80.5378 48.3933 80.5235 48.3904 80.5064C48.3847 80.4978 48.3818 80.4863 48.379 80.4777C48.3733 80.4692 48.3704 80.4606 48.3704 80.452L48.1644 79.9483H47.3831L47.1857 80.5035V80.5149C47.1828 80.5178 47.1828 80.5235 47.18 80.5264V80.535C47.1742 80.5464 47.1714 80.555 47.1685 80.5664C47.1657 80.575 47.1657 80.5836 47.1657 80.5893C47.1657 80.6122 47.1714 80.6323 47.1828 80.6494C47.1943 80.6666 47.2086 80.6809 47.2258 80.6952C47.2286 80.7038 47.2372 80.7095 47.2458 80.7152C47.2515 80.721 47.2601 80.7267 47.2687 80.7353C47.2687 80.7381 47.2715 80.7439 47.2773 80.7439L47.2858 80.7525H46.662C46.6706 80.7439 46.682 80.7381 46.6906 80.7296C46.6992 80.7238 46.7078 80.7181 46.7192 80.7095C46.7851 80.6552 46.8366 80.6036 46.8709 80.5493C46.9024 80.4978 46.9253 80.4491 46.9367 80.4033ZM47.4633 79.7251H48.0642L47.7637 78.9468L47.4633 79.7251ZM49.2432 80.4033V78.921C49.2432 78.8552 49.2375 78.8123 49.226 78.7865C49.2146 78.7608 49.2031 78.7407 49.186 78.7207C49.1745 78.7121 49.1631 78.7007 49.1516 78.6892C49.1402 78.6778 49.1287 78.6635 49.1144 78.6463H49.7383L49.7297 78.6549C49.7268 78.6577 49.7239 78.6577 49.7211 78.6606C49.7125 78.6692 49.7068 78.6749 49.6982 78.6778C49.6925 78.6835 49.6839 78.6892 49.6782 78.6978C49.6581 78.715 49.6381 78.7436 49.6181 78.7808C49.6009 78.8151 49.5894 78.8724 49.5894 78.9468V80.4777C49.6152 80.4806 49.641 80.4835 49.6638 80.4835C49.6867 80.4863 49.7125 80.4892 49.7354 80.492C49.7898 80.4978 49.8384 80.5035 49.8871 80.5092C49.9357 80.5149 49.9815 80.5178 50.0273 80.5178C50.1074 80.5178 50.1818 80.5092 50.2562 80.492C50.3277 80.4749 50.3993 80.4463 50.4737 80.4062C50.4937 80.3976 50.5166 80.3862 50.5338 80.3719C50.5538 80.3575 50.5767 80.3432 50.5967 80.3289L50.4165 80.7525H49.0915C49.1116 80.7353 49.1316 80.721 49.1459 80.7038C49.1631 80.6895 49.1774 80.6723 49.1888 80.658C49.2089 80.6265 49.2232 80.5951 49.2317 80.5636C49.2375 80.5321 49.2432 80.5035 49.2432 80.4777V80.4033ZM50.9287 80.08V78.8981C50.9287 78.8352 50.9172 78.7808 50.8943 78.7407C50.8715 78.7007 50.8428 78.6606 50.8056 78.6234H51.378C51.3579 78.6406 51.3408 78.6692 51.3236 78.7064C51.3064 78.7436 51.2921 78.7837 51.2864 78.8266C51.2835 78.838 51.2835 78.8495 51.2807 78.8609V78.8981V80.0313C51.2807 80.1944 51.315 80.3146 51.3837 80.3919C51.4552 80.4663 51.5353 80.5178 51.6212 80.5378C51.6441 80.5436 51.667 80.5493 51.6899 80.5521C51.7156 80.555 51.7357 80.555 51.7586 80.555C51.9331 80.555 52.0676 80.5149 52.1649 80.4348C52.2622 80.3547 52.3108 80.2545 52.3108 80.1286V78.9954C52.3108 78.8953 52.2965 78.818 52.2708 78.7608C52.2422 78.7064 52.205 78.6606 52.1563 78.6234H52.7601C52.7086 78.6721 52.6743 78.7264 52.66 78.7894C52.6428 78.8523 52.6342 78.921 52.6342 78.9954V80.452C52.6342 80.5292 52.6428 80.5893 52.6628 80.6408C52.68 80.6895 52.7229 80.7267 52.7859 80.7525H52.3108V80.555L52.2622 80.6036C52.245 80.6237 52.225 80.6408 52.2021 80.6609C52.1592 80.6952 52.0991 80.7267 52.0247 80.7553C51.9474 80.7839 51.8415 80.7982 51.7099 80.7982C51.4524 80.7982 51.2692 80.741 51.1519 80.6237C51.0374 80.5064 50.9687 80.3776 50.943 80.2345C50.9373 80.2087 50.9344 80.183 50.9315 80.1572C50.9287 80.1315 50.9287 80.1057 50.9287 80.08ZM53.1378 80.5035V78.9468C53.1378 78.8294 53.1264 78.755 53.1035 78.7207C53.0806 78.6864 53.0549 78.6606 53.0262 78.6434C53.0177 78.6406 53.0119 78.6349 53.0062 78.6349C53.0005 78.632 52.9948 78.6263 52.989 78.6234H53.693C53.9048 78.6234 54.0822 78.6635 54.2253 78.7436C54.3683 78.8266 54.4399 78.9582 54.4399 79.1471C54.4399 79.2873 54.3998 79.4046 54.3168 79.4962C54.2338 79.5878 54.1423 79.6536 54.0421 79.6937C54.0249 79.6994 54.0106 79.7051 53.9935 79.7108C53.9763 79.7165 53.9591 79.7194 53.9448 79.7251C53.9591 79.7394 53.9706 79.7566 53.9849 79.7766C53.9963 79.7938 54.0106 79.811 54.0249 79.8253C54.0622 79.8739 54.0994 79.9197 54.1366 79.9684C54.1709 80.0142 54.2081 80.0599 54.2424 80.1086C54.3483 80.2431 54.4571 80.3661 54.5658 80.4806C54.6745 80.5922 54.7919 80.6838 54.9206 80.7525H54.5744C54.5458 80.7525 54.52 80.7496 54.4943 80.7496C54.4685 80.7467 54.4456 80.741 54.4199 80.7296C54.3827 80.7181 54.3483 80.6981 54.3111 80.6723C54.2739 80.6437 54.2367 80.6036 54.1938 80.555L53.5385 79.6765C53.59 79.6565 53.6386 79.6393 53.6844 79.6193C53.7273 79.6021 53.7674 79.5849 53.8017 79.5706C53.9019 79.5248 53.9734 79.4762 54.0221 79.4275C54.0679 79.376 54.0908 79.3102 54.0908 79.2272V79.1757C54.0908 79.0727 54.0564 78.9926 53.9849 78.9353C53.9162 78.881 53.8161 78.8523 53.6873 78.8523C53.6644 78.8523 53.6444 78.8523 53.6186 78.8552C53.5957 78.8581 53.5728 78.8609 53.5499 78.8609C53.5385 78.8638 53.527 78.8666 53.5184 78.8666C53.5099 78.8695 53.4984 78.8695 53.4898 78.8724V80.4777C53.4898 80.5407 53.5013 80.5951 53.527 80.6437C53.5499 80.6895 53.5871 80.7267 53.6386 80.7525H52.989C53.0406 80.741 53.0749 80.7124 53.1006 80.6666C53.1264 80.6208 53.1378 80.5664 53.1378 80.5035ZM54.852 80.08V78.8981C54.852 78.8352 54.8405 78.7808 54.8176 78.7407C54.7947 78.7007 54.7661 78.6606 54.7289 78.6234H55.3012C55.2841 78.6406 55.264 78.6692 55.2469 78.7064C55.2297 78.7436 55.2182 78.7837 55.2097 78.8266C55.2097 78.838 55.2068 78.8495 55.2039 78.8609V78.8981V80.0313C55.2039 80.1944 55.2383 80.3146 55.3098 80.3919C55.3785 80.4663 55.4586 80.5178 55.5445 80.5378C55.5674 80.5436 55.5931 80.5493 55.616 80.5521C55.6389 80.555 55.6618 80.555 55.6818 80.555C55.8564 80.555 55.9909 80.5149 56.0882 80.4348C56.1855 80.3547 56.2341 80.2545 56.2341 80.1286V78.9954C56.2341 78.8953 56.2198 78.818 56.1941 78.7608C56.1683 78.7064 56.1282 78.6606 56.0796 78.6234H56.6863C56.6347 78.6721 56.6004 78.7264 56.5832 78.7894C56.5661 78.8523 56.5575 78.921 56.5575 78.9954V80.452C56.5575 80.5292 56.5689 80.5893 56.5861 80.6408C56.6061 80.6895 56.6462 80.7267 56.7091 80.7525H56.2341V80.555C56.2198 80.5693 56.2055 80.5865 56.1883 80.6036C56.1683 80.6237 56.1483 80.6408 56.1254 80.6609C56.0824 80.6952 56.0252 80.7267 55.948 80.7553C55.8707 80.7839 55.7677 80.7982 55.6332 80.7982C55.3785 80.7982 55.1925 80.741 55.078 80.6237C54.9607 80.5064 54.892 80.3776 54.8663 80.2345C54.8605 80.2087 54.8577 80.183 54.8548 80.1572C54.852 80.1315 54.852 80.1057 54.852 80.08Z" fill="#264288" style="fill:#264288;fill:color(display-p3 0.1490 0.2588 0.5333);fill-opacity:1;"/>
</g>
</g>
<defs>
<linearGradient id="paint0_linear_112_753" x1="1.07473" y1="63.9183" x2="57.9198" y2="63.9183" gradientUnits="userSpaceOnUse">
<stop stop-color="#B38A2A" style="stop-color:#B38A2A;stop-color:color(display-p3 0.7020 0.5412 0.1647);stop-opacity:1;"/>
<stop offset="0.00090336" stop-color="#B38A2A" style="stop-color:#B38A2A;stop-color:color(display-p3 0.7020 0.5412 0.1647);stop-opacity:1;"/>
<stop offset="0.5" stop-color="#D7BF58" style="stop-color:#D7BF58;stop-color:color(display-p3 0.8431 0.7490 0.3451);stop-opacity:1;"/>
<stop offset="0.502037" stop-color="#D7BF58" style="stop-color:#D7BF58;stop-color:color(display-p3 0.8431 0.7490 0.3451);stop-opacity:1;"/>
<stop offset="1" stop-color="#B38A2A" style="stop-color:#B38A2A;stop-color:color(display-p3 0.7020 0.5412 0.1647);stop-opacity:1;"/>
</linearGradient>
<linearGradient id="paint1_linear_112_753" x1="0.0701886" y1="27.8031" x2="53.8485" y2="27.8031" gradientUnits="userSpaceOnUse">
<stop stop-color="#B38A2A" style="stop-color:#B38A2A;stop-color:color(display-p3 0.7020 0.5412 0.1647);stop-opacity:1;"/>
<stop offset="0.00090336" stop-color="#B38A2A" style="stop-color:#B38A2A;stop-color:color(display-p3 0.7020 0.5412 0.1647);stop-opacity:1;"/>
<stop offset="0.5" stop-color="#D7BF58" style="stop-color:#D7BF58;stop-color:color(display-p3 0.8431 0.7490 0.3451);stop-opacity:1;"/>
<stop offset="0.502037" stop-color="#D7BF58" style="stop-color:#D7BF58;stop-color:color(display-p3 0.8431 0.7490 0.3451);stop-opacity:1;"/>
<stop offset="1" stop-color="#B38A2A" style="stop-color:#B38A2A;stop-color:color(display-p3 0.7020 0.5412 0.1647);stop-opacity:1;"/>
</linearGradient>
<linearGradient id="paint2_linear_112_753" x1="2.02789" y1="79.6056" x2="57.9198" y2="79.6056" gradientUnits="userSpaceOnUse">
<stop stop-color="#B38A2A" style="stop-color:#B38A2A;stop-color:color(display-p3 0.7020 0.5412 0.1647);stop-opacity:1;"/>
<stop offset="0.00090336" stop-color="#B38A2A" style="stop-color:#B38A2A;stop-color:color(display-p3 0.7020 0.5412 0.1647);stop-opacity:1;"/>
<stop offset="0.5" stop-color="#D7BF58" style="stop-color:#D7BF58;stop-color:color(display-p3 0.8431 0.7490 0.3451);stop-opacity:1;"/>
<stop offset="0.502037" stop-color="#D7BF58" style="stop-color:#D7BF58;stop-color:color(display-p3 0.8431 0.7490 0.3451);stop-opacity:1;"/>
<stop offset="1" stop-color="#B38A2A" style="stop-color:#B38A2A;stop-color:color(display-p3 0.7020 0.5412 0.1647);stop-opacity:1;"/>
</linearGradient>
<clipPath id="clip0_112_753">
<rect width="57.9921" height="82.45" fill="white" style="fill:white;fill-opacity:1;"/>
</clipPath>
</defs>
</svg>
