<svg width="36" height="36" viewBox="0 0 36 36" fill="none" xmlns="http://www.w3.org/2000/svg">
<path d="M14.7762 3.4104C14.899 3.51048 15.0124 3.60739 15.1165 3.7268C15.1165 3.77321 15.1165 3.81962 15.1165 3.86743C15.1616 3.83861 15.2066 3.80978 15.253 3.78009C15.9325 3.3568 16.4934 3.23341 17.2962 3.30493C17.8845 3.44523 18.3703 3.78128 18.7024 4.2893C18.7518 4.2458 18.8011 4.20229 18.8519 4.15747C19.2434 3.86804 19.6337 3.82443 20.1087 3.86743C20.1319 3.89063 20.1551 3.91384 20.179 3.93774C20.286 3.93545 20.393 3.93059 20.4998 3.92456C20.878 3.92294 21.1407 3.99117 21.4446 4.21899C21.6225 4.39652 21.7799 4.58553 21.9368 4.78149C22.0064 4.8511 22.0064 4.8511 22.0774 4.92212C22.1105 4.89755 22.1436 4.87299 22.1777 4.84768C22.2215 4.81569 22.2653 4.78369 22.3104 4.75073C22.3536 4.71892 22.3968 4.6871 22.4414 4.65432C22.8105 4.41328 23.2731 4.45934 23.6946 4.50024C24.2369 4.6555 24.6568 5.0131 24.9603 5.48462C25.0967 5.85811 25.1287 6.21236 25.1448 6.60522C25.1476 6.66001 25.1503 6.7148 25.1531 6.77125C25.1596 6.90485 25.1655 7.03848 25.1712 7.17212C25.2345 7.19898 25.2345 7.19898 25.2991 7.22638C26.4974 7.73762 27.6637 8.29883 28.8234 8.89172C29.0035 8.98264 29.185 9.06884 29.3677 9.15432C29.6063 9.28446 29.6859 9.3292 29.8118 9.56274C29.8456 9.77655 29.8467 9.98912 29.8487 10.2053C29.8501 10.2704 29.8515 10.3355 29.8529 10.4026C29.8573 10.6192 29.8603 10.8357 29.8632 11.0522C29.866 11.2048 29.8688 11.3574 29.8717 11.51C29.8792 11.9141 29.8855 12.3183 29.8915 12.7224C29.8965 13.0442 29.9024 13.3659 29.9084 13.6877C29.9358 15.1719 29.9575 16.6561 29.9593 18.1406C29.9594 18.1928 29.9596 18.245 29.9597 18.2987C29.9654 21.2609 29.3024 24.1455 27.2122 26.357C27.083 26.4939 26.9646 26.635 26.8455 26.7805C26.1386 27.5839 25.2359 28.1802 24.3594 28.78C24.1009 28.9577 23.845 29.1391 23.5892 29.3206C23.0968 29.6688 22.6028 30.0148 22.1085 30.3604C21.7342 30.6222 21.3606 30.885 20.9876 31.1487C20.3775 31.58 19.7665 32.01 19.1526 32.4359C19.034 32.5195 18.9167 32.6047 18.8002 32.6913C18.7396 32.7357 18.6789 32.7802 18.6165 32.826C18.5622 32.8666 18.5079 32.9073 18.4519 32.9491C18.2474 33.0661 18.0937 33.1038 17.8587 33.1174C17.6988 33.0611 17.6988 33.0611 17.5511 32.9705C17.4969 32.9376 17.4427 32.9047 17.3868 32.8708C17.1415 32.7108 16.9008 32.5463 16.6634 32.3748C16.5587 32.2999 16.4539 32.2251 16.3492 32.1504C16.2963 32.1125 16.2435 32.0746 16.1891 32.0355C15.9379 31.8558 15.6854 31.6781 15.4329 31.5002C15.3332 31.4298 15.2335 31.3594 15.1338 31.289C14.9356 31.1491 14.7373 31.0094 14.5389 30.8699C13.9773 30.4747 13.4187 30.0757 12.863 29.6722C12.523 29.4259 12.1799 29.1845 11.8348 28.9453C8.99695 26.9767 6.90476 24.6289 6.22006 21.1408C6.06378 20.2596 6.03813 19.3745 6.04126 18.4814C6.04142 18.3914 6.04159 18.3013 6.04176 18.2086C6.04464 17.0679 6.05831 15.9272 6.07238 14.7867C6.07547 14.5354 6.0784 14.2841 6.08117 14.0328C6.08916 13.3094 6.09869 12.5861 6.11103 11.8628C6.11473 11.646 6.11791 11.4291 6.12062 11.2123C6.1243 10.9247 6.13026 10.6372 6.13656 10.3496C6.1374 10.2658 6.13824 10.182 6.13911 10.0956C6.14118 10.0194 6.14324 9.94323 6.14537 9.86475C6.14659 9.79911 6.14781 9.73348 6.14907 9.66586C6.19832 9.43965 6.29177 9.35688 6.46807 9.21118C6.61166 9.12968 6.75863 9.054 6.90753 8.98266C6.99634 8.93956 7.08515 8.89644 7.17395 8.8533C7.21992 8.83119 7.2659 8.80909 7.31327 8.78632C7.53955 8.67686 7.76395 8.56372 7.98858 8.45092C8.08196 8.40432 8.17535 8.35772 8.26873 8.31112C8.49838 8.19636 8.72749 8.08058 8.95648 7.96451C9.05251 7.91601 9.05251 7.91601 9.15049 7.86654C9.2766 7.80285 9.40261 7.73894 9.52849 7.67479C9.58571 7.64595 9.64294 7.61711 9.7019 7.5874C9.75292 7.56152 9.80394 7.53565 9.8565 7.50898C9.9837 7.45337 9.9837 7.45337 10.1243 7.45337C10.1185 7.38376 10.1127 7.31415 10.1067 7.24243C10.1094 6.91421 10.2144 6.66366 10.4056 6.39868C10.5525 6.26799 10.7012 6.14914 10.8618 6.03558C10.9916 5.90867 10.9916 5.90867 10.9505 5.70846C10.9244 5.59766 10.9244 5.59766 10.8978 5.48462C10.8409 4.74193 10.9327 4.23143 11.3943 3.64331C12.303 2.66201 13.7253 2.65888 14.7762 3.4104ZM12.3875 4.23217C12.0057 4.72304 11.9049 5.14621 11.8821 5.76587C12.7741 5.78 13.6632 5.73683 14.554 5.69555C14.5528 5.64355 14.5516 5.59154 14.5503 5.53795C14.5494 5.46914 14.5484 5.40033 14.5474 5.32943C14.5456 5.22749 14.5456 5.22749 14.5437 5.12349C14.5585 4.83429 14.6461 4.62205 14.7649 4.35962C13.9633 3.90921 13.1847 3.61217 12.3875 4.23217ZM19.8917 4.13357C19.3993 4.40838 19.0677 4.68326 18.8782 5.2399C18.7965 5.64549 18.7432 6.17366 18.9139 6.55826C19.0246 6.86276 19.0011 7.16739 18.9969 7.48852C18.9968 7.55442 18.9968 7.62031 18.9967 7.6882C18.9948 7.99696 18.9753 8.27558 18.9134 8.57837C18.8957 8.7965 18.894 9.01437 18.8914 9.23315C18.8894 9.29057 18.8873 9.34799 18.8852 9.40715C18.881 9.81821 18.9548 10.1371 19.1946 10.4768C19.5649 10.7715 19.8485 10.8603 20.3196 10.8284C20.6894 10.6952 20.8674 10.5051 21.0931 10.1956C21.1681 9.97059 21.1758 9.80071 21.1812 9.56408C21.1833 9.47745 21.1853 9.39083 21.1875 9.30157C21.1894 9.20681 21.1912 9.11204 21.1931 9.01727C21.194 8.96938 21.195 8.92149 21.196 8.87216C21.2012 8.61841 21.2059 8.36466 21.2103 8.1109C21.2149 7.85012 21.2209 7.58939 21.2272 7.32865C21.2318 7.12706 21.2354 6.92546 21.2387 6.72384C21.2405 6.6278 21.2426 6.53177 21.2451 6.43575C21.2615 5.79629 21.2631 5.20561 20.8514 4.68481C20.703 4.53286 20.57 4.40104 20.3899 4.2893C20.3435 4.2893 20.2971 4.2893 20.2493 4.2893C20.2493 4.2429 20.2493 4.19649 20.2493 4.14868C20.0483 4.05705 20.0483 4.05705 19.8917 4.13357ZM15.4681 4.94848C15.3049 5.19198 15.2739 5.39062 15.1868 5.69555C16.115 5.69555 17.0431 5.69555 17.9993 5.69555C18.1035 5.36674 18.1035 5.36674 17.9837 5.18112C17.6126 4.72818 17.3042 4.39746 16.6941 4.33325C16.2175 4.34116 15.7581 4.56948 15.4681 4.94848ZM22.2884 5.62524C22.1911 5.8198 22.2075 5.97919 22.2056 6.19691C22.2047 6.28749 22.2038 6.37807 22.2029 6.4714C22.2023 6.57076 22.2018 6.67011 22.2013 6.76947C22.201 6.81941 22.2007 6.86935 22.2005 6.92081C22.199 7.1851 22.198 7.44938 22.1973 7.71367C22.1965 7.98669 22.1941 8.25968 22.1913 8.53268C22.1895 8.7426 22.1889 8.9525 22.1887 9.16242C22.1883 9.26306 22.1875 9.3637 22.1862 9.46434C22.1845 9.6052 22.1847 9.74607 22.185 9.88694C22.1846 9.96708 22.1842 10.0472 22.1838 10.1298C22.2258 10.3826 22.2987 10.4628 22.4993 10.6174C22.8654 10.7395 23.2129 10.7344 23.576 10.6042C23.8143 10.4435 23.9971 10.2759 24.0881 9.99672C24.1212 9.81865 24.1265 9.6514 24.1278 9.47022C24.1285 9.39558 24.1292 9.32095 24.1299 9.24405C24.1302 9.16378 24.1305 9.0835 24.1308 9.00079C24.1314 8.87647 24.1314 8.87647 24.132 8.74965C24.1327 8.57435 24.1331 8.39905 24.1334 8.22375C24.1341 7.95586 24.1363 7.68801 24.1385 7.42013C24.1389 7.24975 24.1393 7.07937 24.1396 6.90899C24.1405 6.829 24.1413 6.74901 24.1422 6.66659C24.1414 6.11582 24.1414 6.11582 23.9056 5.62524C23.5859 5.38231 23.3381 5.2981 22.9366 5.31598C22.675 5.36295 22.5047 5.472 22.2884 5.62524ZM11.179 7.17212C11.157 7.32508 11.157 7.32508 11.1597 7.50363C11.159 7.57273 11.1584 7.64184 11.1577 7.71304C11.1577 7.78832 11.1578 7.8636 11.1579 7.94116C11.1576 8.01911 11.1573 8.09707 11.157 8.17738C11.1565 8.34336 11.1565 8.50934 11.1568 8.67532C11.157 8.92501 11.1554 9.17463 11.1536 9.42431C11.148 11.4292 11.5148 13.1697 12.5897 14.8757C13.7931 16.7989 13.9624 18.9426 13.952 21.1643C13.9518 21.2549 13.9517 21.3455 13.9516 21.4388C13.9466 23.6605 13.811 25.8817 13.5248 28.0855C13.4992 28.3375 13.4826 28.5755 13.4993 28.8284C13.6439 28.9761 13.7598 29.0698 13.93 29.1799C14.0001 29.2282 14.0001 29.2282 14.0716 29.2775C14.1753 29.3487 14.2796 29.4191 14.3843 29.4888C14.5612 29.6066 14.7365 29.7263 14.9116 29.8465C15.1696 30.0234 15.4282 30.1993 15.6873 30.3747C16.1942 30.7187 16.6959 31.0702 17.1969 31.4227C17.261 31.4676 17.3252 31.5125 17.3912 31.5587C17.4477 31.5984 17.5041 31.6381 17.5622 31.679C17.7043 31.7724 17.8455 31.85 17.9993 31.9221C18.0717 31.871 18.1442 31.8199 18.2188 31.7672C18.2665 31.7335 18.3143 31.6998 18.3635 31.6651C18.471 31.5892 18.5784 31.5133 18.6859 31.4375C18.9556 31.247 19.2255 31.0566 19.4957 30.8666C20.7257 30.0012 20.7257 30.0012 21.9368 29.1096C21.8854 28.8051 21.791 28.5202 21.6899 28.2293C21.6538 28.1239 21.6177 28.0184 21.5817 27.913C21.5629 27.858 21.5441 27.803 21.5247 27.7464C21.1642 26.6886 20.8279 25.6349 20.6009 24.5393C20.5841 24.4606 20.5674 24.3819 20.5501 24.3009C20.1899 22.564 20.0039 20.653 20.4603 18.9143C20.4798 18.8313 20.4994 18.7483 20.5196 18.6627C20.758 17.7627 21.2758 17.3034 21.9918 16.7503C23.1563 15.8359 23.4471 14.4195 23.7244 13.0345C23.7569 12.8727 23.7905 12.7112 23.8243 12.5496C23.8454 12.4463 23.8665 12.3429 23.8874 12.2396C23.8975 12.1915 23.9075 12.1435 23.9178 12.094C23.9762 11.8419 23.9762 11.8419 23.9056 11.6018C23.8668 11.613 23.828 11.6243 23.788 11.6359C23.2852 11.7472 22.7395 11.7226 22.2884 11.4612C22.0862 11.2766 22.0862 11.2766 21.9368 11.1096C21.8904 11.0864 21.844 11.0632 21.7962 11.0393C21.7469 11.0915 21.6976 11.1437 21.6468 11.1975C21.1171 11.7041 20.618 11.8441 19.8978 11.8306C19.3791 11.7867 18.8885 11.5966 18.5283 11.2088C18.4431 11.1076 18.3615 11.0034 18.2806 10.8987C18.2311 10.9318 18.1816 10.9648 18.1306 10.9989C17.5723 11.351 17.1071 11.5001 16.4524 11.6018C16.5482 11.8581 16.6652 12.0987 16.7912 12.3414C17.4458 13.6071 17.7726 14.9006 17.4368 16.3127C17.3694 16.524 17.3064 16.711 17.1556 16.8752C16.9925 16.9479 16.8285 17.0184 16.6634 17.0862C16.661 17.0215 16.6585 16.9568 16.6561 16.8902C16.5876 15.1905 16.4565 13.6368 15.679 12.094C15.6555 12.047 15.6319 12 15.6077 11.9516C15.2952 11.3322 15.2952 11.3322 14.9144 10.7537C14.6184 10.3446 14.5313 9.85298 14.554 9.3518C14.6902 9.17163 14.6902 9.17163 14.8353 9.07055C14.8353 9.02415 14.8353 8.97774 14.8353 8.92993C14.9262 8.92222 15.0171 8.91452 15.1107 8.90658C16.12 8.81654 17.0659 8.73188 17.929 8.15649C17.9593 8.02198 17.9593 8.02198 17.9521 7.86837C17.9515 7.78388 17.9515 7.78388 17.951 7.69767C17.9495 7.63881 17.9481 7.57994 17.9466 7.51928C17.946 7.43057 17.946 7.43057 17.9455 7.34007C17.9691 7.05778 17.9691 7.05778 17.8587 6.82055C17.668 6.81274 17.4791 6.80949 17.2883 6.80922C17.1986 6.8087 17.1986 6.8087 17.1071 6.80817C16.9083 6.80714 16.7095 6.80666 16.5107 6.80627C16.3729 6.80587 16.2351 6.80546 16.0973 6.80506C15.8079 6.80432 15.5185 6.80391 15.2291 6.80366C14.8583 6.80328 14.4875 6.80159 14.1167 6.79959C13.8319 6.79828 13.547 6.79791 13.2622 6.7978C13.1255 6.79759 12.9888 6.79703 12.8521 6.7961C12.6607 6.7949 12.4694 6.79503 12.278 6.79549C12.2215 6.79484 12.165 6.7942 12.1068 6.79353C11.6949 6.7966 11.4676 6.88351 11.179 7.17212ZM25.1712 7.52368C25.1723 7.62734 25.1723 7.62734 25.1734 7.73309C25.176 7.99216 25.1776 8.25122 25.1789 8.5103C25.1796 8.62193 25.1806 8.73356 25.1818 8.84518C25.1981 10.371 25.1981 10.371 24.8196 10.8943C24.7834 10.9457 24.7471 10.9971 24.7098 11.05C24.6087 11.1799 24.6087 11.1799 24.4681 11.3206C24.4613 11.5072 24.4622 11.688 24.4681 11.8743C24.4933 13.6595 24.2657 15.775 22.9723 17.1106C22.8309 17.2481 22.6889 17.3794 22.5408 17.5092C21.8766 18.0729 21.8766 18.0729 21.5149 18.844C21.4954 18.9233 21.4758 19.0026 21.4556 19.0843C20.9271 21.4064 21.4781 23.6746 21.9637 25.9562C22.1555 26.8632 22.3106 27.7682 22.429 28.6877C22.7436 28.5696 22.9928 28.4057 23.2596 28.2043C23.3283 28.1531 23.3283 28.1531 23.3984 28.1008C23.4953 28.0284 23.5921 27.9559 23.6888 27.8833C23.8309 27.7769 23.974 27.6719 24.1173 27.5671C26.5393 25.7898 28.2039 23.6732 28.7214 20.6468C28.8162 19.9677 28.8411 19.3014 28.8472 18.6166C28.8485 18.503 28.8498 18.3893 28.8511 18.2757C28.8538 18.034 28.8564 17.7923 28.8588 17.5505C28.8645 16.9805 28.8711 16.4105 28.8777 15.8405C28.8799 15.6476 28.8821 15.4546 28.8843 15.2617C28.898 14.0534 28.9168 12.8452 28.9373 11.637C28.9389 11.5443 28.9404 11.4516 28.9421 11.3561C28.9506 10.8521 28.9592 10.348 28.9681 9.84399C28.9206 9.81634 28.8731 9.78868 28.8241 9.76018C28.6052 9.63271 28.3863 9.50516 28.1674 9.37762C28.0927 9.33413 28.018 9.29064 27.9411 9.24584C26.1062 8.17633 26.1062 8.17633 25.3731 7.61953C25.2592 7.51678 25.2592 7.51678 25.1712 7.52368ZM9.77056 7.9678C9.67963 8.02161 9.67963 8.02161 9.58685 8.07651C9.52059 8.11596 9.45432 8.1554 9.38604 8.19604C9.31824 8.23626 9.25043 8.27647 9.18056 8.3179C8.36839 8.80021 7.55872 9.28672 6.74932 9.77368C6.75399 9.85705 6.75866 9.94042 6.76347 10.0263C6.82288 11.16 6.83801 12.2935 6.85095 13.4284C6.85739 13.9908 6.8651 14.5531 6.87265 15.1155C6.87338 15.1708 6.87412 15.2262 6.87488 15.2832C6.80445 19.4583 6.80445 19.4583 7.94464 23.4143C7.98298 23.493 8.02132 23.5717 8.06082 23.6527C8.54515 24.5963 9.17667 25.3988 9.91339 26.1565C9.95146 26.1962 9.98953 26.2358 10.0288 26.2767C10.3025 26.5574 10.5865 26.8032 10.9022 27.0354C10.9488 27.0701 10.9955 27.1048 11.0436 27.1405C12.0437 28.0162 12.0437 28.0162 13.1478 28.5471C13.1511 27.4621 13.1535 26.3771 13.155 25.2921C13.1558 24.7882 13.1567 24.2843 13.1584 23.7803C13.1598 23.3404 13.1607 22.9004 13.161 22.4605C13.1612 22.2282 13.1617 21.9959 13.1626 21.7636C13.1724 19.2921 12.942 17.262 11.6605 15.1276C11.1019 14.1968 10.645 13.299 10.4056 12.2346C10.3944 12.1854 10.3833 12.1363 10.3718 12.0856C10.0774 10.6923 10.1421 9.22242 10.1243 7.80493C9.9928 7.80493 9.88055 7.90257 9.77056 7.9678ZM17.4366 9.51502C16.7848 9.69033 16.1392 9.78087 15.4681 9.84399C15.5165 10.2095 15.604 10.4466 15.8899 10.6877C16.2803 10.9194 16.7117 10.9598 17.1556 10.8987C17.4715 10.8077 17.7755 10.6942 18.0696 10.5471C18.0232 10.1759 17.9768 9.80462 17.929 9.42212C17.7552 9.42212 17.6034 9.46982 17.4366 9.51502Z" fill="#E6F1F5" style="fill:#E6F1F5;fill:color(display-p3 0.9020 0.9451 0.9608);fill-opacity:1;"/>
</svg>
